<svg width="175" height="157" viewBox="0 0 175 157" fill="none" xmlns="http://www.w3.org/2000/svg">
<path d="M57.4976 1.11298C18.3676 5.01298 7.81764 32.343 22.0676 42.283C36.3276 52.223 1.32764 50.063 0.0376403 76.413C-1.26236 102.763 31.5776 103.203 26.3876 110.973C21.2076 118.753 17.7476 129.283 32.4376 137.843C47.1276 146.403 89.0276 141.143 97.2376 144.423C105.448 147.693 100.688 156.153 101.558 156.773C102.428 157.393 112.958 150.143 116.088 147.533C119.218 144.923 128.308 146.013 142.628 142.633C155.378 139.623 165.888 119.623 151.668 116.593C174.138 114.863 188.218 55.683 156.118 48.333C179.538 24.423 149.508 4.40299 130.068 2.24299C110.628 0.0829887 78.1776 -0.937016 57.4876 1.11298H57.4976Z" fill="white"/>
</svg>
