<?xml version="1.0" encoding="UTF-8"?>
<svg id="_レイヤー_1" data-name="レイヤー_1" xmlns="http://www.w3.org/2000/svg" viewBox="0 0 646.3 193.56">
  <defs>
    <style>
      .cls-1 {
        fill: #dced22;
      }
    </style>
  </defs>
  <path class="cls-1" d="M541.32,21.62c-57.98,0-104.31,67.24-106.26,70.1-2.07,3.05-2.07,7.06,0,10.11,1.94,2.86,48.28,70.1,106.26,70.1,37.11,0,67.8-28.95,72.11-66.16h23.87c4.97,0,9-4.03,9-9s-4.03-9-9-9h-23.87c-4.31-37.21-35-66.16-72.11-66.16ZM595.28,87.78h-24.56l-17.3-17.3c-3.51-3.51-9.21-3.51-12.73,0-3.51,3.51-3.51,9.21,0,12.73l13.57,13.57-13.57,13.57c-3.51,3.52-3.51,9.21,0,12.73,3.51,3.51,9.21,3.51,12.73,0l17.3-17.3h24.56c-4.14,27.26-26.76,48.16-53.97,48.16-40.13,0-76.22-42.32-87.63-57.16,11.42-14.84,47.5-57.16,87.63-57.16,27.21,0,49.83,20.9,53.97,48.16Z"/>
</svg>