<?xml version="1.0" encoding="UTF-8" standalone="no" ?>
<!DOCTYPE svg PUBLIC "-//W3C//DTD SVG 1.1//EN" "http://www.w3.org/Graphics/SVG/1.1/DTD/svg11.dtd">
<svg xmlns="http://www.w3.org/2000/svg" xmlns:xlink="http://www.w3.org/1999/xlink" version="1.1" width="800" height="1080" viewBox="0 0 800 1080" xml:space="preserve">
<desc>Created with Fabric.js 5.2.4</desc>
<defs>
</defs>
<rect x="0" y="0" width="100%" height="100%" fill="transparent"></rect>
<g transform="matrix(1 0 0 1 400 540)" id="249ce26a-dba4-4c87-a412-8662cd3dd34a"  >
<rect style="stroke: none; stroke-width: 1; stroke-dasharray: none; stroke-linecap: butt; stroke-dashoffset: 0; stroke-linejoin: miter; stroke-miterlimit: 4; fill: rgb(255,255,255); fill-rule: nonzero; opacity: 1; visibility: hidden;" vector-effect="non-scaling-stroke"  x="-400" y="-540" rx="0" ry="0" width="800" height="1080" />
</g>
<g transform="matrix(Infinity NaN NaN Infinity 0 0)" id="59c14d97-1c70-484e-8944-6466aa8f9e69"  >
</g>
<g transform="matrix(1.52 0 0 1.52 397 536)"  >
<g style="" vector-effect="non-scaling-stroke"   >
		<g transform="matrix(1 0 0 1 0 51.86)"  >
<path style="stroke: none; stroke-width: 1; stroke-dasharray: none; stroke-linecap: butt; stroke-dashoffset: 0; stroke-linejoin: miter; stroke-miterlimit: 4; fill: rgb(255,255,255); fill-rule: nonzero; opacity: 1;" vector-effect="non-scaling-stroke"  transform=" translate(-273.17, -397.43)" d="M 516 555.4 C 490.5 553.8 463.3 559.5 437.5 558.6 C 439.1 552.4 440.5 545.9 440.7 539.5 C 441 528.1 436.4 515.4 436.3 505.1 C 436.3 498.1 438.40000000000003 490.40000000000003 438.6 483.3 C 438.8 477.5 437.3 471 437.5 465.2 C 438.1 446.9 442.4 428.3 436.3 410.7 C 457.1 418.7 500.70000000000005 456.3 515.6 422.9 C 519.9 413.29999999999995 516.8000000000001 409.4 516.7 400.2 C 516.2 355.8 508.6 315.4 492.1 273.9 C 485.40000000000003 257.2 470.6 224.49999999999997 456.1 214.39999999999998 C 448 208.7 419.20000000000005 194.89999999999998 409.70000000000005 191.59999999999997 C 407.90000000000003 190.99999999999997 404.90000000000003 190.29999999999995 403.1 191.09999999999997 C 421.8 205.89999999999998 449.6 211.69999999999996 463.90000000000003 231.79999999999995 C 484.40000000000003 260.79999999999995 498.1 303.59999999999997 505.40000000000003 338.09999999999997 C 506.90000000000003 344.99999999999994 508.8 354.79999999999995 509.1 361.7 C 509.1 362.8 509.8 365.4 507.90000000000003 365 C 505.6 352.2 502.90000000000003 339.2 499.6 326.6 C 491.20000000000005 293.8 480.70000000000005 259.5 459.1 232.8 C 447.90000000000003 219 427.90000000000003 212 412.6 203.5 C 404.20000000000005 198.8 392.8 185.9 384.6 197.6 C 383 199.9 382.70000000000005 202.9 381.20000000000005 205.2 C 373.6 217.1 364.80000000000007 226.2 355.70000000000005 236.89999999999998 L 353.70000000000005 235.99999999999997 C 352.6 228.89999999999998 349.70000000000005 221.89999999999998 344.30000000000007 217.09999999999997 C 344.30000000000007 216.49999999999997 348.1000000000001 214.99999999999997 349.1000000000001 214.79999999999995 C 375.30000000000007 208.39999999999995 409.7000000000001 175.89999999999995 417.5000000000001 149.49999999999994 C 418.0000000000001 147.79999999999995 419.5000000000001 147.59999999999994 417.3000000000001 145.69999999999993 C 415.60000000000014 145.19999999999993 414.60000000000014 147.29999999999993 413.8000000000001 148.39999999999992 C 409.10000000000014 154.89999999999992 405.7000000000001 163.99999999999991 401.2000000000001 170.5999999999999 C 395.5000000000001 178.7999999999999 370.4000000000001 199.89999999999992 361.5000000000001 205.2999999999999 C 344.10000000000014 215.7999999999999 321.3000000000001 191.6999999999999 314.60000000000014 177.1999999999999 C 311.70000000000016 170.7999999999999 307.3000000000001 152.0999999999999 307.10000000000014 145.2999999999999 C 307.0000000000001 140.1999999999999 308.90000000000015 133.8999999999999 309.0000000000001 128.5999999999999 L 307.60000000000014 126.8999999999999 L 305.90000000000015 128.2999999999999 L 304.00000000000017 144.9999999999999 C 302.90000000000015 155.09999999999988 300.00000000000017 151.59999999999988 293.6000000000002 153.3999999999999 C 293.1000000000002 153.4999999999999 284.7000000000002 158.4999999999999 284.00000000000017 159.09999999999988 C 278.3000000000002 163.79999999999987 277.8000000000002 169.3999999999999 278.20000000000016 176.19999999999987 L 232.00000000000017 196.09999999999988 C 228.90000000000018 200.3999999999999 230.00000000000017 195.79999999999987 225.50000000000017 195.69999999999987 C 225.00000000000017 197.29999999999987 225.40000000000018 198.09999999999988 226.10000000000016 199.4999999999999 C 229.10000000000016 205.3999999999999 238.70000000000016 213.9999999999999 242.80000000000015 220.2999999999999 C 243.60000000000016 221.5999999999999 245.10000000000016 222.2999999999999 244.50000000000014 224.1999999999999 C 239.80000000000015 227.5999999999999 215.50000000000014 201.3999999999999 207.80000000000013 203.6999999999999 C 213.80000000000013 210.3999999999999 221.10000000000014 215.99999999999991 228.0000000000001 221.6999999999999 C 233.30000000000013 226.0999999999999 237.1000000000001 226.1999999999999 240.2000000000001 232.8999999999999 C 241.1000000000001 234.8999999999999 244.4000000000001 241.59999999999988 241.4000000000001 242.8999999999999 C 241.7000000000001 239.2999999999999 239.00000000000009 233.09999999999988 235.3000000000001 231.6999999999999 C 235.9000000000001 236.5999999999999 238.4000000000001 243.49999999999991 237.7000000000001 248.2999999999999 C 237.0000000000001 252.9999999999999 232.7000000000001 257.1999999999999 231.9000000000001 261.8999999999999 C 233.4000000000001 263.99999999999994 239.8000000000001 255.29999999999993 240.4000000000001 254.0999999999999 L 243.10000000000008 244.99999999999991 C 242.10000000000008 248.89999999999992 243.20000000000007 253.99999999999991 242.80000000000007 257.2999999999999 C 242.40000000000006 259.9999999999999 240.20000000000007 261.4999999999999 240.20000000000007 265.0999999999999 C 240.20000000000007 274.8999999999999 254.20000000000007 288.3999999999999 263.50000000000006 290.69999999999993 C 264.20000000000005 288.5999999999999 262.6000000000001 288.19999999999993 261.50000000000006 287.0999999999999 C 256.70000000000005 282.2999999999999 233.20000000000005 264.7999999999999 249.90000000000006 261.19999999999993 C 256.20000000000005 259.79999999999995 260.6000000000001 261.49999999999994 266.70000000000005 262.5999999999999 L 266.1 258.2999999999999 L 270.40000000000003 257.6999999999999 C 267.8 263.39999999999986 262.70000000000005 267.9999999999999 263.20000000000005 274.7999999999999 C 267.90000000000003 272.9999999999999 269.50000000000006 267.7999999999999 272.40000000000003 264.1999999999999 C 273.1 264.1999999999999 282.8 270.1999999999999 284.00000000000006 271.09999999999985 C 285.00000000000006 271.79999999999984 285.80000000000007 271.99999999999983 285.40000000000003 273.59999999999985 C 285.20000000000005 274.49999999999983 276.50000000000006 284.29999999999984 275.00000000000006 284.49999999999983 C 269.90000000000003 285.29999999999984 268.30000000000007 277.6999999999998 263.50000000000006 280.6999999999998 C 270.30000000000007 290.1999999999998 277.70000000000005 291.49999999999983 286.00000000000006 282.79999999999984 C 295.6000000000001 292.89999999999986 292.70000000000005 303.79999999999984 277.50000000000006 297.59999999999985 L 277.80000000000007 300.79999999999984 L 292.6000000000001 303.99999999999983 C 287.4000000000001 309.29999999999984 280.1000000000001 306.49999999999983 274.1000000000001 309.29999999999984 C 278.6000000000001 312.6999999999998 283.1000000000001 312.89999999999986 288.50000000000006 312.49999999999983 C 290.90000000000003 315.6999999999998 277.00000000000006 331.6999999999998 275.30000000000007 335.6999999999998 C 273.20000000000005 340.79999999999984 273.6000000000001 345.5999999999998 271.20000000000005 350.79999999999984 C 267.1 359.89999999999986 258.40000000000003 364.09999999999985 263.20000000000005 377.09999999999985 L 265.40000000000003 376.29999999999984 L 266.8 382.79999999999984 L 256.7 378.49999999999983 C 257.7 385.8999999999998 265.9 387.49999999999983 272.09999999999997 387.6999999999998 C 297.9 388.5999999999998 304.9 333.0999999999998 338.4 356.6999999999998 C 339 357.0999999999998 342.29999999999995 358.1999999999998 340.09999999999997 359.49999999999983 C 338.9 360.29999999999984 333.09999999999997 355.79999999999984 330.59999999999997 355.1999999999998 C 300.7 347.8999999999998 302.99999999999994 382.3999999999998 284.59999999999997 392.6999999999998 C 277.29999999999995 396.79999999999984 267.7 396.5999999999998 259.7 394.5999999999998 C 254.2 393.1999999999998 251.2 388.7999999999998 246.2 386.7999999999998 C 249.5 393.8999999999998 233.6 393.8999999999998 229.1 393.3999999999998 C 207.79999999999998 391.0999999999998 164.5 361.5999999999998 160.5 339.7999999999998 C 159.5 334.4999999999998 166.2 320.8999999999998 170.7 317.4999999999998 C 173.29999999999998 315.4999999999998 175.89999999999998 315.7999999999998 178.5 314.19999999999976 C 181.9 312.09999999999974 184.7 307.09999999999974 187.9 304.59999999999974 C 197.3 297.4999999999997 207.20000000000002 290.9999999999997 215.8 282.4999999999997 C 220.70000000000002 277.59999999999974 223.8 270.8999999999997 230.20000000000002 267.2999999999997 C 230.9 265.1999999999997 229.4 265.39999999999975 227.8 265.4999999999997 C 220.60000000000002 265.8999999999997 216.20000000000002 276.8999999999997 210.20000000000002 280.2999999999997 C 206.8 281.2999999999997 210.3 275.1999999999997 211.00000000000003 274.1999999999997 C 219.40000000000003 262.2999999999997 241.20000000000002 252.5999999999997 231.50000000000003 234.8999999999997 C 225.10000000000002 223.09999999999968 212.00000000000003 230.1999999999997 210.50000000000003 216.9999999999997 C 211.00000000000003 216.59999999999968 216.20000000000002 218.59999999999968 217.00000000000003 215.59999999999968 C 210.00000000000003 212.8999999999997 206.60000000000002 212.59999999999968 204.00000000000003 204.59999999999968 C 201.40000000000003 206.09999999999968 202.90000000000003 206.19999999999968 203.30000000000004 207.9999999999997 C 205.20000000000005 216.3999999999997 210.40000000000003 225.8999999999997 213.00000000000003 234.3999999999997 C 213.50000000000003 235.9999999999997 217.10000000000002 246.1999999999997 212.40000000000003 243.3999999999997 C 211.80000000000004 243.09999999999968 205.60000000000002 233.7999999999997 204.80000000000004 232.3999999999997 C 199.70000000000005 223.4999999999997 197.20000000000005 212.09999999999968 191.00000000000003 204.09999999999968 C 191.80000000000004 207.59999999999968 190.80000000000004 211.29999999999967 191.30000000000004 214.69999999999968 C 191.80000000000004 218.39999999999966 201.90000000000003 236.09999999999968 200.90000000000003 236.89999999999966 C 197.30000000000004 236.29999999999967 197.00000000000003 233.19999999999968 194.90000000000003 231.69999999999968 C 192.50000000000003 229.89999999999966 188.90000000000003 229.4999999999997 186.20000000000005 227.19999999999968 C 181.20000000000005 223.09999999999968 177.50000000000006 212.29999999999967 171.40000000000003 208.19999999999968 C 170.90000000000003 213.89999999999966 174.10000000000002 220.29999999999967 176.90000000000003 225.19999999999968 C 178.50000000000003 227.9999999999997 182.20000000000005 229.89999999999966 181.20000000000005 233.59999999999968 C 165.50000000000006 237.09999999999968 163.00000000000006 223.59999999999968 156.70000000000005 212.79999999999967 C 156.00000000000006 211.49999999999966 157.00000000000006 210.19999999999968 154.20000000000005 210.49999999999966 C 155.00000000000006 220.19999999999965 158.20000000000005 231.39999999999966 165.90000000000003 237.69999999999965 C 160.90000000000003 244.79999999999964 156.50000000000003 243.59999999999965 151.10000000000002 238.09999999999965 C 143.8 230.69999999999965 137.20000000000002 217.49999999999966 142.70000000000002 207.29999999999964 C 143.60000000000002 205.59999999999965 154.8 193.49999999999963 156.9 191.69999999999965 C 160.5 188.49999999999966 164.20000000000002 187.59999999999965 167.70000000000002 184.99999999999966 C 170.8 182.79999999999967 177.20000000000002 175.89999999999966 180.10000000000002 175.59999999999965 C 190.3 177.19999999999965 199.10000000000002 172.59999999999965 207.70000000000002 179.69999999999965 C 213.4 184.29999999999964 213.00000000000003 189.99999999999966 222.4 190.69999999999965 C 232.6 191.49999999999966 242.9 187.59999999999965 252.4 184.29999999999964 C 254.4 183.59999999999965 275.4 175.89999999999964 274.4 174.49999999999963 L 271 173.29999999999964 C 258.2 176.29999999999964 236.7 186.49999999999963 223.9 185.49999999999963 C 214.6 184.79999999999964 215.3 178.99999999999963 209.3 174.59999999999962 C 200.9 168.49999999999963 199.3 171.39999999999964 190.9 171.19999999999962 C 187.5 171.19999999999962 183.9 169.99999999999963 180.5 170.09999999999962 C 174 170.2999999999996 171.9 175.2999999999996 167.3 178.59999999999962 C 158.8 184.69999999999962 153 188.49999999999963 145.8 196.7999999999996 C 143.9 198.9999999999996 140.70000000000002 205.59999999999962 139.4 206.59999999999962 C 137.6 207.7999999999996 135.3 206.89999999999964 132.8 207.89999999999964 C 131 208.59999999999962 116.60000000000001 218.69999999999965 115.10000000000001 220.19999999999965 C 111.00000000000001 224.39999999999964 111.10000000000001 226.49999999999966 112.2 231.99999999999966 C 109.2 234.19999999999965 105.3 234.29999999999967 102.2 236.09999999999965 C 92.10000000000001 241.69999999999965 52.5 274.29999999999967 47.2 283.69999999999965 C 45.1 287.49999999999966 43.1 294.0999999999996 41.1 298.5999999999996 C 37.300000000000004 306.9999999999996 32 312.89999999999964 32.7 323.19999999999965 C 31.000000000000004 322.79999999999967 31.300000000000004 318.49999999999966 31.300000000000004 317.19999999999965 C 31.900000000000006 295.49999999999966 47.10000000000001 276.99999999999966 62.2 263.19999999999965 C 76 250.59999999999965 91.4 240.29999999999964 107.6 230.89999999999964 C 108.89999999999999 228.59999999999962 104.5 228.89999999999964 103.3 229.09999999999962 C 84.1 232.7999999999996 42.199999999999996 272.2999999999996 33.5 290.2999999999996 C 2.3999999999999986 355.1999999999996 79 349.5999999999996 118 336.9999999999996 L 167.9 312.1999999999996 C 154.5 327.09999999999957 150.9 338.59999999999957 162.4 355.8999999999996 C 173.3 372.29999999999956 190.9 384.3999999999996 208.3 393.29999999999956 C 210 394.79999999999956 211.10000000000002 401.29999999999956 210.9 403.49999999999955 C 210.70000000000002 405.29999999999956 208.8 406.29999999999956 208.6 409.99999999999955 C 207.7 426.29999999999956 214 445.99999999999955 213.1 462.3999999999995 C 212.4 475.3999999999995 210.4 488.2999999999995 209.6 502.0999999999995 C 208.79999999999998 516.0999999999995 203.6 544.7999999999995 206.79999999999998 556.4999999999995 C 207.79999999999998 560.2999999999995 212.39999999999998 567.5999999999996 212.49999999999997 569.9999999999995 C 212.69999999999996 572.2999999999995 211.89999999999998 571.2999999999995 210.69999999999996 571.3999999999995 C 192.19999999999996 572.8999999999995 171.79999999999995 574.1999999999995 153.59999999999997 577.0999999999996 C 152.39999999999998 577.2999999999996 146.39999999999998 577.5999999999996 146.99999999999997 579.4999999999995 C 147.79999999999998 581.7999999999995 151.49999999999997 581.6999999999996 153.49999999999997 581.6999999999996 C 174.29999999999998 582.2999999999996 200.7 576.7999999999996 222.29999999999995 575.1999999999996 C 251.59999999999997 572.9999999999995 281.19999999999993 572.5999999999996 310.49999999999994 571.1999999999996 C 310.59999999999997 573.5999999999996 310.09999999999997 573.1999999999996 308.19999999999993 573.5999999999996 C 297.8999999999999 575.3999999999995 287.49999999999994 570.9999999999995 284.5999999999999 585.6999999999996 C 282.19999999999993 597.7999999999996 281.2999999999999 621.2999999999996 282.8999999999999 633.5999999999996 C 283.8999999999999 640.7999999999996 287.3999999999999 661.3999999999995 293.19999999999993 665.1999999999996 C 296.5999999999999 667.4999999999995 303.19999999999993 667.7999999999996 307.3999999999999 667.8999999999996 C 348.2999999999999 668.8999999999996 394.29999999999995 658.2999999999996 435.8999999999999 659.0999999999997 C 439.69999999999993 658.3999999999996 444.3999999999999 657.6999999999997 446.7999999999999 654.2999999999997 C 438.6999999999999 653.8999999999997 430.3999999999999 654.2999999999997 422.1999999999999 654.9999999999998 C 386.1999999999999 657.2999999999997 348.89999999999986 661.3999999999997 312.5999999999999 661.2999999999997 C 307.8999999999999 661.2999999999997 302.8999999999999 663.5999999999997 297.8999999999999 661.2999999999997 C 293.69999999999993 659.4999999999998 290.7999999999999 641.0999999999997 289.49999999999994 636.2999999999997 C 302.69999999999993 634.8999999999997 316.19999999999993 635.6999999999997 329.29999999999995 633.2999999999997 C 332.9 632.6999999999997 337.79999999999995 632.5999999999997 339.9 629.2999999999997 L 287 630.6999999999997 C 287.8 618.9999999999997 288.8 607.2999999999997 290 595.5999999999997 C 290.5 590.7999999999997 288.5 587.0999999999997 291.4 581.9999999999997 C 294.09999999999997 577.1999999999997 298.5 579.8999999999996 302.59999999999997 579.3999999999996 C 308.2 578.6999999999996 314.2 576.4999999999997 319.9 576.3999999999996 C 321.59999999999997 577.0999999999997 322.2 583.7999999999996 323.09999999999997 586.1999999999996 C 333.9 613.9999999999995 371.4 619.0999999999996 396.29999999999995 609.0999999999996 C 420.29999999999995 599.3999999999995 429.09999999999997 586.1999999999996 424.79999999999995 559.7999999999996 C 426.09999999999997 560.1999999999996 426.49999999999994 562.0999999999996 427.59999999999997 562.6999999999996 C 430.59999999999997 564.4999999999995 450.09999999999997 563.1999999999996 455.29999999999995 563.0999999999996 C 470.29999999999995 562.6999999999996 486.9 562.2999999999996 501.69999999999993 560.5999999999996 C 507.8999999999999 559.8999999999995 514.6999999999999 559.9999999999995 520.0999999999999 556.2999999999996 C 518.8999999999999 553.7999999999996 517.8999999999999 554.8999999999996 516.0999999999999 554.7999999999996 L 516.0999999999999 555.2999999999996 Z M 164 248.9 C 158.7 258.8 161.7 267.7 144.8 264.7 C 145.9 263 149.5 264.09999999999997 151.9 263.5 C 157.4 262 159.3 254.2 162.3 249.8 C 157.8 249.70000000000002 155.9 255.20000000000002 152.4 257 C 142.9 261.7 128.20000000000002 252.6 121.60000000000001 245.8 C 120.30000000000001 244.5 120.00000000000001 242 119.00000000000001 241.20000000000002 C 118.10000000000001 240.50000000000003 116.40000000000002 241.3 115.90000000000002 240.9 C 113.80000000000003 239.1 115.10000000000002 228.70000000000002 116.70000000000002 226.3 C 117.30000000000001 225.4 132.00000000000003 214.5 133.9 213.3 C 135 212.60000000000002 135.5 211.4 137.20000000000002 212.10000000000002 C 132.8 222.10000000000002 139.00000000000003 234.20000000000002 146.00000000000003 241.60000000000002 C 159.60000000000002 255.90000000000003 160.80000000000004 243.8 171.70000000000002 240.50000000000003 C 174.4 239.70000000000002 177.00000000000003 240.20000000000002 179.4 239.40000000000003 C 181.9 238.60000000000002 184 236.40000000000003 187 235.80000000000004 C 188 235.60000000000005 190.8 235.20000000000005 190.3 237.00000000000003 C 187.4 237.00000000000003 185.70000000000002 239.60000000000002 183.3 240.70000000000002 C 177.60000000000002 243.00000000000003 167.20000000000002 243.20000000000002 164.20000000000002 248.8 L 164.00000000000003 248.8 Z M 427 289.4 L 433 320.2 L 431.1 323.59999999999997 L 423.70000000000005 319.09999999999997 L 427.90000000000003 317.79999999999995 C 430.3 315.69999999999993 424.90000000000003 293.99999999999994 427.1 289.4 L 427 289.4 Z M 417.2 322.3 C 428.4 331.1 444 339.7 457.7 343.6 C 457.7 345.5 455.3 344.3 454.09999999999997 344.1 C 436.4 340.5 425.7 332.3 411.2 322.5 L 410.2 316 C 413.4 316.8 414.5 320.2 417.2 322.3 L 417.2 322.3 Z M 293.7 157.1 C 290.5 175.7 299.09999999999997 193.89999999999998 311.7 207.2 C 313.5 209.1 319.3 214.6 321.2 215.7 C 322.5 216.39999999999998 324.59999999999997 217.6 324.5 215 C 314.8 202.5 305 195.1 300.2 179.4 C 297.9 171.70000000000002 294.2 160.4 304.7 157.4 C 306.09999999999997 181 321.5 202.7 342.7 212.9 L 331 223.20000000000002 L 316.5 221.00000000000003 L 318 217.00000000000003 C 314 215.30000000000004 307.3 218.40000000000003 306.8 222.60000000000002 L 304.7 240.8 C 291.8 224.5 283.59999999999997 201.60000000000002 283.2 180.70000000000002 C 282.9 169.4 283.2 163.4 293.7 157.20000000000002 L 293.7 157.20000000000002 Z M 329.5 227.7 L 321.4 228.89999999999998 L 314.7 227.49999999999997 C 313 228.39999999999998 310 238.49999999999997 308.4 241.09999999999997 C 307.5 242.59999999999997 308.2 243.69999999999996 305.59999999999997 242.89999999999998 L 312.99999999999994 224.09999999999997 L 329.49999999999994 227.69999999999996 L 329.49999999999994 227.69999999999996 Z M 282.7 268.2 C 281.5 267.5 274.2 261.2 276.3 259.59999999999997 C 281.6 260.09999999999997 288.1 263.59999999999997 288.90000000000003 269.49999999999994 C 286.8 269.29999999999995 284.70000000000005 269.29999999999995 282.8 268.19999999999993 L 282.7 268.19999999999993 Z M 332.3 314.9 C 331 314.5 330 316.29999999999995 329 315.7 C 328.7 315.5 325.4 311.3 325.3 311 C 333.3 307.5 341.5 303.7 348.90000000000003 299 C 350.1 298.3 351.50000000000006 299.3 351.20000000000005 296.5 C 343.90000000000003 297.1 337.6 299.2 331.40000000000003 303.2 C 322.00000000000006 309.3 318.40000000000003 321 308.00000000000006 326.3 C 302.80000000000007 327.1 301.80000000000007 314.6 302.00000000000006 311 L 298.80000000000007 311 C 296.30000000000007 315.9 297.4000000000001 320.8 294.4000000000001 325.9 C 292.5000000000001 329.09999999999997 288.4000000000001 331.59999999999997 286.4000000000001 335 L 276.4000000000001 350.4 C 276.0000000000001 338.9 285.4000000000001 332.5 289.7000000000001 323.7 C 293.5000000000001 316.09999999999997 293.5000000000001 297.7 305.0000000000001 307.2 C 301.5000000000001 317.9 305.3000000000001 328.4 316.2000000000001 317.8 C 323.4000000000001 310.8 329.4000000000001 296.3 337.2000000000001 288.8 C 324.9000000000001 291.3 320.1000000000001 304.7 312.7000000000001 313.5 C 311.8000000000001 314.6 312.7000000000001 316.2 309.9000000000001 315.3 L 327.4000000000001 273 C 323.7000000000001 271.9 321.1000000000001 276 319.2000000000001 278.7 C 314.6000000000001 285.2 311.4000000000001 293.9 307.4000000000001 300.9 C 306.0000000000001 301.7 299.30000000000007 299.79999999999995 297.7000000000001 299 C 295.2000000000001 297.7 297.1000000000001 290.9 295.1000000000001 287.9 C 295.9000000000001 285.4 306.30000000000007 287 306.30000000000007 282.29999999999995 C 301.00000000000006 278.9 292.50000000000006 282.29999999999995 289.1000000000001 276.59999999999997 L 295.4000000000001 270.7 C 297.0000000000001 270.7 307.2000000000001 279.09999999999997 310.4000000000001 280.3 C 311.9000000000001 280.90000000000003 313.1000000000001 281.40000000000003 312.9000000000001 279.2 C 312.30000000000007 277.2 298.9000000000001 267 296.2000000000001 264.09999999999997 C 295.4000000000001 263.29999999999995 291.9000000000001 259.4 293.1000000000001 258.49999999999994 C 299.00000000000006 260.29999999999995 305.80000000000007 263.99999999999994 311.9000000000001 264.8999999999999 C 314.0000000000001 265.19999999999993 316.80000000000007 265.8999999999999 317.80000000000007 263.49999999999994 C 311.00000000000006 261.79999999999995 296.4000000000001 253.99999999999994 289.9000000000001 255.29999999999995 C 288.2000000000001 255.59999999999997 287.30000000000007 257.9 285.4000000000001 257.59999999999997 C 284.9000000000001 257.59999999999997 276.0000000000001 254.29999999999995 275.6000000000001 253.99999999999997 C 274.2000000000001 253.09999999999997 272.80000000000007 250.79999999999998 275.00000000000006 249.69999999999996 C 279.30000000000007 247.59999999999997 303.00000000000006 257.99999999999994 309.50000000000006 257.4 C 310.00000000000006 253.7 302.80000000000007 254.89999999999998 302.20000000000005 252.39999999999998 C 309.1 253.2 314.1 256.4 321.30000000000007 256.7 C 330.9000000000001 257.2 333.50000000000006 252.2 343.20000000000005 259.09999999999997 C 346.70000000000005 261.59999999999997 348.30000000000007 265.29999999999995 351.20000000000005 267.9 C 353.90000000000003 270.29999999999995 357.80000000000007 272.29999999999995 360.40000000000003 274.79999999999995 C 366.8 281.19999999999993 368.90000000000003 291.09999999999997 377.6 295.19999999999993 C 375.90000000000003 296.8999999999999 374.3 296.8999999999999 372.3 295.69999999999993 C 370.1 294.3999999999999 362.8 281.8999999999999 359.5 278.3999999999999 C 355.9 274.5999999999999 351.2 271.7999999999999 347.5 268.0999999999999 C 345.7 266.2999999999999 343.4 261.4999999999999 342.2 260.7999999999999 C 338.9 258.9999999999999 325.8 259.0999999999999 321.8 259.6999999999999 C 319.90000000000003 259.9999999999999 319 258.59999999999985 319.1 261.6999999999999 L 339.40000000000003 263.9999999999999 C 340.1 264.2999999999999 343.3 270.2999999999999 344.8 271.9999999999999 C 347.8 275.1999999999999 351.90000000000003 276.9999999999999 355 279.9999999999999 C 362.3 287.1999999999999 368.5 298.5999999999999 375.8 306.0999999999999 C 377.40000000000003 299.7999999999999 379.5 304.69999999999993 380.5 307.9999999999999 C 383.1 316.7999999999999 378.8 325.5999999999999 372.7 331.9999999999999 C 371.3 333.4999999999999 361.59999999999997 340.0999999999999 362.7 341.4999999999999 C 379.8 338.7999999999999 389.7 319.1999999999999 385 302.89999999999986 C 398.2 316.09999999999985 412.4 313.09999999999985 401.3 335.89999999999986 C 398 342.6999999999999 392.8 347.89999999999986 386.8 352.1999999999999 L 391.8 354.2999999999999 C 385.90000000000003 354.6999999999999 385.90000000000003 360.1999999999999 382.90000000000003 363.5999999999999 C 378.1 363.2999999999999 378.6 360.2999999999999 376.50000000000006 358.3999999999999 C 374.90000000000003 356.8999999999999 352.70000000000005 340.2999999999999 355.6000000000001 338.5999999999999 L 362.1000000000001 337.19999999999993 C 358.4000000000001 335.19999999999993 353.9000000000001 333.19999999999993 350.50000000000006 330.79999999999995 C 346.70000000000005 328.09999999999997 334.40000000000003 315.99999999999994 331.90000000000003 315.19999999999993 L 332.3 314.8999999999999 Z M 346.3 405.2 C 348.7 407.4 346.40000000000003 425 352.1 427.59999999999997 C 354 418.49999999999994 352.6 409.29999999999995 352.1 400.2 C 355.90000000000003 399.4 355.6 402.2 357.5 403 C 374.7 410.6 383.1 401 398.5 403.4 C 404.5 404.4 422.9 414.2 423.4 420.7 C 424 426.9 411.79999999999995 437.59999999999997 406.09999999999997 437.8 C 403.29999999999995 437.90000000000003 397.09999999999997 434.2 393.09999999999997 433.40000000000003 C 380.9 430.90000000000003 368.59999999999997 432.00000000000006 356.4 431.40000000000003 C 353.79999999999995 431.3 351.5 429.6 349.5 429.70000000000005 C 346.8 429.70000000000005 344.6 433.20000000000005 342.6 433.00000000000006 C 340.6 432.80000000000007 335 427.70000000000005 331.20000000000005 426.80000000000007 C 327.6 426.00000000000006 317.20000000000005 426.30000000000007 316.20000000000005 420.80000000000007 C 314.40000000000003 410.9000000000001 338.1 401.20000000000005 346.40000000000003 405.4000000000001 L 346.40000000000003 405.2000000000001 Z M 397.3 439 C 390.6 437 380.90000000000003 443.9 376.3 438.2 C 380.6 437.7 385 438 389.3 437.8 C 391.90000000000003 437.8 396.1 434.7 397.3 439 L 397.3 439 Z M 296.9 532.6 C 297.7 526.8000000000001 300.7 521.2 305.9 518.4 L 297.5 536.4 C 295.7 536.4 296.7 533.8 296.8 532.6 L 296.90000000000003 532.6 Z M 317.1 571.5 C 312.3 569.1 301.5 561.6 302.70000000000005 555.4 L 304.80000000000007 555.1 C 306.9000000000001 561.6 313.00000000000006 568.3000000000001 320.4000000000001 566.4 C 320.0000000000001 569.1 320.5000000000001 573.1999999999999 317.0000000000001 571.5 L 317.0000000000001 571.5 Z M 309.6 530.7 C 305.3 537.1 308 545 306.8 552.2 C 300.8 539.9000000000001 302.2 529.5 314.7 522.9000000000001 C 316.8 521.8000000000001 325.09999999999997 517.4000000000001 325.5 521.6000000000001 C 320.5 520.6000000000001 312 526.9000000000001 309.5 530.7000000000002 L 309.6 530.7000000000002 Z M 404.1 490.5 C 404.6 491.9 397.3 491.5 400.5 493.8 C 403.6 495.90000000000003 412.7 495.3 416.1 500.3 C 424.70000000000005 513.4 394.3 524.2 385.5 526.1 C 369.6 529.5 349.7 527.8000000000001 335.3 520.1 C 316.90000000000003 510.3 325.7 501 340.8 495.1 C 345.2 499.6 347.40000000000003 504.90000000000003 353.40000000000003 507.6 C 363.90000000000003 512.2 383.8 511 391.70000000000005 501.6 C 397.1 495.1 394.40000000000003 486.1 403.50000000000006 481.90000000000003 C 404.70000000000005 485.70000000000005 397.80000000000007 488.8 404.1000000000001 490.40000000000003 L 404.1000000000001 490.40000000000003 Z M 417.8 585.8 C 408.8 606.1999999999999 374.1 613.1999999999999 354.7 607.0999999999999 C 316 594.8999999999999 326.3 557.5999999999999 332.4 526.6999999999999 C 338.79999999999995 526.9 344.09999999999997 530.6999999999999 350.2 531.9 C 370.8 536 392.2 531.5 410.9 522.9 C 409.59999999999997 544.3 427.29999999999995 564.3 417.79999999999995 585.6999999999999 L 417.79999999999995 585.6999999999999 Z M 424.2 438.9 C 421.7 441.09999999999997 416 452.29999999999995 412.59999999999997 456.59999999999997 C 410.7 458.99999999999994 403.09999999999997 465.7 402.59999999999997 466.59999999999997 C 401.2 469.29999999999995 406.7 467.29999999999995 405.4 469.99999999999994 C 404.7 471.49999999999994 398.4 478.99999999999994 396.79999999999995 480.59999999999997 C 394.09999999999997 483.29999999999995 390.29999999999995 485.4 387.49999999999994 487.99999999999994 L 393.49999999999994 490.79999999999995 C 387.8999999999999 496.69999999999993 387.09999999999997 501.09999999999997 378.3999999999999 502.79999999999995 C 366.3999999999999 505.19999999999993 351.19999999999993 505.4 346.99999999999994 491.29999999999995 C 352.19999999999993 492.4 357.49999999999994 494.29999999999995 362.99999999999994 494.09999999999997 C 364.09999999999997 494.09999999999997 368.3999999999999 493.29999999999995 367.59999999999997 491.49999999999994 C 365.2 488.79999999999995 361.79999999999995 490.8999999999999 358.49999999999994 490.29999999999995 C 354.29999999999995 489.49999999999994 345.19999999999993 484.49999999999994 341.79999999999995 481.69999999999993 C 337.29999999999995 477.99999999999994 335.19999999999993 472.3999999999999 330.49999999999994 469.3999999999999 C 329.99999999999994 471.8999999999999 329.99999999999994 473.7999999999999 330.8999999999999 476.19999999999993 C 332.19999999999993 479.69999999999993 341.8999999999999 486.99999999999994 339.7999999999999 489.3999999999999 C 333.3999999999999 489.8999999999999 321.2999999999999 497.69999999999993 319.3999999999999 503.7999999999999 C 317.2999999999999 510.3999999999999 321.49999999999994 512.6999999999999 310.5999999999999 514.6999999999999 C 314.69999999999993 511.79999999999995 313.69999999999993 507.8999999999999 315.19999999999993 504.3999999999999 C 318.5999999999999 495.99999999999994 328.79999999999995 492.0999999999999 334.0999999999999 485.19999999999993 C 334.2999999999999 482.99999999999994 327.2999999999999 476.29999999999995 326.4999999999999 473.19999999999993 C 325.6999999999999 470.19999999999993 327.0999999999999 467.79999999999995 325.7999999999999 464.29999999999995 C 324.1999999999999 460.09999999999997 314.2999999999999 453.99999999999994 315.2999999999999 446.59999999999997 C 321.0999999999999 456.59999999999997 327.2999999999999 464.7 337.9999999999999 469.7 C 350.89999999999986 475.8 376.39999999999986 478.3 390.1999999999999 474.59999999999997 C 391.89999999999986 474.09999999999997 392.6999999999999 474.99999999999994 392.59999999999985 472.29999999999995 C 385.09999999999985 471.59999999999997 375.99999999999983 473.29999999999995 368.6999999999999 472.59999999999997 C 362.89999999999986 472.09999999999997 347.89999999999986 469.09999999999997 342.4999999999999 467.2 C 331.7999999999999 463.3 326.39999999999986 452.2 320.9999999999999 443.09999999999997 C 343.7999999999999 453.9 373.7999999999999 457.9 398.7999999999999 453.29999999999995 C 404.0999999999999 452.29999999999995 409.3999999999999 450.4 413.4999999999999 446.79999999999995 L 383.7999999999999 449.99999999999994 C 370.8999999999999 451.79999999999995 329.8999999999999 446.29999999999995 322.9999999999999 435.49999999999994 C 322.0999999999999 434.19999999999993 320.2999999999999 431.29999999999995 322.5999999999999 430.09999999999997 C 335.8999999999999 430.7 340.8999999999999 441.2 354.3999999999999 441.49999999999994 C 359.2999999999999 441.59999999999997 365.99999999999994 439.29999999999995 370.49999999999994 440.19999999999993 C 373.99999999999994 440.8999999999999 377.59999999999997 445.0999999999999 382.3999999999999 445.49999999999994 C 385.2999999999999 445.69999999999993 407.5999999999999 441.09999999999997 411.99999999999994 439.99999999999994 C 414.3999999999999 439.49999999999994 416.29999999999995 438.29999999999995 418.3999999999999 437.29999999999995 L 421.19999999999993 439.69999999999993 L 427.69999999999993 428.79999999999995 L 428.0999999999999 439.4 C 426.8999999999999 439.29999999999995 425.7999999999999 437.79999999999995 424.4999999999999 438.9 L 424.1999999999999 438.9 Z" stroke-linecap="round" />
</g>
		<g transform="matrix(1 0 0 1 127.56 264.12)"  >
<path style="stroke: none; stroke-width: 1; stroke-dasharray: none; stroke-linecap: butt; stroke-dashoffset: 0; stroke-linejoin: miter; stroke-miterlimit: 4; fill: rgb(255,255,255); fill-rule: nonzero; opacity: 1;" vector-effect="non-scaling-stroke"  transform=" translate(-400.73, -609.69)" d="M 441.8 574.6 C 437.1 563.5 427 566 428.90000000000003 569.2 C 436.70000000000005 571.1 435.3 579.1 437.1 584.9000000000001 C 440.1 594.5000000000001 447 609.4000000000001 448 618.9000000000001 C 448.1 620.0000000000001 448.7 621.1000000000001 447.7 622.1000000000001 C 431.3 623.7000000000002 414.9 624.6000000000001 398.5 625.8000000000002 C 383.3 626.9000000000002 366 626.1000000000001 351 629.3000000000002 C 349.4 629.6000000000001 348 629.9000000000002 346.8 631.2000000000002 C 347.90000000000003 633.4000000000002 349.2 633.0000000000001 351.2 633.2000000000002 C 360.9 633.9000000000002 375.09999999999997 631.3000000000002 385.5 631.0000000000001 C 404.6 630.4000000000001 425.4 631.4000000000001 444.3 629.9000000000001 C 446.1 629.9000000000001 447.8 629.2 449.40000000000003 628.6000000000001 C 450.40000000000003 636.2000000000002 447.1 642.5000000000001 448.40000000000003 649.8000000000002 C 448.6 650.9000000000002 448.3 653.0000000000002 449.8 652.9000000000002 C 450.6 641.7000000000002 456.3 627.6000000000003 454.2 616.7000000000002 C 452.3 607.0000000000001 445.4 583.6000000000001 441.59999999999997 574.6000000000001 L 441.79999999999995 574.6000000000001 Z" stroke-linecap="round" />
</g>
		<g transform="matrix(1 0 0 1 158.08 -247.46)"  >
<path style="stroke: none; stroke-width: 1; stroke-dasharray: none; stroke-linecap: butt; stroke-dashoffset: 0; stroke-linejoin: miter; stroke-miterlimit: 4; fill: rgb(255,255,255); fill-rule: nonzero; opacity: 1;" vector-effect="non-scaling-stroke"  transform=" translate(-431.25, -98.12)" d="M 420.2 93.5 C 417.2 93.3 414.5 90.6 412.3 93.1 C 413.40000000000003 102 426.5 96.1 429 99.69999999999999 C 431.8 109.39999999999999 425.7 119.1 425.2 128.79999999999998 C 427.3 129.39999999999998 427.8 128.1 428.7 126.59999999999998 C 432.59999999999997 119.89999999999998 433.4 108.89999999999998 436.2 103.89999999999998 C 438.59999999999997 99.69999999999997 446.09999999999997 99.29999999999998 447.8 93.39999999999998 C 448.6 90.59999999999998 446.7 88.59999999999998 447 86.39999999999998 C 447.2 84.69999999999997 449 83.29999999999998 449.5 81.39999999999998 C 451.5 73.79999999999998 449.5 66.89999999999998 440.6 67.29999999999998 L 445.8 76.79999999999998 C 445.6 79.59999999999998 442.5 81.59999999999998 441.90000000000003 83.89999999999998 C 440.90000000000003 87.49999999999997 443.6 92.49999999999997 440.70000000000005 95.39999999999998 C 436.20000000000005 99.79999999999998 431.40000000000003 93.79999999999998 427.6 93.19999999999997 C 425.3 92.79999999999997 422.70000000000005 93.69999999999997 420.20000000000005 93.59999999999998 L 420.20000000000005 93.59999999999998 Z" stroke-linecap="round" />
</g>
		<g transform="matrix(1 0 0 1 36.05 -245.7)"  >
<path style="stroke: none; stroke-width: 1; stroke-dasharray: none; stroke-linecap: butt; stroke-dashoffset: 0; stroke-linejoin: miter; stroke-miterlimit: 4; fill: rgb(255,255,255); fill-rule: nonzero; opacity: 1;" vector-effect="non-scaling-stroke"  transform=" translate(-309.23, -99.88)" d="M 311.4 117.9 C 310.79999999999995 117.2 303.79999999999995 119.80000000000001 302 116.10000000000001 C 298.8 109.60000000000001 300.7 87.10000000000001 308.3 83.70000000000002 C 311.2 82.40000000000002 317.6 83.20000000000002 318.1 86.50000000000001 L 315.3 111.00000000000001 C 317.90000000000003 111.80000000000001 317.2 110.80000000000001 318.1 109.20000000000002 C 320.70000000000005 104.50000000000001 323.8 88.30000000000001 322.20000000000005 83.30000000000001 C 320.1 76.9 318.90000000000003 80.20000000000002 315.50000000000006 79.20000000000002 C 312.1000000000001 78.20000000000002 312.90000000000003 76.80000000000001 310.50000000000006 76.90000000000002 C 308.6000000000001 76.90000000000002 305.40000000000003 79.40000000000002 304.00000000000006 80.70000000000002 C 295.90000000000003 88.30000000000001 294.70000000000005 102.70000000000002 296.6000000000001 113.20000000000002 C 298.2000000000001 121.70000000000002 306.50000000000006 127.40000000000002 311.4000000000001 118.00000000000001 L 311.4000000000001 118.00000000000001 Z" stroke-linecap="round" />
</g>
		<g transform="matrix(1 0 0 1 92.56 -277.22)"  >
<path style="stroke: none; stroke-width: 1; stroke-dasharray: none; stroke-linecap: butt; stroke-dashoffset: 0; stroke-linejoin: miter; stroke-miterlimit: 4; fill: rgb(255,255,255); fill-rule: nonzero; opacity: 1;" vector-effect="non-scaling-stroke"  transform=" translate(-365.73, -68.35)" d="M 340.4 62.1 C 342.2 65.5 346 65.1 348.7 66.9 C 350.7 68.2 351.8 71.5 354 73.10000000000001 C 360.2 77.60000000000001 363.5 73.4 367.1 74.9 C 368.40000000000003 75.4 369.40000000000003 77.7 370.90000000000003 78.60000000000001 C 375.90000000000003 81.4 381.50000000000006 83.00000000000001 386.20000000000005 86.50000000000001 L 392.20000000000005 83.50000000000001 C 388.90000000000003 81.80000000000001 384.90000000000003 81.00000000000001 383.6 77.00000000000001 L 386.6 67.60000000000001 C 381.90000000000003 68.10000000000001 379.40000000000003 74.50000000000001 378 78.2 C 373.7 77.3 371.6 72.10000000000001 367.5 70.9 C 364.2 69.9 361.3 71.7 358.6 70.60000000000001 C 356.70000000000005 69.80000000000001 355 65.9 353.20000000000005 64.4 C 347.00000000000006 59.300000000000004 343.40000000000003 61.800000000000004 344.30000000000007 50.2 C 338.80000000000007 50.2 338.4000000000001 58.7 340.30000000000007 62.400000000000006 L 340.30000000000007 62.10000000000001 Z" stroke-linecap="round" />
</g>
		<g transform="matrix(1 0 0 1 -66.66 8.67)"  >
<path style="stroke: none; stroke-width: 1; stroke-dasharray: none; stroke-linecap: butt; stroke-dashoffset: 0; stroke-linejoin: miter; stroke-miterlimit: 4; fill: rgb(255,255,255); fill-rule: nonzero; opacity: 1;" vector-effect="non-scaling-stroke"  transform=" translate(-206.52, -354.24)" d="M 182.8 329.2 C 176.10000000000002 328.59999999999997 183 340.09999999999997 184.9 343.2 C 195.6 360.09999999999997 214.4 372.7 233.10000000000002 379.3 C 226.90000000000003 372.2 216.8 368 209.00000000000003 362 C 198.60000000000002 354 186.90000000000003 341.9 182.80000000000004 329.3 L 182.80000000000004 329.3 Z" stroke-linecap="round" />
</g>
		<g transform="matrix(1 0 0 1 -32 -36.31)"  >
<path style="stroke: none; stroke-width: 1; stroke-dasharray: none; stroke-linecap: butt; stroke-dashoffset: 0; stroke-linejoin: miter; stroke-miterlimit: 4; fill: rgb(255,255,255); fill-rule: nonzero; opacity: 1;" vector-effect="non-scaling-stroke"  transform=" translate(-241.18, -309.26)" d="M 265.2 329.1 C 264.8 328.6 255 324.70000000000005 252.79999999999998 323.3 C 244.79999999999998 318.3 238.1 309.7 230.6 304 L 217.1 287.7 C 215.79999999999998 296.7 225.2 306 231.5 311.7 C 240.9 320.2 251.3 327.2 263.6 330.7 C 265.6 331.3 265.6 329.59999999999997 265.1 329 L 265.20000000000005 329 Z" stroke-linecap="round" />
</g>
		<g transform="matrix(1 0 0 1 -49.92 -15.33)"  >
<path style="stroke: none; stroke-width: 1; stroke-dasharray: none; stroke-linecap: butt; stroke-dashoffset: 0; stroke-linejoin: miter; stroke-miterlimit: 4; fill: rgb(255,255,255); fill-rule: nonzero; opacity: 1;" vector-effect="non-scaling-stroke"  transform=" translate(-223.25, -330.24)" d="M 249.8 352.6 C 232.20000000000002 344.5 217.20000000000002 332.70000000000005 205.8 317 C 204.60000000000002 315.3 199.70000000000002 304.2 197 306.5 C 196.4 308.6 196.8 310.2 197.5 312.2 C 201.5 323.09999999999997 219.9 339.09999999999997 229.8 345.2 C 235.60000000000002 348.8 242.10000000000002 351.09999999999997 248.10000000000002 354.3 L 249.70000000000002 352.6 L 249.70000000000002 352.6 Z" stroke-linecap="round" />
</g>
		<g transform="matrix(1 0 0 1 55.38 -296.31)"  >
<path style="stroke: none; stroke-width: 1; stroke-dasharray: none; stroke-linecap: butt; stroke-dashoffset: 0; stroke-linejoin: miter; stroke-miterlimit: 4; fill: rgb(255,255,255); fill-rule: nonzero; opacity: 1;" vector-effect="non-scaling-stroke"  transform=" translate(-328.55, -49.26)" d="M 320.5 74.6 C 321.5 73.8 330.2 54.49999999999999 331.2 51.89999999999999 C 331.59999999999997 50.89999999999999 330.7 48.79999999999999 331.2 47.099999999999994 C 332.09999999999997 44.099999999999994 335.7 40.3 336.09999999999997 37.699999999999996 C 336.4 35.8 334.7 34.3 334.9 32.49999999999999 C 335.09999999999997 30.199999999999992 338 28.299999999999994 338.5 26.39999999999999 C 339.7 21.999999999999993 336 22.699999999999992 333.5 24.999999999999993 C 329.6 28.599999999999994 331.2 33.49999999999999 329.7 38.099999999999994 C 328.9 40.599999999999994 325.59999999999997 43.199999999999996 325.09999999999997 45.49999999999999 C 324.4 48.099999999999994 326.7 49.99999999999999 326.2 52.699999999999996 C 325.7 55.3 321.7 60.3 320.4 63.39999999999999 C 319.9 64.69999999999999 316.09999999999997 78.19999999999999 320.4 74.8 L 320.4 74.6 Z" stroke-linecap="round" />
</g>
		<g transform="matrix(1 0 0 1 -25.88 -61.48)"  >
<path style="stroke: none; stroke-width: 1; stroke-dasharray: none; stroke-linecap: butt; stroke-dashoffset: 0; stroke-linejoin: miter; stroke-miterlimit: 4; fill: rgb(255,255,255); fill-rule: nonzero; opacity: 1;" vector-effect="non-scaling-stroke"  transform=" translate(-247.3, -284.09)" d="M 231.6 275.7 C 236.2 288.8 251.1 299.8 263.7 304.59999999999997 C 255.89999999999998 293.49999999999994 241.89999999999998 288.4 236 274.99999999999994 C 233.6 269.49999999999994 235.7 268.49999999999994 237.8 263.59999999999997 C 231.3 263.2 229.8 270.49999999999994 231.60000000000002 275.59999999999997 L 231.60000000000002 275.59999999999997 Z" stroke-linecap="round" />
</g>
		<g transform="matrix(1 0 0 1 110.86 -191.7)"  >
<path style="stroke: none; stroke-width: 1; stroke-dasharray: none; stroke-linecap: butt; stroke-dashoffset: 0; stroke-linejoin: miter; stroke-miterlimit: 4; fill: rgb(255,255,255); fill-rule: nonzero; opacity: 1;" vector-effect="non-scaling-stroke"  transform=" translate(-384.03, -153.88)" d="M 385.6 146.4 C 383 154.6 388.3 168.3 374.70000000000005 164.20000000000002 C 374.1 168.8 380.80000000000007 170.00000000000003 384.00000000000006 169.3 C 389.80000000000007 168 389.20000000000005 154.3 390.1000000000001 149.60000000000002 C 390.80000000000007 145.90000000000003 393.2000000000001 142.70000000000002 393.4000000000001 138.90000000000003 C 391.0000000000001 135.90000000000003 386.2000000000001 144.50000000000003 385.6000000000001 146.40000000000003 L 385.6000000000001 146.40000000000003 Z" stroke-linecap="round" />
</g>
		<g transform="matrix(1 0 0 1 64.13 -258)"  >
<path style="stroke: none; stroke-width: 1; stroke-dasharray: none; stroke-linecap: butt; stroke-dashoffset: 0; stroke-linejoin: miter; stroke-miterlimit: 4; fill: rgb(255,255,255); fill-rule: nonzero; opacity: 1;" vector-effect="non-scaling-stroke"  transform=" translate(-337.3, -87.58)" d="M 347.9 75.1 C 343.59999999999997 85.39999999999999 343.2 80.89999999999999 335.2 85.39999999999999 C 329.4 88.6 324.5 94.8 323.8 101.39999999999999 C 325 103.19999999999999 331.90000000000003 93.49999999999999 333.2 92.39999999999999 C 341.5 85.69999999999999 353.9 88.8 350.09999999999997 73.79999999999998 C 347.4 73.19999999999999 348.4 73.59999999999998 347.79999999999995 75.09999999999998 L 347.9 75.09999999999998 Z" stroke-linecap="round" />
</g>
		<g transform="matrix(1 0 0 1 134.84 -260.34)"  >
<path style="stroke: none; stroke-width: 1; stroke-dasharray: none; stroke-linecap: butt; stroke-dashoffset: 0; stroke-linejoin: miter; stroke-miterlimit: 4; fill: rgb(255,255,255); fill-rule: nonzero; opacity: 1;" vector-effect="non-scaling-stroke"  transform=" translate(-408.02, -85.23)" d="M 401.6 91.3 C 404.40000000000003 91.8 405.90000000000003 89.39999999999999 408.3 89.1 C 412.5 88.6 420.90000000000003 92.1 422.6 86.3 C 418.3 86.5 413.5 84.6 409.6 84.3 C 403.8 83.8 399.90000000000003 88.3 396.5 79.1 C 389.1 81.3 396.8 90.5 401.6 91.3 Z" stroke-linecap="round" />
</g>
		<g transform="matrix(1 0 0 1 96.67 -230.14)"  >
<path style="stroke: none; stroke-width: 1; stroke-dasharray: none; stroke-linecap: butt; stroke-dashoffset: 0; stroke-linejoin: miter; stroke-miterlimit: 4; fill: rgb(255,255,255); fill-rule: nonzero; opacity: 1;" vector-effect="non-scaling-stroke"  transform=" translate(-369.84, -115.43)" d="M 379.6 120.9 C 381.6 115.60000000000001 370.20000000000005 109.10000000000001 365.70000000000005 108.80000000000001 C 363.90000000000003 108.80000000000001 357.90000000000003 110.60000000000001 360.50000000000006 112.50000000000001 C 363.6000000000001 113.50000000000001 366.40000000000003 114.30000000000001 369.30000000000007 115.90000000000002 C 371.4000000000001 117.10000000000002 378.1000000000001 125.00000000000001 379.6000000000001 120.90000000000002 L 379.6000000000001 120.90000000000002 Z" stroke-linecap="round" />
</g>
		<g transform="matrix(1 0 0 1 139.88 -212.62)"  >
<path style="stroke: none; stroke-width: 1; stroke-dasharray: none; stroke-linecap: butt; stroke-dashoffset: 0; stroke-linejoin: miter; stroke-miterlimit: 4; fill: rgb(255,255,255); fill-rule: nonzero; opacity: 1;" vector-effect="non-scaling-stroke"  transform=" translate(-413.05, -132.95)" d="M 421.3 135.2 C 418.40000000000003 132.39999999999998 414.3 129 410.1 129.39999999999998 C 408.1 129.59999999999997 406.3 130.99999999999997 404.8 132.29999999999998 C 404.7 133.6 414.5 135.89999999999998 416.6 136.2 C 418.6 136.5 419.70000000000005 137.1 421.3 135.2 L 421.3 135.2 Z" stroke-linecap="round" />
</g>
		<g transform="matrix(1 0 0 1 163.76 -286.51)"  >
<path style="stroke: none; stroke-width: 1; stroke-dasharray: none; stroke-linecap: butt; stroke-dashoffset: 0; stroke-linejoin: miter; stroke-miterlimit: 4; fill: rgb(255,255,255); fill-rule: nonzero; opacity: 1;" vector-effect="non-scaling-stroke"  transform=" translate(-436.93, -59.06)" d="M 443.2 63.3 C 443.59999999999997 63 443.59999999999997 60 443.2 59.099999999999994 C 441.9 56.3 431.5 52.8 430.4 56.099999999999994 C 429.59999999999997 58.39999999999999 442.5 63.99999999999999 443.29999999999995 63.3 L 443.19999999999993 63.3 Z" stroke-linecap="round" />
</g>
		<g transform="matrix(1 0 0 1 63.66 -294.22)"  >
<path style="stroke: none; stroke-width: 1; stroke-dasharray: none; stroke-linecap: butt; stroke-dashoffset: 0; stroke-linejoin: miter; stroke-miterlimit: 4; fill: rgb(255,255,255); fill-rule: nonzero; opacity: 1;" vector-effect="non-scaling-stroke"  transform=" translate(-336.83, -51.35)" d="M 336.6 58.5 C 338.20000000000005 56.5 336.8 53.6 337.40000000000003 51.1 C 338.1 48.1 340.20000000000005 46.800000000000004 340.90000000000003 44.2 C 333.1 44.2 329.40000000000003 54.300000000000004 336.70000000000005 58.5 L 336.70000000000005 58.5 Z" stroke-linecap="round" />
</g>
		<g transform="matrix(1 0 0 1 90.47 -218.49)"  >
<path style="stroke: none; stroke-width: 1; stroke-dasharray: none; stroke-linecap: butt; stroke-dashoffset: 0; stroke-linejoin: miter; stroke-miterlimit: 4; fill: rgb(255,255,255); fill-rule: nonzero; opacity: 1;" vector-effect="non-scaling-stroke"  transform=" translate(-363.64, -127.08)" d="M 367.5 125 C 367.2 123.1 364.8 122.6 363.2 122.9 C 361 123.30000000000001 359 127.9 360.09999999999997 129.9 C 364.4 133.70000000000002 366.9 129.3 367.49999999999994 125 Z" stroke-linecap="round" />
</g>
		<g transform="matrix(1 0 0 1 86.03 -164.72)"  >
<path style="stroke: none; stroke-width: 1; stroke-dasharray: none; stroke-linecap: butt; stroke-dashoffset: 0; stroke-linejoin: miter; stroke-miterlimit: 4; fill: rgb(255,255,255); fill-rule: nonzero; opacity: 1;" vector-effect="non-scaling-stroke"  transform=" translate(-359.2, -180.85)" d="M 354.3 176.6 C 354.8 181.9 358.5 185.29999999999998 363.90000000000003 185.1 C 364.50000000000006 184.7 363.6 181.79999999999998 363.00000000000006 181.1 C 361.40000000000003 179 356.6000000000001 178.2 354.30000000000007 176.6 Z" stroke-linecap="round" />
</g>
		<g transform="matrix(1 0 0 1 133.46 -200.15)"  >
<path style="stroke: none; stroke-width: 1; stroke-dasharray: none; stroke-linecap: butt; stroke-dashoffset: 0; stroke-linejoin: miter; stroke-miterlimit: 4; fill: rgb(255,255,255); fill-rule: nonzero; opacity: 1;" vector-effect="non-scaling-stroke"  transform=" translate(-406.63, -145.42)" d="M 410 141.8 C 408.4 141.3 407.6 141.70000000000002 406.2 142.4 C 397.8 146.6 410.09999999999997 155.8 410 141.8 Z" stroke-linecap="round" />
</g>
		<g transform="matrix(1 0 0 1 101.46 231.53)"  >
<path style="stroke: none; stroke-width: 1; stroke-dasharray: none; stroke-linecap: butt; stroke-dashoffset: 0; stroke-linejoin: miter; stroke-miterlimit: 4; fill: rgb(255,255,255); fill-rule: nonzero; opacity: 1;" vector-effect="non-scaling-stroke"  transform=" translate(-374.63, -577.11)" d="M 371.7 550.4 C 364.2 551.3 335.4 557.5 332.59999999999997 564.3 C 328.29999999999995 574.5 332.7 588.4 341.99999999999994 594.4 C 366.59999999999997 610.4 412.4 609.9 417.79999999999995 574.9 C 420.59999999999997 556.9 411.4 567.8 404.4 571.1 C 388.59999999999997 578.7 363.5 579.5 346.59999999999997 575.6 C 345.4 575.3000000000001 335.59999999999997 572 338.2 569.5 C 357 574.6 374.5 577.4 393.5 571.8 C 400.6 569.6999999999999 411 566.5 412.1 558.0999999999999 C 402.70000000000005 548.5999999999999 384.3 548.9999999999999 371.70000000000005 550.4999999999999 L 371.70000000000005 550.4999999999999 Z" stroke-linecap="round" />
</g>
</g>
</g>
</svg>