<?xml version="1.0" encoding="UTF-8"?>
<svg id="_レイヤー_1" xmlns="http://www.w3.org/2000/svg" version="1.1" viewBox="0 0 646.3 193.6">
  <!-- Generator: Adobe Illustrator 29.1.0, SVG Export Plug-In . SVG Version: 2.1.0 Build 142)  -->
  <path d="M524.7,17.1c-24.4,2.3-42.9,9.2-62.2,23.1-18.2,13.1-26.4,29.2-29.3,58-2,20.2,1.8,33.3,14.9,51.3,23.6,32.4,70.8,46.1,115.4,33.6,32.3-9,54.5-23,68-42.3,6.1-8.7,7.1-12.1,10.7-31.3,5.4-30.3,4.3-40.5-6.4-56.1-4.4-6.6-10.6-13.7-13.8-16.1-16.4-11.8-70.1-22.8-97.4-20.2ZM572.6,31.7c34.4,8.9,48.3,15.3,55.2,26.4,2.5,3.9,7.6,25.6,6.4,27.1-.2.2-4-1.6-8.2-3.8-7-3.7-8.9-4.1-14.1-2.1-34.6,12.5-55.7,14.4-90.8,8.4-12.5-2.2-25-4.7-27.5-5.8-3.6-1.4-5.1-.9-6.2,1.5-2.3,5.1-.5,6.3,15.9,9.1,8.5,1.4,20.3,4.3,26.6,6.3,9,2.9,14.5,3.6,27.5,2.7,15.5-.8,50.8-9.8,55-13.7,3.4-3.2,7.7-1.6,14.7,4.8,6.9,6.2,7.9,8.7,4.2,9.6-1.7.5-1.8,2.3-.8,7.7,2,10.1.4,9.9-3.9,0-3.8-9-9.4-15.7-13.3-16-4.1-.4-2.9,4.1,4.8,18.1,7,12.6,9.2,22.2,5.1,21.8s-4.8-5.8-8.8-12.7c-7.1-13-12.9-19.3-17.2-18-1.5.5,1.5,6.7,7.6,16.9,15.1,24.8,14.6,23.7,11.4,25.7-4,2.3-4.2,2.3-10.5-9.8-9.9-18.8-16.2-27.8-19.7-28.1-3.4-.3-5.3,4.7-2.4,6.4,2.5,1.5,18.2,34.8,17.9,38-.2,2-1.3,4.4-2.5,5.5-1.8,1.7-4.5-3.1-10.8-18.9-9.8-24.1-11.5-26.7-17.7-25.5l-4.4.8,5.8,11.4c5.4,10.2,14.6,33.4,14.2,36.4s-1.8,1.9-3.9,2.9c-3.2,1.6-4.2.4-8-11.2-6.5-20.5-14.3-36-17.8-36.4-2.7-.2-1.7,4,5.3,24.1,7.6,22.5,8.6,30.6,4,30.2s-4.9-9.9-8.7-22c-7.1-22-14.7-35.5-16.4-29-.5,1.8,2.3,13,5.9,25,7.5,23.5,8.2,29.1,2.9,28.6-2.5-.2-4.8-5.8-9.3-23.1-7.3-26.8-9.5-32.1-13.2-32.5-3.9-.4-3,6.3,4.9,33.1,3.6,12.3,5.9,22.9,5.3,23.7-2.8,4.5-8.5-6.7-14.9-29.7-3.8-13.7-8.3-26.4-9.7-28-6.4-6.3-5,5.5,3.3,34.4,5.6,19,6,23.6,2.1,23.2-3.7-.3-5.2-4-11.6-30.9-6-25.8-7.7-30.5-10.3-30.7-3-.3-2.5,9,2.3,33.7,2.6,13.8,4.3,25.3,3.9,25.6s-2.6-1.1-4.8-3.5c-2.9-3.3-4.9-10.5-7.6-28-3.4-21.7-5.9-28.9-10.1-29.3s-1.2,1.5-.7,3.4c1.8,6.9,6.1,51.5,5.1,52.5-3,3-13.3-33.5-12.2-43.9.1-1.4-.5-3.7-1.3-5.3-.9-1.5-2.9-5-4.4-8-1.7-3-3.5-4.8-4-4.3s.9,12.6,3.4,26.8c2.5,14.2,4.2,26.1,3.8,26.5-3.4,3.2-16.5-42.2-15.4-53.2s-4.2-8.6-5.9-7.1c-.6.8-.3,9.8.8,20.2.9,10.6,1.4,19.5,1.1,19.8-1,1.1-5.8-20.3-6.9-30.8-2.3-25.3,2.7-40.9,16.7-53.4,13.4-12.1,23.6-17.4,44.1-23.1,28.8-8.1,41.2-8.4,69.1-1.1Z"/>
  <path d="M607,62.6c-.3,3.3.8,4.2,6.3,4.7,3.6.3,8.3,1.4,10.5,2.2,6,2.6,4.8-1.6-1.7-6.1-8.4-5.7-14.6-5.9-15.2-.8Z"/>
  <path d="M468.5,70.9c.9,4,6.3,5.1,6.7,1.4.2-2-1.3-3.4-3.4-3.6-2.1-.2-3.5.7-3.3,2.2Z"/>
</svg>