<?xml version="1.0" encoding="UTF-8"?>
<svg id="Layer_1" xmlns="http://www.w3.org/2000/svg" version="1.1" viewBox="0 0 540 700">
  <!-- Generator: Adobe Illustrator 29.1.0, SVG Export Plug-In . SVG Version: 2.1.0 Build 142)  -->
  <defs>
    <style>
      .st0 {
        fill: #fff;
      }
    </style>
  </defs>
  <path class="st0" d="M437.1,178.9l-162,2.4-70.8,7.2c40.8,5,82.6,8.1,123.6,9,41,1,85.5-.7,115,5,5.5,1,9.1,6,10.3,11.3,1.2,5.3,3.8,16.1-1,17.6l-131.8-2.2-157.2,7.4,22.8,4.8c76.6,6.7,156.8-2.7,232.8,4.8,68.5,6.8,20.2,21.6,20.4,28l-7.2,24.6c43-5.7,51.1,31.6,37.2,64.6-13.9,33-26.8,33.1-27.6,20.4,17.3-10.1,31.4-67,5.8-70.6-25.7-3.6-39.6,45.5-37,70.4,2.6,24.7,4.1,22,.5,48.6-3.6,26.6-9.6,82.1-18,116.1-9.6,39-63.3,37.3-95.7,44.8,0,3.6,13.6,8.8,15.7,8.8,16.8,0,37.7-5.9,54.5-9.2,16.8-3.4-1.5,37.5-2.9,39.2-4.3,5.3-13.9,9.1-18.7,10.8-38.9,14.4-116.9,14.1-153.6-6.2-4.1-2.2-25.2-16.8-19.9-22,23.5,4.5,84.5,7.2,79.2-29.7-3.6-24.2-47.3-18.9-65.8-20.6-20.4-1.9-16.1-9.3-37-2.6-6.5,16,6.5,30.2,15.4,42.1-10.8,2.4-27.1-20.6-28.6-28.7-1.4-8.1-1.4-22.5,7.2-26.1,8.6-3.6,17.3-1.9,26.4-1.4,25,1.4,59.1,9.6,83.8,4.8,20.9-4.1,23.5-38.8,3.4-51.2-20.2-12.4-80.4-20.1-107.8-20.6-43.9-1-35.3,24.9-22.8,55.1-17.3-4.8-22.1-42.9-16.8-56.3,5.5-14,40.8-10.5,24-10.8,56.4,1.3,102.7,9.9,105.6,9.6,34.1-3.8,32.4-39.3,7.7-55.5-24.7-16.3-106.2-27.5-138.3-28.3-26.2-.7-20.8,15.6-18.4,39.5.7,6.9,9.1,21.3,0,21.8-18.5-19.9-15.6-69.2,15.8-72.8,11.5-1.4,22.1,1.4,34.8,2.4,19,1.7,63.4,15.1,77.3,0,13-14.4,3.8-37.6-11-46.4-19-11.5-70.9-24.9-94-25.4-26.4-.5-30,40.3-25.2,62.2-16.1-3.6-13.7-36.6-11.8-48.8,4.1-26.8,15.3-28.5,37.6-27.8,22.3.7,6.7,5.7,9.1-1.7l-7.2-62.7-19-2.6c-1.4-1.4,3.8-25.9,5.3-29.4,2.6-5.7,8.2-5.5,9.8-9.6,6-14.4-3.8-27.1,17.5-37.6,21.4-10.5,51.1-11.3,69.4-12.2,53.3-2.9,156.3-5.3,206.2,5,49.9,10.3,35,11.7,32.6,30.9h.5-.2Z"/>
  <g>
    <path class="st0" d="M340,21.3c-4.8-2.4-9.2-2.6-12.4-.5-3.4,2.2-4.9,6.3-4.4,12.1.3,3.8,2.2,6.9,4,9.9,2.1,3.4,4,6.4,3.2,10.2-1,4.4-6.1,10.8-11,17-8.9,11.1-18.9,23.7-14.4,34.9,3.2,8,13.2,13.4,30.4,16.6l.7-3.6s0,0,0,0h.5s3.6,1.4,3.6,1.4c2.8-6.3-.8-10.6-3.7-14.1-2.6-3.1-4.9-5.8-4.5-10.4.3-4,5.2-9.3,10.4-14.9,8-8.6,17.1-18.4,16.8-30.6-.3-11.7-9.9-23.4-19.1-27.9Z"/>
    <path class="st0" d="M389.7,72.7l-1.1-1.1h-20.1l.9,4.4c.4,1.9-1.6,8.5-3,13.3-3.7,12.5-7.2,24.2.4,27.7h0c2.5,1.1,5,1.7,7.4,1.7,5.1,0,9.8-2.5,13.3-7.4,8.1-11,9.3-32,2.2-38.7Z"/>
  </g>
</svg>