<svg width="180" height="180" viewBox="0 0 180 180" fill="none" xmlns="http://www.w3.org/2000/svg">
<path d="M172.755 65.3079C172.755 65.3079 172.755 64.99 172.755 64.8487C172.507 63.7183 172.331 62.6939 172.118 61.6341C171.235 56.8652 170.351 51.9198 166.145 47.928C165.438 47.2569 164.978 46.1265 164.483 44.9254C164.059 43.901 163.635 42.8059 162.999 41.8168C161.196 39.1675 159.111 36.6241 157.131 34.1867L156.212 33.0563L155.47 32.1378C153.95 30.2303 152.359 28.2167 150.451 26.5565C149.85 26.0266 149.284 25.4967 148.683 24.9315C146.103 22.5294 143.452 20.0214 139.458 19.2795C138.574 19.1029 137.655 18.679 136.7 18.1845C136.312 17.9725 135.923 17.7959 135.499 17.6193C134.58 17.2307 133.696 16.7715 132.812 16.3123C130.833 15.2878 128.818 14.2634 126.591 13.7689C124.859 13.3803 123.127 12.9211 121.395 12.4972C115.139 10.9075 108.705 9.2826 101.989 9.2826C101.247 9.2826 100.54 9.2826 99.7979 9.35325C99.5505 9.35325 99.2677 9.35325 99.0203 9.35325C98.0659 9.35325 97.0762 9.2826 96.0511 9.17662C94.9907 9.07065 93.9303 9 92.8345 9C91.9508 9 91.1732 9.07065 90.4662 9.21195L87.8859 9.67117C80.8164 10.9782 73.4995 12.3205 66.8543 16.1356C65.6525 16.8421 64.3446 17.4073 62.9661 17.9725C61.234 18.7143 59.4313 19.4915 57.77 20.5866C53.5283 23.3772 48.6151 26.7684 44.1967 30.7248C40.5912 33.9394 35.9961 38.3197 32.2846 43.4771C28.9973 47.9987 26.0989 52.9089 23.3064 57.6424C22.3167 59.338 21.327 61.0336 20.3019 62.7292C19.8777 63.4357 19.5243 64.1422 19.1708 64.884C18.9234 65.3432 18.7113 65.8378 18.4285 66.297C17.7569 67.5334 17.05 68.7344 16.3077 69.9708C14.7524 72.5848 13.1618 75.2695 12.1367 78.1662C10.44 83.1116 9.20287 88.3044 8.00106 93.2852C7.64759 94.6982 7.32946 96.1112 6.97599 97.5242C5.38536 103.953 6.05696 110.382 6.7639 116.564C7.01133 118.684 7.22342 120.909 7.36481 123.064C7.4355 124.195 8.00106 125.431 9.02613 126.879L10.2279 128.504C13.2325 132.602 16.3077 136.841 20.5847 140.091C22.6348 141.645 24.1548 142.952 25.498 144.259C26.3816 145.107 27.23 146.061 28.043 147.014C29.4922 148.639 30.9768 150.335 32.7795 151.713C34.5115 153.02 36.3849 154.079 38.1876 155.104C40.2024 156.234 42.1112 157.329 43.7725 158.672C46.6003 160.932 49.7108 162.063 52.7507 163.158C53.8465 163.546 54.9776 163.97 56.038 164.43C57.0984 164.889 58.1942 165.56 59.0072 166.019L59.6788 166.408C59.8908 166.514 60.1029 166.584 60.315 166.584C61.1987 166.655 61.9763 166.655 62.6833 166.69C63.8144 166.69 64.7334 166.726 65.5464 166.902C66.112 167.008 66.6775 167.256 67.3138 167.503C68.1268 167.856 68.9751 168.209 69.9648 168.351C73.853 168.881 77.7766 169.34 81.5587 169.799L85.9418 170.294C86.5427 170.364 87.1436 170.47 87.7445 170.576C88.9463 170.788 90.1835 171 91.4913 171C91.7387 171 91.9862 171 92.2336 171C92.9052 170.965 93.5768 170.929 94.2837 170.929C97.2529 170.823 100.293 170.753 103.439 169.128C105.029 168.315 107.044 168.103 109.13 167.856C110.296 167.715 111.533 167.609 112.735 167.362C115.952 166.69 118.744 165.949 121.289 165.101L124.4 164.076C129.242 162.522 134.262 160.897 138.998 158.778C141.225 157.824 143.169 156.376 145.042 154.998C146.315 154.044 147.552 153.161 148.825 152.384L149.814 151.819C153.738 149.593 157.767 147.332 159.535 142.175C160.136 140.444 160.878 138.784 161.656 137.017C162.257 135.71 162.857 134.368 163.352 133.026C165.756 126.738 168.301 119.92 171.341 111.619C171.518 111.16 171.694 110.665 171.871 110.206C172.613 108.298 173.391 106.32 173.603 104.236C174.239 98.3014 174.876 92.1195 174.769 86.0436C174.734 84.348 174.805 82.6171 174.876 80.9215C175.088 75.7994 175.335 70.536 172.79 65.4492L172.755 65.3079ZM163.6 99.8203C163.6 99.8203 163.494 100.174 163.494 100.35C163.494 101.904 163.105 103.635 162.398 105.649C159.888 112.855 157.308 120.309 154.551 127.586C153.137 131.295 151.334 135.251 149.001 139.702C148.825 139.985 148.047 140.55 147.587 140.691C146.951 140.444 146.35 140.338 145.785 140.338C143.699 140.338 142.639 141.822 141.861 142.917C141.649 143.199 141.437 143.517 141.225 143.765C137.513 147.792 133.731 151.536 128.5 153.161C126.202 153.867 123.94 154.751 121.713 155.598C118.921 156.658 116.058 157.753 113.195 158.53C109.094 159.661 104.747 160.261 100.505 160.826L99.091 161.038C97.8892 161.215 96.652 161.286 95.3795 161.286C90.2895 161.286 85.4469 159.979 80.3569 158.566C78.6249 158.106 76.8929 157.612 75.1255 157.188C74.0298 156.941 72.934 156.764 71.9089 156.587C69.7527 156.234 67.7379 155.916 65.8292 154.892C59.396 151.465 52.6093 147.58 46.5296 142.599C41.4042 138.395 37.2332 133.697 33.7692 128.292C33.6985 128.186 33.6278 128.116 33.5571 128.045C33.4511 127.939 33.2744 127.727 32.9562 127.55C30.0224 125.819 27.9016 123.099 25.6393 120.203C24.685 118.966 23.6599 117.695 22.5995 116.494C21.7511 115.575 21.3977 113.809 21.0442 112.255L20.9735 111.866C19.1001 103.529 19.595 94.7689 22.5641 83.5355C24.5789 75.7641 27.8662 68.2045 32.6028 60.3977C38.8946 50.0122 44.8683 40.8984 54.5534 34.8932C57.1691 33.2682 59.9262 31.8199 62.6126 30.3716C64.0972 29.5944 65.5464 28.7819 67.031 27.9695C67.7733 27.5456 68.5156 27.157 69.2579 26.7684C71.1313 25.7793 73.04 24.7549 74.8427 23.4479C78.6249 20.6572 83.4321 19.1029 88.4514 19.0676C89.6533 19.0676 90.8904 18.9969 92.1276 18.9263C93.5061 18.8556 94.92 18.785 96.2985 18.785C98.8789 18.785 102.237 18.9969 105.383 20.7632C106.655 21.4697 108.105 21.505 109.412 21.5403C109.978 21.5403 110.543 21.5403 111.074 21.6463L111.71 21.7523C112.558 21.8583 113.336 21.9996 114.008 22.2468C119.734 24.5783 125.001 26.7684 130.091 28.9232C130.267 28.9939 130.479 29.0999 130.691 29.1705C131.116 29.3471 131.717 29.5944 131.893 29.771C133.272 31.396 134.58 33.0209 135.923 34.6459C137.266 36.3061 138.609 37.9664 139.988 39.556C141.508 41.3223 143.134 43.0532 144.689 44.7488C145.255 45.3493 145.785 45.9498 146.35 46.515C146.386 46.7976 146.527 47.0802 146.739 47.3275L147.729 48.3873C148.577 49.3057 149.425 50.1888 150.132 51.1073C151.051 52.3083 151.864 53.58 152.571 54.8517C154.692 58.7728 156.389 62.0227 157.873 65.0959C158.262 65.8731 158.51 66.7209 158.793 67.6393C159.005 68.3812 159.252 69.123 159.535 69.8295C160.065 71.1365 160.595 72.4435 161.161 73.7505C161.903 75.5168 162.681 77.3537 163.352 79.1906C163.67 80.0384 163.706 81.1688 163.706 82.0166V84.348C163.812 89.4348 163.847 94.7335 163.741 99.891L163.6 99.8203Z" fill="white"/>
</svg>
