<?xml version="1.0" encoding="UTF-8"?>
<svg id="Layer_1" xmlns="http://www.w3.org/2000/svg" version="1.1" viewBox="0 0 540 700">
  <!-- Generator: Adobe Illustrator 29.1.0, SVG Export Plug-In . SVG Version: 2.1.0 Build 142)  -->
  <defs>
    <style>
      .st0 {
        fill: #fff;
      }
    </style>
  </defs>
  <path class="st0" d="M369.9,150.1c-28.7-28.3-63.3-42.3-102.8-41.6-3.5,0-6.6,0-9.6,0-47.2,1.3-85.4,21.7-113.6,60.6-29.1,40.1-40.3,90-44.6,124.8-6.5,55.5-4.1,105.8,7.2,149.6,9,35.8,29.3,68.5,57.1,92.1,28.7,24.4,62.6,37.2,98.2,37.2h7.8c35.1-.4,66-8.8,91.9-24.7,27.1-16.7,47.2-41.1,59.7-72.3,14.9-34.6,21.3-87.8,21.2-125.3.1-59.5-18.8-147.8-72.5-200.6h0ZM270.6,371.3h-6.1c-21.6-.2-40.2-.4-56.9-14.3,0,0-9.7-7.1-13.8-6-3.1-.7-5.5-.4-7.1,1.1-.1.1-.3.3-.3.4-1.8,3.2,1.3,5.5,3.8,7.3,3,2.2,4.8,3.7,3.9,5.9-1.5,2.4-4.1,2.9-8.3,3-4.3-.2-9.2-.8-13.8-1.4-2.9-.4-5.6-.7-8.1-.9-1.9-.2-4.2-.4-6.1,0-2.6-.2-5.6-.3-7.4.7-1.9,1-2.8,3.1-2,5,1.2,3.1,5.1,4.2,7.4,4.6,4.7.9,9.8,1.4,14.9,2,6.4.7,13.1,1.4,18.8,2.8.7.2,1.4.4,2.1.7-7.3.2-23.2.5-28.8,1.2l-10.3,1.2c-2.4.3-3.9.4-4,.4-.3,0-.5,0-.7.2l-3.4.2h-.1c-.3-.3-.7-.4-1.1-.3-.4,0-.8.2-1.1.5s-.4.7-.4,1.1c.6,9.9,17,10.5,31.5,11.1,7.3.3,14.2.6,18.3,1.9.8.3,1.2.4,1.3.6,0,.2,0,.4-.1.7-.4.9-1.5,1.8-2.7,2.3-1.4.5-2.9.7-4.5.9-.8,0-1.6.2-2.4.3-2.3.3-4.7.7-7.1,1h-.2c-4.3.6-8.6,1.2-12.6,1.8-4.1.8-4.5,2.7-4.4,3.8.2,2.6,4.1,4.3,6.6,4.4,1.6.1,3.3.3,5,.5,3.5.3,7.2,1.2,11.1,2.2,5.4,1.3,11,2.7,16.4,2.5,5,0,30.6.2,41-7.4,1.4-1,7.7-2.9,10.2-3.4,5.7.4,9.5,1.4,13.8,2.5,2.8.7,5.7,1.5,9.3,2.2,6,1.2,10.6,2.2,14.6,3.1,5.2,2.1,9,4.9,11.8,8.5,11.3,16,8.6,40.4,6.4,60-.2,2.2-.5,4.3-.7,6.4-2,20.7-13.8,55.5-33.6,68-3.8,2.3-8.9,3.6-14.9,3.9-2.1,0-4.2-.3-6.3-.5-23.8-2.9-45.2-10.6-63.6-23-88.6-62.1-81.2-199.4-73.9-255.6,8.5-72.9,51.9-152.5,129.6-166.1,2.8-.5,7-1.2,10.8-1.5.8,0,1.5.2,2,.4h0c.9.4,1.4.9,1.7,1.7.9,2.7-2.2,7.8-4.5,11.5-.8,1.3-1.5,2.4-1.9,3.2-15.3,23.7-25.3,47-29.8,69.2-5.2,26-3.1,51.3,6.3,75.4,3.9,11,9.7,24.5,19.6,31.9,7.4,5.8,17.3,6.2,26.9,6.1h5.3c8,0,16.4-.4,23.3-1,10.2-.7,19.4-3.3,28.1-8.1.9-.4,1.7-.9,2.6-1.3,2.7-1.4,5.6-2.9,8.4-4,.5-.2,1.1-.6,2.4-1.6,1.5-1.1,5.5-4.1,6.6-3.7,0,0,.1.2.1.3.4,1.9-.5,4.5-1.4,6.8-.8,2.1-1.4,3.8-1.1,5.1,1.4,6.3,10.6,5.8,14.6,5.6,2.9.2,6.1,0,8.9-.2,1.2,0,2.3-.2,3.3-.2,2-.1,3.9-.3,5.8-.5,2.9-.2,5.5-.5,8.2-.6,1.2,0,2.2.1,3.2.2,2.7.3,4.6,1.1,4.8,1.7,0,.3-.3.9-1.5,1.8-6,3.6-13.5,4.6-20.7,5.5-5.5.7-11.1,1.4-16.2,3.2-3.2,1.1-4.7,2.2-4.8,3.6,0,.9.5,1.7,1.6,2.3h.1c5.2,2,11,2.2,16.7,2.4,2.6,0,5.2.2,7.8.4,4.2.2,8.9.6,12,1.7,3.9,1.4,4.7,2.5,4.6,2.8,0,.8-3.2,2.2-8.6,2.8-2.7.4-6.1.4-9.3.5h-2.8c-8.4,0-17.1,0-22.2,2.8-.1,0-.3.2-.4.3-.4.6-.4,1.3-.1,1.9,1.1,2.1,6.8,3.2,19.7,4h1c8.7.4,16.5,3.4,16.7,5,0,0,0,1.9-10,3.5-5.3.9-11.6,1.4-17.5,1.5-1,0-2,0-3-.1-7.1-.3-14-.9-20.7-2.4-5.3-1.2-21.9-1-22.7-1.1-3.2-.4-8.6.7-16.7,4.6-3.9,1.9-8,2.8-12.1,4.6-3.7,1.6-9,2.9-15.9,3.8l-.2.2Z"/>
</svg>