<?xml version="1.0" encoding="utf-8"?>
<!-- Generator: Adobe Illustrator 24.3.0, SVG Export Plug-In . SVG Version: 6.00 Build 0)  -->
<svg version="1.1" id="Layer_1" xmlns="http://www.w3.org/2000/svg" xmlns:xlink="http://www.w3.org/1999/xlink" x="0px" y="0px"
	 viewBox="0 0 800 800" style="enable-background:new 0 0 800 800;" xml:space="preserve">
<style type="text/css">
	.st0{fill:#FFFFFF;}
	.st1{fill:#2BA6DF;}
	.st2{fill:#3F3A39;}
</style>
<rect x="73" y="331.5" class="st0" width="188.4" height="136"/>
<path class="st1" d="M117.2,408.2c-4.9,0.6-13.5,2.5-18.5,6.8c-14.8,12.9-6.2,35.7,24,35.7c17.2,0,34.5-11.1,48-28.3
	C151,413.1,135,406.3,117.2,408.2z"/>
<path class="st1" d="M227.5,424c27.7,9.2,33.9,9.8,33.9,9.8v-98.5c0-16.6-13.5-30.2-30.8-30.2H101.3c-16.6,0-30.8,13.5-30.8,30.2
	v129.2c0,16.6,13.5,30.2,30.8,30.2h129.3c16.6,0,30.8-13.5,30.8-30.2v-1.2c0,0-49.2-20.3-74.5-32.6C170.3,451.1,148.7,464,126,464
	c-38.2,0-51.1-33.2-32.6-54.8c3.7-4.9,10.5-9.2,20.9-11.7c16-3.7,41.9,2.5,65.9,10.5c4.3-8,8-16.6,10.5-25.8h-74.5v-7.4h38.2V360
	h-46.8v-7.4h46.8v-19.1c0,0,0-3.1,3.1-3.1h18.5v22.8H222v6.8h-46.2v13.5h37.5c-3.7,14.8-9.2,28.3-16,40
	C209.7,417.9,220.1,421.5,227.5,424L227.5,424L227.5,424z"/>
<path class="st2" d="M349.2,350l40.6,88h-21.5l-11.1-23.4H324L312.9,438h-14.2l41.2-85.5c0,0,1.2-2.5,3.7-2.5H349.2L349.2,350z
	 M327.7,406.6h25.9l-12.9-27.7L327.7,406.6z M417.4,438.7h-19.7V355c0-2.5,1.2-3.7,4.3-3.7h15.4V438.7z M454.3,438.1h-19.7v-63.4
	c0-2.5,1.2-3.7,4.3-3.7h15.4V438.1z M478.4,372.3h12.9v6.2c2.5-1.8,4.9-3.7,8-4.3c3.1-1.2,6.2-1.8,10.5-1.8c4.3,0,8,0.6,11.1,2.5
	c3.7,1.8,6.2,3.7,8.6,6.8c2.5,3.1,4.3,6.2,5.5,9.8c1.2,3.7,1.8,7.4,1.8,11.7c0,5.5-0.6,10.5-2.5,14.8c-1.8,4.3-3.7,8.6-6.8,11.7
	c-3.1,3.1-6.2,6.2-10.5,8c-4.3,1.8-8.6,2.5-13.5,2.5h-6.8c-1.8,0-3.7-0.6-5.5-1.2v22.2h-19.7v-80.6
	C471,372.3,474.1,372.3,478.4,372.3L478.4,372.3z M491.3,420.3c0,1.8,0,3.1,0.6,4.3c0.6,1.2,1.2,2.5,2.5,3.7
	c1.2,1.2,2.5,1.8,3.7,2.5c1.2,0.6,3.1,0.6,4.9,0.6c1.8,0,3.1-0.6,4.9-1.8c1.2-1.2,3.1-2.5,3.7-4.9c0.6-2.5,1.8-4.3,2.5-7.4
	c0.6-3.1,1.2-5.5,1.2-9.2c0-4.3,0-8-0.6-11.1c-0.6-3.1-1.2-5.5-2.5-8c-1.2-1.8-2.5-3.7-3.7-4.9c-1.2-1.2-3.1-1.8-4.9-1.8
	c-1.2,0-2.5,0-3.7,0.6c-1.2,0.6-2.5,1.2-3.1,1.8c-1.2,0.6-1.8,1.8-3.1,2.5c-1.2,1.2-1.8,1.8-2.5,3.1L491.3,420.3L491.3,420.3z
	 M574.4,372.3c4.9,0,8.6,0.6,12.3,1.2c3.1,0.6,6.2,1.8,8.6,3.7c2.5,1.8,3.7,3.7,4.9,5.5c1.2,2.5,1.8,4.9,1.8,7.4v48.6h-19.7v-4.9
	c-1.2,1.2-2.5,1.8-3.1,2.5l-3.7,1.8c-1.2,0.6-2.5,1.2-4.3,1.2c-1.8,0.6-3.7,0.6-5.5,0.6c-3.1,0-5.5-0.6-8-1.2
	c-2.5-0.6-4.3-1.8-6.2-3.7c-1.8-1.2-3.1-3.1-3.7-5.5c-0.6-1.8-1.2-4.3-1.2-6.8c0-2.5,0.6-4.9,1.2-6.8c0.6-1.8,2.5-3.7,3.7-5.5
	c1.2-1.8,3.7-3.1,5.5-4.3c2.5-1.2,4.3-2.5,7.4-3.7c2.5-1.2,4.9-1.8,8-3.1c2.5-0.6,5.5-1.8,8-2.5l2.5-0.6v-6.8c0-1.8,0-3.7-0.6-5.5
	l-1.8-3.7c-0.6-0.6-1.8-1.8-2.5-1.8c-1.2-0.6-2.5-0.6-3.7-0.6c0,0-10.5,0-19.7,8l-4.3-6.8C548.6,380.3,559.6,372.3,574.4,372.3
	L574.4,372.3z M581.2,404.9c-1.8,0.6-3.7,1.8-5.5,3.1l-5.5,3.7c-1.8,1.2-3.1,2.5-3.7,4.3c-1.2,1.2-1.2,3.1-1.2,4.3
	c0,1.2,0,2.5,0.6,3.7c0.6,1.2,0.6,1.8,1.2,3.1c0.6,1.2,1.2,1.2,1.8,1.8c0.6,0.6,1.2,0.6,2.5,0.6c1.8,0,3.1-0.6,4.9-1.2l5.5-3.7
	v-19.7L581.2,404.9L581.2,404.9z M628.9,460.3H616l-0.6-11.7c0,0,16,0.6,20.9-5.5c1.8-2.5,3.1-9.2,3.1-9.2l-32-61.5h21.5l20.3,40
	l17.9-40h14.2l-32.6,72.6C647.4,447.4,642.5,460.3,628.9,460.3L628.9,460.3z"/>
<ellipse class="st1" cx="444.5" cy="352.9" rx="9.8" ry="8.7"/>
</svg>
