<?xml version="1.0" encoding="UTF-8"?>
<svg id="_レイヤー_1" xmlns="http://www.w3.org/2000/svg" version="1.1" viewBox="0 0 646.3 193.6">
  <!-- Generator: Adobe Illustrator 29.1.0, SVG Export Plug-In . SVG Version: 2.1.0 Build 142)  -->
  <defs>
    <style>
      .st0 {
        stroke-width: 3px;
      }

      .st0, .st1, .st2, .st3 {
        stroke: #000;
        stroke-miterlimit: 10;
      }

      .st1 {
        stroke-width: 4px;
      }

      .st2, .st3 {
        stroke-width: 2px;
      }

      .st4, .st3 {
        fill: none;
      }
    </style>
  </defs>
  <path class="st2" d="M612.1,152.3c-20.6,4.8-39,13.8-61.5,15.8-2.2,5,10.8,3.6,16.8,2.8,8.6-1.1,19.1-4.3,26.9-7.2,2.9-1.1,22.6-8.9,17.5-11.5h.2s0,.1,0,.1Z"/>
  <path class="st2" d="M354.6,175.7c-15.3-4.2-30.8-3.6-46.3-10.8-3.2,3.6,5.9,7.6,10.2,9.4,6.1,2.6,14.2,4,20.4,4.5,2.3.2,18.1,1.2,15.7-3.1h-.1s0,0,0,0Z"/>
  <path class="st2" d="M529.9,187.4c-2.3.8-3.4,1.8-2.7,3.3l25.1-2.4c2.7-.3,14.9-3.3,18.3-4.3,6.8-2,16.2-6,16.1-11.2-7,3-14.1,6.2-22,8.2-10,2.6-27.1,3.6-34.9,6.3h0v.2s.1,0,.1,0Z"/>
  <path class="st0" d="M338.5,177.3c-1.6.1-2.3.6-2.4,2.3l14.4,5.2c1.6.5,9.2,1.4,11.2,1.5,4.3.2,10.5-.6,11.9-5.5-4.7.7-9.5,1.6-14.3,1.1-6.3-.6-15.8-4.7-21-4.5h.1s0,0,0,0Z"/>
  <path class="st2" d="M589.8,190.7c7.5-2.3,18.4-6.4,13.9-8.7l-35.2,8.6c1.5,0,3,0,4.5,0,5.6,0,11.2,0,16.8,0Z"/>
  <path class="st3" d="M630.8,141.8v-.5h0v.5Z"/>
  <path class="st2" d="M601,81.3c-64.3-13.8-196.6,2.2-259.8,23.1-11,3.6-36.7,13.2-40.6,22.3-2.9,6.8,2.1,32.1,4.1,40.3,4.7,17.8,5.5,8.9,15.2,25.8,2.5-.5,5-.9,7.4-1.4-14.9-23.6-17.2-22.3-22.4-49,27.5,10.3,63.3,15.5,94.4,15.9,50.9.8,179.5-13,217.7-42.2,24.3-18.7,9.9-29.1-15.9-34.7h-.2s0,0,0,0ZM453.1,150.2c-41.2,3.1-81.7,2.8-121.4-5.1-9.8-2-20.5-3.7-27.2-10,5.4-15.9,29.2-22.1,46.8-27.3,27.4-8,56.6-13.8,85.3-17.5,41.1-5.4,136.2-12.6,172.8-.3,24.6,8.3,16.9,16.9-2,27-39.7,21.3-107.8,29.5-154.3,33.1h.2s0,.1,0,.1h0Z"/>
  <path class="st2" d="M623.5,143h0l1.9-9.6c-1.6-1.3,2.7-27.1,2.6-31.6-.2-2.3.8-4.6-3.2-3.5-8.3,41.3-4.4,40.9-7.6,57.1-3.3,16.2-9.2,33.7-16.3,50.4,1.5,0,3,.2,4.6.3l13.3-41.1s.3,0,.5-.2l4.2-21.4v-.5s.1,0,.1,0h0Z"/>
  <path class="st1" d="M619.8,136.2l-36.2,14.4-52,13.8c26-1.8,56.2-8.5,77.3-19.8,1.8-.9,13.4-7.3,10.9-8.6h0v.2Z"/>
  <g>
    <path class="st4" d="M487.9,82.7l-2.7,1.6c3.5,17.6,4,24.5,25.8,17.2,21.8-7.3,30.2-19.3,35.7-13.1s-4,12.6-7.6,16.6c17.4-2,62.1-31.4,56.6,2.6"/>
    <path class="st4" d="M330.1,129.7c5.5-27.7,41.7-5.1,60.8-6.3-6.4-5.3-11.9-9.1-8.5-18.1,4.6-7.6,25.8,7.1,32.9,8.8"/>
    <path d="M487.9,82.7s1.4,26.1,23.1,18.8c21.8-7.3,30.2-19.3,35.7-13.1s-4,12.6-7.6,16.6c17.4-2,63.4-8.2,56.6,2.6s-30.8,14.6-48.3,19.6c-33.5,9.5-70.6,13.5-100.2,14.7-67.2,2.6-75.4-17.2-56.3-18.4-6.4-5.3-11.9-9.1-8.5-18.1,4.6-7.6,25.8,7.1,32.9,8.8,0,0,25.9-30.8,72.5-31.4Z"/>
    <path d="M484.4,74.2s-.3,0-.8,0c-10.1,13-10.5,26.8-7.4,45.2,3.5,20.6-29.9,22.7-35.3,3.6-3-10.6-.4-27.8,5.7-45.9"/>
    <path d="M436.9,124.2c6.8,18.9,52.7,15.8,48.5-4.7-3.7-18.4-2.7-32.2,11.6-45.5,1.7-1.6,3.6-3.2,5.7-4.8,24.8-18.5,85.9,2.8,84.9-28.7-.5-19.6-34.8-42.3-66.4-35.4-29.3,6.5-59.6,41.2-75.1,73-8.9,18.3-13,35.6-9.2,46.1Z"/>
  </g>
</svg>