<?xml version="1.0" encoding="UTF-8"?>
<svg id="Layer_1" xmlns="http://www.w3.org/2000/svg" version="1.1" viewBox="0 0 550 450">
  <!-- Generator: Adobe Illustrator 29.1.0, SVG Export Plug-In . SVG Version: 2.1.0 Build 142)  -->
  <g>
    <path d="M465.2,184.5l-32.6,11-1.9,2.6h4.5s24.7-8.3,33.1-11.2c8.4-2.9,36-20.1,36-20.1,0,0,23.3-12.9,26.3-16.7,3.1-3.8-.7-1.9-.7-1.9l-32.9,18.8s-22.3,14.3-31.9,17.6Z"/>
    <path d="M494.8,61.9c-14.3,0-28.3,3.6-42.5,5-23,2.3-45.5,4.3-68.2,7.3-2.8.4-5.1,2.3-8.1,1.8,1.3-1.8,5.5-3.9,7.6-4.4,24.7-5.5,50.5-6.7,75.6-9.4s17.8-3.3,26.6-3.8c3.4-.2,9.3-1.4,9,3.5Z"/>
    <path d="M347.5,173.2c-1.6,1.1-2.6-1.3-3.2-1.9-19.8-19.5-9.7-56.3,6.6-74.9,9.2-10.5,25.3-28.6,38.1-23.6s.9,3-1.1,3.2c-27.8,3.3-63.9,52.8-46.8,87,.8,1.5,7.4,9.4,6.4,10.1Z"/>
    <path d="M529.5,149.7c8.3-24.5,7.3-66.5-17.4-81.4-4.1-2.5-7.8-3.5-11.9-5.3s-3.5-1.4-3.4-2.6c11.7,1.3,22.5,7.7,29.7,17,11.3,14.7,15.3,45.4,10.1,63.1-.3,1.1-5,11.8-7,9.2Z"/>
    <path d="M448.5,112.7c-10.3-18.4-37.2-38.5-58-39.9.7,1.4-1.4,1.3.8,2.4,5.5,2.7,17.8,5.9,20.8,7.7,18.8,11.4,32.8,24.4,38.9,41.8,4.6,13.1.6,29.1-3.9,41.8l-90.6,8.1c-12.6,4-21.6,12.8-35.9,12.8-11.5,0-16.8-4.8-26.7-8.1-18.5-6.2-43.1-8.7-62.5-6.7-7.7.8-25.7,8.6-27.4,10-2.7-2-16.6-11.5-29.7-7.9-7.8,2.1-13.2,4.2-21.2,16.7-1.1-.3-2.3-.6-3.4-.8-57,1.3-156.9,27-128.6,104.5,13.1,35.8,59.8,37.2,87.6,54.3,14.7,9,28.5,23.5,43.6,32.7,43.5,26.3,138,39,180.7,7,19.2-14.4,17.3-39.1,34.4-55.3,6.6-6.3,14.7-9.8,21-16.9,26-29,9.5-62.6-12.8-87.1-.2-.2-2.2.6-2.3-1.1-.6-3.6,2.6-12.3,4.6-15.6.8-1.4,9.3-9.8,10.3-10.3,10.3-5.3,25.1,1.1,38.3-5.1,18.7-8.8,24.4-24.1,27.9-43.3,3.1-17,2.4-26.5-6.1-41.6ZM80,283.1h0c0-.5,0-1,.2-1.6.1-.4.2-.9.4-1.4.2-.4.4-.9.6-1.3.2-.4.5-.9.7-1.4.3-.6.7-1.2,1.1-1.7.1-.2.3-.4.4-.5.2-.3.5-.7.7-1,.5-.6.9-1.2,1.4-1.7,1.2-1.3,2.2-2.2,2.6-2.1.2,0,.3,0,.4.1.7.4.6,1.8.3,2.7,0,.1,0,.2-.1.3-1.2,3.5-4.8,6.8-6.1,10.6-.1.3-.2.7-.3,1.1h0c-1.6-.2-2.3-1-2.3-2.2ZM91.2,283.6c-.2,0-.4-.1-.6-.2-.3-.2-.4-.6-.4-1,0-.7.3-1.5.8-2.5,1.6-3.1,5.2-7.2,5.7-7.4.6-.3,1.4-.2,2.3,0,.7.1,1.5.3,2.1.3h0c-2,1.8-7.7,11.1-9.9,10.8ZM114.6,274.6c0,.2-.2.4-.2.5,0,0,0,0,0,0-.4.2-1.4.4-1.9.9-.8.8-1.6,1.7-2.5,2.6,0,0,0,0,0,0-.4.5-.9.9-1.3,1.4-1.1,1.1-2.1,2.1-3.1,2.8,0,0,0,0,0,0-.3.2-.5.4-.7.6-.5.4-.8.7-1.5.7-.3,0-.8,0-1.3-.3,1.2-6.3,6.9-10.1,12.7-11.4.7.2.5,1.4.2,2.1ZM218.9,344.5c-.9.8-1.5,1.8-2.1,2.7-.1.2-.2.3-.3.5-.4.5-.8,1-1.2,1.3-.2.1-.4.2-.6.3-.1,0-.3.1-.5.1-.3,0-.7,0-1.1,0-.2,0-.4,0-.7-.2,0-.6,0-1.1,0-1.6.2-1.5.7-2.7,1.4-3.7,1-1.4,2.4-2.5,4.1-3.7,1.6-1.2,5-3.6,6.9-3.2.9.2,1.4,1,1.4,2.7-2,.2-4,1.7-5.8,3.2-.6.5-1.1,1-1.6,1.4ZM229.5,346.6c-1.5,1.6-3.2,3.3-4.8,4.2-.8.4-1.4.5-1.8.3-.1,0-.2-.1-.3-.2-.1-.2-.2-.4-.2-.8,0-3.6,6.2-7.4,11.5-9,2-.6,3.9-.8,5.1-.6-.5,1.3-1.5,1.8-2.7,2.1-.4.1-.8.2-1.2.3,0,0-.1,0-.2,0-.7.1-1.3.3-1.9.5-.2,0-.4.2-.6.3-.9.5-1.9,1.7-3.1,2.9ZM234.8,354.8c-2.8-2.4,1.7-6.5,4.8-8.1,0,0,.2-.1.4-.2,0,0,0,0,.1,0,.5-.2,1.1-.5,1.9-.8,1.5-.6,3.4-1.1,4.6-1.1,1.2,0,1.7.6.6,2.2-.5.8-1.4,1.5-2.5,2.1-1.1.6-2.3,1.3-3.5,2-.3.2-.7.4-1,.6-.9.6-1.8,1.2-2.4,2-.3.3-.5.6-.7,1-.1.2-.2.5-.3.7,0,.2-.1.3-.2.5h0c-.7-.3-1.3-.6-1.7-.9ZM284.8,279.4c.1,0,.3-.2.4-.3-.1.1-.3.2-.4.3,0,0,0,0-.1,0-.1,0-.3.1-.4.2,0,0,0,0,0,0-.2,0-.3,0-.5,0,0,0,0,0-.1,0-.2,0-.3,0-.5,0,0,0,0,0,0,0,0,0,0,0,0,0,.2,0,.3,0,.5,0,0,0,0,0,.1,0,.2,0,.3,0,.5,0,.2,0,.3,0,.5-.2,0,0,0,0,.1,0ZM319.6,216.4c2.8-3.1,6.8-5.8,8-4.3h0c2.1,2.6-3.9,4.9-4.8,5.8-1.3,1.3-3.3,5.5-5.1,5-1.1-.3-1.2-1.3-.8-2.5,0-.2.1-.4.2-.6,0-.1.1-.3.2-.4.2-.4.5-.8.8-1.3,0,0,.1-.1.2-.2.2-.3.5-.7.8-1,.2-.2.3-.4.5-.6ZM311.8,212.7c.3-.2.6-.4.9-.5.4-.2.7-.3,1.1-.4.8-.2,1.7-.3,2.5,0,1.9.7,1,1.8-.4,2.7-1.3.9-2.9,1.6-3,1.7-1.2,1.3-1.9,4.8-4.3,6-.2,0-.4.2-.6.2-.3,0-.6.1-.9.2-.2,0-.5,0-.7,0-.4-2.9,2.3-7.7,5.5-9.9ZM333.3,220.8c-1.9,1.9-3.9,3.7-5.9,5.6-1.2,1.2-2.3,2.4-3.3,3.7h0c-.8-.7-1.1-1.5-1.1-2.4,0-2.1,2.3-4.7,4.8-6.7.8-.7,1.7-1.3,2.5-1.8,2.3-1.4,4.4-2.2,4.8-1.6,1.1,1.5-1.3,2.6-1.9,3.2ZM377.5,280.5c.6-.5,1.2-1.1,1.9-1.6,1-.7,2-1.4,2.9-1.9,1.5-.8,2.8-1.2,3.1-.7.1.2,0,2.5-.7,3.4,0,.1-.2.2-.3.3l-5.1,3-4,2.3h0c-.6-1.3.5-3.1,2.2-4.7ZM375.6,277.9c-2.7-.4-6.9,7-9.3,7.5-.4,0-.8,0-1.1-.4-.7-1,.5-3,2.4-4.9.3-.3.6-.6,1-.9,2.3-2,5-3.6,6.3-3.2v.3c.1,0,.7,1.6.7,1.6Z"/>
  </g>
  <g>
    <path d="M429.2,70.5s0,0,0,0c-.9-1-1.5-1.5-1.5-1.5l1.5,1.6Z"/>
    <path d="M476.7,61l-4.3-1.4c-1.6-.9-14.3-.8-16.5,0-10.4,3.6-.5-.8-11.3,1.7-3.1.7-11.4,1.2-13.2,3.1-2.1,2.1-.7,3.7-2.1,6.4,3.2,3.6,16.5,17.3,24.9,29.1,8.4,11.7,10.4,14.3,13.8,28.2,2.7,11.4,3.5,21.3.6,33.8s-5.3,24.3-5.3,24.3c3.8,3.3,6.6,4.7,12.5,2.5,11.5-9.8,7.3-5.3,20.4-12.8,3.6-2.1,11.7-6.6,13.9-9.6,1.6-2.2,2-4.9,2.7-11.2,1.1-10.5,3.1-7.7,1.5-19.4-.9-6.8-.8-17.5-3-25.5-8-28.2-34.5-49.2-34.5-49.2Z"/>
  </g>
</svg>