<?xml version="1.0" encoding="utf-8"?>
<!-- Generator: Adobe Illustrator 24.3.0, SVG Export Plug-In . SVG Version: 6.00 Build 0)  -->
<svg version="1.1" id="Layer_1" xmlns="http://www.w3.org/2000/svg" xmlns:xlink="http://www.w3.org/1999/xlink" x="0px" y="0px"
	 viewBox="0 0 1024 1024" style="enable-background:new 0 0 1024 1024;" xml:space="preserve">
<g>
	<path d="M327,144.7c1.3,0,2.6,0,3.9,0c20.2,0,40.1,0.7,60.1,3.3c0.7,0.1,1.4,0.2,2.1,0.3c42.7,5.5,93.3,12.8,125.8,43.7
		c2.2,2.1,2.2,2.1,4.7,4c7.3,6.1,12.4,15.6,14.2,24.9c0.4,5,0.3,10.1,0.2,15.1c0.9,0.5,1.8,1,2.7,1.5c19.8,10.8,19.8,10.8,23.3,20.5
		c0.4,4.4,0.4,8.7,0.3,13.1c0,1.8,0,1.8,0,3.5c0,7.7-0.5,12.9-5.8,19c-2.7,2.5-5.9,4-9.2,5.5c-0.7,0.3-1.4,0.7-2.1,1
		c-4.7,2.2-9.4,4.3-14.3,6.1c-2.2,0.8-2.2,0.8-4.9,2.8c-0.6,2.4-0.6,2.4-0.6,5.1c-0.1,1-0.1,2.1-0.2,3.2c-0.1,1.1-0.1,2.2-0.2,3.4
		c-1.2,17.5-3.1,34.5-15,48.3c-0.6,0.8-1.2,1.5-1.9,2.3c-4.4,5.1-9.1,9.5-14.3,13.8c-8.8,7.4-8.8,7.4-13.9,17.5
		c0.1,6.4,3.8,10.8,8.1,15.4c3,2.5,3,2.5,6.3,4.6c1.1,0.7,2.1,1.5,3.2,2.2c1.1,0.7,2.3,1.4,3.4,2.1c0.6,0.4,1.2,0.8,1.8,1.1
		c5.5,3.1,10.2,3.4,16.4,3.4c12.9,0.4,26.2,1.9,35.9,11.5c4.8,5.9,8.2,12.2,10.2,19.5c4.1,14,10.6,22.3,21.7,31.4
		c0.9,0.8,1.8,1.5,2.8,2.3c1.8,1.5,3.6,2.9,5.3,4.3c3.3,2.7,6.5,5.4,9.7,8.2c5.2,4.5,10.6,8.8,16,13c4.1,3.2,8,6.4,11.9,9.8
		c5.3,4.6,10.8,9,16.2,13.3c1.2,0.9,2.3,1.8,3.5,2.8c6.8,5.5,13.7,10.9,20.5,16.3c3.6,2.8,7,5.7,10.5,8.6
		c10.2,8.3,20.4,13.2,33,16.3c3.5,0.9,7,1.8,10.5,2.8c0.7,0.2,1.4,0.4,2.1,0.6c28.6,7.9,52.6,22.7,74.2,42.8
		c5.2,4.8,10.7,8.7,16.5,12.6c6.6,4.5,12.9,9.2,19.1,14.2c0.6,0.5,1.3,1,2,1.6c2.1,1.7,4.2,3.3,6.2,5c0.6,0.5,1.3,1,1.9,1.5
		c24.7,20,60.4,49.2,64.1,82.9c1.3,28.1-15.6,53.1-33.5,73.1c-8.1,8.6-17.1,15.2-26.8,21.9c0.6-0.2,1.1-0.4,1.7-0.6
		c5.1-1.8,9.9-2.9,15.3-3.4c0.3,1.3,0.7,2.6,1,4c-7.3,3.9-14.8,7.3-22.5,10.4c-0.9,0.4-1.7,0.7-2.6,1.1c-0.8,0.3-1.7,0.7-2.5,1
		c-0.7,0.3-1.5,0.6-2.2,0.9c-2.1,0.5-2.1,0.5-4-0.2c-1-0.1-1-0.1-2.1-0.3c-1.5,1.2-2.9,2.4-4.3,3.6c-3,2.4-6.5,3.5-10.1,4.8
		c-0.8,0.3-1.6,0.6-2.4,0.9c-2.5,0.9-5.1,1.9-7.6,2.8c-1.7,0.6-3.4,1.3-5.1,1.9c-1.6,0.6-3.3,1.2-4.9,1.8c-0.8,0.3-1.5,0.6-2.3,0.8
		c-13.1,4.8-13.1,4.8-18.3,3.2c0.2-1.8,0.2-1.8,1-4c2.3-1.3,2.3-1.3,5.4-2.5c1.1-0.4,2.2-0.9,3.4-1.3c1.2-0.4,2.3-0.9,3.5-1.3
		c2.3-0.9,4.6-1.8,6.9-2.6c1-0.4,2-0.8,3.1-1.2c2.3-0.9,4.5-1.9,6.7-3.1c-18.4,3.4-18.4,3.4-36.4,8.5c-0.8,0.3-1.6,0.5-2.4,0.8
		c-1.6,0.5-3.1,1.1-4.7,1.7c-5,1.8-9.1,2.3-14.5,2c0-1.3,0-2.6,0-4c6.6-3.1,13.1-5.9,20-8c1-0.3,2-0.7,3-1c-9-0.6-16,0.9-24.4,4
		c-2.1,0.8-4.1,1.5-6.2,2.2c-0.9,0.3-1.8,0.7-2.7,1c-3,0.8-5.6,0.9-8.7,0.7c-0.7-1.7-1.3-3.3-2-5c1-1.4,1-1.4,3-3
		c2-0.2,4.1-0.4,6.1-0.6c2.1-0.2,2.1-0.2,3.8-2.4c2.8-2.7,5.2-2.5,9-2.6c0.7-0.1,1.3-0.2,2-0.4c0.7-1,1.3-2,2-3
		c-6.4,0.6-12.2,2.2-18.3,4.1c-7.5,2.3-13.9,3.9-21.7,1.9c0-4,0-4,1.4-5.8c3.8-1.9,7.4-1.5,11.6-1.2c0.1-0.6,0.2-1.3,0.3-1.9
		c0.2-0.7,0.5-1.4,0.7-2.1c1-0.3,2-0.7,3-1c-6.5,0.8-12.5,2.4-18.8,4.3c-5.6,1.5-10.4,2-16.2,1.7c-0.9-3.1-1-4.9,0-8
		c-2.6-0.3-5.3-0.7-8-1c-0.3-1.7-0.7-3.3-1-5c3.9-2.6,7.5-2.2,12-2c0.3-1,0.7-2,1-3c2-0.9,2-0.9,4.4-1.6c3.4-1,3.4-1,6.6-2.4
		c1.5-0.1,3.1-0.1,4.6-0.1c0.8,0,1.6,0,2.5,0c0.9,0,0.9,0,1.9,0c0-1,0-2,0-3c0.7,0,1.3,0,2,0c0-1,0-2,0-3
		c-5.8,2.2-11.6,4.4-17.3,6.8c-7.2,3-13.9,5.8-21.7,7.2c-1.1,0.4-2.1,0.8-3.2,1.2c-3.1,0.9-4.7,1.1-7.8-0.2c-1.3-2.6-1.3-2.6-2-5
		c3.6-3.2,7.5-4.4,12-6c0,0.7,0,1.3,0,2c1,0,2,0,3,0c0.3-1.3,0.7-2.6,1-4c1.5-0.1,1.5-0.1,2.9-0.2c4-0.5,7.1-2.1,10.7-3.8
		c3.1-1.3,6.3-1.9,9.6-2.4c0.6-0.2,1.2-0.4,1.8-0.6c0.3-1,0.7-2,1-3c2.1-0.7,2.1-0.7,4-1c-9.5-13.8-19.9-26.1-31.8-37.8
		c-3.7-3.6-7.1-7.3-10.4-11.2c-1.9-2.1-3.9-4.1-6-6.1c-6.5-6.3-12.2-13-17.6-20.3c-1.1-1.5-2.2-2.9-3.3-4.3
		c-8.7-11.4-15.3-23.6-19.6-37.2c-6.3-20.1-19.1-32.9-33.4-47.9c-2-2.1-4-4.3-6-6.5c-9.1-10.1-18.8-19.7-28.4-29.3
		c-2.6-2.6-5.1-5.1-7.7-7.7c-2-2-4-4-5.9-5.9c-1.4-1.4-2.8-2.8-4.2-4.2c-1.3-1.3-1.3-1.3-2.6-2.6c-0.7-0.7-1.5-1.5-2.3-2.3
		c-1.7-1.8-1.7-1.8-3.8-2.7c0-0.7,0-1.3,0-2c-0.6-0.3-1.2-0.5-1.8-0.8c-2.2-1.2-3.6-2.4-5.4-4.2c-0.6-0.6-1.2-1.2-1.8-1.8
		c-0.6-0.6-1.3-1.3-1.9-1.9c-0.7-0.7-1.3-1.3-2-2c-2.1-2.1-4.2-4.2-6.3-6.3c-2.1-2.1-4.2-4.2-6.3-6.3c-1.3-1.3-2.6-2.6-3.9-4
		c-0.6-0.6-1.2-1.2-1.8-1.8c-0.5-0.5-1-1-1.6-1.6c-1.4-1.4-1.4-1.4-3.4-2.2c0-0.7,0-1.3,0-2c-0.8-0.4-0.8-0.4-1.7-0.8
		c-2.3-1.2-2.3-1.2-4.4-2.6c-2.6-1.4-4.6-2.1-7.4-2.8c-11.1-3.2-21.1-8.9-27.5-18.8c-3.9-7.7-5.2-15.8-6.6-24.2
		c-0.4-2.5-0.8-4.9-1.2-7.4c-0.2-1.1-0.3-2.2-0.5-3.3c-1.2-5-3.1-9-7-12.4c-0.6-0.6-1.2-1.1-1.9-1.7c-1-0.9-1-0.9-2-1.8
		c-0.7-0.6-1.3-1.2-2-1.9c-2-1.8-3.9-3.6-5.9-5.3c-1-0.9-1.9-1.8-2.9-2.7c-2.3-2.1-4.7-4.2-7.1-6.3c-0.6-0.6-1.3-1.1-1.9-1.7
		c-4.3-3.7-8.6-7.4-12.9-11.1c-0.8-0.7-0.8-0.7-1.7-1.5c-8.2-6.9-9.1-6-22.5-7.7c0,13.2,0,26.4,0,40c5.4,1.5,5.4,1.5,11,3
		c22.3,6.4,40.5,16.7,52.3,37.5c3.3,6.2,5.2,12.6,6.7,19.5c0.2,1.1,0.5,2.1,0.7,3.2c2.7,14.3,1.5,32.6-6.2,45.4
		c-4.1,5.6-9.1,10.6-15.6,13.3c-6.2,1-13.7,0.8-19-3c-2.1-2.8-3.5-5.8-5-9c-6-11-15.2-17.1-26.8-21.4c-3.7-1.1-7.3-1.2-11.2-1.1
		c-0.8,0-1.7,0-2.5,0c-15.6,0.4-32.1,7.5-44,17.4C324,587,324,587,322,587c0,0.7,0,1.3,0,2c-1.1,1-2.2,1.9-3.3,2.8
		c-14.4,12.3-26.7,31.8-30.3,50.4c-1.4,7-1.4,7-4.5,9.6c-5.7,3.1-10.5,4.2-16.9,2.7c-3.9-1.2-5.7-2.2-8.4-5.5
		c-2.5-5-2.7-8.5-2.6-14.1c-0.8,0-1.5,0.1-2.3,0.1c-8.3,0.2-15-0.2-21.7-5.4c-7.2-9.7-3.8-33-2.4-44.9c1.8-12.5,6-23.5,11.4-34.8
		c0.3-0.7,0.7-1.4,1-2.2c10.7-22.9,26.5-42.1,45.9-58.3c0.8-0.7,0.8-0.7,1.6-1.3c1.4-1.1,2.9-2.2,4.4-3.2c2.3-1.8,2.3-1.8,2.7-4.4
		c-0.1-3.2-0.3-6.4-0.6-9.6c0-0.7-0.1-1.3-0.1-2c-0.6-8.8-1.9-17.3-4.2-25.8c-0.3-1.1-0.3-1.1-0.6-2.3c-1.6-5.7-4.2-8.9-9.2-12.4
		c-9.3-4.8-19.5-6.5-29.7-8.5c-25.3-5.1-52-13.4-72.2-30c-1-0.8-2-1.6-3.1-2.5C157.4,371,155.3,349.1,153,325c0-0.7,0-1.3,0-2
		c-1.1,0.1-2.2,0.2-3.3,0.2c-3.7-0.2-3.7-0.2-5.4-1.7c-1.9-3.9-1.4-7.4-1.1-11.7c0-0.8,0.1-1.6,0.1-2.5c0.4-6.1,0.4-6.1,2.7-8.4
		c2.8-0.8,5.6-1.5,8.5-2.1c0.8-0.2,1.6-0.4,2.5-0.5c5.1-1.1,9.8-1.6,15.1-1.3c2.2,0.1,2.2,0.1,5-1c6.9-2.3,14.2-1.3,21,1
		c3.3,2.2,3.9,5.2,5,9c0.3,2.6,0.5,5.1,0.6,7.8c0.1,1,0.1,1,0.1,2.1c0.3,5.4,0.3,10.7,0.3,16.1c4.5,2.5,4.5,2.5,9,5c0,1,0,2,0,3
		c-7.8-0.4-13.9-2.7-21-6c-0.9-0.4-0.9-0.4-1.8-0.8c-3.7-1.7-7.5-3.4-11.2-5.2c0,1.3,0,2.6,0,4c0.8,0.4,0.8,0.4,1.6,0.8
		c1.9,1,3.7,1.9,5.5,3c7.4,4.1,14.8,7.6,22.9,10.2c1.9,0.7,1.9,0.7,5,2.1c0.9,2.2,0.9,2.2,1,4c-12.9-0.7-23.6-6.6-34.6-13
		c-2.5-1.4-4.9-2.8-7.4-4c8.9,12.1,24.5,18.2,38.2,23c1.8,1,1.8,1,2.8,4c-0.3,0.3-0.7,0.7-1,1c-15-0.7-30.3-11.3-42-20
		c5.4,12.5,21.9,18.8,33.8,23.8c0.7,0.3,1.4,0.5,2.1,0.8c2,0.8,2,0.8,5.1,2.4c0.7,2.1,0.7,2.1,1,4c-7.9-0.2-13.6-2.3-20.5-6.1
		c-0.9-0.5-1.8-1-2.8-1.5c-7.4-4-13.8-8.5-19.7-14.4c1.1,6.2,5.8,9.5,10.8,12.9c7.2,4.6,14.8,8.5,22.5,12.2
		c3.7,1.8,7.2,3.8,10.7,5.9c0,1,0,2,0,3c-3.2,1.1-4.8,1-7.8-0.3c-0.7-0.3-1.5-0.6-2.2-1c-0.8-0.4-1.5-0.7-2.3-1.1
		c-1.2-0.5-1.2-0.5-2.4-1.1c-10.3-4.8-19.8-10.8-28.2-18.5c2.8,8.7,11.9,13.3,19.6,17.4c2.7,1.3,5.5,2.6,8.2,3.9
		c1.3,0.6,1.3,0.6,2.6,1.2c1.7,0.8,3.5,1.6,5.2,2.3c0.8,0.4,1.6,0.7,2.4,1.1c0.7,0.3,1.4,0.6,2.2,1c1.7,1.2,1.7,1.2,2.4,3.3
		c0.1,0.6,0.2,1.2,0.3,1.9c-3,1.3-4.2,0.9-7.3-0.2c-1.2-0.6-2.5-1.1-3.7-1.7c-4.9-2.2-4.9-2.2-9.9-4.1c11.9,7,23.7,12.9,36.8,17.3
		c2.1,0.7,4.1,1.4,6.2,2.1c10.1,3.5,20.4,5.4,30.9,7.1c2.1,0.3,4.2,0.7,6.4,1.1c52.8,9.4,108.6,0.9,160.5-10.3
		c0.8-0.2,1.7-0.4,2.5-0.5c10.5-2.3,20.6-5.2,30.7-8.8c-5.2,1-10.1,2.4-15.2,3.9c-16.2,4.6-33,7.2-49.7,9.7
		c-3.4,0.5-6.9,1.1-10.3,1.6c-17.4,2.7-34.3,3.9-52,3.9c-2.7,0-5.5,0-8.2,0c-1.8,0-3.5,0-5.3,0c-0.8,0-1.6,0-2.4,0
		c-14.8-0.1-14.8-0.1-19-2.1c0-1.3,0-2.6,0-4c1.2,0,2.5,0,3.7,0c47.7-0.6,95-4.5,141.5-16.1c1.2-0.3,2.4-0.6,3.7-0.9
		c11.9-3.2,23.5-7.5,34.1-13.8c1-0.6,1-0.6,2.1-1.2c1.7-1,3.3-1.9,5-2.9c0-0.3,0-0.7,0-1c-1,0.6-1,0.6-1.9,1.2
		c-43,26.6-102.7,31-152.2,30.9c-3.3,0-6.5,0-9.8,0c-2.1,0-4.2,0-6.3,0c-1.4,0-1.4,0-2.9,0c-5.4,0-10.6-0.1-15.9-1.1
		c-1-1.5-1-1.5-2-3c2-2,6.2-1.2,8.9-1.2c1.7,0,3.4-0.1,5.1-0.1c1.3,0,1.3,0,2.7,0c25.5-0.5,50.3-2.5,75.5-5.9
		c1.1-0.1,2.1-0.3,3.2-0.4c39.3-5.4,77.4-13.9,109.6-38.3c0.3-0.7,0.7-1.3,1-2c0.7,0,1.3,0,2,0c0-1,0-2,0-3c-0.5,0.4-1,0.9-1.6,1.3
		c-5.8,4.7-11.7,8.3-18.4,11.7c-0.7,0.4-1.4,0.7-2.2,1.1c-27.4,13.9-56.8,23.2-87.5,26.1c-6,0.6-11.9,1.4-17.8,2.3
		c-19.3,3-38.5,2.7-58,2c-1,0-2.1-0.1-3.1-0.1c-5.5-0.2-10.9-0.7-16.4-1.4c-0.3-1-0.7-2-1-3c1-1,1-1,3.2-1.1c1,0,2,0,3,0
		c1.1,0,2.2,0,3.4,0c1.8,0,1.8,0,3.7,0c27.1,0,53.7-0.4,80.5-4.7c1-0.2,2.1-0.3,3.2-0.5c16.7-2.7,33.3-6.3,49.2-12.1
		c0.8-0.3,1.7-0.6,2.5-0.9c19.9-7.2,40.6-16.4,57-30c2.3-1.8,2.3-1.8,4.3-1.8c0-1,0-2,0-3c-1.1,0.9-1.1,0.9-2.1,1.8
		c-24.1,18.8-55.4,30.5-84.9,37.2c-0.6,0.1-1.3,0.3-1.9,0.4c-12.1,2.8-24.3,4.7-36.6,6.4c-2.9,0.4-5.8,0.8-8.7,1.2
		c-16,2.2-31.6,3.2-47.7,3.6c-3.1,0.1-6.2,0.1-9.4,0.2c-2,0-4,0.1-6,0.1c-1.4,0-1.4,0-2.8,0.1c-1.3,0-1.3,0-2.6,0.1
		c-1.1,0-1.1,0-2.3,0.1c-2-0.1-2-0.1-5-1.1c0-1.3,0-2.6,0-4c1.2,0,2.4-0.1,3.7-0.1c38-1.4,74.9-5,112.3-11.9
		c1.1-0.2,2.2-0.4,3.4-0.6c29.8-5.6,60.4-18.2,84.6-36.4c-0.8,0.5-1.7,1-2.5,1.5c-3.1,1.8-6.3,3.6-9.5,5.4c-1.3,0.7-2.6,1.5-3.8,2.2
		c-10.3,5.9-20.9,10.2-32.2,13.9c-1,0.3-2,0.7-3,1c-3.2,1.1-6.4,2.1-9.6,3.2c-1.5,0.5-1.5,0.5-3,1c-14.4,4.6-29.1,7.5-44,9.9
		c-0.8,0.1-1.6,0.3-2.4,0.4c-23,3.8-45.8,6.6-69.1,6.7c-1.3,0-1.3,0-2.6,0c-14.1,0-14.1,0-18.3-2.1c0-0.7,0-1.3,0-2
		c1.5-0.1,1.5-0.1,3-0.1c61.5-2.6,125.7-10,180.5-39.9c0.7-0.4,1.5-0.8,2.2-1.2c5.1-2.9,9.7-6.1,14.3-9.7c-0.5,0.3-1.1,0.6-1.6,0.9
		c-6.4,3.7-12.9,7.4-19.4,11.1c-0.8,0.5-1.7,0.9-2.5,1.4C474.7,343,462.9,348,450,352c-1,0.3-2,0.6-3,1c-41.6,13.2-85.7,15.4-129,14
		c-1.9-0.1-1.9-0.1-3.7-0.1c-1-0.1-2-0.1-3-0.2c-0.8,0-1.6-0.1-2.4-0.1c-1.8-0.6-1.8-0.6-3.1-2.6c-0.4-1-0.4-1-0.7-2
		c1.5-1.5,2.9-1.2,5.1-1.2c0.9,0,1.7,0,2.6-0.1c1.4,0,1.4,0,2.8-0.1c1,0,1.9,0,2.9-0.1c3.1-0.1,6.1-0.1,9.2-0.2
		c2.1,0,4.1-0.1,6.2-0.1c5.1-0.1,10.2-0.2,15.2-0.3c0-1.3,0-2.6,0-4c-0.6,0-1.2,0.1-1.8,0.1c-12.8,0.7-25.4,1-38.2-0.1
		c-0.7-1.3-1.3-2.6-2-4c6.3,0,12.5,0,19,0c-0.2-1.9-0.3-3.8-0.5-5.8c-0.5-6.3-0.6-12.6-0.6-19c0-1.3,0-1.3,0-2.7c0-0.8,0-1.7,0-2.5
		c0-0.7,0-1.5,0-2.2c0.1-1.8,0.1-1.8,1.1-3.8c0.7,0,1.3,0,2,0c1.6,3.1,1.4,6.5,1.6,9.9c0,0.8,0.1,1.5,0.1,2.3
		c0.9,17.4,0.9,17.4-0.7,22.8c2-0.3,4-0.7,6-1c0-1,0-2.1,0-3.2c0-3.9,0-7.8,0-11.7c0-1.7,0-3.4,0-5.1c0-2.4,0-4.8,0-7.3
		c0-0.8,0-1.5,0-2.3c0-5.3,0-5.3,1.1-7.6c-1.3,0-2.6,0-3.9,0c-31.3,0.2-61.5-3.1-92.1-10c-1-0.2-2-0.5-3.1-0.7
		c-32.7-7.3-65.3-18.2-93.2-37.2c-3.5-2.1-5.6-3-9.8-2.1c-5.4,2.5-9.6,5.5-12,11c-0.5,4.2,0.1,7.5,2.3,11.1c2.6,3.2,5,5.5,8.7,7.5
		c3.4,1.9,5.6,3.3,8.1,6.4c1.1,6.1,0.3,12.9-1,19c-0.3,0.3-0.7,0.7-1,1c-7.6-0.2-12.8-4.2-18.4-9.1c-3.8-6.7-5.2-15.2-5.6-22.9
		c-0.1-1.6-0.1-1.6-0.2-3.1c-0.2-7-0.1-11.3,4.2-16.9c0.4-0.6,0.8-1.2,1.3-1.8c3.8-4.9,8.4-8,13.7-11.2c-0.5-7.6-0.5-7.6-1.6-15.2
		c-2-13.2,2-25.6,9.4-36.5c8.9-9.4,19.8-17,30.7-23.9c0.6-0.4,1.3-0.8,2-1.3c15.5-9.6,33.4-14.1,50.9-18.3c2.1-0.5,4.2-1,6.4-1.6
		C263.6,149.6,294.1,144.6,327,144.7z M276.2,153c-1.3,0.2-2.6,0.4-3.9,0.6c-12,2-23.8,4.6-35.6,7.3c-0.9,0.2-1.8,0.4-2.7,0.6
		c-9.4,2.2-18.6,4.5-27.7,7.5c-0.7,0.2-1.4,0.5-2.2,0.7c-15.5,5.3-29.5,14.8-42,25.2c-0.9,0.7-1.8,1.4-2.8,2.1
		c-0.7,0.6-1.5,1.2-2.2,1.9c0,0.7,0,1.3,0,2c-0.6,0.2-1.2,0.5-1.8,0.7c-5.7,3.3-9.8,11-11.8,17.2c-1.5,7.2-1.3,14.8,2.6,21.1
		c9.4,12.4,21.1,19.7,35,26c1.1,0.5,2.3,1,3.4,1.6c19.2,8.2,40,12.3,60.6,15.4c1.4,0.2,2.7,0.4,4.1,0.6c3.8,0.6,7.6,1.2,11.5,1.7
		c1.5,0.2,3,0.4,4.5,0.7c13.6,2.1,27.2,2.6,41,3c1.1,0,2.2,0.1,3.3,0.1c45.6,1.3,90.1-1.9,134.5-12.4c3.4-0.8,6.8-1.5,10.1-2.3
		c11.6-2.5,22.9-5.2,34-9.5c1.2-0.4,2.4-0.9,3.6-1.4c8.1-3.2,14.6-7.3,21.4-12.6c1.3-0.9,1.3-0.9,2.6-1.9c4.5-3.3,7.4-5.4,8.4-11.1
		c0.4-2.3,0.7-4.7,1-7c0.3-1,0.7-2,1-3c1.6-11.4-2.8-20.4-9.4-29.3c-25.3-32.2-76.1-39.9-114.1-45.2c-2.4-0.3-4.8-0.7-7.2-1
		c-18.8-2.8-37.4-3.8-56.5-3.8c-1,0-2,0-3.1,0C315.8,148.6,295.9,149.9,276.2,153z M533,247c-1,0.6-2,1.1-3,1.7
		c-1,0.6-2.1,1.2-3.1,1.8c-1,0.6-2.1,1.2-3.2,1.7c-2.8,1.9-3.3,2.9-4.6,5.8c-1.8,0.6-1.8,0.6-4,1c-1.6,0.9-3.3,1.8-4.9,2.7
		c-10.8,6-21.8,10.2-33.8,13.2c-1,0.2-1,0.2-1.9,0.5c-32.3,8.4-64.9,12.7-98,16.3c-1.6,0.2-3.3,0.4-4.9,0.6
		c-19.5,2.3-39.6,1.8-59.3,1.9c-2,0-3.9,0-5.9,0c-18.5,0.1-36.7-0.8-54.7-5.3c-1.3-0.3-2.5-0.6-3.8-0.9c-2.6-0.6-5.3-1.3-7.9-2
		c-3.3-0.8-6.6-1.6-10-2.4c-43.6-10.3-43.6-10.3-63.1-19.9c-2.2-0.9-2.2-0.9-5.9-0.7c-0.3,1.3-0.7,2.6-1,4c4.1,2.9,7.9,5,12.6,6.8
		c0.6,0.2,1.2,0.5,1.9,0.7c2,0.8,4,1.6,6,2.3c0.7,0.3,1.4,0.5,2.1,0.8c24.7,9.4,49.2,14.5,75.4,17.5c0.7,0.1,1.5,0.2,2.2,0.3
		c63.9,7.3,134.9,5,197.1-12c3.2-0.5,5.5-0.2,8.6,0.6c0.7,0.7,1.3,1.3,2,2c1.8-0.2,3.6-0.4,5.4-0.7c10.1-1.2,19.7,0,29.6,1.9
		c11.1,2.1,19.6,2,29.9-2.9c0.8-0.4,1.6-0.7,2.4-1.1c7.9-3.7,20.2-9.5,23.4-18.3c0.6-4.3-2.1-8.1-4.4-11.6
		C548.2,247.1,541.2,241.4,533,247z M479,293c-0.8,7.5-1.1,14.5,0,22c1,0,2,0,3,0c0.2-3.1,0.4-6.2,0.6-9.3c0.1-0.9,0.1-1.8,0.2-2.7
		c0-0.8,0.1-1.7,0.1-2.6c0-0.8,0.1-1.6,0.1-2.4c0.1-2.3,0.1-2.3-1-5.1C481,293,480,293,479,293z M457,295c0,11.2,0,22.4,0,34
		c-0.7,0-1.3,0-2,0c0-0.9,0.1-1.8,0.1-2.7c0.1-3.3,0.3-6.6,0.4-9.9c0.1-1.4,0.1-2.9,0.2-4.3c0.1-2.1,0.2-4.1,0.2-6.2
		c0.1-1.9,0.1-1.9,0.1-3.8c0.1-3.1,0.1-3.1-1-6.1c-2.6,0.3-5.3,0.7-8,1c0,1,0,1.9,0,2.9c0,3.6,0,7.1,0,10.7c0,1.5,0,3.1,0,4.6
		c0,2.2,0,4.4,0,6.6c0,0.7,0,1.4,0,2.1c0,4.9,0,4.9-1.1,7.1c0-10.6,0-21.1,0-32c-2.7-1.4-5-1.1-8-1c-0.7,2.6-1.1,4.6-0.5,7.2
		c0.7,3.3,0.8,6.5,0.9,9.8c0,0.7,0,1.3,0.1,2c0.1,2.1,0.1,4.2,0.2,6.3c0,1.4,0.1,2.8,0.1,4.3c0.1,3.5,0.2,6.9,0.3,10.4
		c18.4-2.9,38.2-7.9,54-18c0.7-1,1.3-2,2-3c-6.9,1-13.9,2-21,3c0-3,0-5.9,0-9c-1-1-2-2-3-3c-1.3,0.3-2.6,0.7-4,1c0,5.9,0,11.9,0,18
		c-0.7-0.3-1.3-0.7-2-1c0-0.8-0.1-1.6-0.1-2.4c-0.1-3.6-0.2-7.2-0.4-10.8c0-1.2-0.1-2.5-0.1-3.8c0-1.2-0.1-2.4-0.1-3.6
		c0-1.1-0.1-2.2-0.1-3.3c-0.2-2.8-0.6-5.3-1.2-8C459.9,293.8,459.9,293.8,457,295z M490,294c-1,4.1-0.9,7.6-0.6,11.8
		c0.1,1.2,0.2,2.3,0.3,3.5c0.1,0.9,0.2,1.8,0.3,2.7c1.3,0,2.6,0,4,0c0-5.9,0-11.9,0-18C492.7,294,491.4,294,490,294z M501,294
		c-1.2,1-1.2,1-1.1,2.8c0,0.7,0,1.5,0,2.3c0,0.8,0,1.6,0,2.5c0,0.9,0,1.7,0,2.6c0,0.9,0,1.7,0,2.6c0,2.1,0,4.2,0,6.3
		c1-0.3,2-0.7,3-1c0.1-2.4,0.1-4.9,0.1-7.3c0-0.7,0-1.4,0.1-2.1C503.2,298.8,503.1,297.2,501,294z M507,294c0,5.3,0,10.6,0,16
		c0.7,0,1.3,0,2,0c0-5.3,0-10.6,0-16C508.3,294,507.7,294,507,294z M514,294c0,5.9,0,11.9,0,18c2.4-1.9,2.4-1.9,2.2-5.5
		c0-1.4,0-2.8-0.1-4.1c0-1.1,0-1.1,0-2.1c0-1.7-0.1-3.5-0.1-5.2C515.3,294.7,514.7,294.3,514,294z M428,301c-0.3,13.2-0.7,26.4-1,40
		c2.5-0.5,2.5-0.5,5-1c1.3-2.6,1.3-4.6,1.5-7.5c0.1-1.1,0.2-2.2,0.2-3.4c0.1-1.2,0.2-2.3,0.2-3.6c0.2-2.3,0.3-4.6,0.5-6.9
		c0.1-1.1,0.2-2.2,0.2-3.4c0.4-4.8,0.8-9.5,1.3-14.3C432.7,300.2,431.3,299.9,428,301z M417,303c0,10.9,0,21.8,0,33
		c-0.7,0-1.3,0-2,0c0-0.9,0.1-1.9,0.1-2.8c0.1-3.5,0.3-6.9,0.4-10.4c0.1-1.5,0.1-3,0.2-4.5c0.1-2.1,0.2-4.3,0.2-6.4
		c0.1-1.9,0.1-1.9,0.1-3.9c0.3-2.8,0.3-2.8-1-4c-2.7,0.2-5.3,0.6-8,1c0.2,1.2,0.3,2.3,0.5,3.5c0.8,7,0.9,14,1.1,21
		c0,1.4,0.1,2.8,0.1,4.2c0.1,3.4,0.2,6.8,0.3,10.2c2.3-0.3,4.6-0.6,6.9-0.9c1.3-0.2,2.6-0.3,3.9-0.5c3-0.2,3-0.2,4.2-1.5
		c0.3-2.3,0.5-4.6,0.8-6.9c0.1-0.7,0.1-1.4,0.2-2.1c0.1-1.5,0.3-3,0.4-4.4c0.2-2.3,0.4-4.5,0.6-6.8c0.5-5.9,0.5-5.9,1-11.8
		c0.1-0.9,0.1-1.9,0.2-2.8c-0.1-0.7-0.1-1.4-0.2-2.2C423.5,301.6,420.9,301.1,417,303z M152,305c-1,3.1-1,5.5-0.6,8.8
		c0.1,0.8,0.2,1.6,0.3,2.4c0.1,0.6,0.2,1.2,0.3,1.8c0.3,0,0.7,0,1,0c0-4.3,0-8.6,0-13C152.7,305,152.3,305,152,305z M166,305
		c0,4.6,0,9.2,0,14c1-0.3,2-0.7,3-1c-0.1-2-0.2-4-0.4-5.9c-0.1-1.1-0.1-2.2-0.2-3.3c-0.1-0.9-0.3-1.8-0.4-2.7
		C167.3,305.7,166.7,305.3,166,305z M160,306c-1,3.1-1,4.5-0.6,7.7c0.1,0.8,0.2,1.6,0.3,2.4c0.1,0.6,0.2,1.2,0.3,1.9
		c0.3,0,0.7,0,1,0c0-4,0-7.9,0-12C160.7,306,160.3,306,160,306z M184,306c-0.1,2.5-0.1,4.9-0.1,7.4c0,0.7,0,1.4-0.1,2.1
		c0,1.8,0.1,3.7,0.2,5.5c0.7,0.7,1.3,1.3,2,2c1.4-1.2,1.4-1.2,1.1-4.4c0-1.4,0-2.8,0-4.2c0-0.7,0-1.4,0-2.2c0-1.8,0-3.5,0-5.3
		C186,306.7,185,306.3,184,306z M390,308c-0.3,8.9-0.7,17.8-1,27c-0.7,0-1.3,0-2,0c0-1,0-2.1,0-3.1c0.1-7.7,0-15.2-1-22.9
		c-1.6,0-3.3,0-5,0c0,12.5,0,25.1,0,38c5.8,0,10.5-0.1,16.1-1c1.1-0.2,2.3-0.4,3.4-0.6c0.8-0.1,1.7-0.3,2.5-0.4
		c0.1-4.4,0.3-8.9,0.4-13.3c0-1.5,0.1-3,0.1-4.5c0.1-2.2,0.1-4.4,0.2-6.5c0-1.3,0.1-2.6,0.1-4c0.1-3.2,0.1-6.4,0.1-9.6
		c-1.4-0.2-2.8-0.4-4.2-0.6c-1.2-0.2-1.2-0.2-2.4-0.4C394.5,305.8,394.5,305.8,390,308z M194,309c-2.1,2.1-1.2,6.1-1.2,8.9
		c0,0.7,0,1.5-0.1,2.2c-0.1,2.4-0.1,2.4,0.3,5.8c1.5,1,1.5,1,3,2c1.8-9.7,1.8-9.7,0-19C195.3,309,194.7,309,194,309z M371,311
		c-0.3,5.9-0.7,11.9-1,18c-0.3-5.9-0.7-11.9-1-18c-2.3,0.3-4.6,0.7-7,1c-0.3,5-0.7,9.9-1,15c-3.4-3.4-3.4-4.1-3.7-8.7
		c-0.1-1.5-0.1-1.5-0.2-3c-0.1-1.1-0.1-1.1-0.1-2.3c-2,0-4,0-6,0c0.1,0.7,0.2,1.3,0.4,2c2,11.6,2.7,23.3,3.6,35
		c2.9-0.1,5.9-0.3,8.8-0.4c0.8,0,1.7-0.1,2.5-0.1c0.8,0,1.6-0.1,2.4-0.1c0.7,0,1.5-0.1,2.2-0.1c2.2-0.2,2.2-0.2,5-1.2
		c0.1-4.1,0.3-8.3,0.4-12.4c0-1.4,0.1-2.8,0.1-4.2c0.1-2,0.1-4.1,0.2-6.1c0-1.2,0.1-2.4,0.1-3.7c0.1-3.5,0.1-7,0.1-10.5
		C374,310,374,310,371,311z M338,313c0,1,0,2,0,3c0.3,0.3,0.7,0.7,1,1c0.2,2.5,0.4,5,0.5,7.5c0.1,1.1,0.1,1.1,0.1,2.3
		c0.1,2.4,0.3,4.8,0.4,7.2c0.1,1.6,0.2,3.3,0.3,4.9c0.2,4,0.4,8,0.7,12c4.1,0.2,4.1,0.2,8-1c0.3-12.2,0.7-24.4,1-37
		C346,313,342.1,313,338,313z M515,319c0,1,0,2,0,3c1-0.3,2-0.7,3-1c-0.3-0.7-0.7-1.3-1-2C516.3,319,515.7,319,515,319z M496.4,323
		c-0.9,0.5-1.9,0.9-2.8,1.4c-1.5,0.7-1.5,0.7-3.1,1.5c-9.1,4.3-18.3,8-27.9,11.2c-1.7,0.6-1.7,0.6-3.4,1.1
		c-5.7,1.9-11.4,3.4-17.3,4.4c-2,0.3-2,0.3-3.9,1.4c0,1.6,0,3.3,0,5c23.8-4.2,45.8-13.9,66-27C500.3,320.8,499.8,321.3,496.4,323z
		 M164,326c0,1,0,2,0,3c1,0,2,0,3,0c0-1,0-2,0-3C166,326,165,326,164,326z M514,328c-1,1.5-1,1.5-2,3c1.3-0.7,2.6-1.3,4-2
		C515.3,328.7,514.7,328.3,514,328z M422.8,346.4c-4.6,1.1-9.1,2-13.8,2.6c0,2,0,4,0,6c7.9-0.5,15.3-2.1,23-4c0-2,0-4,0-6
		C428.7,345,426,345.7,422.8,346.4z M377.6,352.9c-7.6,0.9-15,1.3-22.6,1.1c0,2,0,4,0,6c5.5,1,10.3,0.9,15.9,0.3
		c0.8-0.1,1.7-0.2,2.5-0.3c1.7-0.2,3.5-0.4,5.2-0.6c2.7-0.3,5.3-0.6,8-0.8c1.7-0.2,3.4-0.4,5.1-0.5c0.8-0.1,1.6-0.2,2.4-0.2
		c3.7-0.4,5.8-0.8,9-2.9c0-1.3,0-2.6,0-4C394.5,350.7,386.1,351.9,377.6,352.9z M500,368c-1,1.5-1,1.5-2,3c1.3-0.7,2.6-1.3,4-2
		C501.3,368.7,500.7,368.3,500,368z M429.2,420.6c-1.4,1.5-2.8,2.9-4.2,4.4c-1.3,1.3-2.7,2.7-4,4c-0.9-2.5-0.9-2.5-1-6
		c1.6-2.3,3.4-4.3,5.4-6.3c1.8-1.6,1.8-1.6,1.6-3.7c-0.8,0.4-0.8,0.4-1.7,0.9c-2.3,1.1-4.6,1.9-7,2.7c-0.8,0.3-1.6,0.5-2.4,0.8
		c-0.6,0.2-1.2,0.4-1.8,0.6c0.1,1.4,0.2,2.9,0.3,4.3c0.1,0.8,0.1,1.6,0.2,2.4c0.6,2.7,1.3,3.7,3.5,5.3c1,0,2,0,3,0
		c0.3,1.3,0.7,2.6,1,4c1.3,0.3,2.6,0.7,4,1c0.8-1.4,0.8-1.4,1.7-2.8c4.2-6.9,8.2-12.6,14.6-17.7c2-1.5,2-1.5,2.8-4.6
		C438.6,410,433.5,416.3,429.2,420.6z M456.3,411.5c-0.4,0.5-0.9,1-1.3,1.5c0.3,0.7,0.7,1.3,1,2c1.6-1.6,3.3-3.3,5-5
		C458,409.7,458,409.7,456.3,411.5z M465,416c-2.6,1.6-5.3,3.3-8,5c1.4,2.5,1.4,2.5,3,5c0.7,0,1.3,0,2,0c2.4-2.6,2.4-2.6,3-6
		c1-0.3,2-0.7,3-1C467,418,466,417,465,416z M442.4,422.1c-0.9,0.9-1.9,1.9-2.8,2.9c-0.5,0.5-1,1-1.5,1.5c-2.8,2.9-5.2,5.8-7.4,9.1
		c-2,2.8-3.3,4-6.6,4.9c-1.5,0.2-1.5,0.2-3.1,0.5c-0.4-0.6-0.8-1.2-1.2-1.9c-2.1-2.5-3.8-3-6.8-4.1c-0.7-0.7-1.3-1.3-2-2
		c-1.7-0.4-3.3-0.7-5-1c-0.3-0.3-0.7-0.7-1-1c-2.9-0.3-2.9-0.3-6,0c-1.7,1.5-1.7,1.5-3,3c0.5,0.2,1.1,0.5,1.7,0.7
		c12.3,5.7,22.7,14.4,32.5,23.6c4.4,4.1,9.1,7.9,13.9,11.6c0.9,0.7,1.8,1.5,2.7,2.3c2.1,1.9,2.1,1.9,4.3,1.7c0.3,1,0.7,2,1,3
		c3.4-1.1,3.7-1.6,5.5-4.5c0.5-0.7,0.9-1.4,1.4-2.2c0.5-0.8,0.9-1.5,1.4-2.3c7.3-11.6,14.6-19.6,26.8-26.2c3.2-1.5,3.2-1.5,3.9-4.8
		c-4.2-1.3-6.5-1-10.4,0.9c-1.2,0.7-2.4,1.4-3.6,2.1c0,0.7,0,1.3,0,2c-1.5,0.5-1.5,0.5-3,1c-0.5,0.8-0.9,1.6-1.4,2.4
		c-1.8,3-3.5,4-6.6,5.6c-1-1.3-2-2.6-3-4c3.6-3.8,6.4-6.1,11.3-7.8c3.6-1.6,6.5-3.8,9.7-6.2c-0.8-3.3-0.8-3.3-4-5
		c-2.5,0.3-2.5,0.3-5,1c-1.1,0.3-1.1,0.3-2.3,0.6c-0.6,0.1-1.1,0.3-1.7,0.4c1.3-1,2.6-2,4-3c-1-2-1-2-2-4c-3.4,0-3.8,0.4-6.2,2.5
		c-0.9,0.8-1.9,1.6-2.8,2.5c0.5,2,0.5,2,1,4c0.7,0,1.3,0,2,0c0,0.7,0,1.3,0,2c1,0.5,1,0.5,2,1c-0.1,1.8-0.1,1.8-1,4
		c-3,2.3-5.5,3.8-9,5c-1-0.7-2-1.3-3-2c0-1.3,0-2.6,0-4c-1.3-0.3-2.6-0.7-4-1c0.7-2.7,1.3-5.3,2-8c-0.7,0.4-1.4,0.7-2.2,1.1
		c-3.1,1-4.7,0.8-7.8-0.1c0.7-3.1,1.7-6.1,3-9c0.7-0.3,1.3-0.7,2-1C445,419.6,445,419.6,442.4,422.1z M372,423c0.3,0.7,0.7,1.3,1,2
		c2.6-0.3,5.3-0.7,8-1c-0.3-0.7-0.7-1.3-1-2C377.2,422,374.8,422.4,372,423z M334,427c0,0.7,0,1.3,0,2c2,0.1,3.9,0.1,5.9,0.1
		c1.1,0,2.2,0,3.3,0.1c3,0.1,3,0.1,4.8-2.2C343,426.2,339,425.9,334,427z M461,434c-0.3,1.3-0.7,2.6-1,4c1-1,2-2,3-3
		C462.3,434.7,461.7,434.3,461,434z M489,447c-0.6,0.5-1.2,0.9-1.8,1.4c-3.9,3.1-3.9,3.1-6.1,7.4c-1.2,3.5-2.5,4.9-4.9,7.6
		c-3.7,4-6,7.7-8.1,12.6c1.4-5,3.6-9.3,6.1-13.8c0.3-0.7,0.6-1.4,0.9-2.2c-0.3-0.7-0.7-1.3-1-2c-7.6,7.6-13.6,16.8-14.2,27.9
		c0.3,3,1.2,4.9,3.2,7.1c0.7,0,1.3,0,2,0c0.5-1.6,0.5-1.6,1.1-3.3c6.8-20.8,17.9-33.2,36.9-43.7c3.6-1.8,7.2-3.5,11-5
		c-0.5-1-0.5-1-1-2C504.2,438.2,495.9,441.7,489,447z M303,440c0.8,2,0.8,2,2,4c2.8,1,2.8,1,6,1.5c3.2,0.6,3.2,0.6,6,1.5
		c0.7,1.3,1.3,2.6,2,4c-4.6-0.7-9.2-1.3-14-2c1,4.3,1,4.3,4,7c2.3,1,4.7,2,7,3c0.3,0.7,0.7,1.3,1,2c-3.6,0-7.3,0-11,0
		c0.7,5,0.7,5,4,8c3.1,0.7,3.1,0.7,6,1c0,1,0,2,0,3c-2.6,0.3-5.3,0.7-8,1c-0.5,2.8-0.5,2.8,0,6c1.8,2,3.8,3.4,6,5
		c0.3,0.7,0.7,1.3,1,2c-2-0.7-4-1.3-6-2c-0.4,4-0.4,4,0,8c2.4,1.9,2.4,1.9,5,3c0,1,0,2,0,3c1.9,2.3,1.9,2.3,4.9,2.1
		c5.6-1,10.8-4.5,15.1-8.1c0.9-2.1,0.9-2.1,1-4c-1.6-0.3-3.3-0.7-5-1c0.3-1,0.7-2,1-3c1.1-0.3,2.3-0.6,3.4-0.9
		c3.6-0.6,3.6-0.6,4.8-3.1c0.3-0.6,0.5-1.3,0.8-1.9c-1.3-0.7-2.5-1.3-3.8-2c-0.7-0.4-1.4-0.7-2.1-1.1c-2.1-1.1-2.1-1.1-5-0.9
		c0.7-1,1.3-2,2-3c2-0.2,2-0.2,4.5-0.1c4.4,0.1,8.3-0.3,12.6-1.3c2.3-0.5,4.6-0.9,6.9-1.3c0.7-0.1,1.4-0.2,2.1-0.4
		c1.4-0.2,2.8-0.5,4.2-0.7c5.3-0.9,9.8-2.4,13.7-6.2c0-1,0-2,0-3c-3,0.9-5.7,1.8-8.4,3.5c-8.2,4.7-18.7,4.7-27.7,2.9
		c-2.4-0.7-4.7-1.3-6.9-2.4c-0.3-0.7-0.7-1.3-1-2c0.9-0.1,0.9-0.1,1.8-0.1c0.8-0.1,1.6-0.1,2.4-0.2c0.8-0.1,1.6-0.1,2.4-0.2
		c2.4-0.4,4.2-1.2,6.4-2.4c-2.3-2.6-4.2-3.7-7.5-4.7c-0.8-0.3-1.5-0.5-2.3-0.8c-2.3-0.7-2.3-0.7-5.2-0.6c2.5-3,5.5-4.4,9-6
		c0-1,0-2,0-3c-4.6-1.5-9.3-1.7-14.1-2.1c-1.5-0.1-1.5-0.1-3.1-0.3C314.9,440.1,309,439.9,303,440z M514.8,445.8
		c-1,0.5-1,0.5-2.1,1.1c-5.1,2.6-5.1,2.6-9.6,6.1c-0.5,4-0.5,4,1.9,5.9c4.9,1.7,8.4-0.2,13.1-1.9c1.1-0.4,2.3-0.8,3.4-1.2
		c7-2.2,7-2.2,12.6-6.8c0.5-2.5,0.5-2.5,0-5C527.3,439.5,521.1,442.3,514.8,445.8z M372,444c-0.2,0.8-0.4,1.5-0.6,2.3
		c-1.8,3.5-3.4,4-7,5.5c-1,0.4-2,0.8-3,1.3c-0.8,0.3-1.5,0.6-2.3,0.9c0,0.3,0,0.7,0,1c5.2-0.6,10-1.4,15-3c0-2.3,0-4.6,0-7
		C373.3,444.7,372.7,444.3,372,444z M484,475.7c-2.2,2.5-2.6,4-3,7.3c4.3-3.8,4.3-3.8,6-9C485.7,473.9,485.7,473.9,484,475.7z
		 M557,484c1,1.5,1,1.5,2,3c0.7-0.3,1.3-0.7,2-1C559.7,485.3,558.4,484.7,557,484z M549,485c-3,1.6-5.9,3.3-9,5
		c1.6,3.2,2.4,4.6,4.8,7c0.5,0.5,1.1,1.1,1.6,1.6c0.9,0.8,0.9,0.8,1.7,1.7c0.6,0.6,1.2,1.2,1.8,1.8c4.2,4.1,8.5,8.1,13.1,11.9
		c1.5,1.3,1.5,1.3,3,2.5c5.1,4.3,10.2,8.7,15.4,12.9c6,4.9,11.9,10,17.8,15c2.9,2.5,5.9,5,8.8,7.5c3.5,3,7,6,10.5,9
		c17.1,14.7,17.1,14.7,34.5,29c1,0.8,2,1.7,3.1,2.5c6.6,5.3,13.2,9.4,20.9,13c2.6,1.3,4.7,2.6,7,4.5c-1.6,3.9-4,6.1-7.1,8.8
		c-1.5,1.3-1.5,1.3-3,2.6c-1,0.8-1.9,1.7-2.9,2.6c-0.8,0.7-1.7,1.5-2.5,2.2c-1.8,1.6-3.7,3.2-5.5,4.8c0.5,2.5,0.5,2.5,1,5
		c1.3,0,2.6,0,4,0c0-0.7,0-1.3,0-2c0.6-0.2,1.1-0.5,1.7-0.7c2.7-1.5,4.7-3.3,7-5.4c4-3.7,8.1-7.1,12.4-10.3c1.8-1.4,3.3-2.9,4.9-4.5
		c1.3,0.7,2.6,1.3,4,2c-0.4,4.9-2.4,6.8-6,10c-1.1,0.9-2.2,1.8-3.3,2.7c-1.3,1.1-1.3,1.1-2.7,2.3c0,0.7,0,1.3,0,2
		c-0.5,0.2-1.1,0.4-1.6,0.6c-3.4,2-5.7,4.6-8.4,7.4c1.3,2.9,2.7,4.8,5,7c0.8-1,1.7-2,2.5-3.1c4-4.7,8.6-8.6,13.3-12.4
		c1.4-1.1,2.8-2.3,4.2-3.5c0-0.7,0-1.3,0-2c7.3-1.3,7.3-1.3,10.4,0.1c1.6,1.9,1.6,1.9,2.6,4.4c0.8,2.5,0.8,2.5,2.9,3.6
		c1.4,0.5,2.7,1,4.1,1.6c2,1.2,2,1.2,3.7,4c2.7,3.8,5.4,5.4,9.4,7.6c1.9,1.7,1.9,1.7,3,4.6c-0.1,3.1-0.1,3.1-1.9,5.4
		c-1.3,1-1.3,1-2.7,2.1c-4.6,3.8-9,7.7-12.5,12.6c0,0.7,0,1.3,0,2c4-0.6,6.3-2.6,9.3-5.2c1-0.8,1.9-1.6,2.9-2.4
		c1.6-1.3,3.2-2.7,4.8-4c3-2.3,4.5-3.3,8.3-3.2c2.6,0.9,2.6,0.9,3.6,2.9c0.7,0,1.3,0,2,0c0.4,0.9,0.4,0.9,0.8,1.8
		c2.6,4.6,7.3,8.1,11.8,10.7c2.5,1.6,3.8,3.1,5.7,5.3c4.6,5.5,10.2,9.4,16,13.6c0.6,0.4,1.1,0.8,1.7,1.2c1.6,1.2,3.2,2.3,4.8,3.4
		c0.8,0.7,1.5,1.3,2.3,2c0,1,0,2,0,3c-2.4,2-2.4,2-5.5,4.2c-1,0.7-2,1.4-3.1,2.2c-0.8,0.5-1.6,1.1-2.4,1.6c0.3,0.7,0.7,1.3,1,2
		c0.5-0.3,1-0.5,1.6-0.8c2.9-1.4,5.9-2.6,9-3.9c1.1-0.5,2.3-0.9,3.4-1.4c3-0.9,3-0.9,6,0.1c-0.3,2.8-0.7,3.8-3,5.6
		c-0.8,0.5-1.6,1-2.4,1.5c-3.1,1.9-4.5,2.8-6.6,5.9c0.7,0,1.3,0,2,0c0,0.7,0,1.3,0,2c2.6,2.6,4,4,7.8,4.1c3.6-1.3,6.2-3,9.3-5.2
		c3.8-2.5,7.8-4.6,11.8-6.7c0.8-0.4,1.5-0.8,2.3-1.2c2.9-1.5,5.7-2.9,8.9-4c0.7-1.1,0.7-1.1,1.5-2.2c3.7-4.1,8.4-5.7,13.5-7.8
		c-2.7-2.9-2.7-2.9-6-5c-6.5,0.1-12.4,1.5-18.6,3.5c-2.6,0.6-4,0.4-6.4-0.5c1.1-4,2.7-5.8,6.2-8c3.4-1.8,7-2.7,10.7-3.7
		c0.8-0.2,1.6-0.4,2.4-0.7c1.9-0.5,3.8-1.1,5.8-1.6c-0.3-0.7-0.7-1.3-1-2c-8.8-0.3-16.6-0.2-25.2,2.3c-4.6,1.2-9.2,1.5-13.8,1.7
		c-0.3-1.3-0.7-2.6-1-4c5.9-4.4,11.5-6.1,18.6-7.7c1.8-0.4,3.6-0.9,5.4-1.3c0.3-0.7,0.7-1.3,1-2c-9.9-2.1-19.7-0.7-29,3
		c-5.7,2.1-5.7,2.1-9,1c0-1.3,0-2.6,0-4c5.5-4.7,12.1-7.8,19-10c0-1,0-2,0-3c-6.3-0.3-10.8,0.7-16.7,3c-8.8,3.4-8.8,3.4-13.3,3
		c0.1-2.3,0.1-2.3,1-5c2.3-1.5,4.3-2.6,6.8-3.8c0.6-0.3,1.2-0.6,1.9-0.9c3.4-1.6,6.6-2.8,10.4-3.3c-4.6-2.5-8.8-3.3-14-3
		c-3.5,1.1-6.8,2.4-10.1,3.9c-3.1,1.2-5.6,1.1-8.9,1.1c0.9-4,2.5-5.6,5.8-7.7c3-1.7,5.9-3.2,9.2-4.3c0-0.7,0-1.3,0-2
		c-2.2-1.9-4-3-6.9-3c-3.1,0.3-5.7,0.9-8.5,2.1c-3.8,1.4-7.5,1.1-11.6,0.9c-0.3-0.7-0.7-1.3-1-2c3-3.3,5.7-5,9.8-6.8
		c1-0.4,2-0.9,3-1.3c0.7-0.3,1.5-0.6,2.3-1c-5-3.3-7.6-4.4-13.6-3.6c-3.4,0.8-6.4,2.2-9.5,3.8C742,628,742,628,739,627c0-1,0-2,0-3
		c3.7-3.5,7.3-5.9,12-8c0-0.3,0-0.7,0-1c-1.9-0.1-3.8-0.1-5.7-0.1c-1.1,0-2.1,0-3.2-0.1c-3.2,0.2-5.2,1-8.1,2.2c-2.8,0-5.3-0.5-8-1
		c0.2-1.8,0.2-1.8,1-4c2.6-1.8,2.6-1.8,5-3c-1.6-1.3-1.6-1.3-4-2c-1,0.4-2,0.9-3,1.3c-3.1,1.1-4,0.7-7-0.7c-2.1-1.3-4.2-2.6-6.3-4
		c-2.6-1.9-2.6-1.9-5.7-1.6c0-0.7,0-1.3,0-2c0.7-0.3,1.3-0.7,2-1c-2.3-0.3-4.6-0.7-7-1c-0.7,1-1.3,2-2,3c1.3,0.3,2.6,0.7,4,1
		c-3.8,2-3.8,2-6,2c0-0.7,0-1.3,0-2c-1-0.3-2-0.6-3-0.9c-10-3.3-17.3-7.7-25.2-14.5c-2.6-2.2-5.3-4.4-7.9-6.5
		c-2.1-1.7-4.1-3.3-6.1-5c-2.2-1.8-4.4-3.6-6.7-5.4c-6-4.9-11.9-9.9-17.7-15c-3.8-3.3-7.7-6.5-11.8-9.4c-2.4-1.8-4.4-4-6.5-6.2
		c-2.4-2-4.9-4-7.4-5.9c-3.1-2.5-6-5.1-9-7.8c-1.5-1.5-1.5-1.5-3.6-1.2c0-0.7,0-1.3,0-2c-1.5-1.4-3.1-2.6-4.7-3.9
		c-4.5-3.6-8.8-7.3-13-11.2c-0.5-0.5-1.1-1-1.7-1.5c-1.1-1-2.1-2-3.2-3c-2-1.8-4-3.7-6-5.5c-0.6-0.5-1.2-1-1.8-1.6
		c-1.7-1.4-1.7-1.4-3.8-2.3c-1.8-1-1.8-1-2.8-4C553,487.6,551,486.3,549,485z M476,489c-3.7,4.7-4.1,8-4,14c1-0.3,2-0.7,3-1
		c1.3-2.8,1.3-2.8,2.2-6.1c0.3-1.1,0.7-2.2,1-3.3c0.4-1.3,0.4-1.3,0.8-2.6C478,489.7,477,489.3,476,489z M563,489
		c1.1,3.3,1.8,4,4.4,6.1c3.2,2.7,6.3,5.4,9.4,8.2c4.4,4,8.9,7.7,13.5,11.4c2.6,2.1,5.1,4.3,7.5,6.6c4.4,4,9,7.7,13.7,11.3
		c4.9,3.8,9.7,7.9,14.4,12c4.4,3.8,8.8,7.4,13.3,11.1c3.1,2.6,6.2,5.2,9.3,7.8c4.9,4.2,9.9,8.3,14.9,12.4c1.8,1.5,3.6,3,5.4,4.4
		c0.9,0.7,1.8,1.5,2.7,2.2c0.8,0.6,1.6,1.3,2.4,2c2.1,1.5,3.6,2.1,6.2,2.5c-2.6-3.4-5.2-6.1-8.6-8.8c-3.6-2.8-7-5.6-10.3-8.7
		c-4.3-3.9-8.8-7.6-13.4-11.3c-2.6-2.1-5.1-4.3-7.5-6.6c-4.4-4-9-7.7-13.7-11.3c-4.2-3.3-8.3-6.7-12.4-10.2
		c-4.8-4.2-9.7-8.3-14.8-12.2c-0.9-0.8-0.9-0.8-1.9-1.5c-1.2-1-2.5-2-3.7-2.9c-19-15.1-19-15.1-26.4-23.2
		C565.9,488.7,565.9,488.7,563,489z M293.2,493c-0.7,0.6-1.5,1.2-2.3,1.9c-0.8,0.7-1.6,1.3-2.4,2c-0.8,0.6-1.6,1.3-2.4,1.9
		c-4.8,3.9-4.8,3.9-9.2,8.2c0,0.7,0,1.3,0,2c-1,0.3-2,0.7-3,1c-2.6,2.8-4.8,5.9-7,9c-0.4,0.5-0.8,1.1-1.2,1.6
		c-20.3,27.5-29.1,56-28.9,90c0,1.4,0,2.8,0,4.2c0,3.4,0,6.8,0,10.2c1.3,0.7,2.6,1.3,4,2c4.4-4.4,3.1-13.5,3.2-19.4
		c0.2-9.4,1.3-18.5,3.1-27.8c0.3-1.5,0.3-1.5,0.6-3.1c1.4-6.8,3.5-13.2,6.1-19.7c0.3-0.8,0.6-1.6,0.9-2.4
		c6.4-16.1,13.6-31.5,26.3-43.8c2-1.6,2-1.6,1.7-3.8c0.5-0.2,1.1-0.5,1.6-0.7c3-1.6,5.4-3.6,8-5.8c1-0.8,1.9-1.6,2.9-2.4
		c2.4-2,2.4-2,4.5-4.1c-0.3-2.1-0.3-2.1-1-4C296.2,490,295.3,491.2,293.2,493z M327,508c-1.1,0.6-2.2,1.2-3.3,1.8
		c-8,4.6-14.1,11.3-20.4,17.9C302,529,302,529,300,530c0,0.7,0,1.3,0,2c-0.6,0.2-1.1,0.5-1.7,0.7c-2.8,1.6-4.5,3.5-6.6,5.9
		c-0.7,0.8-1.4,1.6-2.2,2.5c-0.8,1-1.7,1.9-2.5,2.9c-0.6,0.6-1.1,1.2-1.7,1.8c-4.3,4.7-7.5,9.5-10.5,15.3c-0.4,0.8-0.9,1.7-1.3,2.5
		c-9,17.9-11.9,36.6-12.6,56.4c0,0.8-0.1,1.6-0.1,2.5c-0.2,7.1,0.5,14.6,2.1,21.5c3.4,2.3,5,2.2,9,2c1.6-3.3,1.2-6.9,1.2-10.5
		c0-1.8,0-3.6,0.1-5.3c0-2.8,0.1-5.6,0.1-8.4c0.1-11.4,0.9-21.9,3.7-32.9c0.9-3.6,1.5-7.2,1.9-10.9c2.7-18,14.9-33,27-46
		c0.5-0.6,1-1.1,1.6-1.7c7.7-8.3,16-15.1,25.4-21.3c0.8-0.6,1.6-1.1,2.4-1.7c5.4-3.5,11.1-5.8,17.1-8c0.8-0.3,1.6-0.6,2.4-0.9
		c5.6-2,11.2-3.3,17.1-4.4c-0.8,0.3-1.6,0.7-2.4,1c-3,1.2-6,2.5-9,3.8c-1.3,0.5-2.6,1.1-3.8,1.6c-10.8,4.5-20.7,9.8-29.7,17.4
		c-5,4.2-5,4.2-7.4,5.9c-0.6,0.4-1.1,0.9-1.7,1.4c0,0.7,0,1.3,0,2c-0.6,0.2-1.2,0.5-1.7,0.7c-16.3,9.1-29.3,35.9-35.8,52.5
		c-0.6,1.8-0.6,1.8,0.6,3.8c0.6-1.1,1.2-2.3,1.9-3.5c18.4-34,47.5-67.9,85.4-80.6c15.1-3.9,30.5-2.8,44.1,4.9
		c5,2.9,9.4,6.2,13.6,10.2c-0.8-0.3-1.5-0.6-2.3-1c-5.1-2.1-10.1-4.2-15.2-6.3c-0.8-0.3-1.5-0.6-2.3-1c-8.8-3.2-22.6-4.8-31.3-0.8
		c-0.6,0.3-1.2,0.7-1.8,1c-0.8,0.1-1.6,0.3-2.4,0.4c-2.8,0.5-2.8,0.5-5.6,2.1c-3.1,1.5-3.1,1.5-6.2,1.9c-2.9,0.3-2.9,0.3-4.6,2.6
		c-0.4,0.6-0.8,1.3-1.2,1.9c-0.7,0-1.3,0-2,0c-0.5-1-0.5-1-1-2c-2.2,3.2-2.2,4.3-2,8c-0.7,0-1.3,0-2,0c-1-2-1-2-2-4c-4,2-4,2-8,4
		c0.6,5.1,1.7,9.8,3.2,14.6c0.2,0.7,0.4,1.4,0.7,2.1c2.1,6.5,4.5,12.9,7.1,19.3c0.7,0,1.3,0,2,0c-0.1-1.8-0.2-3.6-0.4-5.4
		c-0.1-1.5-0.1-1.5-0.2-3.1c-0.5-4.3-1.4-8.3-2.4-12.5c0.2,0.5,0.4,1.1,0.6,1.6c0.9,2.4,1.8,4.9,2.8,7.3c0.3,0.9,0.6,1.7,1,2.6
		c0.5,1.2,0.5,1.2,0.9,2.5c0.4,1.1,0.4,1.1,0.9,2.3c0.7,2,0.7,2,2.9,2.8c0.1-1.6,0.1-3.3,0.1-4.9c0-0.9,0-1.8,0.1-2.8
		c-0.3-4.2-1.2-8.2-2.2-12.3c0.2,0.5,0.4,1.1,0.6,1.6c0.9,2.4,1.8,4.9,2.8,7.3c0.3,0.9,0.6,1.7,1,2.6c0.5,1.2,0.5,1.2,0.9,2.5
		c0.4,1.1,0.4,1.1,0.9,2.3c0.7,2,0.7,2,2.9,2.8c0.3-7.2-0.8-13.9-2-21c2,5.9,4,11.9,6,18c1.3,0,2.6,0,4,0c0.3-1.7,0.7-3.3,1-5
		c0.6,0.7,1.2,1.3,1.8,2c2.1,2.3,2.1,2.3,5.2,2c2.3-3.4,2.2-5,2-9c-0.9,0-1.9,0-2.8,0.1C374,542,374,542,371,541c0-0.7,0-1.3,0-2
		c-0.7,0-1.3,0-2,0c-0.1-2.4-0.1-4.8-0.2-7.2c0-0.7-0.1-1.3-0.1-2c-0.1-4.5,0.5-7.2,3.3-10.8c3.7-2.1,6.8-2.2,11-2
		c0.1,0.6,0.1,1.2,0.2,1.9c0.1,0.8,0.2,1.6,0.3,2.4c0.1,1.2,0.1,1.2,0.2,2.4c0.3,2.4,0.3,2.4,1.3,5.3c1,0,2,0,3,0
		c0.3-3.6,0.7-7.3,1-11c1,0,2,0,3,0c0.3,7.8-0.3,15.1-1.8,22.8c-0.3,3.6,0.4,5.9,1.8,9.2c8.2-9,8.5-25.6,10-37
		c-0.6,7.4-1.7,14.7-3,22c-0.8,5.1-1.3,9.8-1,15c0.7,0.7,1.3,1.3,2,2c1-2,2-4,3-6c0.7,1,1.3,2,2,3c3.2-5.2,5.5-10.5,7.6-16.2
		c0.6-1.6,1.2-3.2,1.8-4.7c0.4-1,0.4-1,0.8-2.1c0.8-2.1,1.8-4,2.8-6c-0.3,0.9-0.6,1.7-0.9,2.6c-1.1,3.2-2.3,6.4-3.4,9.6
		c-0.5,1.4-1,2.8-1.5,4.2c-0.7,2-1.4,4-2.1,6c-0.4,1.2-0.8,2.4-1.3,3.6c-1.1,3-1.1,3,0.2,6c6.5-8.6,11.6-18.8,15-29
		c0.7,0.3,1.3,0.7,2,1c-1.6,7.3-4.6,13.4-8.4,19.8c-2.1,3.6-2.1,3.6-2.3,7.6c0.2,0.5,0.5,1,0.7,1.6c4.2-5.1,7.9-10.5,11.6-15.8
		c2.6-3.7,5.1-7.1,8.4-10.2c-0.9,4.3-3.2,7.3-5.8,10.8c-0.9,1.2-1.8,2.5-2.7,3.8c-0.4,0.6-0.9,1.2-1.3,1.8
		c-4.3,5.4-4.3,5.4-6.2,11.7c0.7,0,1.3,0,2,0c1.5-1.8,2.9-3.7,4.2-5.6c5.4-7.3,10.7-13.7,17.8-19.4c-5.3-15.4-14.4-24.9-28.8-32.3
		C385.7,483.2,353.9,492.9,327,508z M535,499c1.4,3.2,3.1,5.3,5.6,7.6c0.7,0.7,1.4,1.4,2.2,2.1c0.8,0.7,1.5,1.4,2.3,2.1
		c1.1,1,1.1,1,2.2,2.1c4.2,3.9,8.5,7.8,12.9,11.6c2.2,1.9,4.4,3.9,6.6,5.9c3.4,3,6.8,5.9,10.3,8.8c5.6,4.5,10.8,9.4,16,14.4
		c3.9,3.7,7.9,7.3,12,10.9c2.6,2.3,5.2,4.6,7.7,7c1,1,2.1,1.9,3.1,2.9c0.5,0.5,1,0.9,1.5,1.4c6.4,5.9,12.9,11.6,19.7,17.1
		c3.7,3.1,7.1,6.4,10.5,9.7c2.2,1.9,2.2,1.9,5.1,1.3c0.7-0.2,1.5-0.5,2.2-0.7c0.5-1.5,0.5-1.5,1-3c-1.1-1.1-2.2-2.2-3.3-3.3
		c-1.2-1.2-2.4-2.5-3.7-3.7c-4.6-4.7-9.3-8.9-14.5-12.9c-2.6-2.1-5-4.2-7.5-6.5c-4.2-3.9-8.6-7.5-13.1-11.1
		c-3.3-2.7-6.5-5.5-9.8-8.2c-0.9-0.8-0.9-0.8-1.8-1.5c-3-2.6-6-5.2-9-7.7c-6.1-5.3-12.3-10.4-18.8-15.3c-4.6-3.5-8.8-7.3-13-11.2
		c-3.6-3.3-7.4-6.3-11.2-9.3c-2.3-1.9-4.3-3.9-6.3-6.1C541.3,500,539.2,499.1,535,499z M469,517c0.3,1.7,0.7,3.3,1,5
		c0.3-1.3,0.7-2.6,1-4C470.3,517.7,469.7,517.3,469,517z M377,523c1,2,1,2,1,2L377,523z M376,525c-1.3,1.1-1.3,1.1-1.1,3.6
		c0,0.8,0,1.6,0.1,2.4c0.7,0,1.3,0,2,0c0-2,0-4,0-6C376.7,525,376.3,525,376,525z M328.8,528.8c-0.6,0.7-1.2,1.5-1.8,2.2
		c0.4,3,1.7,5.6,3,8.3c0.4,0.8,0.8,1.6,1.2,2.5c0.4,0.8,0.8,1.7,1.2,2.6c0.6,1.3,0.6,1.3,1.2,2.5c0.8,1.6,1.6,3.3,2.3,4.9
		c0.9,1.9,1.8,3.8,2.7,5.7c1.1,2.6,1.1,2.6,3.3,3.5c0.2-6.7-0.5-12.3-2.2-18.7c-0.2-0.8-0.4-1.6-0.6-2.5c-1.3-5-2.9-8.8-6.1-12.8
		C330.8,526.8,330.8,526.8,328.8,528.8z M439.9,537.9c-0.5,0.5-1.1,1.1-1.6,1.6c-0.5,0.5-1.1,1.1-1.6,1.6c-4,4-7.4,8.2-10.7,12.9
		c0.3,0.7,0.7,1.3,1,2c0.6-0.6,1.2-1.1,1.9-1.7c0.8-0.8,1.7-1.5,2.6-2.3c0.9-0.8,1.8-1.6,2.7-2.5c1.8-1.6,3.7-3.2,5.5-4.7
		c0.8-0.7,1.6-1.4,2.5-2c0.8-0.6,1.5-1.2,2.3-1.8c1.8-1.9,1.8-1.9,1.3-4.7c-0.4-1.1-0.4-1.1-0.7-2.3
		C442.8,534,441.4,536.4,439.9,537.9z M322,535c-1.3,1.7-2.6,3.3-4,5c0.3,0.5,0.6,1,0.9,1.6c1.3,2.4,2.6,4.7,3.9,7.1
		c0.5,0.8,0.9,1.6,1.4,2.4c2.4,4.3,4.7,8.5,6.8,12.9c1,0,2,0,3,0c-0.9-6.3-2.6-12-4.9-17.9c-0.2-0.6-0.5-1.3-0.7-1.9
		C326.8,540.3,325.1,537.7,322,535z M384.4,537.5c-1.7,2-2.4,3-2.5,5.7c0.3,2.4,0.3,2.4,1.1,5.8c1,0.3,2,0.7,3,1
		c2.4-3.5,2.2-5,2.1-9.2c0-1.1,0-2.2-0.1-3.3c0-0.8,0-1.7-0.1-2.5C386.5,534.9,386.5,534.9,384.4,537.5z M312,544
		c-1.1,2.7-1.1,3.8,0,6.5c0.8,1.4,0.8,1.4,1.5,2.7c0.5,1,1.1,2,1.7,3c0.6,1,1.2,2,1.8,3.1c0.6,1,1.2,2.1,1.7,3.1
		c1.4,2.5,2.9,5.1,4.3,7.6c1.3-0.3,2.6-0.7,4-1c-0.6-5.1-3-9.2-5.4-13.6c-0.4-0.8-0.8-1.5-1.2-2.3c-2.6-5-2.6-5-6.4-9.1
		C313.3,544,312.7,544,312,544z M306,551c-0.8,2.3-1.1,3.6-0.3,6c0.4,0.7,0.7,1.3,1.1,2c0.6,1.1,0.6,1.1,1.2,2.2
		c0.4,0.8,0.8,1.5,1.3,2.3c0.4,0.8,0.8,1.5,1.2,2.3c1.9,3.5,3.6,6.4,6.5,9.1c0.7-0.3,1.3-0.7,2-1C316,565.8,312.6,557,306,551z
		 M300,560c0,3.9,0.2,4.9,2,8.1c0.6,1.1,0.6,1.1,1.2,2.3c0.4,0.8,0.9,1.6,1.3,2.4c0.4,0.8,0.9,1.6,1.3,2.4c1.1,2,2.1,3.9,3.2,5.8
		c0.7,0,1.3,0,2,0c-0.6-4.8-2.7-8.5-4.9-12.8c-0.5-1-0.5-1-1.1-2.1C303.2,562.5,303.2,562.5,300,560z M295,568c-1,1.5-1,1.5-2,3
		c3.6,6.3,7.3,12.5,11,19c0.7-0.7,1.3-1.3,2-2c-1.3-2.6-2.5-5.2-3.8-7.8c-0.4-0.7-0.7-1.5-1.1-2.2C299.3,574.4,297.6,571.1,295,568z
		 M290,579c1.5,5.5,4.2,10.1,7,15c1.4-3,1.4-3-0.2-5.9c-0.9-1.6-0.9-1.6-1.7-3.3c-0.6-1.1-1.1-2.2-1.7-3.3c-0.4-0.8-0.9-1.7-1.3-2.5
		C291.3,579,290.7,579,290,579z M286,589c0.6,4.1,1.9,6.8,4.1,10.3c0.5,0.9,1.1,1.8,1.7,2.7c0.4,0.7,0.8,1.3,1.3,2
		c0.3-0.7,0.7-1.3,1-2c-1.1-2.3-2.2-4.4-3.4-6.6c-0.5-0.9-0.5-0.9-1-1.9c-0.8-1.5-1.7-3-2.5-4.5C286.7,589,286.3,589,286,589z
		 M686,592c1.3,1.3,2.6,2.6,4,4c0-1,0-2,0-3C688.7,592.7,687.4,592.3,686,592z M282,599c-0.3,4.2,0.5,6.3,2.9,9.8
		c0.5,0.8,1.1,1.6,1.6,2.4c0.5,0.6,1,1.2,1.5,1.8c0.7,0,1.3,0,2,0c-1.8-5-4.4-9.4-7-14C282.7,599,282.3,599,282,599z M659,603
		c-0.7,2-1.3,4-2,6c0.7,0.7,1.3,1.3,2,2c2,0,2,0,4-1c1.8-2,1.8-2,3-4C662.9,603.4,662.9,603.4,659,603z M669.4,612.1
		c-3.3,2.9-6.7,5.8-10.1,8.5c-1.6,1.4-1.6,1.4-1.2,4.4c5-1.6,8.7-4.5,12.8-7.6c0.7-0.5,1.4-1,2.1-1.6c1.7-1.3,3.4-2.5,5.1-3.8
		C673.6,608.5,673.6,608.5,669.4,612.1z M280,613c0.3,2.4,0.3,2.4,1,5c1.5,1,1.5,1,3,2c-0.6-2-1.3-4-2-6
		C281.3,613.7,280.7,613.3,280,613z M651,616c-0.3,1-0.7,2-1,3c1,0,2,0,3,0c-0.3-1-0.7-2-1-3C651.7,616,651.3,616,651,616z M284,620
		c0,0.7,0,1.3,0,2c0.7-0.3,1.3-0.7,2-1C285.3,620.7,284.7,620.3,284,620z M705.7,636.9c-0.7,0.6-1.3,1.2-2,1.9
		c-0.7,0.6-1.4,1.3-2.1,2c-0.7,0.6-1.3,1.3-2,1.9c-3.2,3.1-6.5,6.1-9.6,9.3c1,1.3,2,2.6,3,4c3.7-1.5,5.9-3.7,8.6-6.6
		c4.2-4.3,4.2-4.3,6.4-5.4c0-0.7,0-1.3,0-2c0.6-0.3,1.2-0.5,1.9-0.8c2.4-1.1,2.4-1.1,4.1-4.2c-1.4-1.5-1.4-1.5-3-3
		C708.3,634,707.6,635.1,705.7,636.9z M656,638c-1.8,1.8-1.8,1.8-3.3,4.2c-0.5,0.8-1.1,1.6-1.6,2.4c-1.3,2.3-1.3,2.3-0.7,4.7
		c0.3,0.8,0.3,0.8,0.7,1.7c2,0.5,2,0.5,4,1c1-1.4,2-2.9,2.9-4.3c0.5-0.8,1.1-1.6,1.7-2.4c1.5-2.3,1.5-2.3,2.4-5.3
		c-0.7-0.7-1.3-1.3-2-2C658.7,638,657.4,638,656,638z M717.5,646.9c-0.8,0.9-1.7,1.8-2.5,2.7c-0.8,0.9-1.7,1.8-2.5,2.7
		c-0.8,0.9-1.7,1.8-2.5,2.7c-0.9,0.9-1.8,1.8-2.8,2.7c-2.2,2.2-2.9,3.3-3.2,6.3c2.5,1,2.5,1,5,2c0.4-0.5,0.8-0.9,1.2-1.4
		c4.8-5.7,10.2-10.7,15.8-15.6c-0.3-1-0.7-2-1-3C721.5,644.7,720.5,644.6,717.5,646.9z M652,666c-2.6,6.8-2.6,6.8-3,14
		c3-0.6,3-0.6,3.9-2.7c1.4-3.9,2.4-7.1,2.1-11.3C654,666,653,666,652,666z M741,667c-1.7,2-3.4,4-5,6c3.4-1.4,5-3,7-6
		C742.3,667,741.7,667,741,667z M748,671c-1.3,1.3-2.6,2.6-4,4c0.3,0.7,0.7,1.3,1,2c1.3-1.3,2.6-2.6,4-4
		C748.7,672.3,748.3,671.7,748,671z M756,676c-2.6,2.3-2.6,2.3-5,5c0,1,0,2,0,3c3.8-1.5,5.1-3.4,7-7
		C757.3,676.7,756.7,676.3,756,676z M660,682c-0.8,1.8-0.8,1.8-1,4c1.1,2,1.1,2,2.8,3.8c0.5,0.6,1.1,1.2,1.6,1.9
		c1.4,1.6,1.4,1.6,3.5,1.4c0.7-1.7,1.3-3.3,2-5C666.1,685.6,663.4,683.5,660,682z M762.6,683.3c-0.5,0.6-1.1,1.1-1.7,1.7
		c-0.5,0.6-1.1,1.1-1.7,1.7c-0.4,0.4-0.8,0.9-1.3,1.3c0.3,1,0.7,2,1,3c2.8-1.3,5.1-2.5,7-5c-0.2-2.2-0.2-2.2-1-4
		C763.8,681.9,763.8,681.9,762.6,683.3z M771,691c-1.9,1.7-1.9,1.7-3,4c0.2,2.2,0.2,2.2,1,4c2.6-1.7,2.6-1.7,5-4c0-1.3,0-2.6,0-4
		C773,691,772,691,771,691z M656,692c0,2.4,0,2.4,1,5c3,2.3,3,2.3,6,4C661.4,697.2,659,694.8,656,692z M782,698c-0.3,1-0.7,2-1,3
		c1,0,2,0,3,0c-0.3-1-0.7-2-1-3C782.7,698,782.3,698,782,698z M868,710c0.3,0.7,0.7,1.3,1,2c1,0,2,0,3,0c0-0.7,0-1.3,0-2
		C870.7,710,869.4,710,868,710z M842,714c-1.3-0.1-1.3-0.1-2.7-0.2c-4.2,0.2-7.2,1.9-10.8,4c-1,0.6-1,0.6-2.1,1.2
		c-7.3,4.3-13.9,9.5-20.4,15c-0.8,0.6-1.5,1.2-2.3,1.9c-3.3,2.7-6,5.2-7.7,9.1c0.3,1,0.7,2,1,3c3.7-1.3,6.6-2.9,9.7-5.2
		c6.8-4.9,13.8-9,21.3-12.8c1.2-0.8,2.4-1.5,3.6-2.3c8.2-5.2,17.2-8.9,26.4-11.7c-0.5-2-0.5-2-1-4C851.5,711.8,847.3,712.1,842,714z
		 M779,729c0,1,0,2,0,3c-0.7,0-1.3,0-2,0c-0.3,2.4-0.3,2.4,0,5c2.2,2.5,3.7,2.9,6.9,3.5c3.2-0.3,3.2-0.3,6-2.6
		c2.4-2.7,2.4-2.7,2.1-6.1c-0.8-3.1-0.8-3.1-4-4.8C783.9,726.7,782.5,726.7,779,729z M826,736c-2.8,1.5-2.8,1.5-5.6,3.7
		c-1,0.7-1.9,1.4-2.9,2.1c-2.3,2-3.4,3.3-4.5,6.2c4.4-1.4,7.3-3.7,10.8-6.6c1-0.8,2-1.6,3-2.5c0.7-0.6,1.5-1.3,2.2-1.9
		C828,736.7,827,736.3,826,736z M709,744c0.3,1,0.7,2,1,3c0.7,0,1.3,0,2,0c0-1,0-2,0-3C711,744,710,744,709,744z M816,754
		c-2.7,2.3-5.4,4.6-8,7c-1.1,0.9-1.1,0.9-2.1,1.9c-13.2,12.4-22.6,29-27.9,46.2c-0.3,1.1-0.3,1.1-0.7,2.2c-1.1,3.9-1.6,6.8-0.3,10.8
		c3-3.4,4-7,5.2-11.2c6.3-21.4,19.9-40.3,35.8-55.8C817.3,754.7,816.7,754.3,816,754z M826.6,786c-5.5,7.6-9.2,15.2-12.6,24
		c-0.6,1.2-1.1,2.5-1.7,3.7c-1.4,3.4-1.5,4.8-0.3,8.3c1,0,2,0,3,0c0.6-1.2,1.1-2.5,1.7-3.8c0.4-0.8,0.7-1.7,1.1-2.5
		c0.8-1.8,1.5-3.7,2.2-5.6c7-18.2,19.8-32.1,36.9-41.2c3.5-1.2,6.2-1,9.8-0.9c2.3,0,2.3,0,5.2-1.1c1.2-2,1.2-2,2-4
		C858.2,752.5,835.5,774.9,826.6,786z M770,767c-1.9,2.3-1.9,2.3-3.6,5.2c-0.6,1-1.2,1.9-1.9,3c-1.3,2.4-2.1,4.2-2.5,6.8
		c3.8-1.3,4.1-2.4,6.1-5.8c0.8-1.3,0.8-1.3,1.5-2.6c1.2-2.2,2.3-4.3,3.4-6.5C772,767,771,767,770,767z M717,770c0,1,0,2,0,3
		c0.7,0,1.3,0,2,0c0-1,0-2,0-3C718.3,770,717.7,770,717,770z M780.5,774.4c-3,3.8-4.2,8-5.5,12.6c1,0.3,2,0.7,3,1
		c1.3-2.3,2.7-4.6,4-6.9c0.4-0.7,0.8-1.3,1.2-2c2.1-3.4,2.1-3.4,2.8-7.2C782.8,771.7,782.8,771.7,780.5,774.4z M749,776c1,2,1,2,1,2
		L749,776z M731,795c1,3,1,3,1,3L731,795z M760,802c1,2,1,2,1,2L760,802z M759,805c1,2,1,2,1,2L759,805z M729,837
		c-0.3,0.7-0.7,1.3-1,2c1.3-0.3,2.6-0.7,4-1C731,837.7,730,837.3,729,837z M716,843c0.3,0.7,0.7,1.3,1,2c1-0.3,2-0.7,3-1
		C718.7,843.7,717.4,843.3,716,843z M702,848c0,0.7,0,1.3,0,2c3.4-0.3,3.4-0.3,7-1c0.7-1,1.3-2,2-3C707.1,844.4,705.3,845.6,702,848
		z M739,847c-0.3,1-0.7,2-1,3c3-0.3,3-0.3,6-1c0.3-0.7,0.7-1.3,1-2C743,847,741,847,739,847z"/>
	<path d="M316.2,157.8c1,0,2,0,3.1,0c1.1,0,2.2,0,3.3,0c1.1,0,2.3,0,3.5,0c38.4-0.2,74.2,2.1,111.6,10.7c2.3,0.5,4.6,1,6.9,1.6
		c15.3,3.4,29.9,6.8,43.4,15c1.6,0.8,1.6,0.8,3.2,1.7c9.9,5.3,20.6,13,25.1,23.6c2.2,8.5,1.8,16.9-2.7,24.5
		c-2.8,3.9-5.9,7.1-9.6,10.2c-0.8,0.6-1.5,1.3-2.3,2c-33.9,25.3-92.3,28.8-133.2,31.7c-0.9,0.1-1.8,0.1-2.8,0.2
		c-30.4,2.1-61.4,2.8-91.7-0.8c-1.1-0.1-2.2-0.2-3.3-0.4c-86.7-9.4-86.7-9.4-109.4-33.5c-4.8-6-7.6-11.7-7.2-19.5
		c1.6-12,8.6-19.5,17.7-26.8c13.1-9.7,28.9-16.6,44.3-21.8c0.6-0.2,1.2-0.4,1.9-0.7c12.4-4.3,25.1-7,38-9.6c0.8-0.2,1.7-0.3,2.5-0.5
		c13.3-2.7,26.7-5.1,40.3-5.8c4.9-0.2,4.9-0.2,9.8-0.9C311,158,313.5,157.9,316.2,157.8z M313,168c0,8.6,0,17.2,0,26
		c2.3,0,4.6,0,7,0c0.2-4,0.4-7.9,0.6-11.9c0.1-1.1,0.1-2.3,0.2-3.4c0.1-1.6,0.1-1.6,0.2-3.3c0.1-1,0.1-2,0.2-3
		c0.1-2.6,0.1-2.6-2.1-4.4C317,168,315,168,313,168z M351,168c-0.3,8.6-0.7,17.2-1,26c1.6-0.3,3.3-0.7,5-1c0-8.2,0-16.5,0-25
		C353.7,168,352.4,168,351,168z M330,169c0,8.2,0,16.5,0,25c1,0,2,0,3,0c0-8.2,0-16.5,0-25C332,169,331,169,330,169z M340,169
		c0,8.2,0,16.5,0,25c2-0.3,4-0.7,6-1c0.7-8.4,1.2-16.6,1-25C343.8,167.9,343.8,167.9,340,169z M360,169c0,4.1,0,8.3-0.1,12.4
		c0,1.2,0,2.4,0,3.6c0,1.1,0,2.2,0,3.4c0,1,0,2.1,0,3.2c-0.2,2.4-0.2,2.4,1.1,3.4c2.2,0.1,4.4,0.1,6.6,0.1c1.2,0,2.4,0,3.6,0
		c1.4,0,1.4,0,2.8,0c0.2-4.1,0.4-8.3,0.6-12.4c0.1-1.8,0.1-1.8,0.2-3.6c0-1.1,0.1-2.2,0.1-3.4c0-1,0.1-2.1,0.1-3.2
		c0.3-2.4,0.3-2.4-1-3.4c-2.5-0.2-2.5-0.2-5,0c-2,2-1.4,5.8-1.6,8.6c0,0.7-0.1,1.4-0.1,2.2c-0.1,1.8-0.2,3.5-0.3,5.3
		c-0.7,0-1.3,0-2,0c0-5.3,0-10.6,0-16C363.4,169,361.7,169,360,169z M290,171c0,8.2,0,16.5,0,25c2.3,1.4,2.3,1.4,6,0
		c0-8.6,0-17.2,0-26C292.2,169.7,292.2,169.7,290,171z M302,170c0,8.2,0,16.5,0,25c1,0,2,0,3,0c1.3-8.7,1.1-17.3,1-26
		C304.6,168.9,304.6,168.9,302,170z M379,170c-1.7,1.7-1.2,4.2-1.3,6.6c0,1.1-0.1,2.2-0.1,3.4c0,1.2-0.1,2.4-0.1,3.6
		c0,1.2-0.1,2.4-0.1,3.6c-0.1,2.9-0.2,5.9-0.3,8.8c2.3,0,4.6,0,7,0c0.2-4,0.4-7.9,0.6-11.9c0.1-1.1,0.1-2.3,0.2-3.4
		c0.1-1.6,0.1-1.6,0.2-3.3c0.1-1,0.1-2,0.2-3c0.1-2.6,0.1-2.6-2.1-4.4C381.7,170,380.4,170,379,170z M388,170c0,8.9,0,17.8,0,27
		c5.2,0.9,5.2,0.9,10.4,1.1c1.2,0,2.4,0,3.6-0.1c0-0.6,0.1-1.1,0.1-1.7c0.1-2.5,0.2-5.1,0.4-7.6c0.1-1.3,0.1-1.3,0.1-2.7
		c0-0.8,0.1-1.7,0.1-2.6c0.1-1.2,0.1-1.2,0.1-2.4c0.2-2.1,0.2-2.1,1.2-5.1c0.7,5.6,1.1,11.2,1,16.9c0,1.2,0,2.3,0,3.5
		c0,0.9,0,1.7,0,2.6c4.7,1.1,9.5,2.2,14.2,3.3c1.6,0.4,3.2,0.7,4.8,1.1c9.6,2.2,19.1,4.2,28.9,5.6c0-5.3,0-10.6,0-16
		c1-0.5,1-0.5,2-1c0,2,0,4,0,6c0.3,0,0.7,0,1,0c0.1-2.1,0.2-4.2,0.2-6.3c0-1.2,0.1-2.3,0.1-3.6c-0.1-3.2-0.1-3.2-2.1-4.7
		c-4.6-2.8-9.9-3.6-15-4.8c-1.3-0.3-2.5-0.6-3.8-0.9C412,172.1,412,172.1,388,170z M280,172c0,8.6,0,17.2,0,26c1.6-0.3,3.3-0.7,5-1
		c0-8.6,0-17.2,0-26C282.8,170.9,282.8,170.9,280,172z M271,173c-1.7,1.7-1.1,3.9-1.1,6.3c0,1.1,0,2.1,0,3.2c0,1.1,0,2.3,0,3.4
		c0,1.1,0,2.2,0,3.4c0,1.1,0,2.1,0,3.2c0,1,0,2,0,3c0,2.4,0,2.4,1.1,4.4c2-0.3,4-0.7,6-1c0-8.6,0-17.2,0-26C275,173,273,173,271,173
		z M265,174c-2,1-2,1-4,2c0,8.6,0,17.2,0,26c2-0.3,4-0.7,6-1c0.3-8.6,0.7-17.2,1-26C267,174.7,266,174.3,265,174z M252,178
		c-0.1,1.4-0.1,2.7-0.1,4.1c0,1.3,0,2.6,0.1,3.9c-0.7,0-1.3,0-2,0c0-2.6,0-5.3,0-8c-3.5,1.4-3.5,1.4-7,3c-2,0-4,0-6,0
		c-1.3,1.1-1.3,1.1-1.1,3.5c0,1.1,0,2.2,0,3.3c0,1.2,0,2.3,0,3.5c0,1.2,0,2.5,0,3.7c0,1.2,0,2.5,0,3.7c0,3.1,0,6.1,0,9.2
		c2.3-0.7,4.6-1.3,7-2c0-4,0-7.9,0-12c0.7,0,1.3,0,2,0c0,4,0,7.9,0,12c1.6-0.3,3.3-0.7,5-1c0.3-4.9,0.7-9.9,1-15
		c0.3,4.6,0.7,9.2,1,14c2-0.3,4-0.7,6-1c0.2-3.8,0.4-7.5,0.6-11.3c0.1-1.1,0.1-2.1,0.2-3.2c0-1,0.1-2.1,0.1-3.1
		c0.1-1.4,0.1-1.4,0.1-2.9c0.1-2.6,0.1-2.6-1-5.5C254.7,176.6,254.7,176.6,252,178z M229.5,184.2c-2,2.5-1.8,4.2-1.7,7.4
		c0,1.1,0,2.1,0,3.3c0,1.1,0.1,2.2,0.1,3.4c0,1.1,0,2.3,0,3.4c0,2.8,0.1,5.6,0.1,8.4c1.3-0.3,2.6-0.7,4-1c0-8.6,0-17.2,0-26
		C230.8,182.9,230.8,182.9,229.5,184.2z M458,185c-1.3,1-1.3,1-1,3.4c0,1,0.1,2.1,0.1,3.2c0,1.1,0.1,2.2,0.1,3.4
		c0.1,1.2,0.1,2.4,0.2,3.6c0.1,1.2,0.1,2.4,0.2,3.6c0.1,2.9,0.3,5.9,0.4,8.8c2,0.3,4,0.7,6,1c0.3-8.2,0.7-16.5,1-25
		C462.7,186.3,460.4,185.7,458,185z M220,188c-0.3,2.5-0.3,2.5-0.1,5.4c0.1,1.1,0.1,2.2,0.2,3.3c0.1,1.1,0.1,2.3,0.2,3.4
		c0.1,1.1,0.1,2.3,0.2,3.4c0.2,2.8,0.3,5.6,0.5,8.4c1-0.3,2-0.7,3-1c0-8.2,0-16.5,0-25C222.5,185.9,222.5,185.9,220,188z M325,187
		c1,3,1,3,1,3L325,187z M469,188c-0.1,4.3-0.1,8.6-0.2,12.9c0,1.2-0.1,2.4-0.1,3.7c0,1.2,0,2.3,0,3.5c0,1.1,0,2.2,0,3.3
		c0.1,0.9,0.2,1.7,0.3,2.6c2.8,2.3,2.8,2.3,6,2c0.3-8.6,0.7-17.2,1-26C473.7,189.3,471.4,188.7,469,188z M215,190
		c-1.3,1-1.3,1-1.1,3.2c0,1,0,1.9,0,2.9c0,1,0,2.1,0,3.1c0,1.1,0,2.2,0,3.3c0,1.1,0,2.2,0,3.3c0,2.7,0,5.4,0,8.1c0.7,0,1.3,0,2,0
		c0-7.9,0-15.8,0-24C215.7,190,215.3,190,215,190z M480,194c-0.1,3-0.1,6.1-0.1,9.1c0,0.9,0,1.7-0.1,2.6c0,4.8,0.3,8.7,2.2,13.3
		c0.7,0,1.3,0,2,0c0-7.9,0-15.8,0-24C482.7,194.7,481.4,194.3,480,194z M196,200c-0.3,3-0.7,5.9-1,9c0.7,0,1.3,0,2,0c0-3,0-5.9,0-9
		C196.7,200,196.3,200,196,200z M491,201c0,6.9,0,13.9,0,21c0.3,0,0.7,0,1,0c1.1-4.4,1.1-8.8,1.1-13.3c0-0.7,0-1.5,0-2.2
		c0-1.8,0-3.6,0-5.4C492.3,201,491.7,201,491,201z M190,202c-2.2,1.8-2.2,1.8-2.2,4.1c0,0.8,0,1.7,0,2.5c0,0.9,0,1.8,0,2.7
		c0,0.9,0,1.9,0.1,2.8c0,0.9,0,1.9,0,2.9c0,2.3,0.1,4.7,0.1,7c0.7,0,1.3,0,2,0c0.3-7.3,0.7-14.5,1-22C190.7,202,190.3,202,190,202z
		 M496,203c-0.1,3.5-0.1,6.9-0.2,10.4c0,1-0.1,2-0.1,3c0,0.9,0,1.9,0,2.9c0,0.9,0,1.7,0,2.6c0.1,0.7,0.2,1.4,0.3,2.2
		c1.5,1,1.5,1,3,2c0.1-3.5,0.1-6.9,0.2-10.4c0-1,0.1-2,0.1-3c0-1.4,0-1.4,0-2.9c0-0.9,0-1.7,0-2.6c-0.1-0.7-0.2-1.4-0.3-2.2
		C498,204.3,497,203.7,496,203z M183,206c0,2,0,4,0,6c0.3,0,0.7,0,1,0c0-2,0-4,0-6C183.7,206,183.3,206,183,206z M505,210
		c-0.1,2.2-0.1,4.5-0.1,6.7c0,1.2,0,2.5-0.1,3.8c0.2,3.4,0.7,5.5,2.2,8.6c0.7,0,1.3,0,2,0c2.2-6.7,0.8-11.8-2-18
		C506.3,210.7,505.7,210.3,505,210z M173,214c-0.3,1.3-0.7,2.6-1,4c0.7,0,1.3,0,2,0C173.7,216.7,173.3,215.4,173,214z M394,214
		c0,1,0,2,0,3c1.6-0.3,3.3-0.7,5-1c-0.3-0.7-0.7-1.3-1-2C396.7,214,395.4,214,394,214z M338,219c0,1,0,2,0,3c2.5,0.5,2.5,0.5,5,1
		c-1.4-2-1.4-2-3-4C339.3,219,338.7,219,338,219z M167,220c-1.6,5.6-2.2,10.2-2,16c1,0,2,0,3,0c0-5.3,0-10.6,0-16
		C167.7,220,167.3,220,167,220z M348,220c-0.3,0.7-0.7,1.3-1,2c-1,0.3-2,0.7-3,1c0.7,1.3,1.3,2.6,2,4c1,0,2,0,3,0c1,1.5,1,1.5,2,3
		c1-0.3,2-0.7,3-1c0.7-2,0.7-2,1-4c-1.3-0.3-2.6-0.7-4-1c-0.3-1.3-0.7-2.6-1-4C349.3,220,348.7,220,348,220z M384,222
		c-0.7,1.8-0.7,1.8-1,4c1,2,1,2,2.4,3.8c0.5,0.6,0.9,1.2,1.4,1.9c0.4,0.5,0.7,0.9,1.1,1.4c0.7-0.3,1.3-0.7,2-1
		c-0.6-3.9-1.7-6.8-4-10C385.3,222,384.7,222,384,222z M392,226c0.3,1.6,0.7,3.3,1,5c0.7,0,1.3,0,2,0c0-1.6,0-3.3,0-5
		C394,226,393,226,392,226z M411,227c-1.6,2.5-1.6,2.5-3,5c1.6-0.3,3.3-0.7,5-1c0-1.3,0-2.6,0-4C412.3,227,411.7,227,411,227z
		 M321,229c-0.3,1-0.7,2-1,3c0.6,0.6,1.2,1.2,1.9,1.9c2.2,2.2,4.2,4.3,6.1,6.8c0.7,0.8,1.3,1.6,2,2.4c0.7,0,1.3,0,2,0
		c0.3-2.4,0.3-2.4,0-5c-1.7-1.8-1.7-1.8-3.9-3.1c-4-2.6-4-2.6-5.1-5.9C322.3,229,321.7,229,321,229z M292,231c-1.6,2.6-3.3,5.3-5,8
		c4.4-0.3,4.4-0.3,7.9-2.9c1.3-2,1.3-2,1.1-4.1C294.7,231.7,293.4,231.3,292,231z M362,234c-0.3,1.6-0.7,3.3-1,5c1,0.5,1,0.5,2,1
		c2.3-2.8,2.3-2.8,2-6C364,234,363,234,362,234z M262.4,239.3c-2.7,2.5-2.7,2.5-2.4,5.7c3.4-0.5,5.1-1.1,8-3c-0.3-1.6-0.7-3.3-1-5
		C264.7,236.8,264.7,236.8,262.4,239.3z M379,239c-0.7,2-1.3,4-2,6c0.7,0,1.3,0,2,0c0.7-2,1.3-4,2-6C380.3,239,379.7,239,379,239z
		 M357,241c0.3,1.3,0.7,2.6,1,4c1-0.3,2-0.7,3-1c0.7-2,0.7-2,1-4C359.1,239.8,359.1,239.8,357,241z M307,241c-0.9,5.1-0.9,5.1,0,10
		c1.3,0,2.6,0,4,0c1-2.2,1-2.2,1-5C309.7,243.2,309.7,243.2,307,241z M349,241c-0.7,1.3-1.3,2.6-2,4c1-0.3,2-0.7,3-1
		C349.7,243,349.3,242,349,241z M392,245c-0.3,1-0.7,2-1,3c1.5,1,1.5,1,3,2c0.3-1.3,0.7-2.6,1-4C394,245.7,393,245.3,392,245z
		 M425,245c0.3,1,0.7,2,1,3c1,0,2,0,3,0c-0.3-1-0.7-2-1-3C427,245,426,245,425,245z M329,247c-0.3,1-0.7,2-1,3c1.7,2.7,1.7,2.7,4,5
		c0.7,0,1.3,0,2,0C333.5,251.2,331.8,249.5,329,247z M407,248c0.5,1.4,0.9,2.9,1.4,4.3c0.3,0.8,0.5,1.6,0.8,2.4
		c0.8,2.5,0.8,2.5,2.9,5.3c0.7,0,1.3,0,2,0c-0.6-4.8-2.6-8-5-12C408.3,248,407.7,248,407,248z M370,250c0,0.7,0,1.3,0,2
		c0.7,0,1.3,0,2,0c-0.3,1.3-0.7,2.6-1,4c1.5,1,1.5,1,3,2c0.3-2,0.7-4,1-6C372.5,251,372.5,251,370,250z M229,251
		c0.3,1.3,0.7,2.6,1,4c1-0.3,2-0.7,3-1c-0.3-1-0.7-2-1-3C231,251,230,251,229,251z M294,251c0.3,1,0.7,2,1,3c1,0.3,2,0.7,3,1
		c-0.3-1-0.7-2-1-3C296,251.7,295,251.3,294,251z M365,253c1,3,1,3,1,3L365,253z M353,255c-1.6,2.3-1.6,2.3-3,5c0.3,1,0.7,2,1,3
		c1.3,0,2.6,0,4,0c0.2-2.9,0.2-2.9,0-6C354.3,256.3,353.7,255.7,353,255z M443,256c0,1,0,2,0,3c0.7,0,1.3,0,2,0c-0.3-1-0.7-2-1-3
		C443.7,256,443.3,256,443,256z M291,257c-0.3,1-0.7,2-1,3c0.7,0,1.3,0,2,0C291.7,259,291.3,258,291,257z M321,257c0,0.7,0,1.3,0,2
		c1-0.3,2-0.7,3-1C323,257.7,322,257.3,321,257z M389,257c0,1,0,2,0,3c0.7-0.3,1.3-0.7,2-1C390.3,258.3,389.7,257.7,389,257z
		 M399,259c0,1,0,2,0,3c0.7,0,1.3,0,2,0c0-1,0-2,0-3C400.3,259,399.7,259,399,259z M248,260c-0.3,1.3-0.7,2.6-1,4c1,0.5,1,0.5,2,1
		c0.7-0.3,1.3-0.7,2-1c-0.7-1.3-1.3-2.6-2-4C248.7,260,248.3,260,248,260z M262,260c0.3,0.7,0.7,1.3,1,2c0.3-0.7,0.7-1.3,1-2
		C263.3,260,262.7,260,262,260z M280,260c0.3,0.7,0.7,1.3,1,2c0.7-0.3,1.3-0.7,2-1C282,260.7,281,260.3,280,260z M311,260
		c-0.3,1-0.7,2-1,3c1,0,2,0,3,0c0-1,0-2,0-3C312.3,260,311.7,260,311,260z M273,261c-0.3,1.6-0.7,3.3-1,5c2.5,1.5,2.5,1.5,5,3
		c0.3-1,0.7-2,1-3c-1-0.3-2-0.7-3-1c-0.7-2.1-0.7-2.1-1-4C273.7,261,273.3,261,273,261z M325,261c0.8,2,0.8,2,2,4c1,0.3,2,0.7,3,1
		c-0.3-1.3-0.7-2.6-1-4C327.7,261.7,326.4,261.3,325,261z M380,262c-0.3,1.6-0.7,3.3-1,5c2.5,0.5,2.5,0.5,5,1c-0.3-1.6-0.7-3.3-1-5
		C382,262.7,381,262.3,380,262z"/>
	<path d="M423,183c0.7,0,1.3,0,2,0c0,3,0,5.9,0,9c-0.7,0-1.3,0-2,0C423,189,423,186.1,423,183z"/>
	<path d="M153,278c2.3,0,4.6,0,7,0c0,1,0,2,0,3c-0.9,0.3-1.8,0.5-2.7,0.8c-3.3,1.1-3.3,1.1-6,2.9c-0.8,0.4-1.5,0.9-2.3,1.3
		c-1-0.3-2-0.7-3-1c-2.2,1-2.2,1-4.4,2.4c-3.4,2.1-4.4,2.6-8.6,2.6c0-0.7,0-1.3,0-2c3-1.3,5.9-2.7,8.9-4c0.8-0.4,1.7-0.8,2.6-1.2
		c0.8-0.4,1.6-0.7,2.4-1.1c0.7-0.3,1.5-0.7,2.3-1c1.9-0.7,1.9-0.7,3.9-0.7C153,279.3,153,278.7,153,278z"/>
	<path d="M208,302c1,0,2,0,3,0c0,2,0,4,0,6c-1,0-2,0-3,0C208,306,208,304,208,302z"/>
	<path d="M209,318c0.7,0,1.3,0,2,0c1.4,2.7,1.1,5,1,8c-1,0.5-1,0.5-2,1C209.7,324,209.3,321.1,209,318z"/>
	<path d="M396,320c0.7,0,1.3,0,2,0c0.1,3.1,0.1,6.2,0.1,9.4c0,0.9,0,1.8,0.1,2.7c0,0.9,0,1.7,0,2.6c0,0.8,0,1.6,0,2.4
		c-0.2,2-0.2,2-2.2,4c-1-4.7-1-9.1-0.6-13.9c0.1-0.7,0.1-1.4,0.2-2.1C395.7,323.4,395.9,321.7,396,320z"/>
	<path d="M360,334c0.3,0,0.7,0,1,0c0.3,3.3,0.7,6.6,1,10c-1,0-2,0-3,0c0-1.5,0-3-0.1-4.4c0-0.8,0-1.6,0-2.5C359,335,359,335,360,334
		z"/>
	<path d="M317,335c0.3,0,0.7,0,1,0c1.1,7.6,1.1,7.6,0,11c-0.7,0-1.3,0-2,0c0-1.6,0-3.3-0.1-4.9c0-0.9,0-1.8,0-2.8
		C316,336,316,336,317,335z"/>
	<path d="M288.9,349.8c2,0.1,4,0.1,6.1,0.2c0,1,0,2,0,3c-3.8,1.5-6.3,0.4-10-1C287,350,287,350,288.9,349.8z"/>
	<path d="M296,361c0.7,9.9,1.3,19.8,2,30c-2,1-2,1-4,2c-0.4-0.5-0.9-0.9-1.3-1.4c-1.7-1.8-1.7-1.8-4.7-2.6c0-1,0-2,0-3
		c1-0.7,2-1.3,3-2c0.7-3.6,0.7-3.6,1-7c-1.3-0.3-2.6-0.7-4-1c0-1,0-2,0-3c1,0,2,0,3,0c0.2-4.5-0.4-7.8-2-12
		C292,360.1,292.9,360,296,361z"/>
	<path d="M276,372c2.9,0.2,2.9,0.2,6,1c1.4,2.1,1.4,2.1,2,4c-3,1-3,1-6.2-0.4c-0.9-0.5-1.9-1-2.8-1.6C275.3,374,275.7,373,276,372z"
		/>
	<path d="M275,384c3.4,0.2,3.4,0.2,7,1c1.4,2.1,1.4,2.1,2,4c-3.8,1.3-5.4,0.4-9-1C275,386.7,275,385.4,275,384z"/>
	<path d="M241,387c1.3,0.3,2.6,0.7,4,1c0.3,1.3,0.7,2.6,1,4c-1.3-0.3-2.6-0.7-4-1C241.7,389.7,241.3,388.4,241,387z"/>
	<path d="M222,391c1.3,0.7,2.6,1.3,4,2c0,1.3,0,2.6,0,4c-2.5-1-2.5-1-5-2C221.3,393.7,221.7,392.4,222,391z"/>
	<path d="M273,396c21-0.3,21-0.3,26,3c0,1.3,0,2.6,0,4c-3.2-0.3-6.4-0.6-9.6-0.9c-0.9-0.1-1.8-0.2-2.7-0.2
		c-4.8-0.5-9.1-1.1-13.6-2.9C273,398,273,397,273,396z"/>
	<path d="M250,402c1.8,0.1,3.5,0.2,5.2,0.4c1,0.1,1.9,0.1,3,0.2c2.7,0.4,4.5,1,6.8,2.4c0,0.7,0,1.3,0,2c-6,0.3-9.6-0.3-15-3
		C250,403.3,250,402.7,250,402z"/>
	<path d="M273,406c18.7-0.7,18.7-0.7,26,3c0,1.3,0,2.6,0,4c-4.5,1.3-8.4,0.6-12.9-0.2c-1-0.2-1-0.2-2.1-0.4c-4.4-0.8-8-2.2-12-4.4
		C272.3,407.3,272.7,406.7,273,406z"/>
	<path d="M440,449c0.7,0,1.3,0,2,0c0.1,7.4,0.1,7.4-1,11c-1-0.3-2-0.7-3-1c-1-3.3-1.2-4.6,0.3-7.8C438.9,450.5,439.4,449.7,440,449z
		"/>
	<path d="M444,462c1.5,1.3,2.9,2.5,4.4,3.8c1.7,1.4,1.7,1.4,4.6,2.2c-0.3,1.6-0.7,3.3-1,5c-3-2.9-5.3-5.2-7-9c-0.7-0.3-1.3-0.7-2-1
		C443.3,462.7,443.7,462.3,444,462z"/>
	<path d="M442,674c0.7,0.7,1.3,1.3,2,2c-0.2,4.4-2.1,6.8-5,10c-2.4-0.4-2.4-0.4-5-1c-1.4-2.8-1.3-4.9-1-8
		C435.7,674,438,673.5,442,674z"/>
	<path d="M362,679c-1.7,2.1-2.5,2.9-5.3,3.3c-0.8,0-1.6-0.1-2.4-0.1c-1.2,0-1.2,0-2.4-0.1c-0.9-0.1-0.9-0.1-1.9-0.1
		C353.6,678.4,357.2,678.9,362,679z"/>
	<path d="M402,683c-4.6,2.7-7.7,3.3-13,3c0-0.7,0-1.3,0-2c1.4-0.6,2.8-1.1,4.2-1.6c0.8-0.3,1.6-0.6,2.4-0.9
		C398.5,680.9,399.6,681.5,402,683z"/>
	<path d="M238,685c-1,2.9-1.7,3.8-4.5,5.2c-5.8,1.8-11.3,3.3-17.5,3.8c1-3,1-3,2.6-3.9c0.7-0.2,1.4-0.5,2.1-0.7
		c0.7-0.3,1.5-0.5,2.3-0.8c0.8-0.3,1.6-0.5,2.4-0.8c1.2-0.4,1.2-0.4,2.3-0.8C231.4,685.7,234,685,238,685z"/>
	<path d="M374,686c-1,2-1,2-2.7,2.7c-0.8,0.2-1.5,0.4-2.3,0.6c-3.3,0.9-6.6,1.9-9.8,2.9c-34.2,10.7-34.2,10.7-45.5,5.8
		c-0.6-0.3-1.1-0.6-1.7-1c3.5-2.1,6.8-2.6,10.8-3.1c1.4-0.2,2.7-0.4,4.1-0.6c0.7-0.1,1.4-0.2,2.1-0.3c10.6-1.5,21.2-3.1,31.6-5.8
		C365.2,686,369.3,685.9,374,686z"/>
	<path d="M330,687c-2.8,2.8-5.9,3.2-9.6,4.1c-0.7,0.2-1.4,0.4-2.2,0.5c-5.2,1.2-9.9,1.7-15.3,1.3c0.3-0.7,0.7-1.3,1-2
		c2.7-0.8,5.3-1.5,8-2.1c0.8-0.2,1.5-0.4,2.3-0.5C319.7,687.2,324.5,686.6,330,687z"/>
	<path d="M492,688c2.6,0.2,2.6,0.2,5,1c0.3,0.7,0.7,1.3,1,2c-1.4,2.6-1.4,2.6-3,5c-1.3-0.3-2.6-0.7-4-1c-0.6-2.4-0.6-2.4-1-5
		C490.7,689.3,491.3,688.7,492,688z"/>
	<path d="M256,694c-0.3,1-0.7,2-1,3c-7.1,3.3-15.2,4.5-22.9,5.8c-0.8,0.1-1.6,0.3-2.4,0.4c-4.9,0.7-8.9,0.7-13.7-0.2
		c0.3-0.7,0.7-1.3,1-2c2.2-0.7,2.2-0.7,5.1-1.2c1-0.2,2.1-0.4,3.2-0.6c1.1-0.2,2.2-0.4,3.3-0.6c2.1-0.4,4.3-0.9,6.4-1.3
		c1-0.2,2.1-0.4,3.1-0.6c2.5-0.5,4.9-1.1,7.4-1.7C249.2,693.9,252.2,693.8,256,694z"/>
	<path d="M371.2,693.9c1.6,0,1.6,0,3.3,0c0.8,0,1.7,0,2.5,0c-1,2-1,2-3,2.7c-0.9,0.2-1.7,0.4-2.6,0.7c-1,0.2-1.9,0.5-2.9,0.7
		c-1.6,0.4-1.6,0.4-3.2,0.8c-1.1,0.3-2.2,0.5-3.3,0.8c-14.9,3.6-29.7,6.8-45,7.3c0-1,0-2,0-3c9.8-2.4,19.7-4.3,29.6-6.1
		c2.2-0.4,4.3-0.8,6.5-1.2c1.9-0.4,3.9-0.7,5.8-1.1C367.5,693.9,367.5,693.9,371.2,693.9z"/>
	<path d="M390,698c-2.6,3.2-5.1,3.8-9.1,4.8c-1.2,0.3-2.4,0.6-3.7,0.9c-1.3,0.3-2.5,0.6-3.8,0.9c-1.2,0.3-2.5,0.6-3.8,0.9
		c-6.2,1.5-12.3,2.9-18.6,4.1c-2.2,0.4-4.4,1-6.6,1.6c-5.2,1.2-10.3,1.1-15.6,0.9c0-1,0-2,0-3c9.6-2.3,19.3-4.3,29-6.2
		c2.4-0.5,4.8-0.9,7.2-1.4c1.6-0.3,3.1-0.6,4.7-0.9c0.7-0.1,1.4-0.3,2.2-0.4C383.9,697.8,383.9,697.8,390,698z"/>
	<path d="M141,701c0.7,2,1.3,4,2,6c-1,1-1,1-3.9,1.2C136,708,136,708,134,706c-0.1-2.6-0.1-2.6,0-5C136.7,699.7,138.2,700.3,141,701
		z"/>
	<path d="M262,702c-0.3,1-0.7,2-1,3c-2.6,0.9-5.1,1.6-7.8,2.2c-1.1,0.3-1.1,0.3-2.2,0.5c-3.8,0.9-7.2,1.5-11.1,1.3c0-1,0-2,0-3
		C247.5,703.4,254,701.8,262,702z"/>
	<path d="M385.7,703.9c1.2,0,1.2,0,2.4,0c0.9,0,0.9,0,1.9,0c0,0.7,0,1.3,0,2c-0.6,0.1-1.2,0.3-1.9,0.4c-4.9,1.2-9.9,2.5-14.7,3.9
		c-12.3,3.7-24.6,6.5-37.2,9c-3.3,0.7-6.6,1.3-9.9,2c-2.2,0.5-4.4,0.9-6.6,1.4c-1,0.2-2,0.4-3.1,0.6c-6.2,1.2-12.3,2.1-18.5,2.6
		c-0.3-1-0.7-2-1-3c23.6-5.5,23.6-5.5,34.6-5.7c0.8-0.1,1.6-0.2,2.4-0.3c0.7-1,1.3-2,2-3c1.9-0.6,1.9-0.6,4-1
		c1.3-0.3,2.6-0.5,3.9-0.8c1.6-0.3,3.1-0.7,4.7-1c1.7-0.4,3.4-0.7,5.1-1.1c2.7-0.6,5.4-1.1,8-1.7c2.6-0.5,5.2-1.1,7.8-1.6
		c0.8-0.2,1.6-0.3,2.4-0.5C383.4,703.9,383.4,703.9,385.7,703.9z"/>
	<path d="M470,704c2.6,0.4,2.6,0.4,5,1c0.1,2.4,0.1,2.4,0,5c-0.7,0.7-1.3,1.3-2,2c-2.1-0.4-2.1-0.4-4-1c-0.6-2.4-0.6-2.4-1-5
		C468.7,705.3,469.3,704.7,470,704z"/>
	<path d="M454,706c1,0.3,2,0.7,3,1c-0.3,1.3-0.7,2.6-1,4c-1.3-0.3-2.6-0.7-4-1C452.7,708.7,453.3,707.4,454,706z"/>
	<path d="M416,707c-8.4,4.6-17.5,6.4-26.8,8.4c-1.4,0.3-2.8,0.6-4.2,0.9c-7.6,1.7-15.1,3.3-22.7,4.7c-6.7,1.3-13,3-19.5,5
		c-14,4.4-27.1,6.5-41.8,5.9c0-0.7,0-1.3,0-2c0.6-0.1,1.2-0.3,1.7-0.4c6.8-1.5,13.5-3.1,20.3-4.6c1.2-0.3,1.2-0.3,2.3-0.5
		c6.6-1.5,13.2-3.1,19.7-4.8c14.9-4.1,30-7.1,45.2-9.9c2.6-0.5,5.2-1,7.8-1.6c0.7-0.1,1.3-0.3,2-0.4c1.8-0.4,3.7-0.8,5.5-1.2
		C409.3,706,412.3,706.3,416,707z"/>
	<path d="M287,709c0.3,1,0.7,2,1,3c-7.4,2.4-7.4,2.4-11,1c0.3-1.3,0.7-2.6,1-4C281.3,708.2,283.8,707.6,287,709z"/>
	<path d="M433,710c-7.6,9.6-32.3,10.9-43.7,13.4c-6.6,1.5-13.2,2.9-19.7,4.4c-3.3,0.7-6.6,1.5-9.9,2.2c-2.2,0.5-4.3,1-6.5,1.5
		c-30.6,7-30.6,7-44.2,6.5c0-0.7,0-1.3,0-2c8.7-2.5,17.6-4.5,26.4-6.4c10.8-2.4,21.6-4.8,32.2-7.5c10.6-2.7,21.4-5,32.1-7.3
		c2.9-0.6,5.9-1.3,8.8-2C416.8,710.9,424.5,709.3,433,710z"/>
	<path d="M215.8,711.9c2.1,0,4.1,0.1,6.2,0.1c-0.3,1-0.7,2-1,3c-2.9,0.1-2.9,0.1-6,0c-0.7-0.7-1.3-1.3-2-2
		C214,712,214,712,215.8,711.9z"/>
	<path d="M247,714c0,1.3,0,2.6,0,4c-3.7,0.9-5.4,1.3-8.9-0.4c-0.7-0.5-1.4-1-2.1-1.6c0.3-1,0.7-2,1-3
		C240.9,711.7,243.1,712.8,247,714z"/>
	<path d="M304,713c2,0,4,0,6,0c0,0.7,0,1.3,0,2c-2,0.3-4,0.7-6,1C304,715,304,714,304,713z"/>
	<path d="M269,717c1.6,0,3.3,0,5,0c0,1.7,0,3.3,0,5c-2.3-0.3-4.6-0.7-7-1C267.7,719.7,268.3,718.4,269,717z"/>
	<path d="M441,716c0.7,0.7,1.3,1.3,2,2c-5.8,2.3-11.4,3.9-17.4,5.2c-0.9,0.2-1.8,0.4-2.7,0.6c-1.8,0.4-3.7,0.8-5.5,1.2
		c-2.8,0.6-5.6,1.2-8.4,1.8c-1.8,0.4-3.6,0.8-5.4,1.2c-1.2,0.3-1.2,0.3-2.5,0.6c-14.9,3.2-14.9,3.2-21.1,1.4c0-1,0-2,0-3
		c7.2-1.4,14.5-2.8,21.7-4.2c2.5-0.5,4.9-1,7.4-1.4c3.5-0.7,7.1-1.4,10.6-2.1c1.1-0.2,2.2-0.4,3.3-0.6
		C429,717.5,434.9,716.4,441,716z"/>
	<path d="M126,720c1.7,0.3,3.3,0.7,5,1c-0.3,1.3-0.7,2.6-1,4c-1.3-0.3-2.6-0.7-4-1C126,722.7,126,721.4,126,720z"/>
	<path d="M492,720c2,0,4,0,6,0c0,1,0,2,0,3c-3.8,1.1-3.8,1.1-6,0C492,722,492,721,492,720z"/>
	<path d="M916,720c1,0,2,0,3,0c0.3,1.7,0.7,3.3,1,5c-3.8,1.1-3.8,1.1-6,0C914.9,721.1,914.9,721.1,916,720z"/>
	<path d="M455,722c-0.3,1-0.7,2-1,3c-2.7,1-5.2,1.8-7.9,2.6c-0.9,0.3-1.8,0.5-2.7,0.8c-11.7,3.2-23.6,5.9-35.4,8.6
		c-9.5,2.2-19,4.5-28.4,7.1c-0.9,0.2-1.9,0.5-2.8,0.8c-4.5,1.2-9,2.4-13.5,3.6c-10.1,2.7-19.8,4.6-30.2,5.6c-0.3-1-0.7-2-1-3
		c6-1.7,12-3.4,18-5.2c1.9-0.5,3.8-1.1,5.7-1.6c11.8-3.4,23.7-6.3,35.7-8.9c8.5-1.9,17-3.9,25.5-5.9c8.3-2,16.6-4,25-5.8
		c0.8-0.2,1.5-0.3,2.3-0.5C447.9,722.3,451.3,721.8,455,722z"/>
	<path d="M195.6,725.9c1.1,0,2.3,0,3.4,0.1c0.1,2.9,0.1,2.9,0,6c-0.7,0.7-1.3,1.3-2,2c-4.6-0.6-4.6-0.6-6-2c-0.1-2.5-0.1-2.5,0-5
		C192,726,192,726,195.6,725.9z"/>
	<path d="M536,727c1,0.3,2,0.7,3,1c-0.3,1.7-0.7,3.3-1,5c-1.3-0.7-2.6-1.3-4-2C534.7,729.7,535.3,728.4,536,727z"/>
	<path d="M470,731c-4.3,3-8.5,4.1-13.6,5.3c-0.8,0.2-1.6,0.4-2.5,0.6c-1.7,0.4-3.5,0.8-5.2,1.2c-2.6,0.6-5.3,1.2-7.9,1.9
		c-1.7,0.4-3.4,0.8-5.1,1.2c-0.8,0.2-1.6,0.4-2.4,0.6c-4.2,1-8,1.5-12.3,1.3c0-1,0-2,0-3c9.3-2.9,18.6-5.5,28.1-7.8
		c1.3-0.3,1.3-0.3,2.7-0.6C466,728.3,466,728.3,470,731z"/>
	<path d="M178,731c2.9,0.2,2.9,0.2,6,1c1.4,2.1,1.4,2.1,2,4c-1.2,1.6-1.2,1.6-3,3c-4.4-0.4-4.4-0.4-6-2c-0.1-2.5-0.1-2.5,0-5
		C177.3,731.7,177.7,731.3,178,731z"/>
	<path d="M276,731c1.3,0,2.6,0,4,0c0,1.7,0,3.3,0,5c-1.6-0.3-3.3-0.7-5-1C275.3,733.7,275.7,732.4,276,731z"/>
	<path d="M372,733c-0.3,1-0.7,2-1,3c-2.3,0.9-2.3,0.9-5.4,1.7c-1.7,0.4-1.7,0.4-3.4,0.9c-1.8,0.4-1.8,0.4-3.7,0.9
		c-1.8,0.5-1.8,0.5-3.7,0.9c-24.8,6.1-24.8,6.1-34.7,4.6c0-0.7,0-1.3,0-2c9.8-2.7,19.6-5.2,29.5-7.3c2.1-0.5,4.3-1,6.4-1.4
		c1.4-0.3,2.7-0.6,4.1-0.9c1.2-0.3,2.4-0.5,3.7-0.8C366.9,732,369,732.1,372,733z"/>
	<path d="M512,733c1.3,0.3,2.6,0.7,4,1c-0.3,1.3-0.7,2.6-1,4c-1-0.3-2-0.7-3-1C512,735.7,512,734.4,512,733z"/>
	<path d="M483,738c-2.3,2.7-4.3,3.7-7.6,4.7c-0.9,0.3-1.8,0.6-2.8,0.9c-1,0.3-1.9,0.6-2.9,0.9c-1,0.3-2,0.6-3,0.9
		c-19.1,5.8-19.1,5.8-27.7,5.6c0-1.3,0-2.6,0-4c1.5-0.3,1.5-0.3,2.9-0.7c1.4-0.3,2.8-0.6,4.2-1c0.7-0.2,1.5-0.3,2.3-0.5
		c4.5-1.1,9-2.2,13.5-3.5c1-0.3,2-0.6,3-0.8c1.9-0.6,3.9-1.1,5.8-1.7c1.3-0.4,1.3-0.4,2.7-0.8c1.2-0.3,1.2-0.3,2.4-0.7
		C478.4,736.9,480.4,737.3,483,738z"/>
	<path d="M215,740c2.4-0.1,2.4-0.1,5,0c2,2,2,2,2,5c-5.8,1.1-5.8,1.1-8,0C214.3,743.3,214.7,741.7,215,740z"/>
	<path d="M282,740c1.7,0.3,3.3,0.6,5,1c0,1.3,0,2.6,0,4c-0.7,0.7-1.3,1.3-2,2c-2.6-0.4-2.6-0.4-5-1C280.9,741.1,280.9,741.1,282,740
		z"/>
	<path d="M504,745c-2.6,2.1-4.9,3.5-8.1,4.4c-0.8,0.2-1.6,0.5-2.4,0.7c-1.3,0.4-1.3,0.4-2.6,0.7c-1.3,0.4-1.3,0.4-2.7,0.8
		c-2.8,0.8-5.5,1.6-8.3,2.4c-0.9,0.3-1.7,0.5-2.6,0.8c-17.3,5-17.3,5-26.4,4.2c0-0.7,0-1.3,0-2c9.7-3.2,19.5-6.1,29.3-8.8
		c1.1-0.3,2.2-0.6,3.3-1C490.5,745.3,496.8,744.6,504,745z"/>
	<path d="M177,749c3.5,0.3,3.5,0.3,7,1c0.3,0.7,0.7,1.3,1,2c-0.3,0.7-0.7,1.3-1,2c-2.3,0.2-2.3,0.2-5,0c-1.8-2-1.8-2-3-4
		C176.3,749.7,176.7,749.3,177,749z"/>
	<path d="M386,750c-2.9,3.4-5.1,4.7-9.5,5.7c-1,0.3-2.1,0.5-3.2,0.8c-1.1,0.3-2.2,0.5-3.3,0.8c-1.1,0.3-2.2,0.6-3.3,0.8
		c-8.8,2.2-8.8,2.2-13.8,0.8c0-0.7,0-1.3,0-2C380.2,748.1,380.2,748.1,386,750z"/>
	<path d="M541,749c-0.3,1-0.7,2-1,3c-2.5,1-2.5,1-5.9,1.9c-1.2,0.3-2.5,0.7-3.8,1c-1.4,0.3-2.7,0.7-4.1,1c-1.4,0.4-2.7,0.7-4.1,1.1
		c-4,1-8.1,2.1-12.1,3.1c-1.1,0.3-2.2,0.6-3.3,0.8c-19.3,4.9-19.3,4.9-28.7,5.2c0-1,0-2,0-3c6.3-1.7,12.6-3.4,18.9-5
		c2.1-0.6,4.3-1.1,6.4-1.7C530.5,749,530.5,749,541,749z"/>
	<path d="M150,751c2.5,1,2.5,1,5,2c0,1.3,0,2.6,0,4c-1.6,0-3.3,0-5,0c-0.7-1.3-1.3-2.6-2-4C148.7,752.3,149.3,751.7,150,751z"/>
	<path d="M574,752c0.5,1,0.5,1,1,2c-9.9,3.9-20.2,6.6-30.5,9.4c-1.7,0.5-3.4,0.9-5.1,1.4c-8.6,2.3-17.2,4.6-25.7,6.9
		c-0.8,0.2-1.6,0.4-2.3,0.6c-5.4,1.4-10.8,2.6-16.3,3.6c0-1.3,0-2.6,0-4c12.2-3.9,24.5-7.4,36.8-10.8c3.2-0.9,6.3-1.7,9.5-2.6
		c2-0.6,4.1-1.1,6.1-1.7c0.9-0.3,1.9-0.5,2.8-0.8C566.3,751.7,566.3,751.7,574,752z"/>
	<path d="M310,756c2.5,1,2.5,1,5,2c0,1.3,0,2.6,0,4c-1.6,0.3-3.3,0.7-5,1c-0.7-1.3-1.3-2.6-2-4C308.7,758,309.3,757,310,756z"/>
	<path d="M596,758c0,0.7,0,1.3,0,2c-10.6,3.7-21.2,7-32,10c-9.5,2.7-19,5.5-28.4,8.8c-6.5,2.2-11.8,3.5-18.6,3.2
		c0.5-1.5,0.5-1.5,1-3c2.1-1,2.1-1,4.9-1.8c1-0.3,2.1-0.6,3.1-1c1.1-0.3,2.2-0.7,3.4-1c1.1-0.4,2.3-0.7,3.4-1.1
		c2.3-0.7,4.6-1.4,6.9-2.1c2.8-0.9,5.6-1.7,8.4-2.6c8.5-2.8,17-5.3,25.6-7.7c0.9-0.3,1.8-0.5,2.8-0.8C583,759.2,589.2,757.8,596,758
		z"/>
	<path d="M609,765c-3.7,3.2-7.8,4.6-12.3,6.2c-0.8,0.3-1.7,0.6-2.5,0.9c-9.2,3.3-18.4,6.3-27.7,9.3c-2.9,0.9-5.8,1.9-8.7,2.8
		c-9.2,2.9-18.1,5.8-27.8,6.8c0-1.3,0-2.6,0-4c0.9-0.2,1.7-0.5,2.6-0.7c21.1-5.7,21.1-5.7,41.8-12.8c5.7-2.2,11.4-4.1,17.3-5.9
		c1.2-0.4,1.2-0.4,2.5-0.8C599.3,765.2,603.6,764.7,609,765z"/>
	<path d="M214,769c1.6,0.3,3.3,0.7,5,1c0,0.7,0,1.3,0,2c-3.8,1.1-3.8,1.1-6,0C213.3,771,213.7,770,214,769z"/>
	<path d="M625,772c-0.3,1-0.7,2-1,3c-2.4,1.1-4.6,1.9-7.1,2.7c-1.1,0.4-1.1,0.4-2.2,0.8c-2.5,0.8-4.9,1.6-7.4,2.5
		c-1.7,0.6-3.4,1.1-5.1,1.7c-5.4,1.8-10.8,3.6-16.2,5.3c-1.3,0.4-1.3,0.4-2.7,0.9c-5.2,1.7-10.4,3.4-15.6,5.1
		c-1.6,0.5-3.3,1.1-4.9,1.6c-15.7,5.1-15.7,5.1-23.8,5.5c-0.3-1-0.7-2-1-3c1.2-0.4,2.3-0.7,3.5-1.1c11.4-3.6,22.8-7.3,34.2-11.2
		c21.8-7.3,21.8-7.3,32.2-10.4c0.8-0.2,1.5-0.5,2.3-0.7C615.3,773.1,619.8,772,625,772z"/>
	<path d="M317,775c1.7,0.3,3.3,0.6,5,1c0.3,1.3,0.7,2.6,1,4c-2.7,1.4-5,1.1-8,1C315.9,776.1,315.9,776.1,317,775z"/>
	<path d="M647,776c0,0.7,0,1.3,0,2c-7.7,3.9-15.6,6.6-23.8,9.3c-5.8,1.9-11.6,3.9-17.3,6c-8.1,3-16.3,6-24.4,8.9
		c-1.2,0.4-2.3,0.8-3.5,1.3c-19.7,7.1-19.7,7.1-26,5.5c0.3-1,0.7-2,1-3c1.7-0.8,1.7-0.8,4-1.5c0.9-0.3,1.8-0.5,2.7-0.8
		c1-0.3,2-0.6,3.1-0.9c14.7-4.5,29.1-9.8,43.5-15.1C638.8,775.8,638.8,775.8,647,776z"/>
	<path d="M665,780c-1,3-1,3-2.8,4.1c-0.8,0.3-1.5,0.6-2.3,1c-0.9,0.4-1.7,0.7-2.6,1.1c-1.4,0.6-1.4,0.6-2.8,1.2
		c-1,0.4-1.9,0.8-2.9,1.2c-7.8,3.2-15.6,6.1-23.6,8.8c-3.3,1.1-6.6,2.3-10,3.5c-8.6,3.1-17.3,6-26,9c-4.6,1.6-9.2,3.2-13.7,4.9
		c-3.1,1.1-5.1,1.5-8.4,1.2c0-1,0-2,0-3c8-3.2,16-6.3,24.1-9.4c0.6-0.2,1.3-0.5,1.9-0.7c8.5-3.2,17-6.4,25.6-9.4
		c3.6-1.2,7.1-2.5,10.6-3.8c1.1-0.4,2.2-0.8,3.4-1.2c2.2-0.8,4.3-1.6,6.5-2.4C659.1,780,659.1,780,665,780z"/>
	<path d="M683,785c-0.5,1.8-0.5,1.8-2,4c-2.7,1.3-5.2,2.4-8,3.4c-1.2,0.5-1.2,0.5-2.5,1c-2.8,1.1-5.6,2.1-8.3,3.2
		c-1.9,0.7-3.9,1.5-5.8,2.2c-16,6.1-32.1,11.9-48.2,17.7c-1.7,0.6-1.7,0.6-3.5,1.3c-3.3,1.2-6.6,2.4-10,3.6c-1.5,0.5-1.5,0.5-3,1.1
		c-4.5,1.6-8.8,3-13.6,3.6c-0.7-1-1.3-2-2-3c6.5-2.8,13.1-5.4,19.8-7.8c7.2-2.5,14.4-5.1,21.6-7.8c1.5-0.5,1.5-0.5,3-1.1
		c5.9-2.2,11.5-4.6,17.2-7.3c2.7-1.2,5.5-2.2,8.3-3.1c4.1-1.3,8-2.8,12-4.5C666,788.1,674.1,784.6,683,785z"/>
	<path d="M512.1,792c1.9,1,1.9,1,3.2,3.6c0.2,0.8,0.5,1.6,0.8,2.4c-2.1,2.2-3,3-6,4c-2.2-0.9-2.2-0.9-4-2c0.4-2.7,0.7-4.6,2.3-6.9
		C510,792,510,792,512.1,792z"/>
	<path d="M692,794c0,1.3,0,2.6,0,4c-17.2,7.3-34.5,14.1-52.2,20.1c-3.8,1.3-7.5,2.7-11.2,4.1c-5.9,2.2-11.8,4.3-17.8,6.2
		c-1.2,0.4-1.2,0.4-2.4,0.8c-4.1,1.3-7.1,2.2-11.4,0.7c0-0.7,0-1.3,0-2c0.8-0.3,1.5-0.6,2.3-0.9c14.9-5.6,29.7-11.3,44.5-17.2
		c2.4-1,4.7-1.9,7.1-2.8c4.3-1.7,8.6-3.6,12.9-5.4c13.5-5.9,13.5-5.9,19.8-8.3c0.8-0.3,1.6-0.6,2.4-0.9
		C688.6,791.9,689.8,792.6,692,794z"/>
	<path d="M701,802c1.9,1.6,1.9,1.6,3,3c-0.7,2.4-0.7,2.4-2,5c-2.4,1-2.4,1-5.3,1.5c-6.7,1.4-12.9,3.6-19.4,6
		c-12.7,4.7-12.7,4.7-17.4,6.3c-0.7,0.2-1.4,0.5-2.1,0.7c-2.9,0.7-5.1,0.3-7.9-0.5c-1-0.7-2-1.3-3-2c0-0.7,0-1.3,0-2
		c6.4-2.6,12.8-5.1,19.2-7.4c4.2-1.6,8.3-3.2,12.5-5c1-0.4,2-0.8,3-1.3c1.9-0.8,3.9-1.7,5.8-2.5C695.9,800.2,695.9,800.2,701,802z"
		/>
	<path d="M712,809c2.8,2.3,2.8,2.3,5,5c0,1,0,2,0,3c-3.6,1.5-7.2,3-10.8,4.5c-1.8,0.7-3.6,1.5-5.4,2.3c-7.8,3.2-15.6,6-23.7,8.3
		c-1.1,0.3-1.1,0.3-2.2,0.7c-2.7,0.5-4.4-0.4-6.8-1.7c-1-1-2-2-3-3c-2.1-1.2-2.1-1.2-4-2c4.2-2.8,7.8-3.9,12.8-4.4
		c4.1-0.4,7.3-1.9,11-3.7c3-1.3,6-2.1,9.1-3C710.8,808.8,710.8,808.8,712,809z"/>
	<path d="M643,824c0.3,1.3,0.7,2.6,1,4c-19.2,7.6-19.2,7.6-29,9c-0.7-0.3-1.3-0.7-2-1c0-1,0-2,0-3c0.7-0.2,1.4-0.5,2.1-0.7
		c3.1-1.1,6.2-2.1,9.3-3.2c1.1-0.4,2.2-0.7,3.3-1.1c1-0.4,2.1-0.7,3.1-1.1c1-0.3,1.9-0.7,2.9-1C637.2,824.6,639.2,823.9,643,824z"/>
	<path d="M656,828c0.3,0.7,0.7,1.3,1,2c1.6,0.7,3.3,1.4,5,2c0,1.3,0,2.6,0,4c-0.5,0.2-1.1,0.3-1.7,0.5c-2.6,0.8-5.1,1.5-7.7,2.3
		c-1.4,0.4-1.4,0.4-2.8,0.8c-4.9,1.5-9.6,3-14.3,4.9c-3.6,1.4-4.4,1.5-8.3,0.8c-0.8-0.4-1.5-0.8-2.3-1.2c0.3-1,0.7-2,1-3
		c2-1,2-1,4.6-1.9c1-0.3,1.9-0.7,2.9-1c1.5-0.5,1.5-0.5,3-1C643.7,834.8,649.8,832.2,656,828z"/>
	<path d="M669,841c0,1.3,0,2.6,0,4c-8.1,3.9-16.9,7.7-26,7c0-1.3,0-2.6,0-4c0.6-0.2,1.1-0.4,1.7-0.6c2.6-0.9,5.1-1.9,7.7-2.8
		c0.9-0.3,1.8-0.7,2.7-1c0.9-0.3,1.7-0.6,2.6-0.9c0.8-0.3,1.6-0.6,2.4-0.9C663.7,840.3,665,840.1,669,841z"/>
	<path d="M691,849c0,1,0,2,0,3c-6,3.3-12.1,5.4-19,5c1.4-3.4,2.6-4.7,5.9-6.2c0.7-0.3,1.4-0.6,2.1-1
		C684.1,848.2,686.6,847.9,691,849z"/>
	<path d="M584,854c2.1,0.4,2.1,0.4,4,1c-0.3,1-0.7,2-1,3c-1,0.3-2,0.7-3,1c-0.6-1.9-0.6-1.9-1-4C583.3,854.7,583.7,854.3,584,854z"
		/>
	<path d="M883,855c-0.1,1.8-0.1,1.8-1,4c-3.2,2.1-5,3.1-8.9,2.7c-0.7-0.2-1.4-0.5-2.1-0.7c0.1-1.8,0.1-1.8,1-4
		C878.9,853.2,878.9,853.2,883,855z"/>
	<path d="M617,856c1.3,0.3,2.6,0.7,4,1c-1.8,3.9-1.8,3.9-4,5c-0.7-0.3-1.3-0.7-2-1C615.7,859.3,616.3,857.7,617,856z"/>
	<path d="M664,858c0,1,0,2,0,3c-9.4,4.6-9.4,4.6-14,4c0-1.3,0-2.6,0-4c2-0.7,3.9-1.4,5.9-2.1c1.1-0.4,2.2-0.8,3.3-1.2
		C662,857,662,857,664,858z"/>
	<path d="M868,860c-0.2,1.9-0.2,1.9-1,4c-1.9,1.3-1.9,1.3-4.5,2.4c-1,0.4-2,0.8-3,1.3c-5.9,2.3-11.8,4.6-17.8,6.8
		c-2.2,0.8-4.3,1.6-6.5,2.4c-7.6,2.8-15,5.2-23.2,6.2c-0.3-1.7-0.7-3.3-1-5c0.8-0.3,1.7-0.6,2.5-0.9c3.2-1.1,6.4-2.2,9.5-3.4
		c1.4-0.5,2.8-1,4.3-1.5c7.1-2.5,14.2-5,21.2-7.8c1.4-0.6,1.4-0.6,2.9-1.1c1.7-0.7,3.5-1.4,5.2-2.1C863.6,858.4,863.6,858.4,868,860
		z"/>
	<path d="M705,863c1.7,0.3,3.3,0.7,5,1c-0.3,1.3-0.7,2.6-1,4c-1.7-0.3-3.3-0.7-5-1C704.3,865.7,704.7,864.4,705,863z"/>
	<path d="M690,870c-1,3-1,3-3.4,4.2C684,875,684,875,681,874c0.3-1.9,0.3-1.9,1-4C685.3,868.9,686.7,869.2,690,870z"/>
	<path d="M716,873c6.1-0.2,6.1-0.2,8,0c2,2,2,2,2,6c-6.4,1.2-6.4,1.2-9.4,0.1c-0.5-0.4-1-0.7-1.6-1.1
		C715.3,876.3,715.7,874.7,716,873z"/>
	<path d="M774,884c-1,3-1,3-3,4.2c-0.8,0.3-1.6,0.7-2.4,1c-1.2,0.5-1.2,0.5-2.4,1.1C764,891,764,891,761,890c0.1-1.8,0.1-1.8,1-4
		C766.3,883.6,769.2,882.4,774,884z"/>
	<path d="M738,886c0,1,0,2,0,3c-2.9,0.8-4.5,1.2-7.3,0.1c-0.6-0.4-1.1-0.7-1.7-1.1C731,884,734.3,885.1,738,886z"/>
</g>
</svg>
