<?xml version="1.0" standalone="no"?>
<!DOCTYPE svg PUBLIC "-//W3C//DTD SVG 20010904//EN"
 "http://www.w3.org/TR/2001/REC-SVG-20010904/DTD/svg10.dtd">
<svg version="1.0" xmlns="http://www.w3.org/2000/svg"
 width="1024.000000pt" height="1024.000000pt" viewBox="0 0 1024.000000 1024.000000"
 preserveAspectRatio="xMidYMid meet">

<g transform="translate(0.000000,1024.000000) scale(0.100000,-0.100000)"
fill="#000000" stroke="none">
<path d="M3560 9034 c-622 -28 -941 -78 -1040 -160 -43 -37 -46 -74 -15 -200
51 -207 119 -350 204 -427 39 -35 53 -42 236 -105 l110 -38 41 -115 c48 -135
74 -177 191 -299 98 -103 98 -82 -4 -207 -188 -230 -321 -598 -326 -906 -2
-101 10 -120 73 -115 34 3 35 5 42 53 4 28 17 117 28 199 25 174 53 278 109
399 47 102 148 253 198 297 31 28 37 30 56 18 12 -8 40 -50 62 -93 l40 -80 5
-145 c6 -162 12 -181 71 -204 40 -16 273 -51 409 -61 47 -3 138 -11 203 -16
l118 -11 73 36 74 37 7 177 c4 97 5 257 1 355 -5 152 -4 178 9 183 28 11 119
-31 205 -94 188 -139 383 -366 438 -512 11 -30 37 -97 57 -147 72 -187 77
-219 79 -508 1 -254 0 -262 -26 -355 -35 -126 -84 -263 -115 -325 -58 -113
-171 -257 -254 -321 -52 -40 -88 -57 -75 -35 3 5 12 54 21 110 9 64 24 117 37
141 18 31 21 44 13 66 -14 39 -41 50 -177 70 l-117 17 -78 -26 c-87 -30 -141
-36 -111 -13 20 15 38 58 38 92 0 17 -5 24 -20 24 -13 0 -22 9 -26 27 -11 41
4 281 21 343 22 79 20 98 -8 93 -23 -4 -23 -2 -33 109 -17 190 -83 310 -203
370 -56 28 -73 32 -145 32 -142 -1 -173 -19 -394 -235 -61 -61 -63 -62 -176
-90 -63 -16 -163 -38 -223 -50 -59 -11 -162 -33 -228 -49 -66 -15 -160 -36
-210 -45 -49 -9 -114 -28 -143 -42 l-53 -27 -27 22 c-82 67 -112 85 -175 104
-124 37 -240 13 -350 -74 -146 -116 -152 -325 -14 -475 53 -58 108 -89 183
-103 51 -10 71 -9 125 4 123 32 170 71 280 234 23 33 34 40 85 51 32 7 129 28
214 46 85 18 272 56 415 85 143 28 270 53 283 56 41 9 54 -47 54 -229 0 -87
-3 -161 -7 -165 -4 -4 -35 23 -69 60 -70 75 -108 98 -166 98 -54 0 -148 -48
-210 -108 -56 -54 -60 -70 -30 -140 10 -26 24 -67 31 -92 18 -72 46 -117 114
-185 120 -120 301 -239 467 -306 83 -34 233 -66 353 -74 63 -5 96 -11 109 -23
14 -13 20 -14 23 -4 7 18 62 45 79 38 10 -4 14 -22 14 -59 0 -60 16 -83 49
-72 16 5 22 18 27 66 6 52 10 62 31 70 14 5 29 7 33 4 5 -3 12 -37 16 -75 7
-74 18 -88 53 -64 17 12 21 25 21 73 0 61 11 81 45 81 20 0 23 -7 31 -87 8
-79 11 -88 30 -91 28 -4 33 11 41 118 5 81 8 89 31 99 13 7 26 10 28 8 2 -2 7
-46 10 -98 3 -52 8 -97 11 -101 2 -5 15 -8 27 -8 30 0 36 28 36 165 l0 103 35
26 34 27 3 -147 c3 -129 5 -148 21 -158 15 -9 21 -7 33 8 11 16 14 59 14 195
1 171 1 177 25 206 13 16 27 26 32 22 4 -4 9 -65 11 -135 3 -149 6 -168 28
-176 40 -15 44 7 44 229 0 200 1 214 21 239 11 14 24 26 28 26 5 0 10 -88 13
-196 5 -206 10 -224 50 -203 17 9 18 30 18 295 0 274 1 286 22 327 l22 42 7
-40 c3 -22 10 -128 13 -235 8 -229 11 -242 40 -238 20 3 21 8 24 193 2 105 0
250 -3 323 l-7 134 -25 -7 c-23 -5 -24 -4 -19 22 41 215 51 442 27 632 -12 94
-102 374 -155 485 -82 169 -256 385 -400 495 -80 61 -211 137 -298 173 l-79
32 3 86 c3 98 -3 94 108 55 162 -58 338 -154 465 -256 209 -164 425 -489 533
-801 49 -139 107 -414 123 -583 22 -229 -3 -528 -62 -735 -21 -72 -22 -105
-30 -725 -5 -357 -14 -715 -20 -795 -6 -80 -14 -238 -17 -352 -4 -113 -10
-210 -14 -214 -8 -7 -72 9 -218 55 l-85 27 0 325 c-1 288 -3 330 -19 379 -28
82 -43 108 -100 168 -171 182 -466 324 -873 422 -194 47 -280 62 -518 92 -257
32 -722 32 -965 -1 -193 -25 -393 -61 -510 -91 -440 -112 -801 -333 -911 -556
-39 -78 -35 1 -27 -644 l4 -345 31 -70 c53 -120 63 -175 63 -363 0 -94 3 -177
6 -186 3 -9 25 -25 49 -35 41 -18 43 -22 51 -72 4 -30 7 -93 6 -141 -2 -79 0
-89 19 -98 11 -6 91 -34 177 -61 150 -48 159 -50 208 -39 57 12 108 45 136 87
13 21 18 47 18 104 0 66 -3 78 -23 97 -32 30 -157 80 -260 103 -49 11 -103 26
-120 34 -55 26 -142 95 -149 118 -8 28 -10 187 -2 187 3 0 35 -27 71 -59 66
-61 154 -111 342 -196 258 -115 666 -192 1123 -212 81 -3 152 -9 158 -13 6 -3
13 -30 17 -58 5 -41 10 -52 24 -52 15 0 19 10 21 58 l3 57 43 6 c23 3 44 3 47
1 3 -3 5 -36 5 -73 0 -61 2 -67 23 -73 35 -9 50 19 43 82 -7 72 -1 82 45 82
l38 0 3 -87 c3 -84 4 -88 27 -91 37 -6 44 11 42 103 l-1 85 35 0 c19 0 38 -1
43 -2 4 -2 7 -43 7 -91 0 -77 3 -90 20 -103 18 -14 22 -13 39 8 16 20 18 34
12 109 -6 95 -4 99 54 99 l29 0 3 -111 c3 -93 6 -114 20 -123 14 -8 21 -7 34
6 14 14 17 36 16 126 -2 106 -1 110 21 116 12 3 32 6 43 6 21 0 22 -3 20 -122
-1 -140 6 -178 33 -178 37 0 42 23 40 171 l-1 143 43 19 c66 28 178 17 359
-37 80 -24 201 -58 270 -75 194 -49 233 -64 241 -92 4 -13 7 -124 8 -246 l1
-223 -34 0 c-45 0 -233 40 -421 90 -138 36 -270 69 -785 194 -102 24 -230 54
-285 65 -55 11 -145 32 -200 46 -55 15 -139 29 -187 32 -67 5 -91 10 -104 24
-21 23 -70 25 -78 3 -3 -9 -6 -31 -6 -50 0 -35 -1 -35 -37 -32 l-38 3 3 52 c4
49 2 53 -23 59 -33 8 -37 3 -39 -43 -1 -27 3 -37 12 -35 8 1 12 -3 10 -10 -6
-18 -128 -28 -263 -22 -60 3 -170 1 -244 -5 -113 -8 -137 -13 -155 -30 -11
-11 -17 -23 -14 -27 4 -3 35 -8 70 -10 35 -2 137 -8 228 -15 142 -9 177 -9
249 5 46 9 113 16 150 16 162 0 628 -64 654 -89 21 -21 -329 -27 -559 -10
-113 8 -164 8 -237 -3 -68 -10 -244 -13 -670 -13 -501 0 -579 -2 -587 -15 -6
-9 -5 -19 1 -25 9 -9 823 -15 1669 -13 666 3 648 3 750 -20 52 -13 108 -28
124 -34 l30 -12 -30 -8 c-21 -7 -1487 -16 -2631 -18 -35 0 -27 -18 10 -24 110
-18 333 -23 1537 -32 644 -5 945 -3 1075 5 173 12 187 11 355 -13 176 -26 200
-35 200 -72 0 -7 10 -29 21 -49 12 -19 29 -72 39 -117 26 -117 32 -121 241
-174 96 -25 192 -45 214 -46 43 -1 129 38 280 127 112 66 127 81 119 122 -8
41 24 223 43 243 10 11 37 15 96 17 45 0 354 7 687 13 333 7 639 12 680 11 41
-1 135 2 208 5 118 5 132 8 132 24 0 16 -14 19 -117 25 -163 11 -1274 -4
-1460 -18 -84 -7 -153 -9 -153 -6 0 4 14 19 30 33 51 42 47 42 560 78 80 5
354 12 609 14 255 2 477 6 495 9 17 3 166 10 331 15 336 11 385 15 385 35 0
19 -49 28 -117 21 -32 -3 -321 -8 -643 -11 -802 -7 -1079 -19 -1246 -51 -71
-14 -150 -24 -175 -22 l-44 3 123 62 c68 35 130 63 138 63 8 0 14 7 14 15 0
18 46 31 63 17 8 -7 289 -7 857 -1 792 8 981 15 1038 36 22 9 23 10 6 24 -19
15 -236 16 -1329 4 l-540 -6 35 31 c64 56 151 69 475 70 149 0 284 3 302 6 28
5 51 29 39 42 -3 2 -94 8 -203 12 -221 8 -361 0 -398 -24 -13 -9 -30 -16 -37
-16 -7 0 -1 7 12 16 14 10 41 32 60 49 61 56 102 63 454 75 176 5 321 11 323
13 2 2 1 11 -2 19 -7 17 -171 28 -408 28 l-130 0 19 21 c10 12 39 31 64 42 41
19 73 22 405 29 198 5 419 6 490 3 293 -11 713 -6 794 11 22 5 22 6 6 24 -9
10 -33 21 -53 25 -50 8 -346 -12 -350 -23 -2 -6 -17 -6 -40 0 -20 6 -68 13
-107 18 -73 8 -863 -4 -925 -14 -19 -4 -47 -8 -62 -11 -40 -6 -35 7 17 44 89
64 82 63 504 65 253 1 386 5 388 11 2 6 27 9 58 7 30 -1 55 1 55 6 0 13 -210
22 -528 22 -309 0 -320 3 -211 50 47 20 71 22 295 25 259 4 503 23 469 36 -11
4 -161 8 -332 8 -172 1 -313 5 -313 9 0 5 19 19 43 33 41 24 46 24 316 26 159
2 278 6 284 12 5 5 7 17 3 27 -6 16 -24 17 -229 11 l-222 -7 34 29 c33 29 96
51 145 51 13 0 31 3 40 6 13 5 12 9 -5 27 -10 12 -18 26 -16 32 6 17 49 11 58
-8 5 -9 13 -25 18 -35 7 -14 25 -17 117 -20 60 -2 121 -3 137 -3 41 0 104 34
177 95 70 59 84 90 74 156 -2 19 0 68 6 109 9 64 15 79 50 118 46 52 57 96 39
150 -9 26 -12 98 -12 226 l1 188 36 37 c41 41 51 67 42 115 -6 34 -33 65 -71
85 -20 10 -231 58 -387 88 -49 9 -94 22 -101 28 -10 9 -11 124 -4 576 4 311 7
653 7 761 -1 176 2 205 24 290 42 163 75 340 82 444 3 55 12 106 18 114 16 21
84 48 138 56 l47 7 34 -53 c42 -65 68 -81 172 -108 154 -41 236 -23 320 71
146 162 107 528 -65 616 -50 25 -110 28 -223 11 -102 -15 -134 -26 -204 -71
-43 -27 -72 -56 -93 -89 -33 -55 -31 -54 -132 -22 -43 13 -49 18 -58 56 -45
173 -144 382 -265 556 -200 289 -453 478 -755 562 -73 20 -107 24 -250 24
-143 0 -175 -3 -240 -23 -81 -24 -185 -40 -895 -137 -104 -14 -217 -30 -250
-35 -33 -5 -134 -19 -225 -30 -91 -12 -220 -32 -287 -45 -67 -13 -151 -29
-187 -35 -36 -6 -72 -13 -80 -16 -23 -9 -20 23 3 35 10 6 56 24 101 41 173 63
288 156 330 267 22 58 73 242 84 301 7 42 -13 92 -49 120 -65 51 -268 96 -579
128 -143 14 -666 26 -836 18z m-121 -188 c14 -75 14 -116 1 -116 -14 0 -29 42
-42 114 -9 47 -8 60 3 67 20 12 26 1 38 -65z m811 54 c272 -16 501 -49 551
-80 43 -27 -71 -51 -391 -80 -177 -16 -283 -20 -500 -18 l-275 3 -11 65 c-17
96 -17 118 4 123 27 7 416 -1 622 -13z m-690 -85 c0 -79 -2 -93 -15 -89 -8 3
-17 20 -20 37 -3 18 -9 54 -14 82 -11 58 -8 65 25 65 24 0 24 -1 24 -95z
m-231 22 c6 -35 11 -71 11 -80 0 -25 -29 -20 -35 6 -12 46 -22 127 -17 132 18
17 31 -2 41 -58z m-116 39 c3 -8 9 -43 13 -78 6 -56 5 -62 -8 -50 -16 13 -38
84 -38 121 0 24 25 28 33 7z m-93 -51 c6 -30 8 -59 5 -65 -11 -18 -32 7 -39
48 -4 20 -9 45 -12 55 -4 12 0 17 15 17 16 0 22 -11 31 -55z m-116 18 c17 -61
17 -83 2 -83 -9 0 -19 16 -27 43 -6 23 -13 45 -16 50 -2 4 5 7 16 7 11 0 22
-8 25 -17z m-111 0 c2 -5 7 -21 11 -37 l7 -28 -63 7 c-90 9 -102 14 -87 31 6
8 23 14 38 15 14 0 35 4 46 9 26 11 43 12 48 3z m-121 -182 c136 -32 611 -70
983 -80 l250 -6 -2 -178 c-1 -98 -3 -180 -5 -181 -2 -2 -15 -6 -30 -10 l-28
-6 -2 162 -3 163 -24 0 c-33 0 -40 -28 -45 -194 -4 -109 -8 -136 -21 -144 -25
-14 -488 16 -670 44 -102 16 -271 67 -338 102 -33 17 -70 46 -84 64 -30 39
-99 195 -108 246 -7 35 -6 37 18 37 14 0 63 -9 109 -19z m2079 -27 c-1 -10 -9
-32 -16 -49 l-13 -30 -1 30 c-1 43 10 76 23 72 6 -2 9 -13 7 -23z m-73 -92 c3
-78 1 -96 -14 -113 -28 -31 -43 -24 -38 19 2 20 6 72 10 115 5 65 9 78 22 75
13 -3 17 -20 20 -96z m-113 -49 c-5 -100 -10 -131 -23 -140 -23 -18 -45 -16
-38 3 3 9 9 61 12 117 7 135 10 147 35 147 21 0 21 -2 14 -127z m-119 30 c-11
-129 -26 -216 -39 -225 -7 -4 -20 -8 -29 -8 -14 0 -15 5 -8 31 5 17 15 87 21
155 12 124 14 128 53 133 4 0 5 -38 2 -86z m-139 -62 c-7 -148 -20 -199 -54
-207 -13 -4 -26 -5 -28 -3 -2 2 3 31 10 64 8 33 17 108 21 167 5 87 10 108 23
111 9 2 20 1 25 -1 5 -3 6 -61 3 -131z m-264 -16 c-4 -176 -12 -219 -42 -223
l-23 -4 7 164 c8 192 9 200 38 196 21 -3 22 -6 20 -133z m137 58 c-1 -95 -23
-250 -39 -266 -27 -27 -30 10 -19 176 12 164 12 167 35 167 22 0 23 -3 23 -77z
m2615 -207 c88 -23 273 -118 362 -185 73 -55 108 -90 226 -224 80 -91 257
-392 257 -437 0 -11 -6 -20 -14 -20 -24 0 -26 -14 -10 -74 62 -236 79 -526 50
-823 -9 -92 -16 -190 -14 -217 l3 -50 -95 -36 c-52 -20 -180 -72 -285 -115
-104 -43 -269 -108 -365 -145 -96 -37 -245 -97 -330 -133 -85 -36 -234 -95
-330 -131 -96 -36 -222 -86 -280 -112 -123 -55 -227 -93 -254 -94 -14 0 -17 5
-12 23 3 12 6 28 6 35 0 6 7 12 15 12 8 0 15 -4 15 -10 0 -18 29 -10 40 11 7
11 23 73 36 137 42 197 53 546 23 725 -11 61 -37 127 -51 127 -4 0 -9 -42 -9
-92 -1 -51 -3 -84 -6 -73 -2 11 -26 115 -53 230 -26 116 -64 255 -85 310 -144
386 -375 701 -655 891 -127 86 -149 98 -269 144 -52 20 -96 41 -98 47 -2 6 18
13 49 17 69 8 429 61 588 87 69 10 188 26 265 34 77 8 181 23 230 34 50 11
154 27 230 36 77 9 190 25 250 35 61 11 152 24 204 31 52 6 104 15 115 20 29
13 179 4 251 -15z m-2684 -306 c10 -164 10 -508 0 -514 -5 -3 -15 1 -22 10
-10 13 -14 84 -16 316 -2 278 -1 299 15 296 14 -3 18 -20 23 -108z m68 47 c-2
-99 -17 -118 -18 -24 -1 57 3 86 9 82 6 -3 9 -30 9 -58z m-654 24 l140 -6 6
-106 c7 -126 29 -183 112 -286 70 -89 157 -216 157 -231 0 -16 -324 -17 -368
-1 -32 11 -138 145 -214 269 -20 34 -65 91 -100 129 -75 78 -118 158 -118 214
l0 40 123 -8 c67 -4 185 -11 262 -14z m375 -142 c0 -124 -3 -160 -12 -157 -10
3 -14 44 -16 148 -3 147 0 170 18 170 6 0 10 -57 10 -161z m108 -68 c4 -219
-2 -259 -29 -209 -9 17 -12 80 -10 223 1 110 5 203 7 207 3 4 10 5 17 2 9 -3
13 -63 15 -223z m-198 140 c0 -33 -4 -62 -9 -65 -12 -8 -24 59 -16 95 11 49
25 32 25 -30z m472 -844 c-4 -122 -9 -176 -16 -174 -12 4 -11 501 2 737 7 134
7 132 13 -125 3 -143 3 -340 1 -438z m-495 172 c274 -22 288 -29 322 -163 22
-83 25 -124 14 -165 -6 -24 -7 -24 -107 -17 -95 7 -133 11 -316 37 l-76 11
-12 146 c-6 80 -9 149 -6 154 7 10 27 10 181 -3z m4692 -24 c44 -38 66 -111
66 -225 0 -81 -4 -102 -25 -145 -14 -28 -33 -51 -43 -53 -16 -3 -18 0 -10 20
4 12 8 75 8 139 l0 117 -39 56 c-21 31 -44 56 -51 56 -27 0 -21 26 9 42 41 23
49 22 85 -7z m-121 -42 c19 -35 42 -182 41 -254 -1 -100 -9 -124 -39 -124 -25
0 -25 1 -22 71 5 91 -11 147 -54 192 l-35 37 6 -66 c5 -49 2 -76 -9 -103 -23
-55 -39 -45 -64 38 -12 41 -33 88 -48 105 -15 18 -24 34 -22 37 3 2 30 13 61
24 31 11 71 29 89 40 41 25 84 26 96 3z m-651 -25 c-3 -8 -6 -5 -6 6 -1 11 2
17 5 13 3 -3 4 -12 1 -19z m10 -60 c-3 -7 -5 -2 -5 12 0 14 2 19 5 13 2 -7 2
-19 0 -25z m10 -50 c-3 -7 -5 -2 -5 12 0 14 2 19 5 13 2 -7 2 -19 0 -25z m331
-64 c4 -38 -11 -44 -110 -44 -58 0 -68 3 -68 18 0 9 -3 27 -6 40 -7 23 -6 23
87 20 l94 -3 3 -31z m-311 -166 c-2 -13 -4 -3 -4 22 0 25 2 35 4 23 2 -13 2
-33 0 -45z m-3708 -269 c40 -22 95 -95 116 -155 21 -57 18 -161 -4 -211 -17
-35 -55 -72 -66 -61 -2 2 3 28 11 58 16 62 10 151 -12 187 -14 23 -72 58 -80
50 -3 -2 0 -24 5 -47 10 -45 -1 -136 -21 -175 -16 -30 -50 -65 -64 -65 -10 0
-7 10 7 34 14 24 22 60 25 118 6 76 4 86 -18 118 -13 19 -47 53 -76 74 l-53
39 28 14 c15 7 39 20 53 28 36 21 106 19 149 -6z m-275 -170 c58 -45 71 -114
34 -169 -33 -48 -52 -52 -42 -9 14 57 9 96 -19 136 -43 62 -28 85 27 42z
m-117 -106 c6 -16 -30 -25 -337 -89 -548 -113 -712 -144 -721 -139 -15 10 -10
34 10 44 10 6 97 25 193 42 95 16 308 59 473 94 293 62 374 72 382 48z m-1368
-113 c78 -39 127 -131 119 -221 -9 -90 -86 -160 -186 -167 -120 -9 -205 74
-205 199 0 148 149 252 272 189z m1924 -202 c3 -136 -3 -272 -12 -281 -14 -14
-436 44 -453 61 -3 4 -3 68 0 142 8 153 1 144 97 117 l50 -14 6 -57 c7 -63 11
-71 34 -63 11 5 15 21 15 62 0 48 3 56 17 53 14 -2 20 -18 25 -63 13 -103 48
-100 56 5 3 46 9 63 23 71 17 9 19 6 19 -39 0 -76 10 -112 30 -112 22 0 30 28
30 111 0 58 3 69 23 82 12 9 25 16 30 16 4 1 8 -41 10 -91z m3443 -180 c-4
-150 -7 -499 -8 -775 l-1 -502 -26 -18 c-28 -21 -95 -59 -461 -261 -129 -71
-329 -182 -445 -247 -115 -65 -262 -146 -325 -180 -63 -34 -189 -104 -280
-155 -415 -233 -433 -242 -441 -228 -11 17 -11 117 1 633 5 231 10 599 11 817
l2 397 28 10 c21 7 29 6 33 -4 3 -8 5 -195 5 -416 1 -221 2 -403 3 -405 2 -1
17 -4 33 -6 l30 -3 3 438 c2 450 2 450 38 435 3 -2 8 -363 10 -803 3 -440 7
-806 9 -813 3 -7 15 -12 27 -10 27 4 25 -58 36 982 6 643 8 700 24 710 9 5 19
8 22 6 2 -3 7 -356 11 -785 4 -429 11 -784 15 -788 4 -5 16 -7 26 -5 18 3 19
21 25 288 3 157 7 520 8 806 1 550 0 534 42 534 5 0 9 -319 9 -795 l0 -795 24
0 c23 0 25 5 30 63 3 34 8 400 12 812 6 738 7 764 37 765 4 0 7 -351 7 -779
l0 -780 21 -6 c12 -4 25 -3 30 2 5 5 12 358 16 803 8 785 8 795 28 798 20 3
20 -2 17 -798 l-3 -800 25 0 c21 0 25 5 30 48 3 26 8 360 11 742 6 675 9 823
21 841 3 5 12 9 20 9 12 0 13 -103 7 -779 l-6 -779 22 -7 c12 -4 26 -4 29 0 4
4 10 196 13 428 16 1044 21 1167 40 1178 18 9 18 -20 12 -774 l-6 -784 22 -6
c17 -4 24 0 30 16 4 12 13 373 20 802 8 515 16 784 23 792 6 7 17 13 25 13 13
0 15 -94 12 -772 l-4 -773 23 -3 c12 -2 24 3 26 10 2 7 7 227 10 488 3 261 9
613 13 783 l6 307 24 0 25 0 -8 -745 -7 -745 25 0 c18 0 27 7 32 23 3 12 6
117 6 232 0 197 20 1279 23 1281 1 1 12 5 24 8 l22 7 -6 -751 -6 -750 25 0
c23 0 26 5 31 43 4 23 9 366 13 762 5 515 10 722 18 727 36 24 36 27 33 -724
l-2 -733 21 -3 c20 -3 22 3 27 60 4 35 9 270 12 523 6 528 15 907 22 918 2 4
10 7 16 7 10 0 12 -47 10 -197 -2 -109 -4 -433 -6 -721 l-3 -523 24 -6 c12 -3
24 -4 26 -2 6 7 16 422 23 952 5 430 9 529 20 539 8 6 17 7 22 2 4 -5 5 -297
1 -649 -3 -352 -4 -680 -1 -730 6 -84 8 -90 29 -93 12 -2 22 0 22 5 0 4 2 114
4 243 3 129 8 462 11 740 4 278 8 511 10 518 3 6 11 12 19 12 13 0 14 -93 13
-706 -2 -668 -1 -707 16 -718 13 -8 19 -8 25 1 8 13 33 1032 32 1314 0 119 3
148 14 152 13 5 14 -73 12 -581 -2 -323 -1 -599 2 -614 3 -21 10 -28 27 -28
23 0 23 2 29 173 3 94 8 359 11 587 6 452 10 510 32 510 12 0 14 -38 11 -242
l-3 -243 28 -3 27 -3 0 79 c0 43 3 161 7 260 5 151 9 182 21 182 13 0 14 -35
8 -272z m-4177 -100 c31 -28 88 -66 126 -84 118 -54 334 -122 430 -135 111
-14 295 -6 425 19 52 10 117 16 143 14 44 -4 48 -6 42 -26 -3 -11 -17 -63 -30
-115 -13 -52 -32 -103 -42 -112 -27 -27 -155 -87 -226 -107 -48 -13 -100 -17
-232 -16 -165 0 -173 1 -270 33 -115 38 -212 85 -305 146 -77 51 -223 195
-245 241 -19 40 -35 122 -28 142 9 22 104 63 132 57 14 -4 50 -29 80 -57z
m656 -99 c13 -5 -4 -8 -51 -8 -75 -1 -134 7 -134 18 0 9 160 1 185 -10z m-450
-855 c180 -20 491 -84 648 -134 363 -117 603 -257 682 -401 40 -73 42 -170 5
-244 -54 -108 -173 -198 -383 -292 -271 -121 -549 -184 -1002 -228 -317 -31
-803 -13 -1115 42 -115 20 -330 68 -410 92 -178 52 -390 157 -390 193 0 9 117
69 189 97 41 15 51 16 51 5 0 -35 238 -11 725 72 130 22 207 64 118 64 -62 0
-300 -29 -415 -50 -59 -11 -156 -25 -215 -30 -59 -6 -125 -13 -147 -16 -27 -4
-37 -3 -32 5 14 23 106 60 266 110 164 51 223 65 512 120 148 29 228 52 228
66 0 11 -23 50 -34 57 -6 4 -27 8 -47 8 -22 0 -39 6 -42 14 -3 8 -7 115 -8
238 l-2 223 149 6 c207 9 503 1 669 -17z m-883 -221 c2 -120 -1 -224 -6 -230
-5 -7 -17 -13 -28 -13 -10 0 -20 6 -23 13 -2 6 -5 110 -7 230 l-4 217 33 0 32
0 3 -217z m-132 -23 c0 -133 -4 -230 -9 -230 -5 0 -16 -2 -24 -6 -19 -7 -31
179 -21 345 7 118 7 121 30 121 l24 0 0 -230z m-125 118 c3 -51 5 -156 3 -233
-3 -132 -4 -140 -23 -140 -19 0 -20 8 -23 233 -2 223 -2 232 17 232 17 0 20
-10 26 -92z m-115 -168 c0 -223 -1 -230 -20 -230 -19 0 -20 7 -20 193 0 212 6
267 26 267 12 0 14 -42 14 -230z m-110 -24 c0 -225 -1 -234 -20 -239 -19 -5
-20 0 -20 122 0 71 -3 175 -6 233 -7 112 -8 110 39 117 4 0 7 -104 7 -233z
m-117 132 c4 -46 7 -154 7 -241 0 -135 -2 -158 -16 -164 -9 -3 -20 0 -25 8 -5
8 -9 116 -9 241 0 223 1 233 31 237 3 1 9 -36 12 -81z m-114 -202 c3 -216 2
-234 -15 -240 -10 -4 -21 -1 -26 6 -9 15 -11 428 -2 452 3 9 14 16 23 16 14 0
16 -25 20 -234z m-116 77 c9 -161 9 -327 1 -347 -3 -9 -12 -16 -18 -16 -10 0
-14 58 -19 230 -4 127 -4 237 -1 245 4 8 12 15 19 15 8 0 14 -36 18 -127z
m-113 -182 c0 -165 -3 -242 -11 -247 -6 -3 -15 0 -20 7 -10 16 -12 462 -2 472
3 4 12 7 20 7 10 0 13 -47 13 -239z m6137 165 c95 -19 177 -37 183 -41 23 -14
-15 -41 -235 -167 -71 -41 -164 -95 -205 -120 -41 -25 -133 -78 -205 -118 -71
-40 -211 -121 -310 -180 -163 -97 -323 -189 -460 -265 -27 -15 -99 -58 -160
-95 -60 -36 -198 -117 -305 -179 -107 -63 -235 -137 -285 -166 -49 -29 -166
-97 -260 -151 -93 -53 -208 -119 -255 -146 -353 -206 -485 -280 -509 -284 -15
-3 -54 -1 -87 5 -99 18 -425 114 -421 124 1 5 41 24 87 41 147 56 226 104 387
233 115 93 173 155 173 186 0 13 11 57 25 97 14 40 25 86 25 102 0 24 4 28 28
28 15 0 90 -18 167 -40 147 -42 200 -48 256 -28 34 11 169 84 474 255 175 98
268 150 480 268 260 145 390 218 440 248 28 17 115 65 195 107 80 42 210 112
290 157 241 134 295 163 305 163 6 0 88 -15 182 -34z m-6247 -109 c0 -68 3
-179 7 -245 6 -120 6 -122 -15 -122 -22 0 -22 1 -22 245 0 211 2 245 15 245
13 0 15 -20 15 -123z m-100 -202 c0 -134 -4 -246 -9 -249 -14 -9 -79 22 -89
41 -5 10 -7 25 -5 33 3 11 2 12 -4 3 -12 -16 -77 36 -99 80 -32 60 2 173 70
236 14 14 29 21 32 18 4 -4 12 -80 18 -169 12 -174 18 -198 42 -174 11 12 14
55 14 219 0 112 3 207 6 210 20 19 24 -27 24 -248z m6485 23 c-9 -37 -11 -311
-2 -335 6 -16 2 -27 -15 -42 -21 -20 -223 -138 -298 -174 -19 -9 -53 -29 -75
-45 -52 -38 -185 -116 -188 -111 -2 2 1 94 5 204 7 172 10 202 25 213 34 25
37 9 34 -161 -3 -151 -1 -168 15 -174 11 -4 23 1 36 16 16 21 18 43 18 206 0
177 1 184 21 190 11 4 24 4 27 0 4 -4 7 -74 7 -157 0 -133 2 -152 18 -162 12
-8 22 -8 34 0 15 9 17 35 20 195 4 156 7 186 20 197 9 6 21 12 26 12 6 0 8
-62 5 -156 -5 -161 0 -184 37 -184 28 0 35 41 37 212 1 169 6 198 34 198 11 0
14 -32 14 -165 0 -164 0 -165 23 -165 43 0 45 8 53 198 6 169 8 184 28 197 31
22 47 19 41 -7z m-6620 -394 c245 -196 640 -340 1086 -398 310 -40 1000 -47
1214 -12 50 8 109 16 133 18 l43 3 -1 -321 c-1 -273 1 -323 14 -333 31 -26 50
-9 59 49 10 65 4 568 -7 592 -8 17 -4 19 57 32 l27 6 0 -330 c0 -287 2 -330
15 -330 8 0 15 -4 15 -9 0 -8 -35 -16 -260 -62 -213 -44 -616 -74 -875 -66
-363 12 -653 59 -934 153 -416 138 -653 347 -666 585 -12 214 -13 479 -2 479
7 0 44 -25 82 -56z m5976 -120 c-4 -170 3 -209 37 -197 34 12 -20 -37 -78 -72
-135 -80 -291 -176 -362 -221 -42 -27 -127 -80 -190 -118 -62 -38 -196 -121
-298 -186 -102 -64 -219 -136 -260 -160 -86 -49 -178 -106 -265 -163 l-60 -39
-3 233 c-2 233 -2 234 20 251 13 10 26 18 31 18 4 0 8 -62 8 -137 1 -76 4
-169 8 -208 6 -66 7 -70 31 -70 l25 0 3 227 2 227 29 20 c16 12 32 21 35 21 3
0 7 -93 8 -207 3 -191 4 -208 21 -211 44 -9 47 8 47 244 l0 224 26 10 c14 6
29 10 34 10 4 0 5 -84 2 -188 -4 -163 -3 -189 11 -200 9 -8 24 -12 34 -10 25
4 31 61 32 279 1 176 1 177 26 193 13 9 27 16 30 16 3 0 5 -88 5 -195 0 -175
2 -195 18 -203 46 -24 50 -6 56 253 4 187 5 190 28 202 34 18 52 16 43 -4 -11
-27 -26 -218 -23 -291 2 -48 7 -68 20 -76 12 -7 21 -7 27 -1 6 6 11 79 11 167
2 192 14 236 79 285 72 56 69 61 90 -190 9 -111 20 -142 44 -118 9 9 12 65 12
208 l0 197 33 19 32 19 0 -186 c0 -102 3 -186 8 -186 4 0 17 3 28 6 27 7 33
57 35 261 1 141 1 143 26 163 14 11 30 20 35 20 6 0 7 -49 2 -132 -4 -73 -7
-148 -6 -167 1 -43 16 -60 40 -45 19 12 29 87 36 278 4 101 6 111 28 127 12
10 31 20 41 23 15 4 17 -1 12 -27 -25 -153 -31 -297 -13 -315 19 -19 48 -14
57 11 5 12 15 100 22 196 11 149 16 177 33 192 10 10 23 16 28 13 4 -3 8 -74
8 -159 0 -157 8 -205 34 -205 31 0 36 38 36 230 -1 104 2 195 5 200 4 6 17 10
28 8 22 -3 22 -5 18 -164z m-2446 -101 c-8 -246 -18 -305 -61 -359 -14 -17
-15 7 -9 266 6 272 7 286 27 308 12 12 28 22 36 22 12 0 13 -34 7 -237z m-151
-101 c-4 -120 -4 -229 -1 -243 4 -15 18 -29 37 -36 16 -6 30 -16 30 -21 0 -17
-82 -102 -114 -119 -17 -9 -53 -33 -81 -53 -55 -42 -254 -144 -262 -136 -3 3
0 13 8 22 15 18 27 227 28 491 1 140 3 153 20 163 11 5 24 10 30 10 8 0 11
-93 11 -294 0 -188 4 -297 10 -301 18 -11 47 4 59 31 15 34 31 268 31 465 l0
156 25 11 c14 7 28 12 30 12 2 0 1 -124 -2 -276 -7 -293 -6 -293 40 -294 37 0
45 52 52 335 4 149 8 276 10 283 3 6 14 12 25 12 20 0 20 -3 14 -218z m3156
72 c0 -33 -5 -51 -17 -60 -28 -21 -33 -17 -33 30 0 57 8 76 31 76 16 0 19 -8
19 -46z m-3607 -382 l-1 -327 -36 -14 c-20 -8 -38 -12 -40 -10 -2 2 0 36 5 74
4 39 8 188 8 332 1 274 0 270 46 272 20 1 20 -5 18 -327z m3437 299 c20 -39
13 -51 -30 -51 -48 0 -62 21 -35 50 23 25 51 26 65 1z m-3590 -325 c0 -233 3
-327 11 -332 16 -9 -25 -30 -76 -40 -39 -7 -40 -6 -23 13 16 17 18 52 20 343
l3 324 25 7 c14 4 28 7 33 8 4 1 7 -145 7 -323z m1652 -410 c3 -172 5 -200 19
-209 15 -9 12 -14 -22 -39 -21 -15 -43 -28 -48 -28 -5 0 -11 98 -13 223 l-5
222 25 23 c14 13 28 20 33 15 4 -4 9 -98 11 -207z m-129 -76 c1 -113 7 -215
11 -227 7 -18 2 -25 -33 -42 l-41 -21 0 236 c0 232 0 236 23 254 12 10 25 15
29 12 4 -4 9 -99 11 -212z m-139 -47 c3 -98 11 -198 16 -222 9 -37 8 -45 -7
-57 -32 -25 -52 -34 -57 -26 -3 4 -6 111 -7 236 -1 185 1 230 12 237 34 21 37
10 43 -168z m-105 -316 c17 -21 3 -40 -48 -67 l-36 -18 3 242 3 242 27 16 27
17 5 -208 c4 -156 8 -212 19 -224z m-149 142 c0 -184 1 -200 20 -219 19 -19
19 -19 -16 -48 -19 -16 -47 -35 -62 -43 -15 -7 -46 -26 -69 -41 -40 -27 -196
-109 -199 -105 -1 1 -4 108 -8 237 l-6 235 35 23 c19 12 36 22 37 22 2 0 1
-91 0 -203 -3 -172 -1 -205 11 -216 12 -9 21 -10 36 -1 20 10 21 19 21 193 0
142 -3 188 -15 211 -18 34 -14 41 34 66 l38 19 7 -207 c8 -220 15 -250 54
-226 15 10 17 33 14 245 l-3 234 28 17 c15 9 31 14 35 12 5 -3 8 -95 8 -205z
m-3661 79 l73 -22 -5 -54 c-3 -30 -10 -59 -16 -65 -10 -10 -53 2 -139 40 l-54
23 7 43 c4 23 9 45 12 50 7 12 45 8 122 -15z m3475 -653 c-3 -19 -9 -58 -13
-86 -6 -52 -6 -52 -79 -96 -41 -25 -75 -43 -76 -41 -2 1 1 37 7 78 l9 75 72
52 c39 28 75 52 79 52 4 1 5 -15 1 -34z m-326 -70 c18 -4 22 -12 22 -48 0 -23
3 -66 6 -94 6 -50 6 -53 -16 -53 -35 0 -223 51 -237 64 -10 10 -53 149 -53
172 0 9 190 -19 278 -41z"/>
<path d="M3679 8867 c-17 -37 -1 -120 24 -125 9 -2 20 4 23 12 9 23 -4 100
-21 122 -13 18 -14 17 -26 -9z"/>
<path d="M6373 8145 c-8 -24 27 -56 56 -53 29 3 42 45 19 59 -22 14 -68 10
-75 -6z"/>
<path d="M6216 8132 c-3 -5 -2 -22 3 -38 7 -26 12 -29 47 -29 33 0 39 3 42 23
2 13 -2 30 -8 38 -13 15 -75 20 -84 6z"/>
<path d="M6013 8105 c-30 -13 -43 -38 -25 -48 4 -3 28 -8 54 -11 43 -7 48 -5
64 20 17 25 17 27 -1 40 -24 18 -51 17 -92 -1z"/>
<path d="M5768 8063 c-22 -6 -31 -32 -16 -50 13 -16 82 -13 99 4 23 23 -41 58
-83 46z"/>
<path d="M5544 8036 c-15 -12 -17 -18 -8 -33 24 -39 114 -43 114 -4 0 43 -66
66 -106 37z"/>
<path d="M7100 7984 c0 -20 70 -123 119 -174 42 -44 67 -45 77 -4 12 46 -37
118 -113 170 -41 28 -83 32 -83 8z"/>
<path d="M6912 7908 c-22 -22 -13 -44 44 -106 74 -82 110 -108 129 -92 36 30
-2 122 -75 184 -33 28 -78 34 -98 14z"/>
<path d="M6722 7818 c-21 -21 -13 -43 39 -102 53 -59 81 -69 102 -35 16 25 1
61 -44 107 -42 42 -75 52 -97 30z"/>
<path d="M6548 7739 c-10 -5 -18 -19 -18 -31 0 -31 38 -86 71 -103 26 -14 30
-14 49 7 28 30 25 53 -12 92 -37 39 -65 50 -90 35z"/>
<path d="M7571 7491 c-16 -10 -15 -19 32 -204 20 -75 41 -172 49 -215 18 -110
15 -476 -6 -627 -21 -156 -21 -155 9 -155 32 0 38 16 61 156 26 158 26 530 0
669 -30 164 -97 374 -121 382 -5 1 -16 -1 -24 -6z"/>
<path d="M7452 7412 c-9 -7 -4 -34 23 -123 53 -173 69 -300 69 -534 -1 -178
-6 -249 -30 -459 l-7 -58 29 4 c24 2 31 10 42 42 50 154 61 535 21 777 -21
132 -54 250 -90 322 -19 37 -33 44 -57 29z"/>
<path d="M7352 7318 c-7 -9 -2 -44 19 -123 63 -234 79 -452 54 -705 -9 -91
-19 -200 -22 -243 l-6 -79 24 4 c31 4 43 40 64 190 26 183 31 433 11 566 -30
199 -88 389 -122 399 -6 2 -16 -2 -22 -9z"/>
<path d="M7220 7290 c0 -11 13 -68 30 -127 70 -256 77 -533 24 -960 -7 -52 -6
-53 18 -53 14 0 31 7 38 15 28 34 51 234 52 450 0 229 -13 349 -57 514 -35
130 -59 181 -84 181 -14 0 -21 -6 -21 -20z"/>
<path d="M7110 7250 c-12 -7 -12 -16 -2 -57 61 -249 82 -396 82 -574 0 -101
-22 -347 -40 -450 -12 -67 -6 -89 26 -89 18 0 25 8 34 38 38 135 63 561 41
722 -13 98 -72 343 -92 385 -16 32 -28 39 -49 25z"/>
<path d="M6973 7203 c3 -16 19 -81 35 -146 41 -160 56 -283 55 -462 -1 -130
-18 -346 -39 -496 -7 -50 9 -69 40 -46 39 29 84 404 72 602 -18 297 -89 575
-147 575 -18 0 -20 -5 -16 -27z"/>
<path d="M6862 7138 c-6 -9 1 -54 24 -146 60 -237 66 -524 18 -850 -17 -116
-15 -135 18 -130 48 7 75 160 85 483 5 168 3 206 -16 324 -23 139 -64 296 -83
318 -13 16 -33 17 -46 1z"/>
<path d="M6733 7133 c-18 -7 -16 -24 12 -117 49 -163 60 -254 59 -501 0 -167
-5 -268 -19 -370 -25 -188 -25 -200 0 -200 44 0 68 113 95 440 20 239 -16 510
-94 696 -17 41 -35 58 -53 52z"/>
<path d="M6593 7084 c-3 -9 6 -58 21 -109 15 -52 36 -156 47 -232 18 -117 20
-166 15 -318 -3 -99 -13 -234 -21 -300 -8 -66 -18 -148 -22 -183 l-6 -64 29 4
c23 2 31 10 41 38 40 126 66 559 44 758 -19 172 -67 366 -102 408 -15 19 -38
18 -46 -2z"/>
<path d="M6484 6995 c-3 -8 4 -55 15 -104 65 -278 67 -647 5 -962 -17 -89 -12
-111 24 -107 21 2 29 11 38 44 35 120 69 505 59 669 -10 159 -45 333 -86 433
-18 42 -44 55 -55 27z"/>
<path d="M6360 6902 c0 -9 11 -71 25 -137 35 -169 41 -351 21 -598 -10 -108
-21 -223 -26 -255 -6 -31 -10 -78 -10 -104 0 -45 1 -47 23 -39 41 15 73 160
97 445 19 224 -22 602 -75 682 -18 28 -55 32 -55 6z"/>
<path d="M6224 6875 c-3 -8 -1 -29 5 -47 5 -18 20 -85 33 -148 32 -162 32
-462 -1 -700 -37 -263 -37 -270 -13 -270 11 0 27 7 35 15 38 38 76 342 77 610
0 238 -51 519 -100 545 -25 13 -30 13 -36 -5z"/>
<path d="M5933 6803 c2 -16 12 -55 20 -88 28 -102 46 -227 53 -361 8 -146 -10
-497 -32 -619 -24 -142 -15 -186 29 -137 65 71 109 580 77 880 -21 196 -78
352 -128 352 -21 0 -24 -4 -19 -27z"/>
<path d="M6106 6771 c-3 -5 3 -49 14 -98 28 -127 43 -311 35 -428 -11 -185
-35 -409 -52 -488 -15 -73 -15 -79 1 -95 67 -67 119 209 120 638 1 216 -1 242
-23 325 -32 125 -46 155 -70 155 -11 0 -22 -4 -25 -9z"/>
<path d="M3905 6007 c-7 -36 5 -67 26 -67 14 0 10 64 -5 85 -13 19 -15 17 -21
-18z"/>
<path d="M7668 5398 c-9 -17 -14 -89 -16 -269 -3 -228 -2 -247 14 -253 10 -4
21 -1 26 6 7 12 1 528 -7 536 -2 2 -9 -7 -17 -20z"/>
<path d="M5851 4443 c-13 -26 -18 -710 -4 -724 19 -19 42 2 48 44 3 23 5 188
3 367 -3 295 -5 325 -20 328 -9 2 -21 -5 -27 -15z"/>
<path d="M3020 4591 l0 -171 30 0 30 0 -2 168 -3 167 -27 3 -28 3 0 -170z"/>
<path d="M3157 4743 c-11 -19 -18 -161 -11 -233 6 -76 8 -80 30 -80 l24 0 0
160 c0 152 -1 160 -19 160 -11 0 -22 -3 -24 -7z"/>
<path d="M3275 4724 c-14 -14 -16 -35 -13 -135 3 -115 13 -150 37 -135 14 9
15 272 2 281 -5 3 -17 -2 -26 -11z"/>
<path d="M3397 4703 c-9 -8 -7 -190 2 -223 4 -14 15 -26 24 -28 15 -3 17 9 17
127 0 120 -1 131 -18 131 -10 0 -22 -3 -25 -7z"/>
<path d="M3506 4694 c-13 -33 -6 -210 8 -230 8 -10 18 -15 23 -11 4 5 9 64 11
133 3 118 3 124 -16 124 -11 0 -23 -7 -26 -16z"/>
<path d="M3627 4704 c-4 -4 -7 -63 -7 -131 l0 -123 25 0 26 0 -3 127 c-3 106
-6 128 -18 131 -9 1 -19 0 -23 -4z"/>
<path d="M3752 4678 c-8 -8 -12 -49 -12 -121 0 -107 0 -108 23 -105 21 3 22 6
22 117 0 113 -7 135 -33 109z"/>
<path d="M3872 4658 c-8 -8 -12 -47 -12 -116 0 -101 0 -103 22 -100 19 2 24
12 31 52 12 75 5 170 -13 174 -9 1 -21 -3 -28 -10z"/>
<path d="M3995 4628 c-9 -30 -15 -138 -9 -162 4 -16 13 -26 24 -26 14 0 18 14
23 91 4 50 4 95 1 100 -8 13 -34 11 -39 -3z"/>
<path d="M4115 4537 c-9 -56 -4 -82 15 -82 12 0 15 13 15 59 0 73 -20 88 -30
23z"/>
<path d="M3647 4333 c-37 -4 -38 -5 -35 -41 3 -35 6 -38 58 -55 30 -10 136
-32 235 -48 99 -16 243 -40 320 -54 77 -14 163 -25 190 -25 l50 -1 -35 -18
c-65 -35 -557 -157 -707 -177 l-51 -6 -10 35 c-8 27 -6 49 5 87 22 76 11 115
-47 172 -66 63 -129 82 -275 83 -147 0 -226 -26 -285 -92 -45 -52 -58 -98 -41
-153 14 -46 14 -153 1 -202 -18 -64 -37 -78 -162 -114 -173 -49 -190 -58 -186
-91 2 -19 9 -29 23 -31 11 -1 83 18 159 43 l139 45 44 -41 c81 -74 113 -83
313 -83 165 -1 178 0 229 23 53 24 55 24 101 8 53 -19 106 -22 115 -7 3 5 -14
23 -37 39 -24 17 -48 35 -53 39 -6 5 -9 28 -7 50 4 41 5 42 56 57 55 16 380
88 616 136 80 16 167 36 194 44 77 23 107 19 210 -31 71 -34 102 -45 121 -40
l26 7 -31 37 c-16 20 -30 41 -30 47 0 20 -59 82 -112 118 -39 27 -76 42 -143
57 -50 10 -115 30 -145 43 -121 53 -455 117 -740 140 -19 2 -52 2 -73 0z
m-161 -199 c46 -22 43 -41 -12 -65 -78 -35 -243 -26 -299 15 -18 13 -18 16 -5
30 24 24 78 34 183 35 72 1 108 -3 133 -15z m-261 -219 c33 -8 86 -14 117 -15
67 0 65 3 70 -125 l3 -90 -25 0 c-25 0 -25 1 -28 103 -4 131 -22 135 -22 4 0
-136 -15 -146 -135 -92 l-68 30 7 68 c3 37 6 82 6 100 0 37 -3 36 75 17z m300
-82 c8 -100 2 -125 -29 -131 -14 -3 -16 9 -16 96 0 108 5 132 25 132 9 0 15
-28 20 -97z"/>
<path d="M2759 3876 c-3 -3 -126 -14 -274 -26 -289 -22 -421 -36 -436 -45 -17
-11 -9 -35 14 -44 24 -9 251 2 407 20 184 21 400 72 400 94 0 6 -105 7 -111 1z"/>
<path d="M2328 3633 c7 -3 16 -2 19 1 4 3 -2 6 -13 5 -11 0 -14 -3 -6 -6z"/>
<path d="M7253 4030 c-17 -4 -52 -25 -78 -48 -25 -22 -58 -43 -73 -47 -68 -16
-107 -72 -76 -106 32 -36 95 -16 123 39 7 12 19 22 29 22 41 0 99 25 130 56
28 28 31 36 22 53 -15 29 -40 39 -77 31z"/>
<path d="M6885 3810 c-23 -25 -14 -62 21 -80 53 -29 108 36 68 81 -22 25 -66
24 -89 -1z"/>
<path d="M6735 3740 c-33 -13 -48 -37 -41 -65 8 -32 39 -48 77 -40 49 11 61
62 23 100 -17 17 -29 18 -59 5z"/>
<path d="M6494 3593 c-75 -21 -118 -85 -82 -121 44 -44 204 55 182 111 -8 22
-44 25 -100 10z"/>
<path d="M5942 3292 c-62 -58 -47 -122 28 -122 79 0 120 78 67 128 -31 30 -59
28 -95 -6z"/>
<path d="M5360 3190 c-41 -22 -117 -86 -110 -93 3 -3 28 -1 55 3 28 5 71 9 97
9 25 1 53 4 62 7 24 9 20 60 -6 78 -29 21 -55 20 -98 -4z"/>
<path d="M5230 2931 l-35 -29 34 -36 c38 -39 70 -46 93 -18 24 27 28 49 17 82
-15 41 -61 42 -109 1z"/>
<path d="M5075 2854 c-44 -19 -86 -38 -93 -41 -7 -3 -20 -19 -28 -35 -14 -27
-14 -32 1 -54 12 -19 24 -24 59 -24 77 0 174 95 164 161 -2 12 -7 24 -13 26
-5 1 -46 -13 -90 -33z"/>
<path d="M1590 4238 c-6 -13 -14 -50 -18 -83 -6 -47 -4 -67 10 -93 21 -42 38
-62 51 -62 7 0 7 4 -1 12 -8 8 -12 50 -12 124 0 112 -10 147 -30 102z"/>
<path d="M1560 3617 c0 -8 10 -23 23 -34 39 -35 189 -126 287 -173 172 -84
190 -87 190 -27 0 38 -2 39 -110 73 -61 19 -205 88 -291 140 -59 35 -99 44
-99 21z"/>
<path d="M1590 3451 c0 -13 15 -32 38 -48 57 -41 251 -137 260 -129 4 5 -2 15
-13 22 -27 20 -189 121 -242 151 -42 24 -43 24 -43 4z"/>
<path d="M3937 3283 c-9 -49 -9 -516 -1 -537 4 -10 18 -16 35 -16 l29 0 -2
293 -3 292 -26 3 c-23 3 -27 -1 -32 -35z"/>
<path d="M1597 3270 c7 -27 60 -72 135 -114 60 -33 155 -63 166 -51 9 9 -31
46 -73 67 -22 11 -62 36 -89 55 -85 60 -149 80 -139 43z"/>
<path d="M3787 3274 c-9 -9 -10 -506 -1 -528 3 -9 17 -16 30 -16 33 0 35 24
32 305 l-3 240 -25 3 c-14 2 -29 0 -33 -4z"/>
<path d="M2538 3264 c-22 -7 -33 -43 -19 -57 7 -7 48 -12 99 -12 81 0 87 2 90
21 2 11 -3 26 -11 33 -16 12 -131 23 -159 15z"/>
<path d="M3644 3242 c-8 -5 -13 -84 -15 -254 -4 -261 0 -286 39 -262 15 10 17
36 17 265 0 218 -2 254 -15 256 -8 2 -20 0 -26 -5z"/>
<path d="M3492 3178 c-15 -15 -16 -54 -2 -63 18 -11 41 16 38 43 -3 29 -18 38
-36 20z"/>
<path d="M1956 3016 c3 -9 11 -16 16 -16 13 0 5 23 -10 28 -7 2 -10 -2 -6 -12z"/>
<path d="M6827 3311 c-23 -51 -24 -267 -3 -297 40 -54 68 91 50 264 -8 73 -25
84 -47 33z"/>
<path d="M4616 7404 c-17 -44 8 -115 35 -99 13 9 30 81 23 99 -8 21 -50 21
-58 0z"/>
<path d="M3316 7081 c-9 -17 -16 -42 -16 -56 0 -15 -7 -33 -15 -41 -21 -21
-19 -71 3 -83 23 -12 35 -4 55 34 8 17 24 39 36 49 39 35 23 106 -26 120 -18
6 -25 1 -37 -23z"/>
<path d="M4547 6460 c-33 -26 -40 -50 -27 -86 13 -34 26 -44 60 -44 43 0 70
26 70 68 0 74 -50 104 -103 62z"/>
<path d="M4756 6434 c-9 -9 -16 -32 -16 -54 0 -64 49 -91 90 -50 31 31 30 75
-2 103 -25 21 -52 22 -72 1z"/>
<path d="M4467 6100 c-12 -67 -19 -300 -10 -300 14 0 43 129 43 186 0 27 -6
72 -14 99 l-13 50 -6 -35z"/>
<path d="M3018 5879 c-17 -9 -18 -39 -17 -412 1 -221 4 -413 8 -427 6 -21 14
-26 48 -28 73 -5 72 -14 73 446 1 301 -1 407 -10 418 -14 16 -76 18 -102 3z"/>
<path d="M8642 5650 c-29 -27 -28 -61 3 -90 21 -20 28 -22 50 -12 37 17 51 53
34 88 -18 37 -56 43 -87 14z"/>
<path d="M1556 5189 c-33 -26 -34 -62 -1 -94 30 -31 37 -31 71 -2 31 27 35 68
9 97 -23 26 -46 25 -79 -1z"/>
<path d="M8616 5019 c-31 -25 -33 -47 -5 -83 13 -17 30 -26 49 -26 29 0 70 39
70 67 0 20 -46 63 -68 63 -11 0 -31 -9 -46 -21z"/>
<path d="M8316 5008 c-22 -31 -20 -70 4 -96 28 -30 54 -28 84 9 32 38 33 59 3
87 -30 29 -71 28 -91 0z"/>
<path d="M5396 4132 c-3 -9 -10 -71 -16 -137 -7 -94 -6 -148 5 -250 9 -71 19
-143 23 -160 8 -29 53 -62 71 -51 4 3 12 70 17 148 16 263 7 415 -27 449 -24
24 -66 25 -73 1z m60 -184 c4 -36 3 -97 -2 -134 l-8 -69 -7 50 c-11 75 -10
253 1 234 5 -8 12 -45 16 -81z"/>
<path d="M8540 3821 c-16 -4 -25 -14 -25 -26 0 -18 8 -20 68 -23 37 -2 74 1
83 6 15 8 14 12 -5 31 -22 22 -69 26 -121 12z"/>
<path d="M8449 3681 c-13 -11 -20 -23 -16 -27 12 -12 146 -17 223 -9 53 5 65
10 62 23 -4 23 -39 30 -149 31 -81 1 -101 -2 -120 -18z"/>
<path d="M8428 3574 c-11 -3 -18 -15 -18 -31 l0 -25 203 6 c111 4 224 6 250 6
27 0 57 6 70 15 25 17 30 16 -83 20 -36 1 -141 5 -235 8 -93 3 -178 4 -187 1z"/>
<path d="M8392 3413 c3 -28 3 -28 89 -31 106 -3 356 11 366 22 5 4 -1 14 -11
22 -16 11 -65 14 -234 14 l-213 0 3 -27z"/>
<path d="M8333 3300 c-27 -11 -30 -25 -7 -34 31 -12 437 -6 488 8 34 9 44 15
32 19 -29 11 -489 18 -513 7z"/>
<path d="M8184 3166 c-10 -8 -16 -17 -12 -21 9 -10 535 -12 544 -2 4 4 5 9 2
12 -15 15 -143 25 -319 25 -153 0 -199 -3 -215 -14z"/>
<path d="M8110 3065 c-27 -33 1 -37 199 -34 131 3 194 8 202 16 19 19 3 21
-202 28 -163 5 -187 4 -199 -10z"/>
<path d="M8205 2933 c-16 -15 -16 -17 0 -26 13 -7 66 -6 130 4 6 1 42 -2 80
-6 l70 -8 -20 22 c-18 21 -26 22 -97 17 -47 -4 -79 -2 -83 4 -10 16 -62 12
-80 -7z"/>
<path d="M8045 2920 c-3 -5 1 -10 10 -10 9 0 13 5 10 10 -3 6 -8 10 -10 10 -2
0 -7 -4 -10 -10z"/>
<path d="M8592 2819 c-39 -11 -38 -28 3 -48 25 -12 30 -12 42 5 15 20 14 46
-2 50 -5 1 -25 -2 -43 -7z"/>
<path d="M7753 2660 c-232 -3 -424 -8 -427 -11 -4 -3 -4 -13 0 -22 10 -26 96
-30 540 -25 444 6 475 9 454 48 -9 17 -20 20 -78 18 -37 -1 -257 -5 -489 -8z"/>
<path d="M4232 2508 c-15 -19 -25 -158 -17 -234 7 -70 24 -89 53 -61 20 21 30
236 13 280 -11 29 -32 35 -49 15z"/>
<path d="M7155 2515 c-5 -2 -23 -6 -38 -9 -22 -5 -28 -12 -25 -29 l3 -22 370
-3 c345 -2 597 9 758 35 60 9 43 21 -30 20 -38 0 -284 2 -548 5 -264 3 -484 5
-490 3z"/>
<path d="M4386 2474 c-13 -12 -16 -41 -16 -150 0 -127 1 -134 20 -134 31 0 39
29 41 157 2 143 -6 167 -45 127z"/>
<path d="M4530 2411 c-6 -13 -10 -68 -8 -143 3 -123 3 -123 27 -123 34 0 42
38 39 173 -3 101 -4 107 -25 110 -14 2 -26 -4 -33 -17z"/>
<path d="M2490 2400 c8 -5 33 -10 55 -10 29 0 36 3 25 10 -8 5 -33 10 -55 10
-29 0 -36 -3 -25 -10z"/>
<path d="M4682 2378 c-8 -8 -12 -50 -12 -125 0 -101 2 -113 19 -123 36 -19 51
21 51 131 0 54 -3 104 -6 113 -7 19 -35 21 -52 4z"/>
<path d="M4835 2290 c-14 -16 -17 -30 -12 -75 7 -66 12 -75 42 -75 41 0 58 64
34 127 -17 46 -37 53 -64 23z"/>
<path d="M6058 2263 c6 -2 18 -2 25 0 6 3 1 5 -13 5 -14 0 -19 -2 -12 -5z"/>
<path d="M5780 1860 c-215 -6 -260 -12 -260 -31 0 -25 103 -29 700 -28 344 0
641 3 660 7 28 6 36 13 38 35 l3 27 -458 -2 c-252 -1 -559 -5 -683 -8z"/>
<path d="M7173 1863 c-7 -2 -13 -13 -13 -23 0 -31 92 -35 104 -4 9 23 -55 42
-91 27z"/>
<path d="M1717 1812 c-60 -5 -39 -26 34 -34 35 -5 665 -11 1400 -14 1001 -5
1341 -3 1357 5 33 18 26 38 -15 46 -36 6 -2694 4 -2776 -3z"/>
<path d="M5846 1700 c-285 -5 -319 -11 -264 -42 18 -10 153 -13 645 -13 572 0
624 1 639 17 14 14 15 20 4 32 -11 14 -58 16 -379 14 -201 -2 -492 -5 -645 -8z"/>
<path d="M1790 1677 c0 -29 15 -34 120 -36 36 -1 108 -3 160 -5 279 -8 2117
-18 2243 -11 135 6 147 9 147 26 0 15 -7 19 -32 19 -18 1 -418 3 -888 5 -877
4 -1343 10 -1602 21 l-148 7 0 -26z"/>
<path d="M6785 1559 c-27 -5 -97 -9 -155 -9 -615 -1 -1062 -8 -1072 -18 -26
-26 0 -40 89 -47 101 -9 654 2 788 15 50 5 180 9 290 10 116 0 204 5 210 11 6
6 6 15 -1 27 -13 20 -74 25 -149 11z"/>
<path d="M2003 1543 c-7 -3 -13 -10 -13 -17 0 -23 45 -37 120 -37 41 0 592 -2
1223 -5 l1148 -5 -3 28 -3 28 -1040 2 c-572 1 -1125 4 -1230 6 -104 3 -196 2
-202 0z"/>
<path d="M6455 1402 c-3 -3 -247 -6 -542 -7 -499 -1 -537 -3 -547 -19 -9 -13
-7 -20 9 -33 18 -13 62 -14 359 -8 187 3 343 8 346 10 4 2 29 7 56 10 27 3 65
8 84 11 51 8 166 6 235 -6 66 -11 88 -2 69 28 -10 16 -57 25 -69 14z"/>
<path d="M2302 1377 c-10 -12 -10 -17 -1 -23 17 -10 451 -6 462 5 5 5 5 11 0
14 -4 3 -107 8 -228 12 -191 6 -223 5 -233 -8z"/>
<path d="M3120 1382 c-107 -1 -201 -4 -209 -7 -26 -10 7 -31 51 -33 24 -1 108
-7 188 -13 139 -11 481 -7 543 7 27 6 37 31 15 39 -20 6 -371 10 -588 7z"/>
<path d="M4180 1371 c-38 -10 -12 -21 82 -31 159 -19 228 -11 215 24 -5 14
-26 16 -139 15 -73 -1 -144 -4 -158 -8z"/>
<path d="M3163 1252 c-25 -4 -40 -39 -24 -55 6 -6 28 -11 49 -10 20 1 118 3
218 6 99 2 190 8 202 11 24 8 30 34 10 41 -16 5 -425 11 -455 7z"/>
<path d="M6040 1252 c-19 -1 -267 -3 -550 -5 -471 -2 -515 -3 -518 -19 -2 -10
6 -19 20 -24 13 -5 277 -8 586 -8 475 1 565 3 573 15 5 8 7 19 6 24 -4 12 -67
21 -117 17z"/>
</g>
</svg>
