<?xml version="1.0" encoding="UTF-8" standalone="no" ?>
<!DOCTYPE svg PUBLIC "-//W3C//DTD SVG 1.1//EN" "http://www.w3.org/Graphics/SVG/1.1/DTD/svg11.dtd">
<svg xmlns="http://www.w3.org/2000/svg" xmlns:xlink="http://www.w3.org/1999/xlink" version="1.1" width="1080" height="1080" viewBox="0 0 1080 1080" xml:space="preserve">
<desc>Created with Fabric.js 5.2.4</desc>
<defs>
</defs>
<rect x="0" y="0" width="100%" height="100%" fill="transparent"></rect>
<g transform="matrix(1 0 0 1 540 540)" id="59045e76-45e3-4aee-9a2c-f2fbc16f60ce"  >
</g>
<g transform="matrix(1 0 0 1 540 540)" id="a3ce24c9-8bb9-4038-9397-36d37c72c2e3"  >
<rect style="stroke: none; stroke-width: 1; stroke-dasharray: none; stroke-linecap: butt; stroke-dashoffset: 0; stroke-linejoin: miter; stroke-miterlimit: 4; fill: rgb(255,255,255); fill-rule: nonzero; opacity: 1; visibility: hidden;" vector-effect="non-scaling-stroke"  x="-540" y="-540" rx="0" ry="0" width="1080" height="1080" />
</g>
<g transform="matrix(0.74 0 0 0.74 553.95 546.35)"  >
<g style="" vector-effect="non-scaling-stroke"   >
		<g transform="matrix(0.13 0 0 -0.13 -21.95 -29.4)"  >
<path style="stroke: none; stroke-width: 1; stroke-dasharray: none; stroke-linecap: butt; stroke-dashoffset: 0; stroke-linejoin: miter; stroke-miterlimit: 4; fill: rgb(255,255,255); fill-rule: nonzero; opacity: 1;" vector-effect="non-scaling-stroke"  transform=" translate(-5077.75, -5237.27)" d="M 3560 9034 C 2938 9006 2619 8956 2520 8874 C 2477 8837 2474 8800 2505 8674 C 2556 8467 2624 8324 2709 8247 C 2748 8212 2762 8205 2945 8142 L 3055 8104 L 3096 7989 C 3144 7854 3170 7812 3287 7690 C 3385 7587 3385 7608 3283 7483 C 3095 7253 2962 6885 2957 6577 C 2955 6476 2967 6457 3030 6462 C 3064 6465 3065 6467 3072 6515 C 3076 6543 3089 6632 3100 6714 C 3125 6888 3153 6992 3209 7113 C 3256 7215 3357 7366 3407 7410 C 3438 7438 3444 7440 3463 7428 C 3475 7420 3503 7378 3525 7335 L 3565 7255 L 3570 7110 C 3576 6948 3582 6929 3641 6906 C 3681 6890 3914 6855 4050 6845 C 4097 6842 4188 6834 4253 6829 L 4371 6818 L 4444 6854 L 4518 6891 L 4525 7068 C 4529 7165 4530 7325 4526 7423 C 4521 7575 4522 7601 4535 7606 C 4563 7617 4654 7575 4740 7512 C 4928 7373 5123 7146 5178 7000 C 5189 6970 5215 6903 5235 6853 C 5307 6666 5312 6634 5314 6345 C 5315 6091 5314 6083 5288 5990 C 5253 5864 5204 5727 5173 5665 C 5115 5552 5002 5408 4919 5344 C 4867 5304 4831 5287 4844 5309 C 4847 5314 4856 5363 4865 5419 C 4874 5483 4889 5536 4902 5560 C 4920 5591 4923 5604 4915 5626 C 4901 5665 4874 5676 4738 5696 L 4621 5713 L 4543 5687 C 4456 5657 4402 5651 4432 5674 C 4452 5689 4470 5732 4470 5766 C 4470 5783 4465 5790 4450 5790 C 4437 5790 4428 5799 4424 5817 C 4413 5858 4428 6098 4445 6160 C 4467 6239 4465 6258 4437 6253 C 4414 6249 4414 6251 4404 6362 C 4387 6552 4321 6672 4201 6732 C 4145 6760 4128 6764 4056 6764 C 3914 6763 3883 6745 3662 6529 C 3601 6468 3599 6467 3486 6439 C 3423 6423 3323 6401 3263 6389 C 3204 6378 3101 6356 3035 6340 C 2969 6325 2875 6304 2825 6295 C 2776 6286 2711 6267 2682 6253 L 2629 6226 L 2602 6248 C 2520 6315 2490 6333 2427 6352 C 2303 6389 2187 6365 2077 6278 C 1931 6162 1925 5953 2063 5803 C 2116 5745 2171 5714 2246 5700 C 2297 5690 2317 5691 2371 5704 C 2494 5736 2541 5775 2651 5938 C 2674 5971 2685 5978 2736 5989 C 2768 5996 2865 6017 2950 6035 C 3035 6053 3222 6091 3365 6120 C 3508 6148 3635 6173 3648 6176 C 3689 6185 3702 6129 3702 5947 C 3702 5860 3699 5786 3695 5782 C 3691 5778 3660 5805 3626 5842 C 3556 5917 3518 5940 3460 5940 C 3406 5940 3312 5892 3250 5832 C 3194 5778 3190 5762 3220 5692 C 3230 5666 3244 5625 3251 5600 C 3269 5528 3297 5483 3365 5415 C 3485 5295 3666 5176 3832 5109 C 3915 5075 4065 5043 4185 5035 C 4248 5030 4281 5024 4294 5012 C 4308 4999 4314 4998 4317 5008 C 4324 5026 4379 5053 4396 5046 C 4406 5042 4410 5024 4410 4987 C 4410 4927 4426 4904 4459 4915 C 4475 4920 4481 4933 4486 4981 C 4492 5033 4496 5043 4517 5051 C 4531 5056 4546 5058 4550 5055 C 4555 5052 4562 5018 4566 4980 C 4573 4906 4584 4892 4619 4916 C 4636 4928 4640 4941 4640 4989 C 4640 5050 4651 5070 4685 5070 C 4705 5070 4708 5063 4716 4983 C 4724 4904 4727 4895 4746 4892 C 4774 4888 4779 4903 4787 5010 C 4792 5091 4795 5099 4818 5109 C 4831 5116 4844 5119 4846 5117 C 4848 5115 4853 5071 4856 5019 C 4859 4967 4864 4922 4867 4918 C 4869 4913 4882 4910 4894 4910 C 4924 4910 4930 4938 4930 5075 L 4930 5178 L 4965 5204 L 4999 5231 L 5002 5084 C 5005 4955 5007 4936 5023 4926 C 5038 4917 5044 4919 5056 4934 C 5067 4950 5070 4993 5070 5129 C 5071 5300 5071 5306 5095 5335 C 5108 5351 5122 5361 5127 5357 C 5131 5353 5136 5292 5138 5222 C 5141 5073 5144 5054 5166 5046 C 5206 5031 5210 5053 5210 5275 C 5210 5475 5211 5489 5231 5514 C 5242 5528 5255 5540 5259 5540 C 5264 5540 5269 5452 5272 5344 C 5277 5138 5282 5120 5322 5141 C 5339 5150 5340 5171 5340 5436 C 5340 5710 5341 5722 5362 5763 L 5384 5805 L 5391 5765 C 5394 5743 5401 5637 5404 5530 C 5412 5301 5415 5288 5444 5292 C 5464 5295 5465 5300 5468 5485 C 5470 5590 5468 5735 5465 5808 L 5458 5942 L 5433 5935 C 5410 5930 5409 5931 5414 5957 C 5455 6172 5465 6399 5441 6589 C 5429 6683 5339 6963 5286 7074 C 5204 7243 5030 7459 4886 7569 C 4806 7630 4675 7706 4588 7742 L 4509 7774 L 4512 7860 C 4515 7958 4509 7954 4620 7915 C 4782 7857 4958 7761 5085 7659 C 5294 7495 5510 7170 5618 6858 C 5667 6719 5725 6444 5741 6275 C 5763 6046 5738 5747 5679 5540 C 5658 5468 5657 5435 5649 4815 C 5644 4458 5635 4100 5629 4020 C 5623 3940 5615 3782 5612 3668 C 5608 3555 5602 3458 5598 3454 C 5590 3447 5526 3463 5380 3509 L 5295 3536 L 5295 3861 C 5294 4149 5292 4191 5276 4240 C 5248 4322 5233 4348 5176 4408 C 5005 4590 4710 4732 4303 4830 C 4109 4877 4023 4892 3785 4922 C 3528 4954 3063 4954 2820 4921 C 2627 4896 2427 4860 2310 4830 C 1870 4718 1509 4497 1399 4274 C 1360 4196 1364 4275 1372 3630 L 1376 3285 L 1407 3215 C 1460 3095 1470 3040 1470 2852 C 1470 2758 1473 2675 1476 2666 C 1479 2657 1501 2641 1525 2631 C 1566 2613 1568 2609 1576 2559 C 1580 2529 1583 2466 1582 2418 C 1580 2339 1582 2329 1601 2320 C 1612 2314 1692 2286 1778 2259 C 1928 2211 1937 2209 1986 2220 C 2043 2232 2094 2265 2122 2307 C 2135 2328 2140 2354 2140 2411 C 2140 2477 2137 2489 2117 2508 C 2085 2538 1960 2588 1857 2611 C 1808 2622 1754 2637 1737 2645 C 1682 2671 1595 2740 1588 2763 C 1580 2791 1578 2950 1586 2950 C 1589 2950 1621 2923 1657 2891 C 1723 2830 1811 2780 1999 2695 C 2257 2580 2665 2503 3122 2483 C 3203 2480 3274 2474 3280 2470 C 3286 2467 3293 2440 3297 2412 C 3302 2371 3307 2360 3321 2360 C 3336 2360 3340 2370 3342 2418 L 3345 2475 L 3388 2481 C 3411 2484 3432 2484 3435 2482 C 3438 2479 3440 2446 3440 2409 C 3440 2348 3442 2342 3463 2336 C 3498 2327 3513 2355 3506 2418 C 3499 2490 3505 2500 3551 2500 L 3589 2500 L 3592 2413 C 3595 2329 3596 2325 3619 2322 C 3656 2316 3663 2333 3661 2425 L 3660 2510 L 3695 2510 C 3714 2510 3733 2509 3738 2508 C 3742 2506 3745 2465 3745 2417 C 3745 2340 3748 2327 3765 2314 C 3783 2300 3787 2301 3804 2322 C 3820 2342 3822 2356 3816 2431 C 3810 2526 3812 2530 3870 2530 L 3899 2530 L 3902 2419 C 3905 2326 3908 2305 3922 2296 C 3936 2288 3943 2289 3956 2302 C 3970 2316 3973 2338 3972 2428 C 3970 2534 3971 2538 3993 2544 C 4005 2547 4025 2550 4036 2550 C 4057 2550 4058 2547 4056 2428 C 4055 2288 4062 2250 4089 2250 C 4126 2250 4131 2273 4129 2421 L 4128 2564 L 4171 2583 C 4237 2611 4349 2600 4530 2546 C 4610 2522 4731 2488 4800 2471 C 4994 2422 5033 2407 5041 2379 C 5045 2366 5048 2255 5049 2133 L 5050 1910 L 5016 1910 C 4971 1910 4783 1950 4595 2000 C 4457 2036 4325 2069 3810 2194 C 3708 2218 3580 2248 3525 2259 C 3470 2270 3380 2291 3325 2305 C 3270 2320 3186 2334 3138 2337 C 3071 2342 3047 2347 3034 2361 C 3013 2384 2964 2386 2956 2364 C 2953 2355 2950 2333 2950 2314 C 2950 2279 2949 2279 2913 2282 L 2875 2285 L 2878 2337 C 2882 2386 2880 2390 2855 2396 C 2822 2404 2818 2399 2816 2353 C 2815 2326 2819 2316 2828 2318 C 2836 2319 2840 2315 2838 2308 C 2832 2290 2710 2280 2575 2286 C 2515 2289 2405 2287 2331 2281 C 2218 2273 2194 2268 2176 2251 C 2165 2240 2159 2228 2162 2224 C 2166 2221 2197 2216 2232 2214 C 2267 2212 2369 2206 2460 2199 C 2602 2190 2637 2190 2709 2204 C 2755 2213 2822 2220 2859 2220 C 3021 2220 3487 2156 3513 2131 C 3534 2110 3184 2104 2954 2121 C 2841 2129 2790 2129 2717 2118 C 2649 2108 2473 2105 2047 2105 C 1546 2105 1468 2103 1460 2090 C 1454 2081 1455 2071 1461 2065 C 1470 2056 2284 2050 3130 2052 C 3796 2055 3778 2055 3880 2032 C 3932 2019 3988 2004 4004 1998 L 4034 1986 L 4004 1978 C 3983 1971 2517 1962 1373 1960 C 1338 1960 1346 1942 1383 1936 C 1493 1918 1716 1913 2920 1904 C 3564 1899 3865 1901 3995 1909 C 4168 1921 4182 1920 4350 1896 C 4526 1870 4550 1861 4550 1824 C 4550 1817 4560 1795 4571 1775 C 4583 1756 4600 1703 4610 1658 C 4636 1541 4642 1537 4851 1484 C 4947 1459 5043 1439 5065 1438 C 5108 1437 5194 1476 5345 1565 C 5457 1631 5472 1646 5464 1687 C 5456 1728 5488 1910 5507 1930 C 5517 1941 5544 1945 5603 1947 C 5648 1947 5957 1954 6290 1960 C 6623 1967 6929 1972 6970 1971 C 7011 1970 7105 1973 7178 1976 C 7296 1981 7310 1984 7310 2000 C 7310 2016 7296 2019 7193 2025 C 7030 2036 5919 2021 5733 2007 C 5649 2000 5580 1998 5580 2001 C 5580 2005 5594 2020 5610 2034 C 5661 2076 5657 2076 6170 2112 C 6250 2117 6524 2124 6779 2126 C 7034 2128 7256 2132 7274 2135 C 7291 2138 7440 2145 7605 2150 C 7941 2161 7990 2165 7990 2185 C 7990 2204 7941 2213 7873 2206 C 7841 2203 7552 2198 7230 2195 C 6428 2188 6151 2176 5984 2144 C 5913 2130 5834 2120 5809 2122 L 5765 2125 L 5888 2187 C 5956 2222 6018 2250 6026 2250 C 6034 2250 6040 2257 6040 2265 C 6040 2283 6086 2296 6103 2282 C 6111 2275 6392 2275 6960 2281 C 7752 2289 7941 2296 7998 2317 C 8020 2326 8021 2327 8004 2341 C 7985 2356 7768 2357 6675 2345 L 6135 2339 L 6170 2370 C 6234 2426 6321 2439 6645 2440 C 6794 2440 6929 2443 6947 2446 C 6975 2451 6998 2475 6986 2488 C 6983 2490 6892 2496 6783 2500 C 6562 2508 6422 2500 6385 2476 C 6372 2467 6355 2460 6348 2460 C 6341 2460 6347 2467 6360 2476 C 6374 2486 6401 2508 6420 2525 C 6481 2581 6522 2588 6874 2600 C 7050 2605 7195 2611 7197 2613 C 7199 2615 7198 2624 7195 2632 C 7188 2649 7024 2660 6787 2660 L 6657 2660 L 6676 2681 C 6686 2693 6715 2712 6740 2723 C 6781 2742 6813 2745 7145 2752 C 7343 2757 7564 2758 7635 2755 C 7928 2744 8348 2749 8429 2766 C 8451 2771 8451 2772 8435 2790 C 8426 2800 8402 2811 8382 2815 C 8332 2823 8036 2803 8032 2792 C 8030 2786 8015 2786 7992 2792 C 7972 2798 7924 2805 7885 2810 C 7812 2818 7022 2806 6960 2796 C 6941 2792 6913 2788 6898 2785 C 6858 2779 6863 2792 6915 2829 C 7004 2893 6997 2892 7419 2894 C 7672 2895 7805 2899 7807 2905 C 7809 2911 7834 2914 7865 2912 C 7895 2911 7920 2913 7920 2918 C 7920 2931 7710 2940 7392 2940 C 7083 2940 7072 2943 7181 2990 C 7228 3010 7252 3012 7476 3015 C 7735 3019 7979 3038 7945 3051 C 7934 3055 7784 3059 7613 3059 C 7441 3060 7300 3064 7300 3068 C 7300 3073 7319 3087 7343 3101 C 7384 3125 7389 3125 7659 3127 C 7818 3129 7937 3133 7943 3139 C 7948 3144 7950 3156 7946 3166 C 7940 3182 7922 3183 7717 3177 L 7495 3170 L 7529 3199 C 7562 3228 7625 3250 7674 3250 C 7687 3250 7705 3253 7714 3256 C 7727 3261 7726 3265 7709 3283 C 7699 3295 7691 3309 7693 3315 C 7699 3332 7742 3326 7751 3307 C 7756 3298 7764 3282 7769 3272 C 7776 3258 7794 3255 7886 3252 C 7946 3250 8007 3249 8023 3249 C 8064 3249 8127 3283 8200 3344 C 8270 3403 8284 3434 8274 3500 C 8272 3519 8274 3568 8280 3609 C 8289 3673 8295 3688 8330 3727 C 8376 3779 8387 3823 8369 3877 C 8360 3903 8357 3975 8357 4103 L 8358 4291 L 8394 4328 C 8435 4369 8445 4395 8436 4443 C 8430 4477 8403 4508 8365 4528 C 8345 4538 8134 4586 7978 4616 C 7929 4625 7884 4638 7877 4644 C 7867 4653 7866 4768 7873 5220 C 7877 5531 7880 5873 7880 5981 C 7879 6157 7882 6186 7904 6271 C 7946 6434 7979 6611 7986 6715 C 7989 6770 7998 6821 8004 6829 C 8020 6850 8088 6877 8142 6885 L 8189 6892 L 8223 6839 C 8265 6774 8291 6758 8395 6731 C 8549 6690 8631 6708 8715 6802 C 8861 6964 8822 7330 8650 7418 C 8600 7443 8540 7446 8427 7429 C 8325 7414 8293 7403 8223 7358 C 8180 7331 8151 7302 8130 7269 C 8097 7214 8099 7215 7998 7247 C 7955 7260 7949 7265 7940 7303 C 7895 7476 7796 7685 7675 7859 C 7475 8148 7222 8337 6920 8421 C 6847 8441 6813 8445 6670 8445 C 6527 8445 6495 8442 6430 8422 C 6349 8398 6245 8382 5535 8285 C 5431 8271 5318 8255 5285 8250 C 5252 8245 5151 8231 5060 8220 C 4969 8208 4840 8188 4773 8175 C 4706 8162 4622 8146 4586 8140 C 4550 8134 4514 8127 4506 8124 C 4483 8115 4486 8147 4509 8159 C 4519 8165 4565 8183 4610 8200 C 4783 8263 4898 8356 4940 8467 C 4962 8525 5013 8709 5024 8768 C 5031 8810 5011 8860 4975 8888 C 4910 8939 4707 8984 4396 9016 C 4253 9030 3730 9042 3560 9034 z M 3439 8846 C 3453 8771 3453 8730 3440 8730 C 3426 8730 3411 8772 3398 8844 C 3389 8891 3390 8904 3401 8911 C 3421 8923 3427 8912 3439 8846 z M 4250 8900 C 4522 8884 4751 8851 4801 8820 C 4844 8793 4730 8769 4410 8740 C 4233 8724 4127 8720 3910 8722 L 3635 8725 L 3624 8790 C 3607 8886 3607 8908 3628 8913 C 3655 8920 4044 8912 4250 8900 z M 3560 8815 C 3560 8736 3558 8722 3545 8726 C 3537 8729 3528 8746 3525 8763 C 3522 8781 3516 8817 3511 8845 C 3500 8903 3503 8910 3536 8910 C 3560 8910 3560 8909 3560 8815 z M 3329 8837 C 3335 8802 3340 8766 3340 8757 C 3340 8732 3311 8737 3305 8763 C 3293 8809 3283 8890 3288 8895 C 3306 8912 3319 8893 3329 8837 z M 3213 8876 C 3216 8868 3222 8833 3226 8798 C 3232 8742 3231 8736 3218 8748 C 3202 8761 3180 8832 3180 8869 C 3180 8893 3205 8897 3213 8876 z M 3120 8825 C 3126 8795 3128 8766 3125 8760 C 3114 8742 3093 8767 3086 8808 C 3082 8828 3077 8853 3074 8863 C 3070 8875 3074 8880 3089 8880 C 3105 8880 3111 8869 3120 8825 z M 3004 8843 C 3021 8782 3021 8760 3006 8760 C 2997 8760 2987 8776 2979 8803 C 2973 8826 2966 8848 2963 8853 C 2961 8857 2968 8860 2979 8860 C 2990 8860 3001 8852 3004 8843 z M 2893 8843 C 2895 8838 2900 8822 2904 8806 L 2911 8778 L 2848 8785 C 2758 8794 2746 8799 2761 8816 C 2767 8824 2784 8830 2799 8831 C 2813 8831 2834 8835 2845 8840 C 2871 8851 2888 8852 2893 8843 z M 2772 8661 C 2908 8629 3383 8591 3755 8581 L 4005 8575 L 4003 8397 C 4002 8299 4000 8217 3998 8216 C 3996 8214 3983 8210 3968 8206 L 3940 8200 L 3938 8362 L 3935 8525 L 3911 8525 C 3878 8525 3871 8497 3866 8331 C 3862 8222 3858 8195 3845 8187 C 3820 8173 3357 8203 3175 8231 C 3073 8247 2904 8298 2837 8333 C 2804 8350 2767 8379 2753 8397 C 2723 8436 2654 8592 2645 8643 C 2638 8678 2639 8680 2663 8680 C 2677 8680 2726 8671 2772 8661 z M 4851 8634 C 4850 8624 4842 8602 4835 8585 L 4822 8555 L 4821 8585 C 4820 8628 4831 8661 4844 8657 C 4850 8655 4853 8644 4851 8634 z M 4778 8542 C 4781 8464 4779 8446 4764 8429 C 4736 8398 4721 8405 4726 8448 C 4728 8468 4732 8520 4736 8563 C 4741 8628 4745 8641 4758 8638 C 4771 8635 4775 8618 4778 8542 z M 4665 8493 C 4660 8393 4655 8362 4642 8353 C 4619 8335 4597 8337 4604 8356 C 4607 8365 4613 8417 4616 8473 C 4623 8608 4626 8620 4651 8620 C 4672 8620 4672 8618 4665 8493 z M 4546 8523 C 4535 8394 4520 8307 4507 8298 C 4500 8294 4487 8290 4478 8290 C 4464 8290 4463 8295 4470 8321 C 4475 8338 4485 8408 4491 8476 C 4503 8600 4505 8604 4544 8609 C 4548 8609 4549 8571 4546 8523 z M 4407 8461 C 4400 8313 4387 8262 4353 8254 C 4340 8250 4327 8249 4325 8251 C 4323 8253 4328 8282 4335 8315 C 4343 8348 4352 8423 4356 8482 C 4361 8569 4366 8590 4379 8593 C 4388 8595 4399 8594 4404 8592 C 4409 8589 4410 8531 4407 8461 z M 4143 8445 C 4139 8269 4131 8226 4101 8222 L 4078 8218 L 4085 8382 C 4093 8574 4094 8582 4123 8578 C 4144 8575 4145 8572 4143 8445 z M 4280 8503 C 4279 8408 4257 8253 4241 8237 C 4214 8210 4211 8247 4222 8413 C 4234 8577 4234 8580 4257 8580 C 4279 8580 4280 8577 4280 8503 z M 6895 8296 C 6983 8273 7168 8178 7257 8111 C 7330 8056 7365 8021 7483 7887 C 7563 7796 7740 7495 7740 7450 C 7740 7439 7734 7430 7726 7430 C 7702 7430 7700 7416 7716 7356 C 7778 7120 7795 6830 7766 6533 C 7757 6441 7750 6343 7752 6316 L 7755 6266 L 7660 6230 C 7608 6210 7480 6158 7375 6115 C 7271 6072 7106 6007 7010 5970 C 6914 5933 6765 5873 6680 5837 C 6595 5801 6446 5742 6350 5706 C 6254 5670 6128 5620 6070 5594 C 5947 5539 5843 5501 5816 5500 C 5802 5500 5799 5505 5804 5523 C 5807 5535 5810 5551 5810 5558 C 5810 5564 5817 5570 5825 5570 C 5833 5570 5840 5566 5840 5560 C 5840 5542 5869 5550 5880 5571 C 5887 5582 5903 5644 5916 5708 C 5958 5905 5969 6254 5939 6433 C 5928 6494 5902 6560 5888 6560 C 5884 6560 5879 6518 5879 6468 C 5878 6417 5876 6384 5873 6395 C 5871 6406 5847 6510 5820 6625 C 5794 6741 5756 6880 5735 6935 C 5591 7321 5360 7636 5080 7826 C 4953 7912 4931 7924 4811 7970 C 4759 7990 4715 8011 4713 8017 C 4711 8023 4731 8030 4762 8034 C 4831 8042 5191 8095 5350 8121 C 5419 8131 5538 8147 5615 8155 C 5692 8163 5796 8178 5845 8189 C 5895 8200 5999 8216 6075 8225 C 6152 8234 6265 8250 6325 8260 C 6386 8271 6477 8284 6529 8291 C 6581 8297 6633 8306 6644 8311 C 6673 8324 6823 8315 6895 8296 z M 4211 7990 C 4221 7826 4221 7482 4211 7476 C 4206 7473 4196 7477 4189 7486 C 4179 7499 4175 7570 4173 7802 C 4171 8080 4172 8101 4188 8098 C 4202 8095 4206 8078 4211 7990 z M 4279 8037 C 4277 7938 4262 7919 4261 8013 C 4260 8070 4264 8099 4270 8095 C 4276 8092 4279 8065 4279 8037 z M 3625 8061 L 3765 8055 L 3771 7949 C 3778 7823 3800 7766 3883 7663 C 3953 7574 4040 7447 4040 7432 C 4040 7416 3716 7415 3672 7431 C 3640 7442 3534 7576 3458 7700 C 3438 7734 3393 7791 3358 7829 C 3283 7907 3240 7987 3240 8043 L 3240 8083 L 3363 8075 C 3430 8071 3548 8064 3625 8061 z M 4000 7919 C 4000 7795 3997 7759 3988 7762 C 3978 7765 3974 7806 3972 7910 C 3969 8057 3972 8080 3990 8080 C 3996 8080 4000 8023 4000 7919 z M 4108 7851 C 4112 7632 4106 7592 4079 7642 C 4070 7659 4067 7722 4069 7865 C 4070 7975 4074 8068 4076 8072 C 4079 8076 4086 8077 4093 8074 C 4102 8071 4106 8011 4108 7851 z M 3910 7991 C 3910 7958 3906 7929 3901 7926 C 3889 7918 3877 7985 3885 8021 C 3896 8070 3910 8053 3910 7991 z M 4382 7147 C 4378 7025 4373 6971 4366 6973 C 4354 6977 4355 7474 4368 7710 C 4375 7844 4375 7842 4381 7585 C 4384 7442 4384 7245 4382 7147 z M 3887 7319 C 4161 7297 4175 7290 4209 7156 C 4231 7073 4234 7032 4223 6991 C 4217 6967 4216 6967 4116 6974 C 4021 6981 3983 6985 3800 7011 L 3724 7022 L 3712 7168 C 3706 7248 3703 7317 3706 7322 C 3713 7332 3733 7332 3887 7319 z M 8579 7295 C 8623 7257 8645 7184 8645 7070 C 8645 6989 8641 6968 8620 6925 C 8606 6897 8587 6874 8577 6872 C 8561 6869 8559 6872 8567 6892 C 8571 6904 8575 6967 8575 7031 L 8575 7148 L 8536 7204 C 8515 7235 8492 7260 8485 7260 C 8458 7260 8464 7286 8494 7302 C 8535 7325 8543 7324 8579 7295 z M 8458 7253 C 8477 7218 8500 7071 8499 6999 C 8498 6899 8490 6875 8460 6875 C 8435 6875 8435 6876 8438 6946 C 8443 7037 8427 7093 8384 7138 L 8349 7175 L 8355 7109 C 8360 7060 8357 7033 8346 7006 C 8323 6951 8307 6961 8282 7044 C 8270 7085 8249 7132 8234 7149 C 8219 7167 8210 7183 8212 7186 C 8215 7188 8242 7199 8273 7210 C 8304 7221 8344 7239 8362 7250 C 8403 7275 8446 7276 8458 7253 z M 7807 7228 C 7804 7220 7801 7223 7801 7234 C 7800 7245 7803 7251 7806 7247 C 7809 7244 7810 7235 7807 7228 z M 7817 7168 C 7814 7161 7812 7166 7812 7180 C 7812 7194 7814 7199 7817 7193 C 7819 7186 7819 7174 7817 7168 z M 7827 7118 C 7824 7111 7822 7116 7822 7130 C 7822 7144 7824 7149 7827 7143 C 7829 7136 7829 7124 7827 7118 z M 8158 7054 C 8162 7016 8147 7010 8048 7010 C 7990 7010 7980 7013 7980 7028 C 7980 7037 7977 7055 7974 7068 C 7967 7091 7968 7091 8061 7088 L 8155 7085 L 8158 7054 z M 7847 6888 C 7845 6875 7843 6885 7843 6910 C 7843 6935 7845 6945 7847 6933 C 7849 6920 7849 6900 7847 6888 z M 4139 6619 C 4179 6597 4234 6524 4255 6464 C 4276 6407 4273 6303 4251 6253 C 4234 6218 4196 6181 4185 6192 C 4183 6194 4188 6220 4196 6250 C 4212 6312 4206 6401 4184 6437 C 4170 6460 4112 6495 4104 6487 C 4101 6485 4104 6463 4109 6440 C 4119 6395 4108 6304 4088 6265 C 4072 6235 4038 6200 4024 6200 C 4014 6200 4017 6210 4031 6234 C 4045 6258 4053 6294 4056 6352 C 4062 6428 4060 6438 4038 6470 C 4025 6489 3991 6523 3962 6544 L 3909 6583 L 3937 6597 C 3952 6604 3976 6617 3990 6625 C 4026 6646 4096 6644 4139 6619 z M 3864 6449 C 3922 6404 3935 6335 3898 6280 C 3865 6232 3846 6228 3856 6271 C 3870 6328 3865 6367 3837 6407 C 3794 6469 3809 6492 3864 6449 z M 3747 6343 C 3753 6327 3717 6318 3410 6254 C 2862 6141 2698 6110 2689 6115 C 2674 6125 2679 6149 2699 6159 C 2709 6165 2796 6184 2892 6201 C 2987 6217 3200 6260 3365 6295 C 3658 6357 3739 6367 3747 6343 z M 2379 6230 C 2457 6191 2506 6099 2498 6009 C 2489 5919 2412 5849 2312 5842 C 2192 5833 2107 5916 2107 6041 C 2107 6189 2256 6293 2379 6230 z M 4303 6028 C 4306 5892 4300 5756 4291 5747 C 4277 5733 3855 5791 3838 5808 C 3835 5812 3835 5876 3838 5950 C 3846 6103 3839 6094 3935 6067 L 3985 6053 L 3991 5996 C 3998 5933 4002 5925 4025 5933 C 4036 5938 4040 5954 4040 5995 C 4040 6043 4043 6051 4057 6048 C 4071 6046 4077 6030 4082 5985 C 4095 5882 4130 5885 4138 5990 C 4141 6036 4147 6053 4161 6061 C 4178 6070 4180 6067 4180 6022 C 4180 5946 4190 5910 4210 5910 C 4232 5910 4240 5938 4240 6021 C 4240 6079 4243 6090 4263 6103 C 4275 6112 4288 6119 4293 6119 C 4297 6120 4301 6078 4303 6028 z M 7746 5848 C 7742 5698 7739 5349 7738 5073 L 7737 4571 L 7711 4553 C 7683 4532 7616 4494 7250 4292 C 7121 4221 6921 4110 6805 4045 C 6690 3980 6543 3899 6480 3865 C 6417 3831 6291 3761 6200 3710 C 5785 3477 5767 3468 5759 3482 C 5748 3499 5748 3599 5760 4115 C 5765 4346 5770 4714 5771 4932 L 5773 5329 L 5801 5339 C 5822 5346 5830 5345 5834 5335 C 5837 5327 5839 5140 5839 4919 C 5840 4698 5841 4516 5842 4514 C 5844 4513 5859 4510 5875 4508 L 5905 4505 L 5908 4943 C 5910 5393 5910 5393 5946 5378 C 5949 5376 5954 5015 5956 4575 C 5959 4135 5963 3769 5965 3762 C 5968 3755 5980 3750 5992 3752 C 6019 3756 6017 3694 6028 4734 C 6034 5377 6036 5434 6052 5444 C 6061 5449 6071 5452 6074 5450 C 6076 5447 6081 5094 6085 4665 C 6089 4236 6096 3881 6100 3877 C 6104 3872 6116 3870 6126 3872 C 6144 3875 6145 3893 6151 4160 C 6154 4317 6158 4680 6159 4966 C 6160 5516 6159 5500 6201 5500 C 6206 5500 6210 5181 6210 4705 L 6210 3910 L 6234 3910 C 6257 3910 6259 3915 6264 3973 C 6267 4007 6272 4373 6276 4785 C 6282 5523 6283 5549 6313 5550 C 6317 5550 6320 5199 6320 4771 L 6320 3991 L 6341 3985 C 6353 3981 6366 3982 6371 3987 C 6376 3992 6383 4345 6387 4790 C 6395 5575 6395 5585 6415 5588 C 6435 5591 6435 5586 6432 4790 L 6429 3990 L 6454 3990 C 6475 3990 6479 3995 6484 4038 C 6487 4064 6492 4398 6495 4780 C 6501 5455 6504 5603 6516 5621 C 6519 5626 6528 5630 6536 5630 C 6548 5630 6549 5527 6543 4851 L 6537 4072 L 6559 4065 C 6571 4061 6585 4061 6588 4065 C 6592 4069 6598 4261 6601 4493 C 6617 5537 6622 5660 6641 5671 C 6659 5680 6659 5651 6653 4897 L 6647 4113 L 6669 4107 C 6686 4103 6693 4107 6699 4123 C 6703 4135 6712 4496 6719 4925 C 6727 5440 6735 5709 6742 5717 C 6748 5724 6759 5730 6767 5730 C 6780 5730 6782 5636 6779 4958 L 6775 4185 L 6798 4182 C 6810 4180 6822 4185 6824 4192 C 6826 4199 6831 4419 6834 4680 C 6837 4941 6843 5293 6847 5463 L 6853 5770 L 6877 5770 L 6902 5770 L 6894 5025 L 6887 4280 L 6912 4280 C 6930 4280 6939 4287 6944 4303 C 6947 4315 6950 4420 6950 4535 C 6950 4732 6970 5814 6973 5816 C 6974 5817 6985 5821 6997 5824 L 7019 5831 L 7013 5080 L 7007 4330 L 7032 4330 C 7055 4330 7058 4335 7063 4373 C 7067 4396 7072 4739 7076 5135 C 7081 5650 7086 5857 7094 5862 C 7130 5886 7130 5889 7127 5138 L 7125 4405 L 7146 4402 C 7166 4399 7168 4405 7173 4462 C 7177 4497 7182 4732 7185 4985 C 7191 5513 7200 5892 7207 5903 C 7209 5907 7217 5910 7223 5910 C 7233 5910 7235 5863 7233 5713 C 7231 5604 7229 5280 7227 4992 L 7224 4469 L 7248 4463 C 7260 4460 7272 4459 7274 4461 C 7280 4468 7290 4883 7297 5413 C 7302 5843 7306 5942 7317 5952 C 7325 5958 7334 5959 7339 5954 C 7343 5949 7344 5657 7340 5305 C 7337 4953 7336 4625 7339 4575 C 7345 4491 7347 4485 7368 4482 C 7380 4480 7390 4482 7390 4487 C 7390 4491 7392 4601 7394 4730 C 7397 4859 7402 5192 7405 5470 C 7409 5748 7413 5981 7415 5988 C 7418 5994 7426 6000 7434 6000 C 7447 6000 7448 5907 7447 5294 C 7445 4626 7446 4587 7463 4576 C 7476 4568 7482 4568 7488 4577 C 7496 4590 7521 5609 7520 5891 C 7520 6010 7523 6039 7534 6043 C 7547 6048 7548 5970 7546 5462 C 7544 5139 7545 4863 7548 4848 C 7551 4827 7558 4820 7575 4820 C 7598 4820 7598 4822 7604 4993 C 7607 5087 7612 5352 7615 5580 C 7621 6032 7625 6090 7647 6090 C 7659 6090 7661 6052 7658 5848 L 7655 5605 L 7683 5602 L 7710 5599 L 7710 5678 C 7710 5721 7713 5839 7717 5938 C 7722 6089 7726 6120 7738 6120 C 7751 6120 7752 6085 7746 5848 z M 3569 5748 C 3600 5720 3657 5682 3695 5664 C 3813 5610 4029 5542 4125 5529 C 4236 5515 4420 5523 4550 5548 C 4602 5558 4667 5564 4693 5562 C 4737 5558 4741 5556 4735 5536 C 4732 5525 4718 5473 4705 5421 C 4692 5369 4673 5318 4663 5309 C 4636 5282 4508 5222 4437 5202 C 4389 5189 4337 5185 4205 5186 C 4040 5186 4032 5187 3935 5219 C 3820 5257 3723 5304 3630 5365 C 3553 5416 3407 5560 3385 5606 C 3366 5646 3350 5728 3357 5748 C 3366 5770 3461 5811 3489 5805 C 3503 5801 3539 5776 3569 5748 z M 4225 5649 C 4238 5644 4221 5641 4174 5641 C 4099 5640 4040 5648 4040 5659 C 4040 5668 4200 5660 4225 5649 z M 3775 4794 C 3955 4774 4266 4710 4423 4660 C 4786 4543 5026 4403 5105 4259 C 5145 4186 5147 4089 5110 4015 C 5056 3907 4937 3817 4727 3723 C 4456 3602 4178 3539 3725 3495 C 3408 3464 2922 3482 2610 3537 C 2495 3557 2280 3605 2200 3629 C 2022 3681 1810 3786 1810 3822 C 1810 3831 1927 3891 1999 3919 C 2040 3934 2050 3935 2050 3924 C 2050 3889 2288 3913 2775 3996 C 2905 4018 2982 4060 2893 4060 C 2831 4060 2593 4031 2478 4010 C 2419 3999 2322 3985 2263 3980 C 2204 3974 2138 3967 2116 3964 C 2089 3960 2079 3961 2084 3969 C 2098 3992 2190 4029 2350 4079 C 2514 4130 2573 4144 2862 4199 C 3010 4228 3090 4251 3090 4265 C 3090 4276 3067 4315 3056 4322 C 3050 4326 3029 4330 3009 4330 C 2987 4330 2970 4336 2967 4344 C 2964 4352 2960 4459 2959 4582 L 2957 4805 L 3106 4811 C 3313 4820 3609 4812 3775 4794 z M 2892 4573 C 2894 4453 2891 4349 2886 4343 C 2881 4336 2869 4330 2858 4330 C 2848 4330 2838 4336 2835 4343 C 2833 4349 2830 4453 2828 4573 L 2824 4790 L 2857 4790 L 2889 4790 L 2892 4573 z M 2760 4550 C 2760 4417 2756 4320 2751 4320 C 2746 4320 2735 4318 2727 4314 C 2708 4307 2696 4493 2706 4659 C 2713 4777 2713 4780 2736 4780 L 2760 4780 L 2760 4550 z M 2635 4668 C 2638 4617 2640 4512 2638 4435 C 2635 4303 2634 4295 2615 4295 C 2596 4295 2595 4303 2592 4528 C 2590 4751 2590 4760 2609 4760 C 2626 4760 2629 4750 2635 4668 z M 2520 4500 C 2520 4277 2519 4270 2500 4270 C 2481 4270 2480 4277 2480 4463 C 2480 4675 2486 4730 2506 4730 C 2518 4730 2520 4688 2520 4500 z M 2410 4476 C 2410 4251 2409 4242 2390 4237 C 2371 4232 2370 4237 2370 4359 C 2370 4430 2367 4534 2364 4592 C 2357 4704 2356 4702 2403 4709 C 2407 4709 2410 4605 2410 4476 z M 2293 4608 C 2297 4562 2300 4454 2300 4367 C 2300 4232 2298 4209 2284 4203 C 2275 4200 2264 4203 2259 4211 C 2254 4219 2250 4327 2250 4452 C 2250 4675 2251 4685 2281 4689 C 2284 4690 2290 4653 2293 4608 z M 2179 4406 C 2182 4190 2181 4172 2164 4166 C 2154 4162 2143 4165 2138 4172 C 2129 4187 2127 4600 2136 4624 C 2139 4633 2150 4640 2159 4640 C 2173 4640 2175 4615 2179 4406 z M 2063 4483 C 2072 4322 2072 4156 2064 4136 C 2061 4127 2052 4120 2046 4120 C 2036 4120 2032 4178 2027 4350 C 2023 4477 2023 4587 2026 4595 C 2030 4603 2038 4610 2045 4610 C 2053 4610 2059 4574 2063 4483 z M 1950 4301 C 1950 4136 1947 4059 1939 4054 C 1933 4051 1924 4054 1919 4061 C 1909 4077 1907 4523 1917 4533 C 1920 4537 1929 4540 1937 4540 C 1947 4540 1950 4493 1950 4301 z M 8087 4466 C 8182 4447 8264 4429 8270 4425 C 8293 4411 8255 4384 8035 4258 C 7964 4217 7871 4163 7830 4138 C 7789 4113 7697 4060 7625 4020 C 7554 3980 7414 3899 7315 3840 C 7152 3743 6992 3651 6855 3575 C 6828 3560 6756 3517 6695 3480 C 6635 3444 6497 3363 6390 3301 C 6283 3238 6155 3164 6105 3135 C 6056 3106 5939 3038 5845 2984 C 5752 2931 5637 2865 5590 2838 C 5237 2632 5105 2558 5081 2554 C 5066 2551 5027 2553 4994 2559 C 4895 2577 4569 2673 4573 2683 C 4574 2688 4614 2707 4660 2724 C 4807 2780 4886 2828 5047 2957 C 5162 3050 5220 3112 5220 3143 C 5220 3156 5231 3200 5245 3240 C 5259 3280 5270 3326 5270 3342 C 5270 3366 5274 3370 5298 3370 C 5313 3370 5388 3352 5465 3330 C 5612 3288 5665 3282 5721 3302 C 5755 3313 5890 3386 6195 3557 C 6370 3655 6463 3707 6675 3825 C 6935 3970 7065 4043 7115 4073 C 7143 4090 7230 4138 7310 4180 C 7390 4222 7520 4292 7600 4337 C 7841 4471 7895 4500 7905 4500 C 7911 4500 7993 4485 8087 4466 z M 1840 4357 C 1840 4289 1843 4178 1847 4112 C 1853 3992 1853 3990 1832 3990 C 1810 3990 1810 3991 1810 4235 C 1810 4446 1812 4480 1825 4480 C 1838 4480 1840 4460 1840 4357 z M 1740 4155 C 1740 4021 1736 3909 1731 3906 C 1717 3897 1652 3928 1642 3947 C 1637 3957 1635 3972 1637 3980 C 1640 3991 1639 3992 1633 3983 C 1621 3967 1556 4019 1534 4063 C 1502 4123 1536 4236 1604 4299 C 1618 4313 1633 4320 1636 4317 C 1640 4313 1648 4237 1654 4148 C 1666 3974 1672 3950 1696 3974 C 1707 3986 1710 4029 1710 4193 C 1710 4305 1713 4400 1716 4403 C 1736 4422 1740 4376 1740 4155 z M 8225 4178 C 8216 4141 8214 3867 8223 3843 C 8229 3827 8225 3816 8208 3801 C 8187 3781 7985 3663 7910 3627 C 7891 3618 7857 3598 7835 3582 C 7783 3544 7650 3466 7647 3471 C 7645 3473 7648 3565 7652 3675 C 7659 3847 7662 3877 7677 3888 C 7711 3913 7714 3897 7711 3727 C 7708 3576 7710 3559 7726 3553 C 7737 3549 7749 3554 7762 3569 C 7778 3590 7780 3612 7780 3775 C 7780 3952 7781 3959 7801 3965 C 7812 3969 7825 3969 7828 3965 C 7832 3961 7835 3891 7835 3808 C 7835 3675 7837 3656 7853 3646 C 7865 3638 7875 3638 7887 3646 C 7902 3655 7904 3681 7907 3841 C 7911 3997 7914 4027 7927 4038 C 7936 4044 7948 4050 7953 4050 C 7959 4050 7961 3988 7958 3894 C 7953 3733 7958 3710 7995 3710 C 8023 3710 8030 3751 8032 3922 C 8033 4091 8038 4120 8066 4120 C 8077 4120 8080 4088 8080 3955 C 8080 3791 8080 3790 8103 3790 C 8146 3790 8148 3798 8156 3988 C 8162 4157 8164 4172 8184 4185 C 8215 4207 8231 4204 8225 4178 z M 1605 3784 C 1850 3588 2245 3444 2691 3386 C 3001 3346 3691 3339 3905 3374 C 3955 3382 4014 3390 4038 3392 L 4081 3395 L 4080 3074 C 4079 2801 4081 2751 4094 2741 C 4125 2715 4144 2732 4153 2790 C 4163 2855 4157 3358 4146 3382 C 4138 3399 4142 3401 4203 3414 L 4230 3420 L 4230 3090 C 4230 2803 4232 2760 4245 2760 C 4253 2760 4260 2756 4260 2751 C 4260 2743 4225 2735 4000 2689 C 3787 2645 3384 2615 3125 2623 C 2762 2635 2472 2682 2191 2776 C 1775 2914 1538 3123 1525 3361 C 1513 3575 1512 3840 1523 3840 C 1530 3840 1567 3815 1605 3784 z M 7581 3664 C 7577 3494 7584 3455 7618 3467 C 7652 3479 7598 3430 7540 3395 C 7405 3315 7249 3219 7178 3174 C 7136 3147 7051 3094 6988 3056 C 6926 3018 6792 2935 6690 2870 C 6588 2806 6471 2734 6430 2710 C 6344 2661 6252 2604 6165 2547 L 6105 2508 L 6102 2741 C 6100 2974 6100 2975 6122 2992 C 6135 3002 6148 3010 6153 3010 C 6157 3010 6161 2948 6161 2873 C 6162 2797 6165 2704 6169 2665 C 6175 2599 6176 2595 6200 2595 L 6225 2595 L 6228 2822 L 6230 3049 L 6259 3069 C 6275 3081 6291 3090 6294 3090 C 6297 3090 6301 2997 6302 2883 C 6305 2692 6306 2675 6323 2672 C 6367 2663 6370 2680 6370 2916 L 6370 3140 L 6396 3150 C 6410 3156 6425 3160 6430 3160 C 6434 3160 6435 3076 6432 2972 C 6428 2809 6429 2783 6443 2772 C 6452 2764 6467 2760 6477 2762 C 6502 2766 6508 2823 6509 3041 C 6510 3217 6510 3218 6535 3234 C 6548 3243 6562 3250 6565 3250 C 6568 3250 6570 3162 6570 3055 C 6570 2880 6572 2860 6588 2852 C 6634 2828 6638 2846 6644 3105 C 6648 3292 6649 3295 6672 3307 C 6706 3325 6724 3323 6715 3303 C 6704 3276 6689 3085 6692 3012 C 6694 2964 6699 2944 6712 2936 C 6724 2929 6733 2929 6739 2935 C 6745 2941 6750 3014 6750 3102 C 6752 3294 6764 3338 6829 3387 C 6901 3443 6898 3448 6919 3197 C 6928 3086 6939 3055 6963 3079 C 6972 3088 6975 3144 6975 3287 L 6975 3484 L 7008 3503 L 7040 3522 L 7040 3336 C 7040 3234 7043 3150 7048 3150 C 7052 3150 7065 3153 7076 3156 C 7103 3163 7109 3213 7111 3417 C 7112 3558 7112 3560 7137 3580 C 7151 3591 7167 3600 7172 3600 C 7178 3600 7179 3551 7174 3468 C 7170 3395 7167 3320 7168 3301 C 7169 3258 7184 3241 7208 3256 C 7227 3268 7237 3343 7244 3534 C 7248 3635 7250 3645 7272 3661 C 7284 3671 7303 3681 7313 3684 C 7328 3688 7330 3683 7325 3657 C 7300 3504 7294 3360 7312 3342 C 7331 3323 7360 3328 7369 3353 C 7374 3365 7384 3453 7391 3549 C 7402 3698 7407 3726 7424 3741 C 7434 3751 7447 3757 7452 3754 C 7456 3751 7460 3680 7460 3595 C 7460 3438 7468 3390 7494 3390 C 7525 3390 7530 3428 7530 3620 C 7529 3724 7532 3815 7535 3820 C 7539 3826 7552 3830 7563 3828 C 7585 3825 7585 3823 7581 3664 z M 5135 3563 C 5127 3317 5117 3258 5074 3204 C 5060 3187 5059 3211 5065 3470 C 5071 3742 5072 3756 5092 3778 C 5104 3790 5120 3800 5128 3800 C 5140 3800 5141 3766 5135 3563 z M 4984 3462 C 4980 3342 4980 3233 4983 3219 C 4987 3204 5001 3190 5020 3183 C 5036 3177 5050 3167 5050 3162 C 5050 3145 4968 3060 4936 3043 C 4919 3034 4883 3010 4855 2990 C 4800 2948 4601 2846 4593 2854 C 4590 2857 4593 2867 4601 2876 C 4616 2894 4628 3103 4629 3367 C 4630 3507 4632 3520 4649 3530 C 4660 3535 4673 3540 4679 3540 C 4687 3540 4690 3447 4690 3246 C 4690 3058 4694 2949 4700 2945 C 4718 2934 4747 2949 4759 2976 C 4774 3010 4790 3244 4790 3441 L 4790 3597 L 4815 3608 C 4829 3615 4843 3620 4845 3620 C 4847 3620 4846 3496 4843 3344 C 4836 3051 4837 3051 4883 3050 C 4920 3050 4928 3102 4935 3385 C 4939 3534 4943 3661 4945 3668 C 4948 3674 4959 3680 4970 3680 C 4990 3680 4990 3677 4984 3462 z M 8140 3534 C 8140 3501 8135 3483 8123 3474 C 8095 3453 8090 3457 8090 3504 C 8090 3561 8098 3580 8121 3580 C 8137 3580 8140 3572 8140 3534 z M 4533 3152 L 4532 2825 L 4496 2811 C 4476 2803 4458 2799 4456 2801 C 4454 2803 4456 2837 4461 2875 C 4465 2914 4469 3063 4469 3207 C 4470 3481 4469 3477 4515 3479 C 4535 3480 4535 3474 4533 3152 z M 7970 3451 C 7990 3412 7983 3400 7940 3400 C 7892 3400 7878 3421 7905 3450 C 7928 3475 7956 3476 7970 3451 z M 4380 3126 C 4380 2893 4383 2799 4391 2794 C 4407 2785 4366 2764 4315 2754 C 4276 2747 4275 2748 4292 2767 C 4308 2784 4310 2819 4312 3110 L 4315 3434 L 4340 3441 C 4354 3445 4368 3448 4373 3449 C 4377 3450 4380 3304 4380 3126 z M 6032 2716 C 6035 2544 6037 2516 6051 2507 C 6066 2498 6063 2493 6029 2468 C 6008 2453 5986 2440 5981 2440 C 5976 2440 5970 2538 5968 2663 L 5963 2885 L 5988 2908 C 6002 2921 6016 2928 6021 2923 C 6025 2919 6030 2825 6032 2716 z M 5903 2640 C 5904 2527 5910 2425 5914 2413 C 5921 2395 5916 2388 5881 2371 L 5840 2350 L 5840 2586 C 5840 2818 5840 2822 5863 2840 C 5875 2850 5888 2855 5892 2852 C 5896 2848 5901 2753 5903 2640 z M 5764 2593 C 5767 2495 5775 2395 5780 2371 C 5789 2334 5788 2326 5773 2314 C 5741 2289 5721 2280 5716 2288 C 5713 2292 5710 2399 5709 2524 C 5708 2709 5710 2754 5721 2761 C 5755 2782 5758 2771 5764 2593 z M 5659 2277 C 5676 2256 5662 2237 5611 2210 L 5575 2192 L 5578 2434 L 5581 2676 L 5608 2692 L 5635 2709 L 5640 2501 C 5644 2345 5648 2289 5659 2277 z M 5510 2419 C 5510 2235 5511 2219 5530 2200 C 5549 2181 5549 2181 5514 2152 C 5495 2136 5467 2117 5452 2109 C 5437 2102 5406 2083 5383 2068 C 5343 2041 5187 1959 5184 1963 C 5183 1964 5180 2071 5176 2200 L 5170 2435 L 5205 2458 C 5224 2470 5241 2480 5242 2480 C 5244 2480 5243 2389 5242 2277 C 5239 2105 5241 2072 5253 2061 C 5265 2052 5274 2051 5289 2060 C 5309 2070 5310 2079 5310 2253 C 5310 2395 5307 2441 5295 2464 C 5277 2498 5281 2505 5329 2530 L 5367 2549 L 5374 2342 C 5382 2122 5389 2092 5428 2116 C 5443 2126 5445 2149 5442 2361 L 5439 2595 L 5467 2612 C 5482 2621 5498 2626 5502 2624 C 5507 2621 5510 2529 5510 2419 z M 1849 2498 L 1922 2476 L 1917 2422 C 1914 2392 1907 2363 1901 2357 C 1891 2347 1848 2359 1762 2397 L 1708 2420 L 1715 2463 C 1719 2486 1724 2508 1727 2513 C 1734 2525 1772 2521 1849 2498 z M 5324 1845 C 5321 1826 5315 1787 5311 1759 C 5305 1707 5305 1707 5232 1663 C 5191 1638 5157 1620 5156 1622 C 5154 1623 5157 1659 5163 1700 L 5172 1775 L 5244 1827 C 5283 1855 5319 1879 5323 1879 C 5327 1880 5328 1864 5324 1845 z M 4998 1775 C 5016 1771 5020 1763 5020 1727 C 5020 1704 5023 1661 5026 1633 C 5032 1583 5032 1580 5010 1580 C 4975 1580 4787 1631 4773 1644 C 4763 1654 4720 1793 4720 1816 C 4720 1825 4910 1797 4998 1775 z" stroke-linecap="round" />
</g>
		<g transform="matrix(0.13 0 0 -0.13 -193.26 -494)"  >
<path style="stroke: none; stroke-width: 1; stroke-dasharray: none; stroke-linecap: butt; stroke-dashoffset: 0; stroke-linejoin: miter; stroke-miterlimit: 4; fill: rgb(255,255,255); fill-rule: nonzero; opacity: 1;" vector-effect="non-scaling-stroke"  transform=" translate(-3700.44, -8814.91)" d="M 3679 8867 C 3662 8830 3678 8747 3703 8742 C 3712 8740 3723 8746 3726 8754 C 3735 8777 3722 8854 3705 8876 C 3692 8894 3691 8893 3679 8867 z" stroke-linecap="round" />
</g>
		<g transform="matrix(0.13 0 0 -0.13 168.75 -401.98)"  >
<path style="stroke: none; stroke-width: 1; stroke-dasharray: none; stroke-linecap: butt; stroke-dashoffset: 0; stroke-linejoin: miter; stroke-miterlimit: 4; fill: rgb(255,255,255); fill-rule: nonzero; opacity: 1;" vector-effect="non-scaling-stroke"  transform=" translate(-6415.81, -8125.68)" d="M 6373 8145 C 6365 8121 6400 8089 6429 8092 C 6458 8095 6471 8137 6448 8151 C 6426 8165 6380 8161 6373 8145 z" stroke-linecap="round" />
</g>
		<g transform="matrix(0.13 0 0 -0.13 148.14 -398.92)"  >
<path style="stroke: none; stroke-width: 1; stroke-dasharray: none; stroke-linecap: butt; stroke-dashoffset: 0; stroke-linejoin: miter; stroke-miterlimit: 4; fill: rgb(255,255,255); fill-rule: nonzero; opacity: 1;" vector-effect="non-scaling-stroke"  transform=" translate(-6261.42, -8102.63)" d="M 6216 8132 C 6213 8127 6214 8110 6219 8094 C 6226 8068 6231 8065 6266 8065 C 6299 8065 6305 8068 6308 8088 C 6310 8101 6306 8118 6300 8126 C 6287 8141 6225 8146 6216 8132 z" stroke-linecap="round" />
</g>
		<g transform="matrix(0.13 0 0 -0.13 119.78 -396)"  >
<path style="stroke: none; stroke-width: 1; stroke-dasharray: none; stroke-linecap: butt; stroke-dashoffset: 0; stroke-linejoin: miter; stroke-miterlimit: 4; fill: rgb(255,255,255); fill-rule: nonzero; opacity: 1;" vector-effect="non-scaling-stroke"  transform=" translate(-6049.2, -8080.76)" d="M 6013 8105 C 5983 8092 5970 8067 5988 8057 C 5992 8054 6016 8049 6042 8046 C 6085 8039 6090 8041 6106 8066 C 6123 8091 6123 8093 6105 8106 C 6081 8124 6054 8123 6013 8105 z" stroke-linecap="round" />
</g>
		<g transform="matrix(0.13 0 0 -0.13 86.62 -389.74)"  >
<path style="stroke: none; stroke-width: 1; stroke-dasharray: none; stroke-linecap: butt; stroke-dashoffset: 0; stroke-linejoin: miter; stroke-miterlimit: 4; fill: rgb(255,255,255); fill-rule: nonzero; opacity: 1;" vector-effect="non-scaling-stroke"  transform=" translate(-5800.22, -8033.96)" d="M 5768 8063 C 5746 8057 5737 8031 5752 8013 C 5765 7997 5834 8000 5851 8017 C 5874 8040 5810 8075 5768 8063 z" stroke-linecap="round" />
</g>
		<g transform="matrix(0.13 0 0 -0.13 58.62 -386.61)"  >
<path style="stroke: none; stroke-width: 1; stroke-dasharray: none; stroke-linecap: butt; stroke-dashoffset: 0; stroke-linejoin: miter; stroke-miterlimit: 4; fill: rgb(255,255,255); fill-rule: nonzero; opacity: 1;" vector-effect="non-scaling-stroke"  transform=" translate(-5590.3, -8010.3)" d="M 5544 8036 C 5529 8024 5527 8018 5536 8003 C 5560 7964 5650 7960 5650 7999 C 5650 8042 5584 8065 5544 8036 z" stroke-linecap="round" />
</g>
		<g transform="matrix(0.13 0 0 -0.13 272.97 -370.53)"  >
<path style="stroke: none; stroke-width: 1; stroke-dasharray: none; stroke-linecap: butt; stroke-dashoffset: 0; stroke-linejoin: miter; stroke-miterlimit: 4; fill: rgb(255,255,255); fill-rule: nonzero; opacity: 1;" vector-effect="non-scaling-stroke"  transform=" translate(-7198.9, -7887.93)" d="M 7100 7984 C 7100 7964 7170 7861 7219 7810 C 7261 7766 7286 7765 7296 7806 C 7308 7852 7259 7924 7183 7976 C 7142 8004 7100 8008 7100 7984 z" stroke-linecap="round" />
</g>
		<g transform="matrix(0.13 0 0 -0.13 246.43 -360.48)"  >
<path style="stroke: none; stroke-width: 1; stroke-dasharray: none; stroke-linecap: butt; stroke-dashoffset: 0; stroke-linejoin: miter; stroke-miterlimit: 4; fill: rgb(255,255,255); fill-rule: nonzero; opacity: 1;" vector-effect="non-scaling-stroke"  transform=" translate(-6999.86, -7812.65)" d="M 6912 7908 C 6890 7886 6899 7864 6956 7802 C 7030 7720 7066 7694 7085 7710 C 7121 7740 7083 7832 7010 7894 C 6977 7922 6932 7928 6912 7908 z" stroke-linecap="round" />
</g>
		<g transform="matrix(0.13 0 0 -0.13 218.55 -351.45)"  >
<path style="stroke: none; stroke-width: 1; stroke-dasharray: none; stroke-linecap: butt; stroke-dashoffset: 0; stroke-linejoin: miter; stroke-miterlimit: 4; fill: rgb(255,255,255); fill-rule: nonzero; opacity: 1;" vector-effect="non-scaling-stroke"  transform=" translate(-6790.22, -7745.46)" d="M 6722 7818 C 6701 7797 6709 7775 6761 7716 C 6814 7657 6842 7647 6863 7681 C 6879 7706 6864 7742 6819 7788 C 6777 7830 6744 7840 6722 7818 z" stroke-linecap="round" />
</g>
		<g transform="matrix(0.13 0 0 -0.13 193.13 -341.4)"  >
<path style="stroke: none; stroke-width: 1; stroke-dasharray: none; stroke-linecap: butt; stroke-dashoffset: 0; stroke-linejoin: miter; stroke-miterlimit: 4; fill: rgb(255,255,255); fill-rule: nonzero; opacity: 1;" vector-effect="non-scaling-stroke"  transform=" translate(-6599.35, -7670.34)" d="M 6548 7739 C 6538 7734 6530 7720 6530 7708 C 6530 7677 6568 7622 6601 7605 C 6627 7591 6631 7591 6650 7612 C 6678 7642 6675 7665 6638 7704 C 6601 7743 6573 7754 6548 7739 z" stroke-linecap="round" />
</g>
		<g transform="matrix(0.13 0 0 -0.13 332.97 -239.6)"  >
<path style="stroke: none; stroke-width: 1; stroke-dasharray: none; stroke-linecap: butt; stroke-dashoffset: 0; stroke-linejoin: miter; stroke-miterlimit: 4; fill: rgb(255,255,255); fill-rule: nonzero; opacity: 1;" vector-effect="non-scaling-stroke"  transform=" translate(-7648.59, -6893.62)" d="M 7571 7491 C 7555 7481 7556 7472 7603 7287 C 7623 7212 7644 7115 7652 7072 C 7670 6962 7667 6596 7646 6445 C 7625 6289 7625 6290 7655 6290 C 7687 6290 7693 6306 7716 6446 C 7742 6604 7742 6976 7716 7115 C 7686 7279 7619 7489 7595 7497 C 7590 7498 7579 7496 7571 7491 z" stroke-linecap="round" />
</g>
		<g transform="matrix(0.13 0 0 -0.13 317.9 -230.9)"  >
<path style="stroke: none; stroke-width: 1; stroke-dasharray: none; stroke-linecap: butt; stroke-dashoffset: 0; stroke-linejoin: miter; stroke-miterlimit: 4; fill: rgb(255,255,255); fill-rule: nonzero; opacity: 1;" vector-effect="non-scaling-stroke"  transform=" translate(-7535.6, -6828.69)" d="M 7452 7412 C 7443 7405 7448 7378 7475 7289 C 7528 7116 7544 6989 7544 6755 C 7543 6577 7538 6506 7514 6296 L 7507 6238 L 7536 6242 C 7560 6244 7567 6252 7578 6284 C 7628 6438 7639 6819 7599 7061 C 7578 7193 7545 7311 7509 7383 C 7490 7420 7476 7427 7452 7412 z" stroke-linecap="round" />
</g>
		<g transform="matrix(0.13 0 0 -0.13 303.67 -220.07)"  >
<path style="stroke: none; stroke-width: 1; stroke-dasharray: none; stroke-linecap: butt; stroke-dashoffset: 0; stroke-linejoin: miter; stroke-miterlimit: 4; fill: rgb(255,255,255); fill-rule: nonzero; opacity: 1;" vector-effect="non-scaling-stroke"  transform=" translate(-7428.65, -6747.76)" d="M 7352 7318 C 7345 7309 7350 7274 7371 7195 C 7434 6961 7450 6743 7425 6490 C 7416 6399 7406 6290 7403 6247 L 7397 6168 L 7421 6172 C 7452 6176 7464 6212 7485 6362 C 7511 6545 7516 6795 7496 6928 C 7466 7127 7408 7317 7374 7327 C 7368 7329 7358 7325 7352 7318 z" stroke-linecap="round" />
</g>
		<g transform="matrix(0.13 0 0 -0.13 286.64 -217.7)"  >
<path style="stroke: none; stroke-width: 1; stroke-dasharray: none; stroke-linecap: butt; stroke-dashoffset: 0; stroke-linejoin: miter; stroke-miterlimit: 4; fill: rgb(255,255,255); fill-rule: nonzero; opacity: 1;" vector-effect="non-scaling-stroke"  transform=" translate(-7301, -6730)" d="M 7220 7290 C 7220 7279 7233 7222 7250 7163 C 7320 6907 7327 6630 7274 6203 C 7267 6151 7268 6150 7292 6150 C 7306 6150 7323 6157 7330 6165 C 7358 6199 7381 6399 7382 6615 C 7382 6844 7369 6964 7325 7129 C 7290 7259 7266 7310 7241 7310 C 7227 7310 7220 7304 7220 7290 z" stroke-linecap="round" />
</g>
		<g transform="matrix(0.13 0 0 -0.13 270.51 -209.52)"  >
<path style="stroke: none; stroke-width: 1; stroke-dasharray: none; stroke-linecap: butt; stroke-dashoffset: 0; stroke-linejoin: miter; stroke-miterlimit: 4; fill: rgb(255,255,255); fill-rule: nonzero; opacity: 1;" vector-effect="non-scaling-stroke"  transform=" translate(-7179.98, -6668.43)" d="M 7110 7250 C 7098 7243 7098 7234 7108 7193 C 7169 6944 7190 6797 7190 6619 C 7190 6518 7168 6272 7150 6169 C 7138 6102 7144 6080 7176 6080 C 7194 6080 7201 6088 7210 6118 C 7248 6253 7273 6679 7251 6840 C 7238 6938 7179 7183 7159 7225 C 7143 7257 7131 7264 7110 7250 z" stroke-linecap="round" />
</g>
		<g transform="matrix(0.13 0 0 -0.13 253.79 -205.31)"  >
<path style="stroke: none; stroke-width: 1; stroke-dasharray: none; stroke-linecap: butt; stroke-dashoffset: 0; stroke-linejoin: miter; stroke-miterlimit: 4; fill: rgb(255,255,255); fill-rule: nonzero; opacity: 1;" vector-effect="non-scaling-stroke"  transform=" translate(-7054.62, -6636.66)" d="M 6973 7203 C 6976 7187 6992 7122 7008 7057 C 7049 6897 7064 6774 7063 6595 C 7062 6465 7045 6249 7024 6099 C 7017 6049 7033 6030 7064 6053 C 7103 6082 7148 6457 7136 6655 C 7118 6952 7047 7230 6989 7230 C 6971 7230 6969 7225 6973 7203 z" stroke-linecap="round" />
</g>
		<g transform="matrix(0.13 0 0 -0.13 237.82 -197.73)"  >
<path style="stroke: none; stroke-width: 1; stroke-dasharray: none; stroke-linecap: butt; stroke-dashoffset: 0; stroke-linejoin: miter; stroke-miterlimit: 4; fill: rgb(255,255,255); fill-rule: nonzero; opacity: 1;" vector-effect="non-scaling-stroke"  transform=" translate(-6934.65, -6580.4)" d="M 6862 7138 C 6856 7129 6863 7084 6886 6992 C 6946 6755 6952 6468 6904 6142 C 6887 6026 6889 6007 6922 6012 C 6970 6019 6997 6172 7007 6495 C 7012 6663 7010 6701 6991 6819 C 6968 6958 6927 7115 6908 7137 C 6895 7153 6875 7154 6862 7138 z" stroke-linecap="round" />
</g>
		<g transform="matrix(0.13 0 0 -0.13 220.3 -192.36)"  >
<path style="stroke: none; stroke-width: 1; stroke-dasharray: none; stroke-linecap: butt; stroke-dashoffset: 0; stroke-linejoin: miter; stroke-miterlimit: 4; fill: rgb(255,255,255); fill-rule: nonzero; opacity: 1;" vector-effect="non-scaling-stroke"  transform=" translate(-6803.39, -6539.59)" d="M 6733 7133 C 6715 7126 6717 7109 6745 7016 C 6794 6853 6805 6762 6804 6515 C 6804 6348 6799 6247 6785 6145 C 6760 5957 6760 5945 6785 5945 C 6829 5945 6853 6058 6880 6385 C 6900 6624 6864 6895 6786 7081 C 6769 7122 6751 7139 6733 7133 z" stroke-linecap="round" />
</g>
		<g transform="matrix(0.13 0 0 -0.13 202.62 -185.65)"  >
<path style="stroke: none; stroke-width: 1; stroke-dasharray: none; stroke-linecap: butt; stroke-dashoffset: 0; stroke-linejoin: miter; stroke-miterlimit: 4; fill: rgb(255,255,255); fill-rule: nonzero; opacity: 1;" vector-effect="non-scaling-stroke"  transform=" translate(-6670.73, -6488.82)" d="M 6593 7084 C 6590 7075 6599 7026 6614 6975 C 6629 6923 6650 6819 6661 6743 C 6679 6626 6681 6577 6676 6425 C 6673 6326 6663 6191 6655 6125 C 6647 6059 6637 5977 6633 5942 L 6627 5878 L 6656 5882 C 6679 5884 6687 5892 6697 5920 C 6737 6046 6763 6479 6741 6678 C 6722 6850 6674 7044 6639 7086 C 6624 7105 6601 7104 6593 7084 z" stroke-linecap="round" />
</g>
		<g transform="matrix(0.13 0 0 -0.13 187.22 -175.85)"  >
<path style="stroke: none; stroke-width: 1; stroke-dasharray: none; stroke-linecap: butt; stroke-dashoffset: 0; stroke-linejoin: miter; stroke-miterlimit: 4; fill: rgb(255,255,255); fill-rule: nonzero; opacity: 1;" vector-effect="non-scaling-stroke"  transform=" translate(-6555.04, -6415.71)" d="M 6484 6995 C 6481 6987 6488 6940 6499 6891 C 6564 6613 6566 6244 6504 5929 C 6487 5840 6492 5818 6528 5822 C 6549 5824 6557 5833 6566 5866 C 6601 5986 6635 6371 6625 6535 C 6615 6694 6580 6868 6539 6968 C 6521 7010 6495 7023 6484 6995 z" stroke-linecap="round" />
</g>
		<g transform="matrix(0.13 0 0 -0.13 170.21 -166.02)"  >
<path style="stroke: none; stroke-width: 1; stroke-dasharray: none; stroke-linecap: butt; stroke-dashoffset: 0; stroke-linejoin: miter; stroke-miterlimit: 4; fill: rgb(255,255,255); fill-rule: nonzero; opacity: 1;" vector-effect="non-scaling-stroke"  transform=" translate(-6427.36, -6342.39)" d="M 6360 6902 C 6360 6893 6371 6831 6385 6765 C 6420 6596 6426 6414 6406 6167 C 6396 6059 6385 5944 6380 5912 C 6374 5881 6370 5834 6370 5808 C 6370 5763 6371 5761 6393 5769 C 6434 5784 6466 5929 6490 6214 C 6509 6438 6468 6816 6415 6896 C 6397 6924 6360 6928 6360 6902 z" stroke-linecap="round" />
</g>
		<g transform="matrix(0.13 0 0 -0.13 152.06 -160.35)"  >
<path style="stroke: none; stroke-width: 1; stroke-dasharray: none; stroke-linecap: butt; stroke-dashoffset: 0; stroke-linejoin: miter; stroke-miterlimit: 4; fill: rgb(255,255,255); fill-rule: nonzero; opacity: 1;" vector-effect="non-scaling-stroke"  transform=" translate(-6291.31, -6299.6)" d="M 6224 6875 C 6221 6867 6223 6846 6229 6828 C 6234 6810 6249 6743 6262 6680 C 6294 6518 6294 6218 6261 5980 C 6224 5717 6224 5710 6248 5710 C 6259 5710 6275 5717 6283 5725 C 6321 5763 6359 6067 6360 6335 C 6360 6573 6309 6854 6260 6880 C 6235 6893 6230 6893 6224 6875 z" stroke-linecap="round" />
</g>
		<g transform="matrix(0.13 0 0 -0.13 114.62 -147.77)"  >
<path style="stroke: none; stroke-width: 1; stroke-dasharray: none; stroke-linecap: butt; stroke-dashoffset: 0; stroke-linejoin: miter; stroke-miterlimit: 4; fill: rgb(255,255,255); fill-rule: nonzero; opacity: 1;" vector-effect="non-scaling-stroke"  transform=" translate(-6010.79, -6204.36)" d="M 5933 6803 C 5935 6787 5945 6748 5953 6715 C 5981 6613 5999 6488 6006 6354 C 6014 6208 5996 5857 5974 5735 C 5950 5593 5959 5549 6003 5598 C 6068 5669 6112 6178 6080 6478 C 6059 6674 6002 6830 5952 6830 C 5931 6830 5928 6826 5933 6803 z" stroke-linecap="round" />
</g>
		<g transform="matrix(0.13 0 0 -0.13 134.3 -149.12)"  >
<path style="stroke: none; stroke-width: 1; stroke-dasharray: none; stroke-linecap: butt; stroke-dashoffset: 0; stroke-linejoin: miter; stroke-miterlimit: 4; fill: rgb(255,255,255); fill-rule: nonzero; opacity: 1;" vector-effect="non-scaling-stroke"  transform=" translate(-6158.04, -6216)" d="M 6106 6771 C 6103 6766 6109 6722 6120 6673 C 6148 6546 6163 6362 6155 6245 C 6144 6060 6120 5836 6103 5757 C 6088 5684 6088 5678 6104 5662 C 6171 5595 6223 5871 6224 6300 C 6225 6516 6223 6542 6201 6625 C 6169 6750 6155 6780 6131 6780 C 6120 6780 6109 6776 6106 6771 z" stroke-linecap="round" />
</g>
		<g transform="matrix(0.13 0 0 -0.13 -163.77 -117.06)"  >
<path style="stroke: none; stroke-width: 1; stroke-dasharray: none; stroke-linecap: butt; stroke-dashoffset: 0; stroke-linejoin: miter; stroke-miterlimit: 4; fill: rgb(255,255,255); fill-rule: nonzero; opacity: 1;" vector-effect="non-scaling-stroke"  transform=" translate(-3921.32, -5988.48)" d="M 3905 6007 C 3898 5971 3910 5940 3931 5940 C 3945 5940 3941 6004 3926 6025 C 3913 6044 3911 6042 3905 6007 z" stroke-linecap="round" />
</g>
		<g transform="matrix(0.13 0 0 -0.13 336.43 -5.51)"  >
<path style="stroke: none; stroke-width: 1; stroke-dasharray: none; stroke-linecap: butt; stroke-dashoffset: 0; stroke-linejoin: miter; stroke-miterlimit: 4; fill: rgb(255,255,255); fill-rule: nonzero; opacity: 1;" vector-effect="non-scaling-stroke"  transform=" translate(-7672.88, -5146.24)" d="M 7668 5398 C 7659 5381 7654 5309 7652 5129 C 7649 4901 7650 4882 7666 4876 C 7676 4872 7687 4875 7692 4882 C 7699 4894 7693 5410 7685 5418 C 7683 5420 7676 5411 7668 5398 z" stroke-linecap="round" />
</g>
		<g transform="matrix(0.13 0 0 -0.13 95.84 135.64)"  >
<path style="stroke: none; stroke-width: 1; stroke-dasharray: none; stroke-linecap: butt; stroke-dashoffset: 0; stroke-linejoin: miter; stroke-miterlimit: 4; fill: rgb(255,255,255); fill-rule: nonzero; opacity: 1;" vector-effect="non-scaling-stroke"  transform=" translate(-5868.7, -4085.15)" d="M 5851 4443 C 5838 4417 5833 3733 5847 3719 C 5866 3700 5889 3721 5895 3763 C 5898 3786 5900 3951 5898 4130 C 5895 4425 5893 4455 5878 4458 C 5869 4460 5857 4453 5851 4443 z" stroke-linecap="round" />
</g>
		<g transform="matrix(0.13 0 0 -0.13 -279.99 68.92)"  >
<path style="stroke: none; stroke-width: 1; stroke-dasharray: none; stroke-linecap: butt; stroke-dashoffset: 0; stroke-linejoin: miter; stroke-miterlimit: 4; fill: rgb(255,255,255); fill-rule: nonzero; opacity: 1;" vector-effect="non-scaling-stroke"  transform=" translate(-3050, -4590.5)" d="M 3020 4591 L 3020 4420 L 3050 4420 L 3080 4420 L 3078 4588 L 3075 4755 L 3048 4758 L 3020 4761 L 3020 4591 z" stroke-linecap="round" />
</g>
		<g transform="matrix(0.13 0 0 -0.13 -263.77 69.03)"  >
<path style="stroke: none; stroke-width: 1; stroke-dasharray: none; stroke-linecap: butt; stroke-dashoffset: 0; stroke-linejoin: miter; stroke-miterlimit: 4; fill: rgb(255,255,255); fill-rule: nonzero; opacity: 1;" vector-effect="non-scaling-stroke"  transform=" translate(-3171.6, -4590)" d="M 3157 4743 C 3146 4724 3139 4582 3146 4510 C 3152 4434 3154 4430 3176 4430 L 3200 4430 L 3200 4590 C 3200 4742 3199 4750 3181 4750 C 3170 4750 3159 4747 3157 4743 z" stroke-linecap="round" />
</g>
		<g transform="matrix(0.13 0 0 -0.13 -248.57 68.64)"  >
<path style="stroke: none; stroke-width: 1; stroke-dasharray: none; stroke-linecap: butt; stroke-dashoffset: 0; stroke-linejoin: miter; stroke-miterlimit: 4; fill: rgb(255,255,255); fill-rule: nonzero; opacity: 1;" vector-effect="non-scaling-stroke"  transform=" translate(-3285.48, -4593.3)" d="M 3275 4724 C 3261 4710 3259 4689 3262 4589 C 3265 4474 3275 4439 3299 4454 C 3313 4463 3314 4726 3301 4735 C 3296 4738 3284 4733 3275 4724 z" stroke-linecap="round" />
</g>
		<g transform="matrix(0.13 0 0 -0.13 -231.23 70.36)"  >
<path style="stroke: none; stroke-width: 1; stroke-dasharray: none; stroke-linecap: butt; stroke-dashoffset: 0; stroke-linejoin: miter; stroke-miterlimit: 4; fill: rgb(255,255,255); fill-rule: nonzero; opacity: 1;" vector-effect="non-scaling-stroke"  transform=" translate(-3415.58, -4580.81)" d="M 3397 4703 C 3388 4695 3390 4513 3399 4480 C 3403 4466 3414 4454 3423 4452 C 3438 4449 3440 4461 3440 4579 C 3440 4699 3439 4710 3422 4710 C 3412 4710 3400 4707 3397 4703 z" stroke-linecap="round" />
</g>
		<g transform="matrix(0.13 0 0 -0.13 -216.73 70.35)"  >
<path style="stroke: none; stroke-width: 1; stroke-dasharray: none; stroke-linecap: butt; stroke-dashoffset: 0; stroke-linejoin: miter; stroke-miterlimit: 4; fill: rgb(255,255,255); fill-rule: nonzero; opacity: 1;" vector-effect="non-scaling-stroke"  transform=" translate(-3524.29, -4580.81)" d="M 3506 4694 C 3493 4661 3500 4484 3514 4464 C 3522 4454 3532 4449 3537 4453 C 3541 4458 3546 4517 3548 4586 C 3551 4704 3551 4710 3532 4710 C 3521 4710 3509 4703 3506 4694 z" stroke-linecap="round" />
</g>
		<g transform="matrix(0.13 0 0 -0.13 -200.57 70.57)"  >
<path style="stroke: none; stroke-width: 1; stroke-dasharray: none; stroke-linecap: butt; stroke-dashoffset: 0; stroke-linejoin: miter; stroke-miterlimit: 4; fill: rgb(255,255,255); fill-rule: nonzero; opacity: 1;" vector-effect="non-scaling-stroke"  transform=" translate(-3645.5, -4579.18)" d="M 3627 4704 C 3623 4700 3620 4641 3620 4573 L 3620 4450 L 3645 4450 L 3671 4450 L 3668 4577 C 3665 4683 3662 4705 3650 4708 C 3641 4709 3631 4708 3627 4704 z" stroke-linecap="round" />
</g>
		<g transform="matrix(0.13 0 0 -0.13 -184.96 71.9)"  >
<path style="stroke: none; stroke-width: 1; stroke-dasharray: none; stroke-linecap: butt; stroke-dashoffset: 0; stroke-linejoin: miter; stroke-miterlimit: 4; fill: rgb(255,255,255); fill-rule: nonzero; opacity: 1;" vector-effect="non-scaling-stroke"  transform=" translate(-3762.5, -4569.54)" d="M 3752 4678 C 3744 4670 3740 4629 3740 4557 C 3740 4450 3740 4449 3763 4452 C 3784 4455 3785 4458 3785 4569 C 3785 4682 3778 4704 3752 4678 z" stroke-linecap="round" />
</g>
		<g transform="matrix(0.13 0 0 -0.13 -168.06 73.89)"  >
<path style="stroke: none; stroke-width: 1; stroke-dasharray: none; stroke-linecap: butt; stroke-dashoffset: 0; stroke-linejoin: miter; stroke-miterlimit: 4; fill: rgb(255,255,255); fill-rule: nonzero; opacity: 1;" vector-effect="non-scaling-stroke"  transform=" translate(-3889.48, -4554.72)" d="M 3872 4658 C 3864 4650 3860 4611 3860 4542 C 3860 4441 3860 4439 3882 4442 C 3901 4444 3906 4454 3913 4494 C 3925 4569 3918 4664 3900 4668 C 3891 4669 3879 4665 3872 4658 z" stroke-linecap="round" />
</g>
		<g transform="matrix(0.13 0 0 -0.13 -151.99 75.91)"  >
<path style="stroke: none; stroke-width: 1; stroke-dasharray: none; stroke-linecap: butt; stroke-dashoffset: 0; stroke-linejoin: miter; stroke-miterlimit: 4; fill: rgb(255,255,255); fill-rule: nonzero; opacity: 1;" vector-effect="non-scaling-stroke"  transform=" translate(-4009.86, -4539.86)" d="M 3995 4628 C 3986 4598 3980 4490 3986 4466 C 3990 4450 3999 4440 4010 4440 C 4024 4440 4028 4454 4033 4531 C 4037 4581 4037 4626 4034 4631 C 4026 4644 4000 4642 3995 4628 z" stroke-linecap="round" />
</g>
		<g transform="matrix(0.13 0 0 -0.13 -136.23 79.14)"  >
<path style="stroke: none; stroke-width: 1; stroke-dasharray: none; stroke-linecap: butt; stroke-dashoffset: 0; stroke-linejoin: miter; stroke-miterlimit: 4; fill: rgb(255,255,255); fill-rule: nonzero; opacity: 1;" vector-effect="non-scaling-stroke"  transform=" translate(-4127.83, -4516.61)" d="M 4115 4537 C 4106 4481 4111 4455 4130 4455 C 4142 4455 4145 4468 4145 4514 C 4145 4587 4125 4602 4115 4537 z" stroke-linecap="round" />
</g>
		<g transform="matrix(0.13 0 0 -0.13 -184.13 153.6)"  >
<path style="stroke: none; stroke-width: 1; stroke-dasharray: none; stroke-linecap: butt; stroke-dashoffset: 0; stroke-linejoin: miter; stroke-miterlimit: 4; fill: rgb(255,255,255); fill-rule: nonzero; opacity: 1;" vector-effect="non-scaling-stroke"  transform=" translate(-3796.26, -3950.13)" d="M 3647 4333 C 3610 4329 3609 4328 3612 4292 C 3615 4257 3618 4254 3670 4237 C 3700 4227 3806 4205 3905 4189 C 4004 4173 4148 4149 4225 4135 C 4302 4121 4388 4110 4415 4110 L 4465 4109 L 4430 4091 C 4365 4056 3873 3934 3723 3914 L 3672 3908 L 3662 3943 C 3654 3970 3656 3992 3667 4030 C 3689 4106 3678 4145 3620 4202 C 3554 4265 3491 4284 3345 4285 C 3198 4285 3119 4259 3060 4193 C 3015 4141 3002 4095 3019 4040 C 3033 3994 3033 3887 3020 3838 C 3002 3774 2983 3760 2858 3724 C 2685 3675 2668 3666 2672 3633 C 2674 3614 2681 3604 2695 3602 C 2706 3601 2778 3620 2854 3645 L 2993 3690 L 3037 3649 C 3118 3575 3150 3566 3350 3566 C 3515 3565 3528 3566 3579 3589 C 3632 3613 3634 3613 3680 3597 C 3733 3578 3786 3575 3795 3590 C 3798 3595 3781 3613 3758 3629 C 3734 3646 3710 3664 3705 3668 C 3699 3673 3696 3696 3698 3718 C 3702 3759 3703 3760 3754 3775 C 3809 3791 4134 3863 4370 3911 C 4450 3927 4537 3947 4564 3955 C 4641 3978 4671 3974 4774 3924 C 4845 3890 4876 3879 4895 3884 L 4921 3891 L 4890 3928 C 4874 3948 4860 3969 4860 3975 C 4860 3995 4801 4057 4748 4093 C 4709 4120 4672 4135 4605 4150 C 4555 4160 4490 4180 4460 4193 C 4339 4246 4005 4310 3720 4333 C 3701 4335 3668 4335 3647 4333 z M 3486 4134 C 3532 4112 3529 4093 3474 4069 C 3396 4034 3231 4043 3175 4084 C 3157 4097 3157 4100 3170 4114 C 3194 4138 3248 4148 3353 4149 C 3425 4150 3461 4146 3486 4134 z M 3225 3915 C 3258 3907 3311 3901 3342 3900 C 3409 3900 3407 3903 3412 3775 L 3415 3685 L 3390 3685 C 3365 3685 3365 3686 3362 3788 C 3358 3919 3340 3923 3340 3792 C 3340 3656 3325 3646 3205 3700 L 3137 3730 L 3144 3798 C 3147 3835 3150 3880 3150 3898 C 3150 3935 3147 3934 3225 3915 z M 3525 3833 C 3533 3733 3527 3708 3496 3702 C 3482 3699 3480 3711 3480 3798 C 3480 3906 3485 3930 3505 3930 C 3514 3930 3520 3902 3525 3833 z" stroke-linecap="round" />
</g>
		<g transform="matrix(0.13 0 0 -0.13 -360.61 172.18)"  >
<path style="stroke: none; stroke-width: 1; stroke-dasharray: none; stroke-linecap: butt; stroke-dashoffset: 0; stroke-linejoin: miter; stroke-miterlimit: 4; fill: rgb(255,255,255); fill-rule: nonzero; opacity: 1;" vector-effect="non-scaling-stroke"  transform=" translate(-2454.95, -3818.91)" d="M 2759 3876 C 2756 3873 2633 3862 2485 3850 C 2196 3828 2064 3814 2049 3805 C 2032 3794 2040 3770 2063 3761 C 2087 3752 2314 3763 2470 3781 C 2654 3802 2870 3853 2870 3875 C 2870 3881 2765 3882 2759 3876 z" stroke-linecap="round" />
</g>
		<g transform="matrix(0.13 0 0 -0.13 -375.15 196.86)"  >
<path style="stroke: none; stroke-width: 1; stroke-dasharray: none; stroke-linecap: butt; stroke-dashoffset: 0; stroke-linejoin: miter; stroke-miterlimit: 4; fill: rgb(255,255,255); fill-rule: nonzero; opacity: 1;" vector-effect="non-scaling-stroke"  transform=" translate(-2335.86, -3635.19)" d="M 2328 3633 C 2335 3630 2344 3631 2347 3634 C 2351 3637 2345 3640 2334 3639 C 2323 3639 2320 3636 2328 3633 z" stroke-linecap="round" />
</g>
		<g transform="matrix(0.13 0 0 -0.13 269.57 158.3)"  >
<path style="stroke: none; stroke-width: 1; stroke-dasharray: none; stroke-linecap: butt; stroke-dashoffset: 0; stroke-linejoin: miter; stroke-miterlimit: 4; fill: rgb(255,255,255); fill-rule: nonzero; opacity: 1;" vector-effect="non-scaling-stroke"  transform=" translate(-7174.87, -3921.76)" d="M 7253 4030 C 7236 4026 7201 4005 7175 3982 C 7150 3960 7117 3939 7102 3935 C 7034 3919 6995 3863 7026 3829 C 7058 3793 7121 3813 7149 3868 C 7156 3880 7168 3890 7178 3890 C 7219 3890 7277 3915 7308 3946 C 7336 3974 7339 3982 7330 3999 C 7315 4028 7290 4038 7253 4030 z" stroke-linecap="round" />
</g>
		<g transform="matrix(0.13 0 0 -0.13 237.25 177.91)"  >
<path style="stroke: none; stroke-width: 1; stroke-dasharray: none; stroke-linecap: butt; stroke-dashoffset: 0; stroke-linejoin: miter; stroke-miterlimit: 4; fill: rgb(255,255,255); fill-rule: nonzero; opacity: 1;" vector-effect="non-scaling-stroke"  transform=" translate(-6930.02, -3776.03)" d="M 6885 3810 C 6862 3785 6871 3748 6906 3730 C 6959 3701 7014 3766 6974 3811 C 6952 3836 6908 3835 6885 3810 z" stroke-linecap="round" />
</g>
		<g transform="matrix(0.13 0 0 -0.13 213.83 189.24)"  >
<path style="stroke: none; stroke-width: 1; stroke-dasharray: none; stroke-linecap: butt; stroke-dashoffset: 0; stroke-linejoin: miter; stroke-miterlimit: 4; fill: rgb(255,255,255); fill-rule: nonzero; opacity: 1;" vector-effect="non-scaling-stroke"  transform=" translate(-6754.37, -3690.91)" d="M 6735 3740 C 6702 3727 6687 3703 6694 3675 C 6702 3643 6733 3627 6771 3635 C 6820 3646 6832 3697 6794 3735 C 6777 3752 6765 3753 6735 3740 z" stroke-linecap="round" />
</g>
		<g transform="matrix(0.13 0 0 -0.13 179.46 210.44)"  >
<path style="stroke: none; stroke-width: 1; stroke-dasharray: none; stroke-linecap: butt; stroke-dashoffset: 0; stroke-linejoin: miter; stroke-miterlimit: 4; fill: rgb(255,255,255); fill-rule: nonzero; opacity: 1;" vector-effect="non-scaling-stroke"  transform=" translate(-6497.57, -3531.67)" d="M 6494 3593 C 6419 3572 6376 3508 6412 3472 C 6456 3428 6616 3527 6594 3583 C 6586 3605 6550 3608 6494 3593 z" stroke-linecap="round" />
</g>
		<g transform="matrix(0.13 0 0 -0.13 110.8 248.71)"  >
<path style="stroke: none; stroke-width: 1; stroke-dasharray: none; stroke-linecap: butt; stroke-dashoffset: 0; stroke-linejoin: miter; stroke-miterlimit: 4; fill: rgb(255,255,255); fill-rule: nonzero; opacity: 1;" vector-effect="non-scaling-stroke"  transform=" translate(-5982.11, -3244.55)" d="M 5942 3292 C 5880 3234 5895 3170 5970 3170 C 6049 3170 6090 3248 6037 3298 C 6006 3328 5978 3326 5942 3292 z" stroke-linecap="round" />
</g>
		<g transform="matrix(0.13 0 0 -0.13 28.37 261.08)"  >
<path style="stroke: none; stroke-width: 1; stroke-dasharray: none; stroke-linecap: butt; stroke-dashoffset: 0; stroke-linejoin: miter; stroke-miterlimit: 4; fill: rgb(255,255,255); fill-rule: nonzero; opacity: 1;" vector-effect="non-scaling-stroke"  transform=" translate(-5364.74, -3152.24)" d="M 5360 3190 C 5319 3168 5243 3104 5250 3097 C 5253 3094 5278 3096 5305 3100 C 5333 3105 5376 3109 5402 3109 C 5427 3110 5455 3113 5464 3116 C 5488 3125 5484 3176 5458 3194 C 5429 3215 5403 3214 5360 3190 z" stroke-linecap="round" />
</g>
		<g transform="matrix(0.13 0 0 -0.13 15.85 295.2)"  >
<path style="stroke: none; stroke-width: 1; stroke-dasharray: none; stroke-linecap: butt; stroke-dashoffset: 0; stroke-linejoin: miter; stroke-miterlimit: 4; fill: rgb(255,255,255); fill-rule: nonzero; opacity: 1;" vector-effect="non-scaling-stroke"  transform=" translate(-5269.91, -2896.13)" d="M 5230 2931 L 5195 2902 L 5229 2866 C 5267 2827 5299 2820 5322 2848 C 5346 2875 5350 2897 5339 2930 C 5324 2971 5278 2972 5230 2931 z" stroke-linecap="round" />
</g>
		<g transform="matrix(0.13 0 0 -0.13 -12.12 308.78)"  >
<path style="stroke: none; stroke-width: 1; stroke-dasharray: none; stroke-linecap: butt; stroke-dashoffset: 0; stroke-linejoin: miter; stroke-miterlimit: 4; fill: rgb(255,255,255); fill-rule: nonzero; opacity: 1;" vector-effect="non-scaling-stroke"  transform=" translate(-5061.17, -2793.53)" d="M 5075 2854 C 5031 2835 4989 2816 4982 2813 C 4975 2810 4962 2794 4954 2778 C 4940 2751 4940 2746 4955 2724 C 4967 2705 4979 2700 5014 2700 C 5091 2700 5188 2795 5178 2861 C 5176 2873 5171 2885 5165 2887 C 5160 2888 5119 2874 5075 2854 z" stroke-linecap="round" />
</g>
		<g transform="matrix(0.13 0 0 -0.13 -472.87 130.67)"  >
<path style="stroke: none; stroke-width: 1; stroke-dasharray: none; stroke-linecap: butt; stroke-dashoffset: 0; stroke-linejoin: miter; stroke-miterlimit: 4; fill: rgb(255,255,255); fill-rule: nonzero; opacity: 1;" vector-effect="non-scaling-stroke"  transform=" translate(-1603.47, -4128.53)" d="M 1590 4238 C 1584 4225 1576 4188 1572 4155 C 1566 4108 1568 4088 1582 4062 C 1603 4020 1620 4000 1633 4000 C 1640 4000 1640 4004 1632 4012 C 1624 4020 1620 4062 1620 4136 C 1620 4248 1610 4283 1590 4238 z" stroke-linecap="round" />
</g>
		<g transform="matrix(0.13 0 0 -0.13 -446.05 216.31)"  >
<path style="stroke: none; stroke-width: 1; stroke-dasharray: none; stroke-linecap: butt; stroke-dashoffset: 0; stroke-linejoin: miter; stroke-miterlimit: 4; fill: rgb(255,255,255); fill-rule: nonzero; opacity: 1;" vector-effect="non-scaling-stroke"  transform=" translate(-1810, -3485.8)" d="M 1560 3617 C 1560 3609 1570 3594 1583 3583 C 1622 3548 1772 3457 1870 3410 C 2042 3326 2060 3323 2060 3383 C 2060 3421 2058 3422 1950 3456 C 1889 3475 1745 3544 1659 3596 C 1600 3631 1560 3640 1560 3617 z" stroke-linecap="round" />
</g>
		<g transform="matrix(0.13 0 0 -0.13 -455.1 231.97)"  >
<path style="stroke: none; stroke-width: 1; stroke-dasharray: none; stroke-linecap: butt; stroke-dashoffset: 0; stroke-linejoin: miter; stroke-miterlimit: 4; fill: rgb(255,255,255); fill-rule: nonzero; opacity: 1;" vector-effect="non-scaling-stroke"  transform=" translate(-1739.62, -3369.53)" d="M 1590 3451 C 1590 3438 1605 3419 1628 3403 C 1685 3362 1879 3266 1888 3274 C 1892 3279 1886 3289 1875 3296 C 1848 3316 1686 3417 1633 3447 C 1591 3471 1590 3471 1590 3451 z" stroke-linecap="round" />
</g>
		<g transform="matrix(0.13 0 0 -0.13 -158 277.32)"  >
<path style="stroke: none; stroke-width: 1; stroke-dasharray: none; stroke-linecap: butt; stroke-dashoffset: 0; stroke-linejoin: miter; stroke-miterlimit: 4; fill: rgb(255,255,255); fill-rule: nonzero; opacity: 1;" vector-effect="non-scaling-stroke"  transform=" translate(-3965.06, -3024.41)" d="M 3937 3283 C 3928 3234 3928 2767 3936 2746 C 3940 2736 3954 2730 3971 2730 L 4000 2730 L 3998 3023 L 3995 3315 L 3969 3318 C 3946 3321 3942 3317 3937 3283 z" stroke-linecap="round" />
</g>
		<g transform="matrix(0.13 0 0 -0.13 -454.04 255.19)"  >
<path style="stroke: none; stroke-width: 1; stroke-dasharray: none; stroke-linecap: butt; stroke-dashoffset: 0; stroke-linejoin: miter; stroke-miterlimit: 4; fill: rgb(255,255,255); fill-rule: nonzero; opacity: 1;" vector-effect="non-scaling-stroke"  transform=" translate(-1747.62, -3195.47)" d="M 1597 3270 C 1604 3243 1657 3198 1732 3156 C 1792 3123 1887 3093 1898 3105 C 1907 3114 1867 3151 1825 3172 C 1803 3183 1763 3208 1736 3227 C 1651 3287 1587 3307 1597 3270 z" stroke-linecap="round" />
</g>
		<g transform="matrix(0.13 0 0 -0.13 -178.09 280.06)"  >
<path style="stroke: none; stroke-width: 1; stroke-dasharray: none; stroke-linecap: butt; stroke-dashoffset: 0; stroke-linejoin: miter; stroke-miterlimit: 4; fill: rgb(255,255,255); fill-rule: nonzero; opacity: 1;" vector-effect="non-scaling-stroke"  transform=" translate(-3814.36, -3004.39)" d="M 3787 3274 C 3778 3265 3777 2768 3786 2746 C 3789 2737 3803 2730 3816 2730 C 3849 2730 3851 2754 3848 3035 L 3845 3275 L 3820 3278 C 3806 3280 3791 3278 3787 3274 z" stroke-linecap="round" />
</g>
		<g transform="matrix(0.13 0 0 -0.13 -338.8 250.66)"  >
<path style="stroke: none; stroke-width: 1; stroke-dasharray: none; stroke-linecap: butt; stroke-dashoffset: 0; stroke-linejoin: miter; stroke-miterlimit: 4; fill: rgb(255,255,255); fill-rule: nonzero; opacity: 1;" vector-effect="non-scaling-stroke"  transform=" translate(-2610.61, -3230.86)" d="M 2538 3264 C 2516 3257 2505 3221 2519 3207 C 2526 3200 2567 3195 2618 3195 C 2699 3195 2705 3197 2708 3216 C 2710 3227 2705 3242 2697 3249 C 2681 3261 2566 3272 2538 3264 z" stroke-linecap="round" />
</g>
		<g transform="matrix(0.13 0 0 -0.13 -199.13 282.91)"  >
<path style="stroke: none; stroke-width: 1; stroke-dasharray: none; stroke-linecap: butt; stroke-dashoffset: 0; stroke-linejoin: miter; stroke-miterlimit: 4; fill: rgb(255,255,255); fill-rule: nonzero; opacity: 1;" vector-effect="non-scaling-stroke"  transform=" translate(-3656.39, -2983.33)" d="M 3644 3242 C 3636 3237 3631 3158 3629 2988 C 3625 2727 3629 2702 3668 2726 C 3683 2736 3685 2762 3685 2991 C 3685 3209 3683 3245 3670 3247 C 3662 3249 3650 3247 3644 3242 z" stroke-linecap="round" />
</g>
		<g transform="matrix(0.13 0 0 -0.13 -219.41 261.45)"  >
<path style="stroke: none; stroke-width: 1; stroke-dasharray: none; stroke-linecap: butt; stroke-dashoffset: 0; stroke-linejoin: miter; stroke-miterlimit: 4; fill: rgb(255,255,255); fill-rule: nonzero; opacity: 1;" vector-effect="non-scaling-stroke"  transform=" translate(-3504.18, -3149.88)" d="M 3492 3178 C 3477 3163 3476 3124 3490 3115 C 3508 3104 3531 3131 3528 3158 C 3525 3187 3510 3196 3492 3178 z" stroke-linecap="round" />
</g>
		<g transform="matrix(0.13 0 0 -0.13 -424.41 279.61)"  >
<path style="stroke: none; stroke-width: 1; stroke-dasharray: none; stroke-linecap: butt; stroke-dashoffset: 0; stroke-linejoin: miter; stroke-miterlimit: 4; fill: rgb(255,255,255); fill-rule: nonzero; opacity: 1;" vector-effect="non-scaling-stroke"  transform=" translate(-1966.37, -3014.25)" d="M 1956 3016 C 1959 3007 1967 3000 1972 3000 C 1985 3000 1977 3023 1962 3028 C 1955 3030 1952 3026 1956 3016 z" stroke-linecap="round" />
</g>
		<g transform="matrix(0.13 0 0 -0.13 225.9 258)"  >
<path style="stroke: none; stroke-width: 1; stroke-dasharray: none; stroke-linecap: butt; stroke-dashoffset: 0; stroke-linejoin: miter; stroke-miterlimit: 4; fill: rgb(255,255,255); fill-rule: nonzero; opacity: 1;" vector-effect="non-scaling-stroke"  transform=" translate(-6844.27, -3172.5)" d="M 6827 3311 C 6804 3260 6803 3044 6824 3014 C 6864 2960 6892 3105 6874 3278 C 6866 3351 6849 3362 6827 3311 z" stroke-linecap="round" />
</g>
		<g transform="matrix(0.13 0 0 -0.13 -67.59 -300.13)"  >
<path style="stroke: none; stroke-width: 1; stroke-dasharray: none; stroke-linecap: butt; stroke-dashoffset: 0; stroke-linejoin: miter; stroke-miterlimit: 4; fill: rgb(255,255,255); fill-rule: nonzero; opacity: 1;" vector-effect="non-scaling-stroke"  transform=" translate(-4643.04, -7361.22)" d="M 4616 7404 C 4599 7360 4624 7289 4651 7305 C 4664 7314 4681 7386 4674 7404 C 4666 7425 4624 7425 4616 7404 z" stroke-linecap="round" />
</g>
		<g transform="matrix(0.13 0 0 -0.13 -242.03 -252.27)"  >
<path style="stroke: none; stroke-width: 1; stroke-dasharray: none; stroke-linecap: butt; stroke-dashoffset: 0; stroke-linejoin: miter; stroke-miterlimit: 4; fill: rgb(255,255,255); fill-rule: nonzero; opacity: 1;" vector-effect="non-scaling-stroke"  transform=" translate(-3335.58, -7001.08)" d="M 3316 7081 C 3307 7064 3300 7039 3300 7025 C 3300 7010 3293 6992 3285 6984 C 3264 6963 3266 6913 3288 6901 C 3311 6889 3323 6897 3343 6935 C 3351 6952 3367 6974 3379 6984 C 3418 7019 3402 7090 3353 7104 C 3335 7110 3328 7105 3316 7081 z" stroke-linecap="round" />
</g>
		<g transform="matrix(0.13 0 0 -0.13 -75.86 -172.63)"  >
<path style="stroke: none; stroke-width: 1; stroke-dasharray: none; stroke-linecap: butt; stroke-dashoffset: 0; stroke-linejoin: miter; stroke-miterlimit: 4; fill: rgb(255,255,255); fill-rule: nonzero; opacity: 1;" vector-effect="non-scaling-stroke"  transform=" translate(-4581.93, -6404.57)" d="M 4547 6460 C 4514 6434 4507 6410 4520 6374 C 4533 6340 4546 6330 4580 6330 C 4623 6330 4650 6356 4650 6398 C 4650 6472 4600 6502 4547 6460 z" stroke-linecap="round" />
</g>
		<g transform="matrix(0.13 0 0 -0.13 -47.23 -169.32)"  >
<path style="stroke: none; stroke-width: 1; stroke-dasharray: none; stroke-linecap: butt; stroke-dashoffset: 0; stroke-linejoin: miter; stroke-miterlimit: 4; fill: rgb(255,255,255); fill-rule: nonzero; opacity: 1;" vector-effect="non-scaling-stroke"  transform=" translate(-4796.32, -6379.88)" d="M 4756 6434 C 4747 6425 4740 6402 4740 6380 C 4740 6316 4789 6289 4830 6330 C 4861 6361 4860 6405 4828 6433 C 4803 6454 4776 6455 4756 6434 z" stroke-linecap="round" />
</g>
		<g transform="matrix(0.13 0 0 -0.13 -89.77 -114.66)"  >
<path style="stroke: none; stroke-width: 1; stroke-dasharray: none; stroke-linecap: butt; stroke-dashoffset: 0; stroke-linejoin: miter; stroke-miterlimit: 4; fill: rgb(255,255,255); fill-rule: nonzero; opacity: 1;" vector-effect="non-scaling-stroke"  transform=" translate(-4476.46, -5967.5)" d="M 4467 6100 C 4455 6033 4448 5800 4457 5800 C 4471 5800 4500 5929 4500 5986 C 4500 6013 4494 6058 4486 6085 L 4473 6135 L 4467 6100 z" stroke-linecap="round" />
</g>
		<g transform="matrix(0.13 0 0 -0.13 -278.04 -46.57)"  >
<path style="stroke: none; stroke-width: 1; stroke-dasharray: none; stroke-linecap: butt; stroke-dashoffset: 0; stroke-linejoin: miter; stroke-miterlimit: 4; fill: rgb(255,255,255); fill-rule: nonzero; opacity: 1;" vector-effect="non-scaling-stroke"  transform=" translate(-3065.48, -5450.02)" d="M 3018 5879 C 3001 5870 3000 5840 3001 5467 C 3002 5246 3005 5054 3009 5040 C 3015 5019 3023 5014 3057 5012 C 3130 5007 3129 4998 3130 5458 C 3131 5759 3129 5865 3120 5876 C 3106 5892 3044 5894 3018 5879 z" stroke-linecap="round" />
</g>
		<g transform="matrix(0.13 0 0 -0.13 470.4 -66.01)"  >
<path style="stroke: none; stroke-width: 1; stroke-dasharray: none; stroke-linecap: butt; stroke-dashoffset: 0; stroke-linejoin: miter; stroke-miterlimit: 4; fill: rgb(255,255,255); fill-rule: nonzero; opacity: 1;" vector-effect="non-scaling-stroke"  transform=" translate(-8678.57, -5605.22)" d="M 8642 5650 C 8613 5623 8614 5589 8645 5560 C 8666 5540 8673 5538 8695 5548 C 8732 5565 8746 5601 8729 5636 C 8711 5673 8673 5679 8642 5650 z" stroke-linecap="round" />
</g>
		<g transform="matrix(0.13 0 0 -0.13 -474.56 -4.03)"  >
<path style="stroke: none; stroke-width: 1; stroke-dasharray: none; stroke-linecap: butt; stroke-dashoffset: 0; stroke-linejoin: miter; stroke-miterlimit: 4; fill: rgb(255,255,255); fill-rule: nonzero; opacity: 1;" vector-effect="non-scaling-stroke"  transform=" translate(-1591.45, -5140.25)" d="M 1556 5189 C 1523 5163 1522 5127 1555 5095 C 1585 5064 1592 5064 1626 5093 C 1657 5120 1661 5161 1635 5190 C 1612 5216 1589 5215 1556 5189 z" stroke-linecap="round" />
</g>
		<g transform="matrix(0.13 0 0 -0.13 467.97 18.01)"  >
<path style="stroke: none; stroke-width: 1; stroke-dasharray: none; stroke-linecap: butt; stroke-dashoffset: 0; stroke-linejoin: miter; stroke-miterlimit: 4; fill: rgb(255,255,255); fill-rule: nonzero; opacity: 1;" vector-effect="non-scaling-stroke"  transform=" translate(-8660.65, -4975)" d="M 8616 5019 C 8585 4994 8583 4972 8611 4936 C 8624 4919 8641 4910 8660 4910 C 8689 4910 8730 4949 8730 4977 C 8730 4997 8684 5040 8662 5040 C 8651 5040 8631 5031 8616 5019 z" stroke-linecap="round" />
</g>
		<g transform="matrix(0.13 0 0 -0.13 428.53 19.96)"  >
<path style="stroke: none; stroke-width: 1; stroke-dasharray: none; stroke-linecap: butt; stroke-dashoffset: 0; stroke-linejoin: miter; stroke-miterlimit: 4; fill: rgb(255,255,255); fill-rule: nonzero; opacity: 1;" vector-effect="non-scaling-stroke"  transform=" translate(-8364.73, -4960.29)" d="M 8316 5008 C 8294 4977 8296 4938 8320 4912 C 8348 4882 8374 4884 8404 4921 C 8436 4959 8437 4980 8407 5008 C 8377 5037 8336 5036 8316 5008 z" stroke-linecap="round" />
</g>
		<g transform="matrix(0.13 0 0 -0.13 38.52 168.44)"  >
<path style="stroke: none; stroke-width: 1; stroke-dasharray: none; stroke-linecap: butt; stroke-dashoffset: 0; stroke-linejoin: miter; stroke-miterlimit: 4; fill: rgb(255,255,255); fill-rule: nonzero; opacity: 1;" vector-effect="non-scaling-stroke"  transform=" translate(-5439.62, -3840.67)" d="M 5396 4132 C 5393 4123 5386 4061 5380 3995 C 5373 3901 5374 3847 5385 3745 C 5394 3674 5404 3602 5408 3585 C 5416 3556 5461 3523 5479 3534 C 5483 3537 5491 3604 5496 3682 C 5512 3945 5503 4097 5469 4131 C 5445 4155 5403 4156 5396 4132 z M 5456 3948 C 5460 3912 5459 3851 5454 3814 L 5446 3745 L 5439 3795 C 5428 3870 5429 4048 5440 4029 C 5445 4021 5452 3984 5456 3948 z" stroke-linecap="round" />
</g>
		<g transform="matrix(0.13 0 0 -0.13 459.27 174.77)"  >
<path style="stroke: none; stroke-width: 1; stroke-dasharray: none; stroke-linecap: butt; stroke-dashoffset: 0; stroke-linejoin: miter; stroke-miterlimit: 4; fill: rgb(255,255,255); fill-rule: nonzero; opacity: 1;" vector-effect="non-scaling-stroke"  transform=" translate(-8595.67, -3800.27)" d="M 8540 3821 C 8524 3817 8515 3807 8515 3795 C 8515 3777 8523 3775 8583 3772 C 8620 3770 8657 3773 8666 3778 C 8681 3786 8680 3790 8661 3809 C 8639 3831 8592 3835 8540 3821 z" stroke-linecap="round" />
</g>
		<g transform="matrix(0.13 0 0 -0.13 456.33 192.11)"  >
<path style="stroke: none; stroke-width: 1; stroke-dasharray: none; stroke-linecap: butt; stroke-dashoffset: 0; stroke-linejoin: miter; stroke-miterlimit: 4; fill: rgb(255,255,255); fill-rule: nonzero; opacity: 1;" vector-effect="non-scaling-stroke"  transform=" translate(-8575.15, -3670.14)" d="M 8449 3681 C 8436 3670 8429 3658 8433 3654 C 8445 3642 8579 3637 8656 3645 C 8709 3650 8721 3655 8718 3668 C 8714 3691 8679 3698 8569 3699 C 8488 3700 8468 3697 8449 3681 z" stroke-linecap="round" />
</g>
		<g transform="matrix(0.13 0 0 -0.13 469.73 208.55)"  >
<path style="stroke: none; stroke-width: 1; stroke-dasharray: none; stroke-linecap: butt; stroke-dashoffset: 0; stroke-linejoin: miter; stroke-miterlimit: 4; fill: rgb(255,255,255); fill-rule: nonzero; opacity: 1;" vector-effect="non-scaling-stroke"  transform=" translate(-8678.86, -3546.91)" d="M 8428 3574 C 8417 3571 8410 3559 8410 3543 L 8410 3518 L 8613 3524 C 8724 3528 8837 3530 8863 3530 C 8890 3530 8920 3536 8933 3545 C 8958 3562 8963 3561 8850 3565 C 8814 3566 8709 3570 8615 3573 C 8522 3576 8437 3577 8428 3574 z" stroke-linecap="round" />
</g>
		<g transform="matrix(0.13 0 0 -0.13 461.87 226.7)"  >
<path style="stroke: none; stroke-width: 1; stroke-dasharray: none; stroke-linecap: butt; stroke-dashoffset: 0; stroke-linejoin: miter; stroke-miterlimit: 4; fill: rgb(255,255,255); fill-rule: nonzero; opacity: 1;" vector-effect="non-scaling-stroke"  transform=" translate(-8618.9, -3410.79)" d="M 8392 3413 C 8395 3385 8395 3385 8481 3382 C 8587 3379 8837 3393 8847 3404 C 8852 3408 8846 3418 8836 3426 C 8820 3437 8771 3440 8602 3440 L 8389 3440 L 8392 3413 z" stroke-linecap="round" />
</g>
		<g transform="matrix(0.13 0 0 -0.13 456.64 243.81)"  >
<path style="stroke: none; stroke-width: 1; stroke-dasharray: none; stroke-linecap: butt; stroke-dashoffset: 0; stroke-linejoin: miter; stroke-miterlimit: 4; fill: rgb(255,255,255); fill-rule: nonzero; opacity: 1;" vector-effect="non-scaling-stroke"  transform=" translate(-8580.72, -3282.55)" d="M 8333 3300 C 8306 3289 8303 3275 8326 3266 C 8357 3254 8763 3260 8814 3274 C 8848 3283 8858 3289 8846 3293 C 8817 3304 8357 3311 8333 3300 z" stroke-linecap="round" />
</g>
		<g transform="matrix(0.13 0 0 -0.13 438.56 260.39)"  >
<path style="stroke: none; stroke-width: 1; stroke-dasharray: none; stroke-linecap: butt; stroke-dashoffset: 0; stroke-linejoin: miter; stroke-miterlimit: 4; fill: rgb(255,255,255); fill-rule: nonzero; opacity: 1;" vector-effect="non-scaling-stroke"  transform=" translate(-8445.25, -3158.21)" d="M 8184 3166 C 8174 3158 8168 3149 8172 3145 C 8181 3135 8707 3133 8716 3143 C 8720 3147 8721 3152 8718 3155 C 8703 3170 8575 3180 8399 3180 C 8246 3180 8200 3177 8184 3166 z" stroke-linecap="round" />
</g>
		<g transform="matrix(0.13 0 0 -0.13 420.64 274.29)"  >
<path style="stroke: none; stroke-width: 1; stroke-dasharray: none; stroke-linecap: butt; stroke-dashoffset: 0; stroke-linejoin: miter; stroke-miterlimit: 4; fill: rgb(255,255,255); fill-rule: nonzero; opacity: 1;" vector-effect="non-scaling-stroke"  transform=" translate(-8309.15, -3053.97)" d="M 8110 3065 C 8083 3032 8111 3028 8309 3031 C 8440 3034 8503 3039 8511 3047 C 8530 3066 8514 3068 8309 3075 C 8146 3080 8122 3079 8110 3065 z" stroke-linecap="round" />
</g>
		<g transform="matrix(0.13 0 0 -0.13 424.83 291.68)"  >
<path style="stroke: none; stroke-width: 1; stroke-dasharray: none; stroke-linecap: butt; stroke-dashoffset: 0; stroke-linejoin: miter; stroke-miterlimit: 4; fill: rgb(255,255,255); fill-rule: nonzero; opacity: 1;" vector-effect="non-scaling-stroke"  transform=" translate(-8339, -2923.47)" d="M 8205 2933 C 8189 2918 8189 2916 8205 2907 C 8218 2900 8271 2901 8335 2911 C 8341 2912 8377 2909 8415 2905 L 8485 2897 L 8465 2919 C 8447 2940 8439 2941 8368 2936 C 8321 2932 8289 2934 8285 2940 C 8275 2956 8223 2952 8205 2933 z" stroke-linecap="round" />
</g>
		<g transform="matrix(0.13 0 0 -0.13 387.41 292.2)"  >
<path style="stroke: none; stroke-width: 1; stroke-dasharray: none; stroke-linecap: butt; stroke-dashoffset: 0; stroke-linejoin: miter; stroke-miterlimit: 4; fill: rgb(255,255,255); fill-rule: nonzero; opacity: 1;" vector-effect="non-scaling-stroke"  transform=" translate(-8055, -2920)" d="M 8045 2920 C 8042 2915 8046 2910 8055 2910 C 8064 2910 8068 2915 8065 2920 C 8062 2926 8057 2930 8055 2930 C 8053 2930 8048 2926 8045 2920 z" stroke-linecap="round" />
</g>
		<g transform="matrix(0.13 0 0 -0.13 460.71 308.88)"  >
<path style="stroke: none; stroke-width: 1; stroke-dasharray: none; stroke-linecap: butt; stroke-dashoffset: 0; stroke-linejoin: miter; stroke-miterlimit: 4; fill: rgb(255,255,255); fill-rule: nonzero; opacity: 1;" vector-effect="non-scaling-stroke"  transform=" translate(-8605.57, -2794.37)" d="M 8592 2819 C 8553 2808 8554 2791 8595 2771 C 8620 2759 8625 2759 8637 2776 C 8652 2796 8651 2822 8635 2826 C 8630 2827 8610 2824 8592 2819 z" stroke-linecap="round" />
</g>
		<g transform="matrix(0.13 0 0 -0.13 354.97 330.21)"  >
<path style="stroke: none; stroke-width: 1; stroke-dasharray: none; stroke-linecap: butt; stroke-dashoffset: 0; stroke-linejoin: miter; stroke-miterlimit: 4; fill: rgb(255,255,255); fill-rule: nonzero; opacity: 1;" vector-effect="non-scaling-stroke"  transform=" translate(-7823.89, -2634.34)" d="M 7753 2660 C 7521 2657 7329 2652 7326 2649 C 7322 2646 7322 2636 7326 2627 C 7336 2601 7422 2597 7866 2602 C 8310 2608 8341 2611 8320 2650 C 8311 2667 8300 2670 8242 2668 C 8205 2667 7985 2663 7753 2660 z" stroke-linecap="round" />
</g>
		<g transform="matrix(0.13 0 0 -0.13 -119.89 366.34)"  >
<path style="stroke: none; stroke-width: 1; stroke-dasharray: none; stroke-linecap: butt; stroke-dashoffset: 0; stroke-linejoin: miter; stroke-miterlimit: 4; fill: rgb(255,255,255); fill-rule: nonzero; opacity: 1;" vector-effect="non-scaling-stroke"  transform=" translate(-4250.91, -2360.15)" d="M 4232 2508 C 4217 2489 4207 2350 4215 2274 C 4222 2204 4239 2185 4268 2213 C 4288 2234 4298 2449 4281 2493 C 4270 2522 4249 2528 4232 2508 z" stroke-linecap="round" />
</g>
		<g transform="matrix(0.13 0 0 -0.13 334.88 350.28)"  >
<path style="stroke: none; stroke-width: 1; stroke-dasharray: none; stroke-linecap: butt; stroke-dashoffset: 0; stroke-linejoin: miter; stroke-miterlimit: 4; fill: rgb(255,255,255); fill-rule: nonzero; opacity: 1;" vector-effect="non-scaling-stroke"  transform=" translate(-7675.35, -2483.79)" d="M 7155 2515 C 7150 2513 7132 2509 7117 2506 C 7095 2501 7089 2494 7092 2477 L 7095 2455 L 7465 2452 C 7810 2450 8062 2461 8223 2487 C 8283 2496 8266 2508 8193 2507 C 8155 2507 7909 2509 7645 2512 C 7381 2515 7161 2517 7155 2515 z" stroke-linecap="round" />
</g>
		<g transform="matrix(0.13 0 0 -0.13 -99.91 368.97)"  >
<path style="stroke: none; stroke-width: 1; stroke-dasharray: none; stroke-linecap: butt; stroke-dashoffset: 0; stroke-linejoin: miter; stroke-miterlimit: 4; fill: rgb(255,255,255); fill-rule: nonzero; opacity: 1;" vector-effect="non-scaling-stroke"  transform=" translate(-4400.64, -2340.67)" d="M 4386 2474 C 4373 2462 4370 2433 4370 2324 C 4370 2197 4371 2190 4390 2190 C 4421 2190 4429 2219 4431 2347 C 4433 2490 4425 2514 4386 2474 z" stroke-linecap="round" />
</g>
		<g transform="matrix(0.13 0 0 -0.13 -79.33 376.2)"  >
<path style="stroke: none; stroke-width: 1; stroke-dasharray: none; stroke-linecap: butt; stroke-dashoffset: 0; stroke-linejoin: miter; stroke-miterlimit: 4; fill: rgb(255,255,255); fill-rule: nonzero; opacity: 1;" vector-effect="non-scaling-stroke"  transform=" translate(-4555.03, -2286.69)" d="M 4530 2411 C 4524 2398 4520 2343 4522 2268 C 4525 2145 4525 2145 4549 2145 C 4583 2145 4591 2183 4588 2318 C 4585 2419 4584 2425 4563 2428 C 4549 2430 4537 2424 4530 2411 z" stroke-linecap="round" />
</g>
		<g transform="matrix(0.13 0 0 -0.13 -349.37 361.53)"  >
<path style="stroke: none; stroke-width: 1; stroke-dasharray: none; stroke-linecap: butt; stroke-dashoffset: 0; stroke-linejoin: miter; stroke-miterlimit: 4; fill: rgb(255,255,255); fill-rule: nonzero; opacity: 1;" vector-effect="non-scaling-stroke"  transform=" translate(-2530, -2400)" d="M 2490 2400 C 2498 2395 2523 2390 2545 2390 C 2574 2390 2581 2393 2570 2400 C 2562 2405 2537 2410 2515 2410 C 2486 2410 2479 2407 2490 2400 z" stroke-linecap="round" />
</g>
		<g transform="matrix(0.13 0 0 -0.13 -59.34 380.12)"  >
<path style="stroke: none; stroke-width: 1; stroke-dasharray: none; stroke-linecap: butt; stroke-dashoffset: 0; stroke-linejoin: miter; stroke-miterlimit: 4; fill: rgb(255,255,255); fill-rule: nonzero; opacity: 1;" vector-effect="non-scaling-stroke"  transform=" translate(-4705, -2257.52)" d="M 4682 2378 C 4674 2370 4670 2328 4670 2253 C 4670 2152 4672 2140 4689 2130 C 4725 2111 4740 2151 4740 2261 C 4740 2315 4737 2365 4734 2374 C 4727 2393 4699 2395 4682 2378 z" stroke-linecap="round" />
</g>
		<g transform="matrix(0.13 0 0 -0.13 -37.99 384.74)"  >
<path style="stroke: none; stroke-width: 1; stroke-dasharray: none; stroke-linecap: butt; stroke-dashoffset: 0; stroke-linejoin: miter; stroke-miterlimit: 4; fill: rgb(255,255,255); fill-rule: nonzero; opacity: 1;" vector-effect="non-scaling-stroke"  transform=" translate(-4865.37, -2224.06)" d="M 4835 2290 C 4821 2274 4818 2260 4823 2215 C 4830 2149 4835 2140 4865 2140 C 4906 2140 4923 2204 4899 2267 C 4882 2313 4862 2320 4835 2290 z" stroke-linecap="round" />
</g>
		<g transform="matrix(0.13 0 0 -0.13 122.75 379.58)"  >
<path style="stroke: none; stroke-width: 1; stroke-dasharray: none; stroke-linecap: butt; stroke-dashoffset: 0; stroke-linejoin: miter; stroke-miterlimit: 4; fill: rgb(255,255,255); fill-rule: nonzero; opacity: 1;" vector-effect="non-scaling-stroke"  transform=" translate(-6070.18, -2264.75)" d="M 6058 2263 C 6064 2261 6076 2261 6083 2263 C 6089 2266 6084 2268 6070 2268 C 6056 2268 6051 2266 6058 2263 z" stroke-linecap="round" />
</g>
		<g transform="matrix(0.13 0 0 -0.13 140.51 436.72)"  >
<path style="stroke: none; stroke-width: 1; stroke-dasharray: none; stroke-linecap: butt; stroke-dashoffset: 0; stroke-linejoin: miter; stroke-miterlimit: 4; fill: rgb(255,255,255); fill-rule: nonzero; opacity: 1;" vector-effect="non-scaling-stroke"  transform=" translate(-6220.5, -1835.43)" d="M 5780 1860 C 5565 1854 5520 1848 5520 1829 C 5520 1804 5623 1800 6220 1801 C 6564 1801 6861 1804 6880 1808 C 6908 1814 6916 1821 6918 1843 L 6921 1870 L 6463 1868 C 6211 1867 5904 1863 5780 1860 z" stroke-linecap="round" />
</g>
		<g transform="matrix(0.13 0 0 -0.13 274.93 435.94)"  >
<path style="stroke: none; stroke-width: 1; stroke-dasharray: none; stroke-linecap: butt; stroke-dashoffset: 0; stroke-linejoin: miter; stroke-miterlimit: 4; fill: rgb(255,255,255); fill-rule: nonzero; opacity: 1;" vector-effect="non-scaling-stroke"  transform=" translate(-7212.43, -1841.5)" d="M 7173 1863 C 7166 1861 7160 1850 7160 1840 C 7160 1809 7252 1805 7264 1836 C 7273 1859 7209 1878 7173 1863 z" stroke-linecap="round" />
</g>
		<g transform="matrix(0.13 0 0 -0.13 -277.24 442.81)"  >
<path style="stroke: none; stroke-width: 1; stroke-dasharray: none; stroke-linecap: butt; stroke-dashoffset: 0; stroke-linejoin: miter; stroke-miterlimit: 4; fill: rgb(255,255,255); fill-rule: nonzero; opacity: 1;" vector-effect="non-scaling-stroke"  transform=" translate(-3105.44, -1789.91)" d="M 1717 1812 C 1657 1807 1678 1786 1751 1778 C 1786 1773 2416 1767 3151 1764 C 4152 1759 4492 1761 4508 1769 C 4541 1787 4534 1807 4493 1815 C 4457 1821 1799 1819 1717 1812 z" stroke-linecap="round" />
</g>
		<g transform="matrix(0.13 0 0 -0.13 140.42 457.88)"  >
<path style="stroke: none; stroke-width: 1; stroke-dasharray: none; stroke-linecap: butt; stroke-dashoffset: 0; stroke-linejoin: miter; stroke-miterlimit: 4; fill: rgb(255,255,255); fill-rule: nonzero; opacity: 1;" vector-effect="non-scaling-stroke"  transform=" translate(-6218.72, -1676.83)" d="M 5846 1700 C 5561 1695 5527 1689 5582 1658 C 5600 1648 5735 1645 6227 1645 C 6799 1645 6851 1646 6866 1662 C 6880 1676 6881 1682 6870 1694 C 6859 1708 6812 1710 6491 1708 C 6290 1706 5999 1703 5846 1700 z" stroke-linecap="round" />
</g>
		<g transform="matrix(0.13 0 0 -0.13 -274.34 459.72)"  >
<path style="stroke: none; stroke-width: 1; stroke-dasharray: none; stroke-linecap: butt; stroke-dashoffset: 0; stroke-linejoin: miter; stroke-miterlimit: 4; fill: rgb(255,255,255); fill-rule: nonzero; opacity: 1;" vector-effect="non-scaling-stroke"  transform=" translate(-3125, -1662.82)" d="M 1790 1677 C 1790 1648 1805 1643 1910 1641 C 1946 1640 2018 1638 2070 1636 C 2349 1628 4187 1618 4313 1625 C 4448 1631 4460 1634 4460 1651 C 4460 1666 4453 1670 4428 1670 C 4410 1671 4010 1673 3540 1675 C 2663 1679 2197 1685 1938 1696 L 1790 1703 L 1790 1677 z" stroke-linecap="round" />
</g>
		<g transform="matrix(0.13 0 0 -0.13 143.65 478.18)"  >
<path style="stroke: none; stroke-width: 1; stroke-dasharray: none; stroke-linecap: butt; stroke-dashoffset: 0; stroke-linejoin: miter; stroke-miterlimit: 4; fill: rgb(255,255,255); fill-rule: nonzero; opacity: 1;" vector-effect="non-scaling-stroke"  transform=" translate(-6243.9, -1524.33)" d="M 6785 1559 C 6758 1554 6688 1550 6630 1550 C 6015 1549 5568 1542 5558 1532 C 5532 1506 5558 1492 5647 1485 C 5748 1476 6301 1487 6435 1500 C 6485 1505 6615 1509 6725 1510 C 6841 1510 6929 1515 6935 1521 C 6941 1527 6941 1536 6934 1548 C 6921 1568 6860 1573 6785 1559 z" stroke-linecap="round" />
</g>
		<g transform="matrix(0.13 0 0 -0.13 -259.31 479.86)"  >
<path style="stroke: none; stroke-width: 1; stroke-dasharray: none; stroke-linecap: butt; stroke-dashoffset: 0; stroke-linejoin: miter; stroke-miterlimit: 4; fill: rgb(255,255,255); fill-rule: nonzero; opacity: 1;" vector-effect="non-scaling-stroke"  transform=" translate(-3235.5, -1511.95)" d="M 2003 1543 C 1996 1540 1990 1533 1990 1526 C 1990 1503 2035 1489 2110 1489 C 2151 1489 2702 1487 3333 1484 L 4481 1479 L 4478 1507 L 4475 1535 L 3435 1537 C 2863 1538 2310 1541 2205 1543 C 2101 1546 2009 1545 2003 1543 z" stroke-linecap="round" />
</g>
		<g transform="matrix(0.13 0 0 -0.13 104.24 498.88)"  >
<path style="stroke: none; stroke-width: 1; stroke-dasharray: none; stroke-linecap: butt; stroke-dashoffset: 0; stroke-linejoin: miter; stroke-miterlimit: 4; fill: rgb(255,255,255); fill-rule: nonzero; opacity: 1;" vector-effect="non-scaling-stroke"  transform=" translate(-5945.62, -1369.16)" d="M 6455 1402 C 6452 1399 6208 1396 5913 1395 C 5414 1394 5376 1392 5366 1376 C 5357 1363 5359 1356 5375 1343 C 5393 1330 5437 1329 5734 1335 C 5921 1338 6077 1343 6080 1345 C 6084 1347 6109 1352 6136 1355 C 6163 1358 6201 1363 6220 1366 C 6271 1374 6386 1372 6455 1360 C 6521 1349 6543 1358 6524 1388 C 6514 1404 6467 1413 6455 1402 z" stroke-linecap="round" />
</g>
		<g transform="matrix(0.13 0 0 -0.13 -349.94 499.04)"  >
<path style="stroke: none; stroke-width: 1; stroke-dasharray: none; stroke-linecap: butt; stroke-dashoffset: 0; stroke-linejoin: miter; stroke-miterlimit: 4; fill: rgb(255,255,255); fill-rule: nonzero; opacity: 1;" vector-effect="non-scaling-stroke"  transform=" translate(-2530.56, -1368.4)" d="M 2302 1377 C 2292 1365 2292 1360 2301 1354 C 2318 1344 2752 1348 2763 1359 C 2768 1364 2768 1370 2763 1373 C 2759 1376 2656 1381 2535 1385 C 2344 1391 2312 1390 2302 1377 z" stroke-linecap="round" />
</g>
		<g transform="matrix(0.13 0 0 -0.13 -246.46 501.08)"  >
<path style="stroke: none; stroke-width: 1; stroke-dasharray: none; stroke-linecap: butt; stroke-dashoffset: 0; stroke-linejoin: miter; stroke-miterlimit: 4; fill: rgb(255,255,255); fill-rule: nonzero; opacity: 1;" vector-effect="non-scaling-stroke"  transform=" translate(-3310.92, -1352.85)" d="M 3120 1382 C 3013 1381 2919 1378 2911 1375 C 2885 1365 2918 1344 2962 1342 C 2986 1341 3070 1335 3150 1329 C 3289 1318 3631 1322 3693 1336 C 3720 1342 3730 1367 3708 1375 C 3688 1381 3337 1385 3120 1382 z" stroke-linecap="round" />
</g>
		<g transform="matrix(0.13 0 0 -0.13 -110.96 500.87)"  >
<path style="stroke: none; stroke-width: 1; stroke-dasharray: none; stroke-linecap: butt; stroke-dashoffset: 0; stroke-linejoin: miter; stroke-miterlimit: 4; fill: rgb(255,255,255); fill-rule: nonzero; opacity: 1;" vector-effect="non-scaling-stroke"  transform=" translate(-4320.86, -1354.6)" d="M 4180 1371 C 4142 1361 4168 1350 4262 1340 C 4421 1321 4490 1329 4477 1364 C 4472 1378 4451 1380 4338 1379 C 4265 1378 4194 1375 4180 1371 z" stroke-linecap="round" />
</g>
		<g transform="matrix(0.13 0 0 -0.13 -236.55 518.78)"  >
<path style="stroke: none; stroke-width: 1; stroke-dasharray: none; stroke-linecap: butt; stroke-dashoffset: 0; stroke-linejoin: miter; stroke-miterlimit: 4; fill: rgb(255,255,255); fill-rule: nonzero; opacity: 1;" vector-effect="non-scaling-stroke"  transform=" translate(-3381.21, -1220.09)" d="M 3163 1252 C 3138 1248 3123 1213 3139 1197 C 3145 1191 3167 1186 3188 1187 C 3208 1188 3306 1190 3406 1193 C 3505 1195 3596 1201 3608 1204 C 3632 1212 3638 1238 3618 1245 C 3602 1250 3193 1256 3163 1252 z" stroke-linecap="round" />
</g>
		<g transform="matrix(0.13 0 0 -0.13 53.4 518.2)"  >
<path style="stroke: none; stroke-width: 1; stroke-dasharray: none; stroke-linecap: butt; stroke-dashoffset: 0; stroke-linejoin: miter; stroke-miterlimit: 4; fill: rgb(255,255,255); fill-rule: nonzero; opacity: 1;" vector-effect="non-scaling-stroke"  transform=" translate(-5564.47, -1224.48)" d="M 6040 1252 C 6021 1251 5773 1249 5490 1247 C 5019 1245 4975 1244 4972 1228 C 4970 1218 4978 1209 4992 1204 C 5005 1199 5269 1196 5578 1196 C 6053 1197 6143 1199 6151 1211 C 6156 1219 6158 1230 6157 1235 C 6153 1247 6090 1256 6040 1252 z" stroke-linecap="round" />
</g>
</g>
</g>
</svg>