<svg width="550" height="450" xmlns="http://www.w3.org/2000/svg" version="1.1">
 <!-- Generator: Adobe Illustrator 29.1.0, SVG Export Plug-In . SVG Version: 2.1.0 Build 142)  -->

 <g>
  <title>Layer 1</title>
  <path fill="#ffffff" id="svg_1" d="m444.6,383.4c6,12.3 -6.3,28.3 -18.7,27.9c-2.4,-1.9 1.8,-29.2 -10.1,-29.1c-2.5,0 -12.4,8.4 -14.3,10.8c-4.3,5.2 -7.4,18.1 -16.5,17.2c-13.5,-1.3 -6.5,-34.6 -3.5,-42.9c-6.4,-2 -21.7,-7 -24.1,-14c-2.1,-6.1 3.2,-6.4 -5.3,-9.2c-11,-3.6 -17.8,-2.2 -28.7,-1.3c3.6,8.8 21.7,18.2 13.6,28.5c-7,9 -34.6,-5.7 -42.5,-10.5c-4.5,-2.8 -9.8,-6.8 -13.9,-10.2c-6.5,-5.4 -12.3,-11.4 -18,-17.7c-19.9,8.2 -43.1,14.1 -64.4,17.6c-27.3,4.6 -46.1,7 -70.4,-8.5c-19.6,-12.6 -29.6,-32 -45.2,-48.1c-20.5,-21.1 -44.8,-32.9 -70.9,-45.5l-0.5,-4.6c29.1,6.5 54.8,22.7 75.5,43.9c19.5,19.9 39.6,54.6 70.7,58.3c14.5,1.7 73.1,-7.7 86.2,-14.4c1.4,-0.7 3.4,-1.1 3.7,-2.9l-7.3,-3.2c-4.1,-13.9 -6.4,-29.4 -12.2,-42.7c-2.1,-4.8 -8.4,-18.1 -14.2,-18.1c-1.9,11.3 -3.4,23.1 -3.9,34.6c-0.3,6.5 2.9,22.1 -0.8,26.6l-3,-0.2c-9.6,-22.6 -6.7,-52.5 -25.7,-69.9c-7.1,8.7 -4.2,20.4 -4.9,30c-0.5,7.9 -1.9,15.7 -2.1,23.6c0,2.8 3.7,22.2 -1.7,19.2c-4.2,-2.3 -11.6,-44.5 -16.3,-53.2c-1.6,-3 -2.9,-4.8 -6.8,-4.5c-2.2,6.5 -2.9,12.9 -3.2,19.8c-0.7,13 3,28.7 2.3,40.4c-0.6,10.3 -7.5,-4.2 -8.5,-7.9c-1.1,-4 -0.7,-12.1 -2.1,-14.6c-1.3,-2.2 -9.3,-3.8 -12.8,-7.1c-11,-10.3 -7.1,-34.6 -0.6,-46.5c4.3,-8 22.1,-4 30.4,-3c4.8,0.6 9.5,3.4 14.5,2.9c4.6,-0.5 4.9,-7.9 13.8,-6.2c8.1,1.6 10.4,15.2 22.7,15.3c5.4,0 7.6,-11.8 11.2,-10.9s25.4,24.2 32.3,28.9c5.8,4 35.2,22.3 30.1,3.5c-4.8,-17.7 -24.8,-47.5 -39.6,-58.3c-43.2,-31.4 -99.9,-12.6 -148.2,-34.2c-8.8,-3.9 -40.2,-21.6 -41.1,-31.1c-0.2,-2.3 0.3,-2.6 2.5,-2.1c22.4,16.4 50.5,32.7 78.4,36.8c18.3,2.6 37.4,0.6 56.2,3.4c53.2,8 77.1,32.6 98.7,80.1c10.6,5.5 52,14.1 57.1,22.8s1.4,4.8 1.8,7.4l20.1,5c1.9,-5 7.4,-16.5 10.7,-20.3c3.8,-4.3 12.2,-5.1 13.2,-14c1.8,-16.6 -14.3,-29.9 -22.1,-43c-28.2,-47.6 3.1,-102 11.1,-151.2c2.3,-14.3 1.6,-29.2 3.9,-43.5c9.5,11 5.1,37.2 2.9,51.6c-6.6,42.2 -35.2,90 -14.5,132.1c7.5,15.1 28.6,34.7 26.4,51.7c-0.9,6.8 -5.3,12.9 -4.9,20.2c18.2,7.9 34.4,-18.4 37.2,-33.7c5.7,-31.1 -12.6,-44.1 -11.3,-73l5.7,10.9c5.2,-5.5 9.3,-13 17,-15.6c5.5,-1.9 9.2,-0.6 13.9,-1.3c3.3,-0.5 5.9,-2.9 9.6,-3.2c10.3,-0.7 23.5,2.6 26.1,14.1c-5.5,1.1 -22.9,-10.6 -26,-6.6c-1.9,5.8 1,14.9 4.7,19.6c5.3,6.8 30.6,19.7 35,9.1c3.2,-7.6 4.4,-30.3 4.1,-39.1c-1.5,-41.8 -12.4,-78.7 1.1,-121c0.8,-2.5 6.2,-18.8 7.6,-18.6c2.4,0.3 3.3,1.8 3.4,4c0,5 -5.5,18.3 -6.7,24.7c-3.1,17.2 -4.3,39.8 -3.5,57.4c1.5,31.2 10.9,62.2 1.6,93.6c-1.4,4.7 -7.6,8.6 -8,11.4c-0.8,5.5 3.2,16.3 1.6,23.4c-1.5,6.5 -8.2,9.5 -9.1,12s2,12.8 1.2,17.5c-0.8,4.7 -6,7.8 -6.9,11.5c-1,4.2 1,8.6 0.4,13.2c-0.4,3.3 -3.1,6.5 -3.2,8.7c-0.1,2.3 2.5,5.3 2.8,8c0.8,7 -9.4,38 -13,45.7s-7.1,13.8 -10.5,13.5l-21.4,-1.9l0.1,0.2zm19.1,-164.8l0.2,-2.2c-7,-6.2 -8.1,-13.8 -11.4,-21.9c-9.5,-1.7 -18.6,4.4 -22,12.9c-5.3,13 0.5,13.9 3.5,24.5c8.2,29.1 2.1,60.5 -26.6,75s-10.6,3.3 -16.2,1.7c-5.6,-1.6 -5.2,-8.9 -8.2,-8.1c-1.6,0.4 -6,4.1 -2.9,6.4c29.6,7.2 66.1,25 96.7,24.2c1.7,0 4.8,0 5.3,-1.9c2.1,-7.1 -16.3,-20.6 -21.6,-24.2c-4.5,-3.1 -14,-4.7 -15.1,-10.5c-1.4,-7 2.5,-13.5 3.1,-20.2c0.6,-6.7 -3.5,-20.2 7.3,-22.2c10.1,-1.8 0.4,9.4 -0.2,11.2c-5.8,17.8 28.6,33.1 32.9,19.9c0.7,-2.3 -1.2,-12.3 -3.1,-14s-11.3,-4.2 -16.4,-8.1c-12.4,-9.6 -24.2,-34.3 -5.2,-42.7l-0.1,0.2zm-0.4,9.3c-9.3,8.3 14.6,42.1 29.7,29.8c6.8,-5.5 6.4,-21.4 0.1,-26.2c-0.8,-0.6 -17.3,-5.9 -18.9,-6.1c-2.7,-0.3 -9,0.8 -10.9,2.5zm-295,36c-5.6,-2 -34.9,-8.9 -37.5,-6.2c-5.1,12.2 -12.1,37.8 6.5,40.3c0.6,-9.2 2.8,-41.6 18.4,-35.3c6.8,6.6 9.1,16.2 10.7,25.3c0.4,2.4 -2,4.2 2.6,3.9l-0.7,-28.1l0,0.1zm313.9,47l-1.6,-14.3c-4.7,-1.8 -9.9,-2.2 -14.5,-4.2c-2.3,-1 -11.9,-8.5 -12.7,-7.8l0.6,9.7c12.2,1.3 17.9,12.2 28.3,16.6l-0.1,0zm-276.1,-18.6c-3.1,-6.9 4.9,-21.3 -5.5,-21.3c-1.6,1.4 1.4,19.7 5.5,21.3zm82,-1.3c-0.6,0.3 -1.6,4 -3,5.4c-15.2,15.6 -36.1,-7.6 -49.9,-14.7l12.2,36.8c1.5,1.4 18.6,6.9 21.8,7.7c4.7,1.1 9.8,0.5 14.6,1.4c15.3,3 29.8,7.4 46,6.8l6.5,-27.5c-6.9,-2.1 -44.4,-17.9 -48.3,-15.9l0.1,0zm74.2,30.2l-18.7,-4.7l-4,17.5l18.3,5.4l4.4,-18.1l0,-0.1zm-63,16.6c-7.2,-1.4 -15.5,-0.8 -22.8,-2c15,14.9 33.8,28.8 55.2,30.9c0.2,-1.8 -0.9,-3.8 -1.9,-5.2c-1.9,-2.6 -16.7,-18.3 -18.8,-19.7s-9.4,-3.5 -11.6,-3.9l-0.1,-0.1zm110.3,38l-20.2,-4.6c-4,9.5 -4.8,20.3 -4.3,30.7c1.4,1.8 15.1,-18.5 16.6,-20.1c2.7,-2.8 5.9,-3.4 7.9,-6zm26,5.5l-7.1,-0.9l4.1,21.1c6.7,-1.7 6.2,-17.9 3,-20.3l0,0.1z"/>
  <path fill="#ffffff" id="svg_2" d="m498.8,342.2c3.1,-3.7 8.5,-8.9 9.8,-13.6c1.9,-6.7 -3.1,-14.5 2.8,-19.4c13,7.6 2.4,36.2 -12.6,33z"/>
  <path fill="#ffffff" id="svg_3" d="m361.4,269.6c-9.9,1.7 -22.3,-26.5 -13.2,-28.5c5.6,-1.2 5,13.3 7,18c1.8,4.1 6.1,6.1 6.2,10.5z"/>
  <path fill="#ffffff" id="svg_4" d="m514.4,345.9c-1.3,-1.4 6.7,-7.2 7.9,-8.6c3.2,-4.1 4.3,-9.5 8.1,-13.1c8.3,9 -6.5,22.2 -15.9,21.7l-0.1,0z"/>
  <path fill="#ffffff" id="svg_5" d="m347.8,265.6l0.2,2.8c-9.3,4.9 -23.2,-1.1 -24.3,-11.9c1.5,-6 13.3,6.2 15.7,7.5c2.5,1.3 5.5,2 8.3,1.6l0.1,0z"/>
 </g>
</svg>