<?xml version="1.0" encoding="UTF-8"?>
<svg id="Layer_1" xmlns="http://www.w3.org/2000/svg" version="1.1" viewBox="0 0 550 450">
  <!-- Generator: Adobe Illustrator 29.1.0, SVG Export Plug-In . SVG Version: 2.1.0 Build 142)  -->
  <path d="M444.6,383.4c6,12.3-6.3,28.3-18.7,27.9-2.4-1.9,1.8-29.2-10.1-29.1-2.5,0-12.4,8.4-14.3,10.8-4.3,5.2-7.4,18.1-16.5,17.2-13.5-1.3-6.5-34.6-3.5-42.9-6.4-2-21.7-7-24.1-14-2.1-6.1,3.2-6.4-5.3-9.2-11-3.6-17.8-2.2-28.7-1.3,3.6,8.8,21.7,18.2,13.6,28.5-7,9-34.6-5.7-42.5-10.5-4.5-2.8-9.8-6.8-13.9-10.2-6.5-5.4-12.3-11.4-18-17.7-19.9,8.2-43.1,14.1-64.4,17.6-27.3,4.6-46.1,7-70.4-8.5-19.6-12.6-29.6-32-45.2-48.1-20.5-21.1-44.8-32.9-70.9-45.5l-.5-4.6c29.1,6.5,54.8,22.7,75.5,43.9,19.5,19.9,39.6,54.6,70.7,58.3,14.5,1.7,73.1-7.7,86.2-14.4,1.4-.7,3.4-1.1,3.7-2.9l-7.3-3.2c-4.1-13.9-6.4-29.4-12.2-42.7-2.1-4.8-8.4-18.1-14.2-18.1-1.9,11.3-3.4,23.1-3.9,34.6-.3,6.5,2.9,22.1-.8,26.6l-3-.2c-9.6-22.6-6.7-52.5-25.7-69.9-7.1,8.7-4.2,20.4-4.9,30-.5,7.9-1.9,15.7-2.1,23.6,0,2.8,3.7,22.2-1.7,19.2-4.2-2.3-11.6-44.5-16.3-53.2-1.6-3-2.9-4.8-6.8-4.5-2.2,6.5-2.9,12.9-3.2,19.8-.7,13,3,28.7,2.3,40.4-.6,10.3-7.5-4.2-8.5-7.9-1.1-4-.7-12.1-2.1-14.6-1.3-2.2-9.3-3.8-12.8-7.1-11-10.3-7.1-34.6-.6-46.5,4.3-8,22.1-4,30.4-3,4.8.6,9.5,3.4,14.5,2.9,4.6-.5,4.9-7.9,13.8-6.2,8.1,1.6,10.4,15.2,22.7,15.3,5.4,0,7.6-11.8,11.2-10.9s25.4,24.2,32.3,28.9c5.8,4,35.2,22.3,30.1,3.5-4.8-17.7-24.8-47.5-39.6-58.3-43.2-31.4-99.9-12.6-148.2-34.2-8.8-3.9-40.2-21.6-41.1-31.1-.2-2.3.3-2.6,2.5-2.1,22.4,16.4,50.5,32.7,78.4,36.8,18.3,2.6,37.4.6,56.2,3.4,53.2,8,77.1,32.6,98.7,80.1,10.6,5.5,52,14.1,57.1,22.8s1.4,4.8,1.8,7.4l20.1,5c1.9-5,7.4-16.5,10.7-20.3,3.8-4.3,12.2-5.1,13.2-14,1.8-16.6-14.3-29.9-22.1-43-28.2-47.6,3.1-102,11.1-151.2,2.3-14.3,1.6-29.2,3.9-43.5,9.5,11,5.1,37.2,2.9,51.6-6.6,42.2-35.2,90-14.5,132.1,7.5,15.1,28.6,34.7,26.4,51.7-.9,6.8-5.3,12.9-4.9,20.2,18.2,7.9,34.4-18.4,37.2-33.7,5.7-31.1-12.6-44.1-11.3-73l5.7,10.9c5.2-5.5,9.3-13,17-15.6,5.5-1.9,9.2-.6,13.9-1.3,3.3-.5,5.9-2.9,9.6-3.2,10.3-.7,23.5,2.6,26.1,14.1-5.5,1.1-22.9-10.6-26-6.6-1.9,5.8,1,14.9,4.7,19.6,5.3,6.8,30.6,19.7,35,9.1,3.2-7.6,4.4-30.3,4.1-39.1-1.5-41.8-12.4-78.7,1.1-121,.8-2.5,6.2-18.8,7.6-18.6,2.4.3,3.3,1.8,3.4,4,0,5-5.5,18.3-6.7,24.7-3.1,17.2-4.3,39.8-3.5,57.4,1.5,31.2,10.9,62.2,1.6,93.6-1.4,4.7-7.6,8.6-8,11.4-.8,5.5,3.2,16.3,1.6,23.4-1.5,6.5-8.2,9.5-9.1,12s2,12.8,1.2,17.5c-.8,4.7-6,7.8-6.9,11.5-1,4.2,1,8.6.4,13.2-.4,3.3-3.1,6.5-3.2,8.7-.1,2.3,2.5,5.3,2.8,8,.8,7-9.4,38-13,45.7s-7.1,13.8-10.5,13.5l-21.4-1.9ZM463.7,218.6l.2-2.2c-7-6.2-8.1-13.8-11.4-21.9-9.5-1.7-18.6,4.4-22,12.9-5.3,13,.5,13.9,3.5,24.5,8.2,29.1,2.1,60.5-26.6,75s-10.6,3.3-16.2,1.7c-5.6-1.6-5.2-8.9-8.2-8.1-1.6.4-6,4.1-2.9,6.4,29.6,7.2,66.1,25,96.7,24.2,1.7,0,4.8,0,5.3-1.9,2.1-7.1-16.3-20.6-21.6-24.2-4.5-3.1-14-4.7-15.1-10.5-1.4-7,2.5-13.5,3.1-20.2.6-6.7-3.5-20.2,7.3-22.2,10.1-1.8.4,9.4-.2,11.2-5.8,17.8,28.6,33.1,32.9,19.9.7-2.3-1.2-12.3-3.1-14s-11.3-4.2-16.4-8.1c-12.4-9.6-24.2-34.3-5.2-42.7ZM463.3,227.9c-9.3,8.3,14.6,42.1,29.7,29.8,6.8-5.5,6.4-21.4.1-26.2-.8-.6-17.3-5.9-18.9-6.1-2.7-.3-9,.8-10.9,2.5ZM168.3,263.9c-5.6-2-34.9-8.9-37.5-6.2-5.1,12.2-12.1,37.8,6.5,40.3.6-9.2,2.8-41.6,18.4-35.3,6.8,6.6,9.1,16.2,10.7,25.3.4,2.4-2,4.2,2.6,3.9l-.7-28.1ZM482.2,310.9l-1.6-14.3c-4.7-1.8-9.9-2.2-14.5-4.2-2.3-1-11.9-8.5-12.7-7.8l.6,9.7c12.2,1.3,17.9,12.2,28.3,16.6ZM206.1,292.3c-3.1-6.9,4.9-21.3-5.5-21.3-1.6,1.4,1.4,19.7,5.5,21.3ZM288.1,291c-.6.3-1.6,4-3,5.4-15.2,15.6-36.1-7.6-49.9-14.7l12.2,36.8c1.5,1.4,18.6,6.9,21.8,7.7,4.7,1.1,9.8.5,14.6,1.4,15.3,3,29.8,7.4,46,6.8l6.5-27.5c-6.9-2.1-44.4-17.9-48.3-15.9ZM362.3,321.2l-18.7-4.7-4,17.5,18.3,5.4,4.4-18.1ZM299.3,337.8c-7.2-1.4-15.5-.8-22.8-2,15,14.9,33.8,28.8,55.2,30.9.2-1.8-.9-3.8-1.9-5.2-1.9-2.6-16.7-18.3-18.8-19.7s-9.4-3.5-11.6-3.9ZM409.6,375.8l-20.2-4.6c-4,9.5-4.8,20.3-4.3,30.7,1.4,1.8,15.1-18.5,16.6-20.1,2.7-2.8,5.9-3.4,7.9-6ZM435.6,381.3l-7.1-.9,4.1,21.1c6.7-1.7,6.2-17.9,3-20.3Z"/>
  <path d="M498.8,342.2c3.1-3.7,8.5-8.9,9.8-13.6,1.9-6.7-3.1-14.5,2.8-19.4,13,7.6,2.4,36.2-12.6,33Z"/>
  <path d="M361.4,269.6c-9.9,1.7-22.3-26.5-13.2-28.5,5.6-1.2,5,13.3,7,18,1.8,4.1,6.1,6.1,6.2,10.5Z"/>
  <path d="M514.4,345.9c-1.3-1.4,6.7-7.2,7.9-8.6,3.2-4.1,4.3-9.5,8.1-13.1,8.3,9-6.5,22.2-15.9,21.7Z"/>
  <path d="M347.8,265.6l.2,2.8c-9.3,4.9-23.2-1.1-24.3-11.9,1.5-6,13.3,6.2,15.7,7.5,2.5,1.3,5.5,2,8.3,1.6Z"/>
</svg>