<svg width="80" height="40" viewBox="0 0 80 40" fill="none" xmlns="http://www.w3.org/2000/svg">
<path d="M56.1633 13.2587C55.2756 13.2624 54.3949 13.4119 53.5576 13.7012C52.9841 12.2201 52.0469 10.901 50.8294 9.86111C49.6119 8.82126 48.1517 8.09288 46.5786 7.74066C45.0055 7.38845 43.3681 7.42331 41.812 7.84216C40.2559 8.261 38.8292 9.05086 37.6588 10.1416C40.2821 11.0895 42.4812 12.9154 43.8694 15.2982C45.2672 15.0829 46.6959 15.1674 48.0572 15.5461C49.4186 15.9248 50.6802 16.5886 51.7554 17.4918C52.8306 18.3951 53.6938 19.5164 54.2856 20.7786C54.8774 22.0408 55.1838 23.4139 55.1837 24.8035C55.1844 26.1284 54.9041 27.439 54.3608 28.6517H56.1633C58.2417 28.6517 60.235 27.8408 61.7047 26.3975C63.1743 24.9541 64 22.9964 64 20.9552C64 18.9139 63.1743 16.9563 61.7047 15.5129C60.235 14.0695 58.2417 13.2587 56.1633 13.2587Z" fill="#242322"/>
<path d="M45.3878 17.1069C44.5001 17.1106 43.6194 17.2602 42.782 17.5495C41.9651 15.452 40.4268 13.7012 38.4337 12.6006C36.4405 11.4999 34.1181 11.1188 31.8689 11.5231C29.6196 11.9274 27.5853 13.0918 26.1183 14.8145C24.6513 16.5371 23.8442 18.7095 23.8367 20.9552V21.3015C23.2091 21.0753 22.5461 20.9581 21.8776 20.9552C20.3187 20.9552 18.8237 21.5634 17.7215 22.6459C16.6192 23.7284 16 25.1967 16 26.7276C16 28.2585 16.6192 29.7268 17.7215 30.8093C18.8237 31.8918 20.3187 32.5 21.8776 32.5H45.3878C47.4662 32.5 49.4595 31.6891 50.9292 30.2457C52.3988 28.8024 53.2245 26.8447 53.2245 24.8035C53.2245 22.7622 52.3988 20.8046 50.9292 19.3612C49.4595 17.9178 47.4662 17.1069 45.3878 17.1069Z" fill="#242322"/>
</svg>
