<?xml version="1.0" encoding="UTF-8" standalone="no" ?>
<!DOCTYPE svg PUBLIC "-//W3C//DTD SVG 1.1//EN" "http://www.w3.org/Graphics/SVG/1.1/DTD/svg11.dtd">
<svg xmlns="http://www.w3.org/2000/svg" xmlns:xlink="http://www.w3.org/1999/xlink" version="1.1" width="640" height="820" viewBox="0 0 640 820" xml:space="preserve">
<desc>Created with Fabric.js 5.2.4</desc>
<defs>
</defs>
<rect x="0" y="0" width="100%" height="100%" fill="transparent"></rect>
<g transform="matrix(1 0 0 1 320 410)" id="4584bf59-caaf-4b4d-9ce3-c28516dc5688"  >
<rect style="stroke: none; stroke-width: 1; stroke-dasharray: none; stroke-linecap: butt; stroke-dashoffset: 0; stroke-linejoin: miter; stroke-miterlimit: 4; fill: rgb(255,255,255); fill-rule: nonzero; opacity: 1; visibility: hidden;" vector-effect="non-scaling-stroke"  x="-320" y="-410" rx="0" ry="0" width="640" height="820" />
</g>
<g transform="matrix(Infinity NaN NaN Infinity 0 0)" id="37ae9f2f-de63-499e-9c21-0983c40e86dc"  >
</g>
<g transform="matrix(1.03 0 0 1.03 307 410)"  >
<g style="" vector-effect="non-scaling-stroke"   >
		<g transform="matrix(1 0 0 1 -78.36 -46.06)"  >
<path style="stroke: none; stroke-width: 1; stroke-dasharray: none; stroke-linecap: butt; stroke-dashoffset: 0; stroke-linejoin: miter; stroke-miterlimit: 4; fill: none; fill-rule: nonzero; opacity: 1;" vector-effect="non-scaling-stroke"  transform=" translate(-193.6, -303.63)" d="M 188.7 299.6 C 183.1 305.5 193.5 314 198.7 308.20000000000005 C 203.7 302.30000000000007 194.29999999999998 292.50000000000006 188.7 299.6 Z" stroke-linecap="round" />
</g>
		<g transform="matrix(1 0 0 1 -139.22 -183.79)"  >
<path style="stroke: none; stroke-width: 1; stroke-dasharray: none; stroke-linecap: butt; stroke-dashoffset: 0; stroke-linejoin: miter; stroke-miterlimit: 4; fill: none; fill-rule: nonzero; opacity: 1;" vector-effect="non-scaling-stroke"  transform=" translate(-132.74, -165.9)" d="M 114.7 135.6 C 114.7 135.6 114.4 137.5 113.5 138.4 C 111.5 140.4 108.4 142.1 108.7 145.1 C 115.5 152.1 142.5 187.2 148.2 194.1 C 153.1 200 156.89999999999998 192.79999999999998 156.79999999999998 187.9 C 156.7 182.1 121.49999999999999 141.7 120.59999999999998 140.3 C 120.19999999999997 139.70000000000002 115.29999999999998 135.10000000000002 114.69999999999997 135.5 L 114.69999999999997 135.5 Z" stroke-linecap="round" />
</g>
		<g transform="matrix(1 0 0 1 50.35 39.73)"  >
<path style="stroke: none; stroke-width: 1; stroke-dasharray: none; stroke-linecap: butt; stroke-dashoffset: 0; stroke-linejoin: miter; stroke-miterlimit: 4; fill: none; fill-rule: nonzero; opacity: 1;" vector-effect="non-scaling-stroke"  transform=" translate(-322.31, -389.41)" d="M 326.9 381.7 C 326.2 382.5 325.79999999999995 383.4 325.2 384.2 C 324.2 385.8 322.09999999999997 386.4 320.3 387.2 C 313.2 389.5 312.1 397.4 321.3 397.3 C 327.1 397.3 330.7 391.6 329.8 386.40000000000003 C 329.7 385.1 328.7 380.6 326.8 381.70000000000005 L 326.90000000000003 381.70000000000005 Z" stroke-linecap="round" />
</g>
		<g transform="matrix(1 0 0 1 96.43 41.05)"  >
<path style="stroke: none; stroke-width: 1; stroke-dasharray: none; stroke-linecap: butt; stroke-dashoffset: 0; stroke-linejoin: miter; stroke-miterlimit: 4; fill: none; fill-rule: nonzero; opacity: 1;" vector-effect="non-scaling-stroke"  transform=" translate(-368.39, -390.74)" d="M 366.2 396.6 C 369.7 396.8 373.09999999999997 393.5 374.09999999999997 390.40000000000003 C 373.7 383.40000000000003 364.79999999999995 382.70000000000005 362.99999999999994 389.70000000000005 C 362.09999999999997 392.30000000000007 363.09999999999997 396.20000000000005 366.19999999999993 396.70000000000005 L 366.19999999999993 396.70000000000005 Z" stroke-linecap="round" />
</g>
		<g transform="matrix(1 0 0 1 67.58 25.72)"  >
<path style="stroke: none; stroke-width: 1; stroke-dasharray: none; stroke-linecap: butt; stroke-dashoffset: 0; stroke-linejoin: miter; stroke-miterlimit: 4; fill: none; fill-rule: nonzero; opacity: 1;" vector-effect="non-scaling-stroke"  transform=" translate(-339.54, -375.41)" d="M 340.1 380.1 C 343.40000000000003 380.1 346.8 380.20000000000005 350.1 379.90000000000003 C 353.5 379.70000000000005 357.40000000000003 377.1 354.1 374.1 C 351.6 371.90000000000003 347.8 371.70000000000005 344.6 371.20000000000005 C 340.3 370.40000000000003 336.5 370.40000000000003 332.20000000000005 371.20000000000005 C 329.20000000000005 371.80000000000007 322.30000000000007 371.20000000000005 324.00000000000006 375.40000000000003 C 327.00000000000006 380.70000000000005 334.20000000000005 380.20000000000005 340.1000000000001 380.20000000000005 L 340.1000000000001 380.20000000000005 Z" stroke-linecap="round" />
</g>
		<g transform="matrix(1 0 0 1 -83.58 -91.6)"  >
<path style="stroke: none; stroke-width: 1; stroke-dasharray: none; stroke-linecap: butt; stroke-dashoffset: 0; stroke-linejoin: miter; stroke-miterlimit: 4; fill: none; fill-rule: nonzero; opacity: 1;" vector-effect="non-scaling-stroke"  transform=" translate(-188.38, -258.09)" d="M 178 290.3 C 181.3 286.40000000000003 185.9 283.6 191.1 282.6 C 197.79999999999998 255.10000000000002 224 256 217.6 237.50000000000003 C 215.5 230.60000000000002 212.2 223.10000000000002 203.4 226.90000000000003 C 178.20000000000002 235.20000000000005 168.3 256.90000000000003 159.10000000000002 278.8 C 153.60000000000002 292.6 174.10000000000002 286.6 178.00000000000003 290.3 L 178.00000000000003 290.3 Z" stroke-linecap="round" />
</g>
		<g transform="matrix(1 0 0 1 -168.41 -216.13)"  >
<path style="stroke: none; stroke-width: 1; stroke-dasharray: none; stroke-linecap: butt; stroke-dashoffset: 0; stroke-linejoin: miter; stroke-miterlimit: 4; fill: none; fill-rule: nonzero; opacity: 1;" vector-effect="non-scaling-stroke"  transform=" translate(-103.55, -133.56)" d="M 110.6 127.7 C 105.19999999999999 120.3 87.69999999999999 135.1 99.69999999999999 140.4 C 105.79999999999998 143.1 103.19999999999999 139.9 104.39999999999999 138.20000000000002 C 105.8 136.4 114.3 132.70000000000002 110.6 127.70000000000002 Z" stroke-linecap="round" />
</g>
		<g transform="matrix(1 0 0 1 -79.01 -48.32)"  >
<path style="stroke: none; stroke-width: 1; stroke-dasharray: none; stroke-linecap: butt; stroke-dashoffset: 0; stroke-linejoin: miter; stroke-miterlimit: 4; fill: none; fill-rule: nonzero; opacity: 1;" vector-effect="non-scaling-stroke"  transform=" translate(-192.95, -301.37)" d="M 179.9 313.7 C 180.9 314.9 182.1 316.4 183 315.59999999999997 C 183.3 313.2 181 309.29999999999995 180.6 306.59999999999997 C 179.4 300.99999999999994 182.29999999999998 295.29999999999995 187.2 292.49999999999994 C 191.6 289.99999999999994 197 290.29999999999995 201.89999999999998 291.59999999999997 C 203.79999999999998 291.9 208.29999999999998 293.79999999999995 209.29999999999998 293.09999999999997 C 208.1 289.9 201.49999999999997 287.7 197.89999999999998 287.2 C 182.7 284.5 170.49999999999997 301.5 179.89999999999998 313.7 L 179.89999999999998 313.7 Z" stroke-linecap="round" />
</g>
		<g transform="matrix(1 0 0 1 -35.55 -295.7)"  >
<path style="stroke: none; stroke-width: 1; stroke-dasharray: none; stroke-linecap: butt; stroke-dashoffset: 0; stroke-linejoin: miter; stroke-miterlimit: 4; fill: none; fill-rule: nonzero; opacity: 1;" vector-effect="non-scaling-stroke"  transform=" translate(-236.41, -53.99)" d="M 189.2 82.8 C 207.29999999999998 78.39999999999999 227.2 75.39999999999999 245.5 74.2 C 258.8 73.3 273.5 74.2 286.9 74.2 C 296.59999999999997 74 303.2 71.10000000000001 304.29999999999995 60.6 C 305.9 47 304.49999999999994 27.9 286.99999999999994 24.6 C 259.19999999999993 20.8 207.99999999999994 25.700000000000003 181.79999999999995 35.2 C 174.49999999999994 37.900000000000006 170.39999999999995 44.2 169.19999999999996 51.300000000000004 C 167.89999999999995 58.00000000000001 167.69999999999996 66.9 168.49999999999997 73.5 C 169.99999999999997 86.9 177.49999999999997 85.7 189.09999999999997 82.8 L 189.09999999999997 82.8 Z" stroke-linecap="round" />
</g>
		<g transform="matrix(1 0 0 1 -12.72 -25.44)"  >
<path style="stroke: none; stroke-width: 1; stroke-dasharray: none; stroke-linecap: butt; stroke-dashoffset: 0; stroke-linejoin: miter; stroke-miterlimit: 4; fill: none; fill-rule: nonzero; opacity: 1;" vector-effect="non-scaling-stroke"  transform=" translate(-259.24, -324.25)" d="M 259.4 327.7 C 256.9 321.8 259 314.8 263.4 310 L 257 310 C 253.5 315 252.1 321.4 254.1 327.4 C 255.1 331.79999999999995 260.6 338.5 265.1 338.5 C 265.6 338.1 265.1 337.2 264.20000000000005 335.6 C 262.6 333 260.6 330.5 259.40000000000003 327.70000000000005 Z" stroke-linecap="round" />
</g>
		<g transform="matrix(1 0 0 1 2.99 -28.11)"  >
<path style="stroke: none; stroke-width: 1; stroke-dasharray: none; stroke-linecap: butt; stroke-dashoffset: 0; stroke-linejoin: miter; stroke-miterlimit: 4; fill: none; fill-rule: nonzero; opacity: 1;" vector-effect="non-scaling-stroke"  transform=" translate(-274.96, -321.58)" d="M 271.6 314.2 C 260.6 318.9 267.90000000000003 332.7 278.70000000000005 329 C 289.30000000000007 325.3 281.50000000000006 310.2 271.6 314.2 Z" stroke-linecap="round" />
</g>
		<g transform="matrix(1 0 0 1 48.28 -295.16)"  >
<path style="stroke: none; stroke-width: 1; stroke-dasharray: none; stroke-linecap: butt; stroke-dashoffset: 0; stroke-linejoin: miter; stroke-miterlimit: 4; fill: none; fill-rule: nonzero; opacity: 1;" vector-effect="non-scaling-stroke"  transform=" translate(-320.24, -54.53)" d="M 326.6 75.2 C 329.40000000000003 70.60000000000001 329.3 61.2 328.90000000000003 53.800000000000004 C 328.40000000000003 46.7 328.1 38.2 323.70000000000005 32.400000000000006 C 315.50000000000006 23.400000000000006 312.20000000000005 38.50000000000001 311.90000000000003 45.900000000000006 C 311.40000000000003 54.10000000000001 310.70000000000005 64 312.8 71.60000000000001 C 314.7 79.30000000000001 322.2 82.80000000000001 326.6 75.2 L 326.6 75.2 Z" stroke-linecap="round" />
</g>
		<g transform="matrix(1 0 0 1 69.63 -239.72)"  >
<path style="stroke: none; stroke-width: 1; stroke-dasharray: none; stroke-linecap: butt; stroke-dashoffset: 0; stroke-linejoin: miter; stroke-miterlimit: 4; fill: none; fill-rule: nonzero; opacity: 1;" vector-effect="non-scaling-stroke"  transform=" translate(-341.59, -109.97)" d="M 295.2 168.9 C 307.9 161.8 320 151.70000000000002 332.9 143.9 C 352.79999999999995 129.5 390.2 116.30000000000001 394.7 91.60000000000001 C 396.2 79.80000000000001 395.59999999999997 56.00000000000001 384 48.900000000000006 C 377.3 45.800000000000004 378.3 59.300000000000004 378.7 63.400000000000006 C 380.4 96.9 380.2 107.2 349.59999999999997 126.80000000000001 C 333.49999999999994 138.60000000000002 315.59999999999997 149.70000000000002 298.9 161 C 293.9 164.1 279.09999999999997 176.8 295.2 169 L 295.2 169 Z" stroke-linecap="round" />
</g>
		<g transform="matrix(1 0 0 1 6.26 -45.24)"  >
<path style="stroke: none; stroke-width: 1; stroke-dasharray: none; stroke-linecap: butt; stroke-dashoffset: 0; stroke-linejoin: miter; stroke-miterlimit: 4; fill: none; fill-rule: nonzero; opacity: 1;" vector-effect="non-scaling-stroke"  transform=" translate(-278.22, -304.45)" d="M 270.6 305.1 C 272.1 304.6 273.70000000000005 304.20000000000005 275.3 304.20000000000005 C 279 304.00000000000006 282.8 304.80000000000007 286.40000000000003 306.1 C 288.00000000000006 306.5 293.00000000000006 309.20000000000005 294.3 308.70000000000005 C 294.6 308.70000000000005 294.7 308.40000000000003 294.6 308.1 C 290.8 302 281.90000000000003 299.70000000000005 274.70000000000005 300.20000000000005 C 269.80000000000007 300.30000000000007 265.40000000000003 302.1 261.80000000000007 304.80000000000007 C 264.20000000000005 305.1000000000001 267.1000000000001 305.20000000000005 270.6000000000001 305.1000000000001 Z" stroke-linecap="round" />
</g>
		<g transform="matrix(1 0 0 1 -116.79 -0.59)"  >
<path style="stroke: none; stroke-width: 1; stroke-dasharray: none; stroke-linecap: butt; stroke-dashoffset: 0; stroke-linejoin: miter; stroke-miterlimit: 4; fill: none; fill-rule: nonzero; opacity: 1;" vector-effect="non-scaling-stroke"  transform=" translate(-155.18, -349.1)" d="M 169.5 379.6 C 174.2 379 173.9 376.20000000000005 169.5 374.90000000000003 C 157.8 372.50000000000006 151.8 367.90000000000003 150.1 356.20000000000005 C 147.5 345.6 146.29999999999998 329.6 140.6 320.00000000000006 C 136.6 315.20000000000005 137.2 323.70000000000005 138.1 327.6000000000001 C 139.9 335.7000000000001 142.4 343.30000000000007 144.1 351.30000000000007 C 145.7 357.20000000000005 146.1 363.80000000000007 149.2 369.1000000000001 C 153.1 375.6000000000001 161.6 380.00000000000006 169.5 379.6000000000001 L 169.5 379.6000000000001 Z" stroke-linecap="round" />
</g>
		<g transform="matrix(1 0 0 1 -164 233.89)"  >
<path style="stroke: none; stroke-width: 1; stroke-dasharray: none; stroke-linecap: butt; stroke-dashoffset: 0; stroke-linejoin: miter; stroke-miterlimit: 4; fill: none; fill-rule: nonzero; opacity: 1;" vector-effect="non-scaling-stroke"  transform=" translate(-107.96, -583.58)" d="M 108.8 568.4 C 108.8 561.1 108.39999999999999 554.1 106.5 547.1 C 102.5 539.6 102.2 552.3000000000001 102.2 555 C 101.9 561.2 103 585.1 103.3 590.9 C 102.7 598.1 108.3 625 112.89999999999999 622.1999999999999 C 115.69999999999999 617.4 110.89999999999999 612.4999999999999 110.69999999999999 607.4999999999999 C 108.6 594.4999999999999 108.29999999999998 581.5999999999999 108.79999999999998 568.2999999999998 L 108.79999999999998 568.2999999999998 Z" stroke-linecap="round" />
</g>
		<g transform="matrix(1 0 0 1 114.39 248.08)"  >
<path style="stroke: none; stroke-width: 1; stroke-dasharray: none; stroke-linecap: butt; stroke-dashoffset: 0; stroke-linejoin: miter; stroke-miterlimit: 4; fill: none; fill-rule: nonzero; opacity: 1;" vector-effect="non-scaling-stroke"  transform=" translate(-386.35, -597.76)" d="M 384.6 560 C 380 565.5 382.5 574.3 381.1 580.7 C 380.20000000000005 585.1 378.3 624.5 378.90000000000003 631.3000000000001 C 378.90000000000003 637.6 383.1 641.2 388.70000000000005 636.0000000000001 C 392.70000000000005 632.0000000000001 391.6 605.6000000000001 392.20000000000005 599.1000000000001 C 392.40000000000003 594.6000000000001 393.20000000000005 581.9000000000001 393.50000000000006 579.0000000000001 C 394.80000000000007 569.2000000000002 392.70000000000005 563.0000000000001 392.50000000000006 558.2000000000002 C 389.90000000000003 556.0000000000001 387.00000000000006 557.1000000000001 384.50000000000006 560.0000000000001 L 384.6000000000001 560.0000000000001 Z" stroke-linecap="round" />
</g>
		<g transform="matrix(1 0 0 1 6.23 89.21)"  >
<path style="stroke: none; stroke-width: 1; stroke-dasharray: none; stroke-linecap: butt; stroke-dashoffset: 0; stroke-linejoin: miter; stroke-miterlimit: 4; fill: none; fill-rule: nonzero; opacity: 1;" vector-effect="non-scaling-stroke"  transform=" translate(-278.19, -438.9)" d="M 387.5 383.5 C 379.6 386.3 381.9 395.9 374.8 398.8 C 370.3 400.7 363.8 399.1 360 402.7 C 352.6 415.3 357.5 418.5 339.8 424.59999999999997 C 335.40000000000003 426.09999999999997 330.8 427.29999999999995 326.3 428.4 C 320.2 429.9 307.6 430.9 306.5 431.2 C 294.7 432.7 281.8 432.4 269.7 431.4 C 262.9 430.29999999999995 256.7 428.4 249.7 428.09999999999997 C 240 426.9 230.2 423.09999999999997 220.79999999999998 420.2 C 212.49999999999997 417.3 200.1 411.59999999999997 196.39999999999998 404.09999999999997 C 195.09999999999997 401.29999999999995 196.09999999999997 395.99999999999994 194.59999999999997 394.99999999999994 C 192.09999999999997 393.79999999999995 188.09999999999997 399.29999999999995 184.99999999999997 399.79999999999995 C 180.19999999999996 401.59999999999997 173.99999999999997 400.59999999999997 170.79999999999998 396.69999999999993 C 167.39999999999998 393.5999999999999 169.89999999999998 385.69999999999993 164.6 384.29999999999995 C 159.4 385.29999999999995 163.4 393.19999999999993 166.79999999999998 397.69999999999993 C 176.39999999999998 410.3999999999999 184.2 414.99999999999994 183.89999999999998 431.69999999999993 C 184.2 436.8999999999999 184.29999999999998 442.3999999999999 184.49999999999997 447.69999999999993 C 184.69999999999996 452.3999999999999 184.19999999999996 456.19999999999993 185.79999999999998 460.19999999999993 C 187.2 463.69999999999993 190.7 465.8999999999999 192.2 469.79999999999995 C 193.5 473.09999999999997 192.7 477.29999999999995 195 480.19999999999993 C 200.8 485.29999999999995 248.3 482.79999999999995 257.1 482.99999999999994 C 268.8 483.29999999999995 282.3 480.29999999999995 293.40000000000003 484.79999999999995 C 297.70000000000005 487.19999999999993 300.70000000000005 490.69999999999993 305.6 491.4 C 315 492.59999999999997 325.40000000000003 491.59999999999997 334.5 494 C 340.9 495 347.5 493.4 354.5 494.3 C 358.7 494.2 366.7 497 367.5 490.7 C 368.3 479.7 369 456.09999999999997 369.6 445.5 C 369.90000000000003 440 367.5 441.2 363.8 443.5 C 350.1 452 335.1 458.6 319.7 462.2 C 278.09999999999997 475.09999999999997 203.79999999999998 451.8 188.7 425.9 C 189 424.9 191.6 425.5 196.6 428.2 C 228.7 450.3 269.4 457.4 307.7 449.3 C 333.59999999999997 443.7 359.2 431.3 377.79999999999995 412.40000000000003 C 382.29999999999995 407.3 398.99999999999994 389.8 392.99999999999994 384.1 C 391.3999999999999 382.8 389.09999999999997 382.70000000000005 387.19999999999993 383.40000000000003 L 387.49999999999994 383.40000000000003 Z" stroke-linecap="round" />
</g>
		<g transform="matrix(1 0 0 1 42.55 24.84)"  >
<path style="stroke: none; stroke-width: 1; stroke-dasharray: none; stroke-linecap: butt; stroke-dashoffset: 0; stroke-linejoin: miter; stroke-miterlimit: 4; fill: none; fill-rule: nonzero; opacity: 1;" vector-effect="non-scaling-stroke"  transform=" translate(-314.51, -374.52)" d="M 316.1 381.8 C 320.5 381 322 376.1 322.1 372.3 C 322.20000000000005 369.8 321.40000000000003 367.90000000000003 318.90000000000003 367.2 C 307.3 365.09999999999997 300.3 384.2 316.1 381.8 Z" stroke-linecap="round" />
</g>
		<g transform="matrix(1 0 0 1 115.51 25.69)"  >
<path style="stroke: none; stroke-width: 1; stroke-dasharray: none; stroke-linecap: butt; stroke-dashoffset: 0; stroke-linejoin: miter; stroke-miterlimit: 4; fill: none; fill-rule: nonzero; opacity: 1;" vector-effect="non-scaling-stroke"  transform=" translate(-387.47, -375.38)" d="M 394.8 373.2 C 391 370.7 386.3 371.5 382.1 372.8 C 379.90000000000003 373.5 376.6 375.6 378.6 377.6 C 381.90000000000003 379.70000000000005 387.3 379.1 391.40000000000003 379.1 C 395.90000000000003 379.20000000000005 399.40000000000003 376.3 394.8 373.20000000000005 L 394.8 373.20000000000005 Z" stroke-linecap="round" />
</g>
		<g transform="matrix(1 0 0 1 160.78 -24.81)"  >
<path style="stroke: none; stroke-width: 1; stroke-dasharray: none; stroke-linecap: butt; stroke-dashoffset: 0; stroke-linejoin: miter; stroke-miterlimit: 4; fill: none; fill-rule: nonzero; opacity: 1;" vector-effect="non-scaling-stroke"  transform=" translate(-432.74, -324.87)" d="M 432.5 329.5 C 437 329.4 442.4 330.8 446.4 329.2 C 449.9 326.7 446 322.8 442.79999999999995 322.4 C 438.29999999999995 321.5 433.4 321.5 428.79999999999995 320.79999999999995 C 425.49999999999994 320.4 422.4 318.9 419.69999999999993 320.49999999999994 C 417.5999999999999 322.09999999999997 417.0999999999999 325.29999999999995 418.49999999999994 327.3999999999999 C 421.3999999999999 330.2999999999999 428.09999999999997 328.8999999999999 432.49999999999994 329.49999999999994 L 432.49999999999994 329.49999999999994 Z" stroke-linecap="round" />
</g>
		<g transform="matrix(1 0 0 1 -54.04 28.08)"  >
<path style="stroke: none; stroke-width: 1; stroke-dasharray: none; stroke-linecap: butt; stroke-dashoffset: 0; stroke-linejoin: miter; stroke-miterlimit: 4; fill: none; fill-rule: nonzero; opacity: 1;" vector-effect="non-scaling-stroke"  transform=" translate(-217.92, -377.77)" d="M 224.2 383.9 C 226 381.7 226.2 372.09999999999997 223.5 370.5 C 220.4 368.9 213.1 369.8 211.2 372.3 C 209.79999999999998 375.7 209.89999999999998 381.40000000000003 212.39999999999998 384.40000000000003 C 215.59999999999997 386.20000000000005 221.29999999999998 386.6 224.2 383.90000000000003 Z" stroke-linecap="round" />
</g>
		<g transform="matrix(1 0 0 1 -0.06 36.52)"  >
<path style="stroke: none; stroke-width: 1; stroke-dasharray: none; stroke-linecap: butt; stroke-dashoffset: 0; stroke-linejoin: miter; stroke-miterlimit: 4; fill: none; fill-rule: nonzero; opacity: 1;" vector-effect="non-scaling-stroke"  transform=" translate(-271.9, -386.21)" d="M 298 387.4 C 300.1 387.2 302.2 386.7 302.3 386.29999999999995 C 297.8 384.29999999999995 290.3 384.99999999999994 284.7 384.49999999999994 C 277.9 384.49999999999994 243.5 381.99999999999994 241.5 386.59999999999997 C 243.8 388.4 260.6 388.59999999999997 262.2 388.59999999999997 C 274.2 388.59999999999997 286 388.59999999999997 298 387.4 L 298 387.4 Z" stroke-linecap="round" />
</g>
		<g transform="matrix(1 0 0 1 23.35 58.48)"  >
<path style="stroke: none; stroke-width: 1; stroke-dasharray: none; stroke-linecap: butt; stroke-dashoffset: 0; stroke-linejoin: miter; stroke-miterlimit: 4; fill: none; fill-rule: nonzero; opacity: 1;" vector-effect="non-scaling-stroke"  transform=" translate(-295.31, -408.17)" d="M 295.1 393.1 C 284 393.1 272.6 393.6 263 399.5 C 256.8 403.5 252 409.2 247 414.5 C 244 417.6 241 421.6 247.7 422.4 C 274.2 424.7 301.59999999999997 422.4 326.7 413.4 C 334.09999999999997 410.09999999999997 344.8 407.79999999999995 346.9 399.2 C 347.5 395.2 342.7 393.7 339.59999999999997 395.2 C 335.9 396.59999999999997 334.29999999999995 400.2 330.4 401.2 C 324.79999999999995 402.3 318.4 402.3 312.9 400.7 C 309.9 399.59999999999997 308.79999999999995 397 307 395.09999999999997 C 303.7 392.4 299.4 393.4 295.1 393.09999999999997 L 295.1 393.09999999999997 Z" stroke-linecap="round" />
</g>
		<g transform="matrix(1 0 0 1 -86.95 25.26)"  >
<path style="stroke: none; stroke-width: 1; stroke-dasharray: none; stroke-linecap: butt; stroke-dashoffset: 0; stroke-linejoin: miter; stroke-miterlimit: 4; fill: none; fill-rule: nonzero; opacity: 1;" vector-effect="non-scaling-stroke"  transform=" translate(-185.01, -374.94)" d="M 186.6 378.5 C 193.2 375.1 191.2 368.7 183.5 371.3 C 176.5 374.5 179.2 381.40000000000003 186.6 378.5 Z" stroke-linecap="round" />
</g>
		<g transform="matrix(1 0 0 1 -70.67 28.16)"  >
<path style="stroke: none; stroke-width: 1; stroke-dasharray: none; stroke-linecap: butt; stroke-dashoffset: 0; stroke-linejoin: miter; stroke-miterlimit: 4; fill: none; fill-rule: nonzero; opacity: 1;" vector-effect="non-scaling-stroke"  transform=" translate(-201.29, -377.85)" d="M 194.6 379 C 196.2 381.7 200.4 383.3 203.29999999999998 382.1 C 205.1 381 205.6 378.70000000000005 206.99999999999997 377.20000000000005 C 207.49999999999997 376.40000000000003 208.59999999999997 375.50000000000006 208.29999999999998 374.70000000000005 C 206.39999999999998 373.1 202.7 373.30000000000007 200.2 373.20000000000005 C 197 373.20000000000005 193 375.50000000000006 194.6 379.00000000000006 L 194.6 379.00000000000006 Z" stroke-linecap="round" />
</g>
		<g transform="matrix(1 0 0 1 -80.5 13.96)"  >
<path style="stroke: none; stroke-width: 1; stroke-dasharray: none; stroke-linecap: butt; stroke-dashoffset: 0; stroke-linejoin: miter; stroke-miterlimit: 4; fill: none; fill-rule: nonzero; opacity: 1;" vector-effect="non-scaling-stroke"  transform=" translate(-191.46, -363.65)" d="M 190.4 367.7 C 193.3 367.2 198.3 364.9 197.20000000000002 361.5 C 196.10000000000002 359.5 191.9 359 189.60000000000002 359.9 C 184.3 361.5 183.90000000000003 368.9 190.40000000000003 367.7 L 190.40000000000003 367.7 Z" stroke-linecap="round" />
</g>
		<g transform="matrix(1 0 0 1 0 0)"  >
<path style="stroke: none; stroke-width: 1; stroke-dasharray: none; stroke-linecap: butt; stroke-dashoffset: 0; stroke-linejoin: miter; stroke-miterlimit: 4; fill: rgb(255,255,255); fill-rule: nonzero; opacity: 1;" vector-effect="non-scaling-stroke"  transform=" translate(-271.96, -349.69)" d="M 428.4 525.1 C 427.4 520.5 424.5 517.4 422.9 513.9 C 419.9 505.9 418.9 497.59999999999997 420.4 488.79999999999995 C 422.79999999999995 468.59999999999997 419.4 450.79999999999995 420.29999999999995 433.09999999999997 C 419.4 423.09999999999997 421.99999999999994 415.2 429.09999999999997 407.79999999999995 C 457.49999999999994 370.09999999999997 466.99999999999994 303.19999999999993 434.4 266.49999999999994 C 428 265.8999999999999 435.29999999999995 279.59999999999997 436.5 282.49999999999994 C 440.1 290.49999999999994 442.1 297.99999999999994 443.8 306.19999999999993 C 444.2 308.99999999999994 442.7 310.3999999999999 439.90000000000003 310.5999999999999 C 437.70000000000005 310.8999999999999 434.8 311.2999999999999 433.20000000000005 311.0999999999999 C 428.70000000000005 310.7999999999999 426.1 308.4999999999999 422.6 305.0999999999999 C 421.40000000000003 303.7999999999999 419.8 302.0999999999999 419.90000000000003 300.4999999999999 C 420.40000000000003 295.39999999999986 417.00000000000006 291.9999999999999 412.40000000000003 276.2999999999999 C 410.90000000000003 271.8999999999999 400.3 244.7999999999999 394.6 249.0999999999999 C 388.6 259.2999999999999 403.90000000000003 273.2999999999999 403.90000000000003 283.69999999999993 C 403.50000000000006 289.8999999999999 395.1 291.0999999999999 392.20000000000005 295.8999999999999 C 389.30000000000007 300.2999999999999 390.80000000000007 306.2999999999999 395.80000000000007 308.69999999999993 C 399.80000000000007 310.8999999999999 405.20000000000005 309.8999999999999 408.9000000000001 312.49999999999994 C 412.80000000000007 315.8999999999999 410.7000000000001 329.79999999999995 410.7000000000001 336.09999999999997 C 409.9000000000001 345.59999999999997 409.2000000000001 358.7 400.8000000000001 363.79999999999995 C 397.5000000000001 365.49999999999994 393.60000000000014 364.79999999999995 391.90000000000015 362.49999999999994 C 389.8000000000001 359.59999999999997 390.90000000000015 355.79999999999995 390.3000000000001 352.59999999999997 C 389.3000000000001 344.2 373.90000000000015 345.29999999999995 368.90000000000015 350.4 C 366.60000000000014 352.9 366.60000000000014 356.09999999999997 369.70000000000016 356.59999999999997 C 372.3000000000002 356.99999999999994 376.00000000000017 355.29999999999995 378.10000000000014 356.29999999999995 C 380.40000000000015 357.49999999999994 380.5000000000001 360.69999999999993 378.8000000000001 362.79999999999995 C 375.5000000000001 367.09999999999997 370.10000000000014 363.19999999999993 365.60000000000014 364.69999999999993 C 358.10000000000014 367.49999999999994 349.90000000000015 368.19999999999993 341.5000000000001 367.5999999999999 C 333.60000000000014 367.2999999999999 328.4000000000001 362.69999999999993 320.7000000000001 362.2999999999999 C 312.7000000000001 361.8999999999999 305.8000000000001 366.1999999999999 298.2000000000001 367.5999999999999 C 288.0000000000001 369.2999999999999 275.8000000000001 372.4999999999999 260.1000000000001 372.9999999999999 C 244.40000000000003 373.4999999999999 219.20000000000007 363.4999999999999 217.00000000000009 364.9999999999999 C 212.4000000000001 365.2999999999999 206.3000000000001 367.39999999999986 203.4000000000001 362.89999999999986 C 201.9000000000001 360.4999999999999 200.7000000000001 357.59999999999985 197.9000000000001 356.1999999999999 C 193.4000000000001 353.6999999999999 187.3000000000001 355.09999999999985 183.8000000000001 358.59999999999985 C 180.3000000000001 362.09999999999985 178.1000000000001 367.09999999999985 173.00000000000009 368.39999999999986 C 156.20000000000007 371.59999999999985 153.20000000000007 348.59999999999985 150.4000000000001 336.6999999999999 C 149.2000000000001 328.39999999999986 142.50000000000009 311.7999999999999 154.50000000000009 309.39999999999986 C 159.10000000000008 308.89999999999986 169.10000000000008 314.29999999999984 174.9000000000001 314.1999999999999 C 176.60000000000008 317.39999999999986 179.3000000000001 320.39999999999986 183.2000000000001 322.89999999999986 C 206.7000000000001 337.6999999999999 232.3000000000001 304.89999999999986 209.6000000000001 288.1999999999999 C 205.1000000000001 284.7999999999999 200.5000000000001 283.09999999999985 196.2000000000001 282.89999999999986 C 198.2000000000001 280.39999999999986 200.3000000000001 277.4999999999999 201.2000000000001 276.59999999999985 C 205.8000000000001 271.59999999999985 216.8000000000001 258.49999999999983 223.9000000000001 260.39999999999986 C 228.9000000000001 262.4999999999999 229.4000000000001 269.4999999999999 231.3000000000001 274.89999999999986 C 232.3000000000001 278.29999999999984 240.00000000000009 305.1999999999999 245.2000000000001 308.39999999999986 C 246.2000000000001 308.9999999999999 247.2000000000001 309.29999999999984 248.4000000000001 309.59999999999985 C 246.50000000000009 313.39999999999986 245.60000000000008 317.6999999999999 246.3000000000001 322.59999999999985 C 247.6000000000001 343.09999999999985 270.9000000000001 355.39999999999986 289.80000000000007 347.09999999999985 C 296.4000000000001 344.1999999999999 299.20000000000005 341.09999999999985 303.30000000000007 336.59999999999985 C 314.30000000000007 326.09999999999985 300.80000000000007 301.1999999999999 289.1000000000001 296.29999999999984 C 277.7000000000001 291.59999999999985 263.2000000000001 294.39999999999986 254.20000000000007 302.1999999999998 C 250.20000000000007 298.3999999999998 251.40000000000006 291.3999999999998 254.70000000000007 280.0999999999998 C 257.00000000000006 267.8999999999998 260.4000000000001 254.9999999999998 262.50000000000006 242.8999999999998 C 263.6000000000001 234.7999999999998 265.1000000000001 230.8999999999998 271.90000000000003 225.7999999999998 C 272.70000000000005 224.9999999999998 274.1 223.69999999999982 274.00000000000006 222.9999999999998 C 272.00000000000006 219.4999999999998 261.50000000000006 221.1999999999998 257.6000000000001 220.8999999999998 C 251.10000000000008 220.9999999999998 245.80000000000007 220.8999999999998 239.50000000000009 220.8999999999998 C 226.3000000000001 221.2999999999998 220.10000000000008 218.7999999999998 221.60000000000008 204.8999999999998 C 222.9000000000001 194.7999999999998 217.9000000000001 176.7999999999998 230.00000000000009 172.5999999999998 C 221.10000000000008 167.29999999999978 214.3000000000001 157.79999999999978 207.20000000000007 150.4999999999998 C 198.60000000000008 141.6999999999998 190.50000000000009 133.2999999999998 182.60000000000008 123.6999999999998 C 177.10000000000008 116.4999999999998 162.20000000000007 102.8999999999998 174.20000000000007 95.79999999999981 C 183.40000000000006 91.29999999999981 195.20000000000007 89.8999999999998 205.20000000000007 87.49999999999982 C 213.00000000000009 85.89999999999982 220.60000000000008 84.19999999999982 228.20000000000007 83.59999999999981 C 238.70000000000007 82.79999999999981 249.00000000000009 83.1999999999998 259.70000000000005 83.1999999999998 C 272.90000000000003 84.1999999999998 302.6 79.2999999999998 305.6 94.9999999999998 C 309.70000000000005 89.2999999999998 319.70000000000005 84.0999999999998 322.5 93.5999999999998 C 324.8 105.39999999999979 311.8 119.4999999999998 305.3 129.0999999999998 C 294.3 143.3999999999998 285.3 157.4999999999998 273.8 171.29999999999978 C 281 174.49999999999977 279.40000000000003 188.0999999999998 280 194.49999999999977 C 279.8 202.49999999999977 281 210.29999999999978 280.9 218.09999999999977 C 280.4 224.49999999999977 283.5 231.09999999999977 286 237.09999999999977 C 289.9 246.89999999999978 295.2 249.49999999999977 293.9 244.49999999999977 C 291 235.09999999999977 290.5 228.09999999999977 296.9 219.89999999999978 C 300.2 214.99999999999977 303.2 210.39999999999978 306.59999999999997 205.49999999999977 C 308.49999999999994 203.09999999999977 310.49999999999994 199.19999999999976 313.49999999999994 198.69999999999976 C 315.19999999999993 199.39999999999975 314.8999999999999 202.79999999999976 314.99999999999994 204.89999999999975 C 315.19999999999993 223.09999999999974 314.09999999999997 241.39999999999975 314.29999999999995 259.69999999999976 C 314.9 262.2999999999998 311.49999999999994 284.4999999999998 316.09999999999997 282.2999999999998 C 320.99999999999994 275.8999999999998 316.79999999999995 264.3999999999998 319.49999999999994 257.3999999999998 C 322.99999999999994 251.0999999999998 332.09999999999997 257.7999999999998 336.09999999999997 260.7999999999998 C 341.9 265.0999999999998 345.99999999999994 270.3999999999998 349.9 275.69999999999976 C 356.9 284.59999999999974 362.9 294.39999999999975 365.9 305.59999999999974 C 370.29999999999995 320.09999999999974 369.7 331.9999999999997 372.7 333.09999999999974 C 377.2 333.69999999999976 377.2 324.2999999999997 377 320.59999999999974 C 376.4 312.2999999999997 373.4 304.59999999999974 370.3 297.09999999999974 C 362.6 277.2999999999997 349.3 260.09999999999974 330.7 248.79999999999973 C 326.7 246.19999999999973 323.5 243.19999999999973 322 239.29999999999973 C 319.8 232.39999999999972 320.3 224.59999999999974 320.3 217.49999999999972 C 320.3 206.79999999999973 325.2 204.79999999999973 334.6 207.99999999999972 C 343.6 210.79999999999973 352.40000000000003 215.0999999999997 360.70000000000005 219.0999999999997 C 364.20000000000005 220.89999999999972 367.1 223.1999999999997 369.6 225.99999999999972 C 374.20000000000005 230.99999999999972 379.40000000000003 236.49999999999972 384.40000000000003 241.29999999999973 C 394.70000000000005 250.09999999999974 395.00000000000006 232.49999999999972 408.70000000000005 242.19999999999973 C 414.30000000000007 245.79999999999973 418.1 251.29999999999973 422.00000000000006 256.4999999999997 C 424.40000000000003 259.6999999999997 427.20000000000005 262.1999999999997 430.1000000000001 262.3999999999997 C 439.9000000000001 258.4999999999997 396.80000000000007 225.59999999999968 391.1000000000001 223.6999999999997 C 386.50000000000006 221.5999999999997 369.7000000000001 212.5999999999997 365.1000000000001 211.0999999999997 C 358.9000000000001 209.2999999999997 335.2000000000001 201.49999999999972 329.50000000000006 198.5999999999997 C 321.6000000000001 195.39999999999972 322.80000000000007 188.0999999999997 318.00000000000006 182.0999999999997 C 311.20000000000005 174.99999999999972 302.20000000000005 172.99999999999972 313.30000000000007 164.2999999999997 C 335.50000000000006 146.6999999999997 361.70000000000005 133.8999999999997 384.70000000000005 116.8999999999997 C 404.6 103.49999999999969 403.1 89.5999999999997 402.70000000000005 68.7999999999997 C 403.40000000000003 61.1999999999997 403.80000000000007 52.4999999999997 398.20000000000005 46.2999999999997 C 393.50000000000006 40.7999999999997 386.50000000000006 37.599999999999696 379.80000000000007 34.4999999999997 C 372.50000000000006 31.1999999999997 364.50000000000006 28.099999999999703 356.80000000000007 25.599999999999703 C 309.1000000000001 10.899999999999704 256.00000000000006 10.899999999999704 207.30000000000007 19.099999999999703 C 199.80000000000007 19.9999999999997 175.00000000000006 27.9999999999997 168.40000000000006 29.399999999999704 C 150.00000000000006 35.39999999999971 133.60000000000008 42.799999999999706 133.30000000000007 63.7999999999997 C 133.30000000000007 79.4999999999997 129.80000000000007 97.4999999999997 140.60000000000008 110.0999999999997 C 142.4000000000001 112.4999999999997 145.4000000000001 117.19999999999969 148.80000000000007 119.19999999999969 C 166.50000000000006 132.3999999999997 181.20000000000007 143.2999999999997 200.00000000000006 156.4999999999997 C 205.20000000000005 160.4999999999997 208.90000000000006 161.9999999999997 211.80000000000007 166.69999999999968 C 215.10000000000008 173.69999999999968 213.60000000000008 184.09999999999968 213.30000000000007 191.89999999999966 C 213.50000000000006 208.09999999999965 200.80000000000007 206.39999999999966 187.90000000000006 206.49999999999966 C 181.40000000000006 206.49999999999966 174.90000000000006 208.89999999999966 169.90000000000006 203.49999999999966 C 161.90000000000006 195.09999999999965 171.90000000000006 193.59999999999965 158.10000000000005 172.39999999999966 C 144.30000000000004 151.19999999999968 138.70000000000005 155.89999999999966 122.90000000000005 133.19999999999965 C 107.10000000000005 110.49999999999963 113.80000000000005 120.09999999999965 105.80000000000004 120.49999999999964 C 96.00000000000004 120.49999999999964 86.60000000000004 130.19999999999965 89.50000000000004 140.09999999999965 C 91.20000000000005 146.39999999999966 118.80000000000004 173.29999999999967 121.80000000000004 178.39999999999964 C 125.20000000000005 183.99999999999963 128.20000000000005 190.39999999999964 132.90000000000003 195.39999999999964 C 136.80000000000004 200.19999999999965 157.60000000000002 216.09999999999962 164.10000000000002 218.79999999999964 C 175.60000000000002 223.49999999999963 190.70000000000002 220.19999999999965 173.90000000000003 234.19999999999965 C 166.80000000000004 240.79999999999964 161.10000000000002 248.89999999999964 157.00000000000003 257.49999999999966 C 154.30000000000004 262.0999999999997 152.90000000000003 270.39999999999964 146.00000000000003 270.19999999999965 C 142.20000000000002 269.89999999999964 138.00000000000003 265.79999999999967 133.80000000000004 264.5999999999996 C 123.70000000000005 261.5999999999996 123.70000000000005 273.7999999999996 125.70000000000005 280.0999999999996 C 130.00000000000006 304.0999999999996 139.80000000000004 349.49999999999966 143.40000000000003 367.7999999999996 C 144.80000000000004 375.39999999999964 149.70000000000005 382.1999999999996 153.60000000000002 389.1999999999996 C 157.60000000000002 395.6999999999996 161.90000000000003 403.1999999999996 166.20000000000002 408.2999999999996 C 175.10000000000002 417.89999999999964 176.4 424.7999999999996 176.50000000000003 437.2999999999996 C 177.40000000000003 449.0999999999996 177.50000000000003 464.39999999999964 177.60000000000002 477.0999999999996 C 177.60000000000002 480.69999999999965 177.60000000000002 483.2999999999996 176.8 484.9999999999996 C 175.60000000000002 489.4999999999996 157.9 491.6999999999996 150.5 495.4999999999996 C 145.6 496.2999999999996 138 498.3999999999996 128.1 503.7999999999996 C 109.8 513.7999999999996 99.5 521.6999999999996 97 527.3999999999996 C 95 530.6999999999996 93.8 534.6999999999996 93.6 538.8999999999996 C 93.39999999999999 543.9999999999997 93.3 546.9999999999997 93.6 558.8999999999996 C 93.6 563.8999999999996 93.6 578.7999999999996 94.6 583.6999999999996 C 94.89999999999999 590.4999999999995 101.39999999999999 614.8999999999996 103.8 626.9999999999995 C 104.7 631.4999999999995 106 637.4999999999995 126.5 650.5999999999996 C 205.6 703.4999999999995 333.5 691.5999999999996 411.7 648.9999999999995 C 415.7 643.0999999999996 419.8 635.1999999999996 421.09999999999997 630.6999999999996 C 428.59999999999997 610.2999999999996 432.09999999999997 597.7999999999996 431.29999999999995 575.2999999999996 C 430.9 558.2999999999996 432.19999999999993 541.4999999999997 428.19999999999993 525.0999999999996 L 428.3999999999999 525.0999999999996 Z M 265.1 338.4 C 260.6 338.4 255.10000000000002 331.7 254.10000000000002 327.29999999999995 C 252.10000000000002 321.19999999999993 253.50000000000003 314.9 257 309.9 L 263.4 309.9 C 259 314.7 256.9 321.59999999999997 259.4 327.59999999999997 C 260.59999999999997 330.4 262.59999999999997 332.9 264.2 335.49999999999994 C 265.2 336.99999999999994 265.59999999999997 337.99999999999994 265.09999999999997 338.3999999999999 Z M 278.7 328.9 C 267.9 332.59999999999997 260.59999999999997 318.79999999999995 271.59999999999997 314.09999999999997 C 281.49999999999994 310.09999999999997 289.4 325.2 278.7 328.9 Z M 274.7 300.2 C 282 299.7 290.8 302 294.59999999999997 308.09999999999997 C 294.7 308.29999999999995 294.59999999999997 308.59999999999997 294.29999999999995 308.7 C 292.99999999999994 309.2 287.99999999999994 306.5 286.4 306.09999999999997 C 282.79999999999995 304.9 278.9 303.99999999999994 275.29999999999995 304.2 C 273.69999999999993 304.2 272.09999999999997 304.59999999999997 270.59999999999997 305.09999999999997 C 267.09999999999997 305.09999999999997 264.2 305.09999999999997 261.79999999999995 304.79999999999995 C 265.4 302.09999999999997 269.79999999999995 300.29999999999995 274.69999999999993 300.19999999999993 Z M 378.7 63.4 C 378.3 59.4 377.3 45.8 384 48.9 C 395.5 56 396.2 79.9 394.7 91.6 C 390.2 116.3 352.8 129.5 332.9 143.89999999999998 C 320.09999999999997 151.7 307.9 161.79999999999998 295.2 168.89999999999998 C 279.09999999999997 176.7 293.9 163.99999999999997 298.9 160.89999999999998 C 315.5 149.59999999999997 333.4 138.49999999999997 349.59999999999997 126.69999999999997 C 380.29999999999995 107.09999999999997 380.4 96.79999999999998 378.7 63.299999999999976 L 378.7 63.299999999999976 Z M 311.8 45.9 C 312.2 38.6 315.5 23.5 323.6 32.4 C 328 38.199999999999996 328.3 46.7 328.8 53.8 C 329.2 61.099999999999994 329.40000000000003 70.6 326.5 75.19999999999999 C 322.1 82.79999999999998 314.6 79.39999999999999 312.7 71.6 C 310.59999999999997 63.99999999999999 311.3 53.99999999999999 311.8 45.89999999999999 L 311.8 45.89999999999999 Z M 169.3 51.3 C 170.5 44.199999999999996 174.60000000000002 37.9 181.9 35.199999999999996 C 208.1 25.699999999999996 259.3 20.899999999999995 287.1 24.599999999999994 C 304.6 27.899999999999995 306 46.89999999999999 304.40000000000003 60.599999999999994 C 303.3 71.1 296.70000000000005 74 287.00000000000006 74.19999999999999 C 273.6000000000001 74.19999999999999 258.90000000000003 73.39999999999999 245.60000000000005 74.19999999999999 C 227.30000000000004 75.29999999999998 207.40000000000003 78.39999999999999 189.30000000000007 82.79999999999998 C 177.60000000000008 85.59999999999998 170.20000000000007 86.89999999999998 168.70000000000007 73.49999999999999 C 167.90000000000006 66.89999999999999 168.10000000000008 57.999999999999986 169.40000000000006 51.29999999999998 L 169.40000000000006 51.29999999999998 Z M 104.3 138.2 C 103.1 139.79999999999998 105.7 143.1 99.6 140.39999999999998 C 87.6 135.09999999999997 105.19999999999999 120.29999999999998 110.5 127.69999999999997 C 114.2 132.7 105.6 136.39999999999998 104.3 138.2 Z M 148.2 194.1 C 142.5 187.2 115.49999999999999 152.1 108.69999999999999 145.1 C 108.39999999999999 142.1 111.49999999999999 140.4 113.49999999999999 138.4 C 114.39999999999999 137.5 114.49999999999999 135.70000000000002 114.69999999999999 135.6 C 115.39999999999999 135.2 120.19999999999999 139.7 120.6 140.4 C 121.5 141.70000000000002 156.7 182.10000000000002 156.8 188 C 156.8 192.9 153.10000000000002 200.1 148.20000000000002 194.2 L 148.20000000000002 194.2 Z M 198.7 308.2 C 193.5 314 183.1 305.4 188.7 299.59999999999997 C 194.39999999999998 292.49999999999994 203.79999999999998 302.29999999999995 198.7 308.2 Z M 209.3 293.1 C 208.3 293.8 203.8 291.90000000000003 201.9 291.6 C 197 290.40000000000003 191.6 290.1 187.20000000000002 292.5 C 182.3 295.3 179.4 301 180.60000000000002 306.6 C 181.00000000000003 309.40000000000003 183.20000000000002 313.3 183.00000000000003 315.6 C 182.10000000000002 316.40000000000003 181.00000000000003 314.90000000000003 179.90000000000003 313.70000000000005 C 170.60000000000002 301.50000000000006 182.70000000000005 284.50000000000006 197.90000000000003 287.20000000000005 C 201.50000000000003 287.70000000000005 208.10000000000002 289.90000000000003 209.30000000000004 293.1 L 209.30000000000004 293.1 Z M 159.2 278.9 C 168.29999999999998 257 178.29999999999998 235.29999999999998 203.5 226.99999999999997 C 212.3 223.19999999999996 215.6 230.69999999999996 217.7 237.59999999999997 C 224.1 256.09999999999997 197.89999999999998 255.19999999999996 191.2 282.7 C 186 283.59999999999997 181.39999999999998 286.5 178.1 290.4 C 174.2 286.7 153.7 292.7 159.2 278.9 L 159.2 278.9 Z M 312.9 400.7 C 318.4 402.3 324.79999999999995 402.3 330.4 401.2 C 334.29999999999995 400.2 335.9 396.59999999999997 339.59999999999997 395.2 C 342.7 393.7 347.49999999999994 395.2 346.9 399.2 C 344.79999999999995 407.8 334.09999999999997 410.09999999999997 326.7 413.4 C 301.7 422.29999999999995 274.2 424.59999999999997 247.7 422.4 C 241 421.5 244.1 417.5 247 414.5 C 252 409.2 256.8 403.5 263 399.5 C 272.6 393.6 284 393.1 295.1 393.1 C 299.40000000000003 393.3 303.70000000000005 392.3 307 395.1 C 308.9 397 309.9 399.70000000000005 312.9 400.70000000000005 L 312.9 400.70000000000005 Z M 211.2 372.3 C 213.1 369.8 220.39999999999998 368.90000000000003 223.5 370.5 C 226.2 372.1 226 381.6 224.2 383.9 C 221.39999999999998 386.59999999999997 215.6 386.2 212.39999999999998 384.4 C 209.79999999999998 381.4 209.7 375.7 211.2 372.29999999999995 Z M 149.2 369.1 C 146.2 363.8 145.7 357.3 144.1 351.3 C 142.4 343.3 139.9 335.7 138.1 327.6 C 137.2 323.70000000000005 136.6 315.20000000000005 140.6 320 C 146.2 329.6 147.5 345.6 150.1 356.2 C 151.79999999999998 367.9 157.79999999999998 372.5 169.5 374.9 C 173.9 376.2 174.2 379.09999999999997 169.5 379.59999999999997 C 161.6 379.9 153.1 375.59999999999997 149.2 369.09999999999997 L 149.2 369.09999999999997 Z M 370.8 611.6 C 371 616.7 370.3 621.7 370.3 626.5 C 370.3 633.6 370.5 645.9 362 648.8 C 356.2 649.5 347.8 661.5 303.1 665.8 C 285.90000000000003 667.4 271 668.8 249.60000000000002 668.8 C 211.00000000000003 670 191.8 662 174.50000000000003 655.5 C 163.80000000000004 652.6 152.10000000000002 647.1 140.20000000000005 639.5 C 133.70000000000005 635.2 121.50000000000004 626.1 121.10000000000005 622.2 C 118.70000000000005 603 120.00000000000006 580.9000000000001 118.80000000000005 561.7 C 118.50000000000006 558.6 118.50000000000006 552.6 123.00000000000006 553.3000000000001 C 126.00000000000006 554.0000000000001 135.30000000000007 556.3000000000001 138.00000000000006 556.5000000000001 C 152.40000000000006 559.0000000000001 172.50000000000006 562.7000000000002 186.20000000000005 568.7000000000002 C 192.70000000000005 571.6000000000001 195.00000000000006 577.1000000000001 199.80000000000004 582.2000000000002 C 204.60000000000005 586.5000000000001 211.10000000000005 589.9000000000002 217.80000000000004 589.7000000000002 C 222.30000000000004 589.7000000000002 235.30000000000004 590.3000000000002 238.00000000000003 589.4000000000002 C 242.90000000000003 587.3000000000002 244.00000000000003 578.0000000000002 245.90000000000003 574.1000000000003 C 249.10000000000002 568.6000000000003 257.1 572.1000000000003 262.50000000000006 572.0000000000002 C 275.70000000000005 572.9000000000002 289.00000000000006 571.0000000000002 302.00000000000006 570.7000000000003 C 306.00000000000006 570.9000000000003 320.40000000000003 569.5000000000002 324.30000000000007 569.3000000000003 C 328.1000000000001 568.9000000000003 349.6000000000001 566.2000000000003 354.30000000000007 564.8000000000003 C 357.70000000000005 563.9000000000003 367.80000000000007 562.5000000000003 371.1000000000001 564.8000000000003 C 373.1000000000001 566.6000000000003 370.7000000000001 606.2000000000003 370.80000000000007 611.7000000000003 L 370.80000000000007 611.7000000000003 Z M 393.6 579 C 393.20000000000005 581.8 392.5 594.6 392.3 599.1 C 391.6 605.6 392.8 632 388.8 636 C 383.3 641.2 379 637.6 379 631.3 C 378.4 624.5999999999999 380.3 585.1999999999999 381.2 580.6999999999999 C 382.5 574.3 380 565.5999999999999 384.7 559.9999999999999 C 387.09999999999997 557.0999999999999 390 555.9999999999999 392.7 558.1999999999999 C 392.9 562.9999999999999 395 569.1999999999999 393.7 578.9999999999999 L 393.59999999999997 578.9999999999999 Z M 378.1 412.6 C 359.5 431.5 333.8 443.90000000000003 308 449.5 C 269.7 457.7 229 450.5 196.9 428.4 C 191.9 425.7 189.4 425.09999999999997 189 426.09999999999997 C 204 451.99999999999994 278.3 475.29999999999995 320 462.4 C 335.3 458.79999999999995 350.4 452.2 364.1 443.7 C 367.8 441.4 370.20000000000005 440.2 369.90000000000003 445.7 C 369.3 456.4 368.70000000000005 480 367.8 490.9 C 366.90000000000003 497.2 359 494.4 354.8 494.5 C 347.7 493.7 341.2 495.3 334.8 494.2 C 325.7 491.9 315.3 492.8 305.90000000000003 491.59999999999997 C 300.90000000000003 490.9 298.00000000000006 487.29999999999995 293.70000000000005 484.99999999999994 C 282.6 480.49999999999994 269.1 483.49999999999994 257.40000000000003 483.19999999999993 C 248.60000000000002 482.99999999999994 201.10000000000002 485.49999999999994 195.30000000000004 480.3999999999999 C 193.10000000000005 477.49999999999994 193.90000000000003 473.2999999999999 192.50000000000003 469.99999999999994 C 190.90000000000003 466.09999999999997 187.50000000000003 463.8999999999999 186.10000000000002 460.3999999999999 C 184.50000000000003 456.3999999999999 185.10000000000002 452.5999999999999 184.8 447.8999999999999 C 184.70000000000002 442.5999999999999 184.5 437.0999999999999 184.20000000000002 431.8999999999999 C 184.50000000000003 415.19999999999993 176.70000000000002 410.5999999999999 167.10000000000002 397.8999999999999 C 163.70000000000002 393.3999999999999 159.70000000000002 385.49999999999994 164.90000000000003 384.49999999999994 C 170.20000000000005 385.8999999999999 167.70000000000005 393.69999999999993 171.10000000000002 396.8999999999999 C 174.3 400.7999999999999 180.60000000000002 401.7999999999999 185.3 399.99999999999994 C 188.4 399.49999999999994 192.3 393.99999999999994 194.9 395.19999999999993 C 196.3 396.19999999999993 195.4 401.49999999999994 196.70000000000002 404.29999999999995 C 200.3 411.69999999999993 212.70000000000002 417.49999999999994 221.10000000000002 420.4 C 230.50000000000003 423.4 240.20000000000002 427.2 250.00000000000003 428.29999999999995 C 257 428.49999999999994 263.20000000000005 430.49999999999994 270 431.59999999999997 C 282.1 432.49999999999994 295 432.9 306.8 431.4 C 307.90000000000003 431.09999999999997 320.5 430.09999999999997 326.6 428.59999999999997 C 331.1 427.49999999999994 335.70000000000005 426.29999999999995 340.1 424.79999999999995 C 357.8 418.69999999999993 352.90000000000003 415.49999999999994 360.3 402.9 C 364.1 399.4 370.6 401 375.1 399 C 382.1 396.1 379.90000000000003 386.6 387.8 383.7 C 389.7 383.09999999999997 392 383.09999999999997 393.6 384.4 C 399.6 390.09999999999997 382.90000000000003 407.59999999999997 378.40000000000003 412.7 L 378.1 412.7 Z M 391.4 379.1 C 387.4 379.1 381.9 379.6 378.59999999999997 377.6 C 376.49999999999994 375.5 379.79999999999995 373.5 382.09999999999997 372.8 C 386.29999999999995 371.5 390.99999999999994 370.8 394.79999999999995 373.2 C 399.4 376.4 395.9 379.2 391.4 379.09999999999997 L 391.4 379.09999999999997 Z M 419.7 320.5 C 422.4 318.9 425.59999999999997 320.5 428.8 320.8 C 433.3 321.5 438.2 321.5 442.8 322.40000000000003 C 446 322.8 449.90000000000003 326.70000000000005 446.40000000000003 329.20000000000005 C 442.40000000000003 330.80000000000007 437.00000000000006 329.40000000000003 432.50000000000006 329.50000000000006 C 428.1000000000001 328.80000000000007 421.30000000000007 330.30000000000007 418.50000000000006 327.40000000000003 C 417.1000000000001 325.3 417.6000000000001 322.1 419.70000000000005 320.50000000000006 L 419.70000000000005 320.50000000000006 Z" stroke-linecap="round" />
</g>
</g>
</g>
</svg>