<?xml version="1.0" encoding="UTF-8" standalone="no"?><!DOCTYPE svg PUBLIC "-//W3C//DTD SVG 1.1//EN" "http://www.w3.org/Graphics/SVG/1.1/DTD/svg11.dtd"><svg xmlns="http://www.w3.org/2000/svg" xmlns:xlink="http://www.w3.org/1999/xlink" version="1.1" width="540" height="700" viewBox="0 0 540 700">
<desc>Created with SVGMaker Editor 3.0.0</desc>
<defs>
</defs>
<path transform="translate(0,0)" style="fill: rgb(255,255,255)" stroke-linecap="round" d="M 437.1 178.9 L 275.1 181.3 L 204.3 188.5 C 245.1 193.5 286.9 196.6 327.9 197.5 C 368.9 198.5 413.4 196.8 442.9 202.5 C 448.4 203.5 452 208.5 453.2 213.8 C 454.4 219.1 457 229.9 452.2 231.4 L 320.4 229.2 L 163.2 236.6 L 186 241.4 C 262.6 248.1 342.8 238.7 418.8 246.2 C 487.3 253 439 267.8 439.2 274.2 L 432 298.8 C 475 293.1 483.1 330.4 469.2 363.4 C 455.3 396.4 442.4 396.5 441.6 383.8 C 458.9 373.7 473 316.8 447.4 313.2 C 421.7 309.6 407.8 358.7 410.4 383.6 C 413 408.3 414.5 405.6 410.9 432.2 C 407.3 458.8 401.3 514.3 392.9 548.3 C 383.3 587.3 329.6 585.6 297.2 593.1 C 297.2 596.7 310.8 601.9 312.9 601.9 C 329.7 601.9 350.6 596 367.4 592.7 C 384.2 589.3 365.9 630.2 364.5 631.9 C 360.2 637.2 350.6 641 345.8 642.7 C 306.9 657.1 228.9 656.8 192.2 636.5 C 188.1 634.3 167 619.7 172.3 614.5 C 195.8 619 256.8 621.7 251.5 584.8 C 247.9 560.6 204.2 565.9 185.7 564.2 C 165.3 562.3 169.6 554.9 148.7 561.6 C 142.2 577.6 155.2 591.8 164.1 603.7 C 153.3 606.1 137 583.1 135.5 575 C 134.1 566.9 134.1 552.5 142.7 548.9 C 151.3 545.3 160 547 169.1 547.5 C 194.1 548.9 228.2 557.1 252.9 552.3 C 273.8 548.2 276.4 513.5 256.3 501.1 C 236.1 488.7 175.9 481 148.5 480.5 C 104.6 479.5 113.2 505.4 125.7 535.6 C 108.4 530.8 103.6 492.7 108.9 479.3 C 114.4 465.3 149.7 468.8 132.9 468.5 C 189.3 469.8 235.6 478.4 238.5 478.1 C 272.6 474.3 270.9 438.8 246.2 422.6 C 221.5 406.3 140 395.1 107.9 394.3 C 81.7 393.6 87.1 409.9 89.5 433.8 C 90.2 440.7 98.6 455.1 89.5 455.6 C 71 435.7 73.9 386.4 105.3 382.8 C 116.8 381.4 127.4 384.2 140.1 385.2 C 159.1 386.9 203.5 400.3 217.4 385.2 C 230.4 370.8 221.2 347.6 206.4 338.8 C 187.4 327.3 135.5 313.9 112.4 313.4 C 86 312.9 82.4 353.7 87.2 375.6 C 71.1 372 73.5 339 75.4 326.8 C 79.5 300 90.7 298.3 113 299 C 135.3 299.7 119.7 304.7 122.1 297.3 L 114.9 234.6 L 95.9 232 C 94.5 230.6 99.7 206.1 101.2 202.6 C 103.8 196.9 109.4 197.1 111 193 C 117 178.6 107.2 165.9 128.5 155.4 C 149.9 144.9 179.6 144.1 197.9 143.2 C 251.2 140.3 354.2 137.9 404.1 148.2 C 454 158.5 439.1 159.9 436.7 179.1 L 437.2 179.1 L 437 179.1 Z"/>
<path transform="translate(0,0)" style="fill: rgb(255,255,255)" stroke-linecap="round" d="M 340 21.3 C 335.2 18.9 330.8 18.7 327.6 20.8 C 324.2 23 322.7 27.1 323.2 32.9 C 323.5 36.7 325.4 39.8 327.2 42.8 C 329.3 46.2 331.2 49.2 330.4 53 C 329.4 57.4 324.3 63.8 319.4 70 C 310.5 81.1 300.5 93.7 305 104.9 C 308.2 112.9 318.2 118.3 335.4 121.5 L 336.1 117.9 C 336.1 117.9 336.1 117.9 336.1 117.9 L 336.6 117.9 C 336.6 117.9 340.2 119.3 340.2 119.3 C 343 113 339.4 108.7 336.5 105.2 C 333.9 102.1 331.6 99.4 332 94.8 C 332.3 90.8 337.2 85.5 342.4 79.9 C 350.4 71.3 359.5 61.5 359.2 49.3 C 358.9 37.6 349.3 25.9 340.1 21.4 Z"/>
<path transform="translate(0,0)" style="fill: rgb(255,255,255)" stroke-linecap="round" d="M 389.7 72.7 L 388.6 71.6 L 368.5 71.6 L 369.4 76 C 369.8 77.9 367.8 84.5 366.4 89.3 C 362.7 101.8 359.2 113.5 366.8 117 L 366.8 117 C 369.3 118.1 371.8 118.7 374.2 118.7 C 379.3 118.7 384 116.2 387.5 111.3 C 395.6 100.3 396.8 79.3 389.7 72.6 Z"/>
</svg>