<?xml version="1.0" encoding="UTF-8" standalone="no" ?>
<!DOCTYPE svg PUBLIC "-//W3C//DTD SVG 1.1//EN" "http://www.w3.org/Graphics/SVG/1.1/DTD/svg11.dtd">
<svg xmlns="http://www.w3.org/2000/svg" xmlns:xlink="http://www.w3.org/1999/xlink" version="1.1" width="960" height="960" viewBox="0 0 960 960" xml:space="preserve">
<desc>Created with Fabric.js 5.2.4</desc>
<defs>
</defs>
<rect x="0" y="0" width="100%" height="100%" fill="transparent"></rect>
<g transform="matrix(1 0 0 1 480 480)" id="a92d465d-ff2d-423f-ae64-c499fa8f5724"  >
<rect style="stroke: none; stroke-width: 1; stroke-dasharray: none; stroke-linecap: butt; stroke-dashoffset: 0; stroke-linejoin: miter; stroke-miterlimit: 4; fill: rgb(255,255,255); fill-rule: nonzero; opacity: 1; visibility: hidden;" vector-effect="non-scaling-stroke"  x="-480" y="-480" rx="0" ry="0" width="960" height="960" />
</g>
<g transform="matrix(Infinity NaN NaN Infinity 0 0)" id="bf87a526-5267-470a-b61e-689ba33f90ca"  >
</g>
<g transform="matrix(1.32 0 0 1.32 437.33 463.02)"  >
<g style="" vector-effect="non-scaling-stroke"   >
		<g transform="matrix(1 0 0 1 234.87 -179.09)"  >
<path style="stroke: none; stroke-width: 1; stroke-dasharray: none; stroke-linecap: butt; stroke-dashoffset: 0; stroke-linejoin: miter; stroke-miterlimit: 4; fill: rgb(255,255,255); fill-rule: nonzero; opacity: 1;" vector-effect="non-scaling-stroke"  transform=" translate(-505.25, -167.37)" d="M 516.1 163.9 L 516 163.9 C 515.5 162.20000000000002 514.8 161.4 514.2 160.9 C 514.5 160.5 514.2 159.4 513.9000000000001 158.4 C 507.5000000000001 148.9 493.2000000000001 155.1 494.2000000000001 169.6 C 494.5000000000001 172.7 496.7000000000001 179.5 499.1000000000001 180.5 L 499.30000000000007 180.5 C 501.1000000000001 181.4 505.00000000000006 180.7 505.9000000000001 178.5 C 510.5000000000001 176.4 513.2 173.5 516.3000000000001 167.9 C 516.3000000000001 166.20000000000002 516.5000000000001 165.8 516.1 163.9 Z M 509.1 169 L 509.1 169 C 509.1 168.9 509.70000000000005 168 509.70000000000005 168 C 509.70000000000005 168.3 509.90000000000003 168.6 510.00000000000006 169 C 509.70000000000005 168.8 509.40000000000003 168.8 509.1000000000001 169 Z" stroke-linecap="round" />
</g>
		<g transform="matrix(1 0 0 1 -131.44 18.55)"  >
<path style="stroke: none; stroke-width: 1; stroke-dasharray: none; stroke-linecap: butt; stroke-dashoffset: 0; stroke-linejoin: miter; stroke-miterlimit: 4; fill: rgb(255,255,255); fill-rule: nonzero; opacity: 1;" vector-effect="non-scaling-stroke"  transform=" translate(-138.94, -365.02)" d="M 147.5 361.9 C 147.1 360.5 146.6 359.9 146.2 359.5 C 146.39999999999998 359.1 146.2 358.2 146 357.5 C 141.2 350 129.8 355.5 130.2 367.1 C 130.39999999999998 369.6 131.89999999999998 375 133.79999999999998 375.70000000000005 L 133.89999999999998 375.70000000000005 C 135.29999999999998 376.40000000000003 138.39999999999998 375.70000000000005 139.2 373.90000000000003 C 142.79999999999998 372.00000000000006 145.1 369.6 147.6 365.00000000000006 C 147.6 363.70000000000005 147.79999999999998 363.30000000000007 147.6 361.80000000000007 L 147.5 361.80000000000007 Z M 142 366.2 L 142.5 365.4 C 142.5 365.7 142.6 365.9 142.7 366.2 C 142.5 366 142.2 366.09999999999997 142 366.2 Z" stroke-linecap="round" />
</g>
		<g transform="matrix(1 0 0 1 -181.88 -36.4)"  >
<path style="stroke: none; stroke-width: 1; stroke-dasharray: none; stroke-linecap: butt; stroke-dashoffset: 0; stroke-linejoin: miter; stroke-miterlimit: 4; fill: rgb(255,255,255); fill-rule: nonzero; opacity: 1;" vector-effect="non-scaling-stroke"  transform=" translate(-88.5, -310.07)" d="M 84.3 303.7 L 84.3 303.7 C 82.39999999999999 304 78.8 305.4 78.89999999999999 306.8 C 78.89999999999999 308 80.49999999999999 310.2 82.1 310.7 C 84.69999999999999 313.3 87.39999999999999 314.9 91.69999999999999 316.5 C 92.69999999999999 316.5 93.1 316.5 94.1 316.3 C 95 315.90000000000003 95.3 315.6 95.5 315.2 C 95.8 315.3 96.5 315.2 97 315 C 101.1 311 93.1 302.8 84.3 303.7 Z M 89.3 312.9 L 89.3 312.9 C 89.3 312.7 89.3 312.5 89.1 312.4 L 89.89999999999999 312.7 C 89.69999999999999 312.7 89.6 312.8 89.39999999999999 312.9 Z" stroke-linecap="round" />
</g>
		<g transform="matrix(1 0 0 1 247.24 -76.29)"  >
<path style="stroke: none; stroke-width: 1; stroke-dasharray: none; stroke-linecap: butt; stroke-dashoffset: 0; stroke-linejoin: miter; stroke-miterlimit: 4; fill: rgb(255,255,255); fill-rule: nonzero; opacity: 1;" vector-effect="non-scaling-stroke"  transform=" translate(-517.62, -270.17)" d="M 513.9 265.5 L 513.9 265.5 C 513.1 267 511.9 271 512.4 272.8 C 512.6999999999999 274.3 514.1 276.2 515 275.90000000000003 C 517 277.6 518.6 278.00000000000006 521 277.50000000000006 C 521.4 276.80000000000007 521.6 276.70000000000005 522 275.70000000000005 C 522.3 274.70000000000005 522.3 274.00000000000006 522.3 273.40000000000003 C 522.5 273.40000000000003 522.6999999999999 272.8 522.9 272.20000000000005 C 523.6 264.6 517.6 259.00000000000006 513.9 265.50000000000006 Z M 518.8 274.3 C 518.8 274 518.8 273.90000000000003 518.5999999999999 273.8 L 518.9999999999999 273.8 C 518.9999999999999 273.8 518.9999999999999 274.1 518.7999999999998 274.3 Z" stroke-linecap="round" />
</g>
		<g transform="matrix(1 0 0 1 -226.26 22.81)"  >
<path style="stroke: none; stroke-width: 1; stroke-dasharray: none; stroke-linecap: butt; stroke-dashoffset: 0; stroke-linejoin: miter; stroke-miterlimit: 4; fill: rgb(255,255,255); fill-rule: nonzero; opacity: 1;" vector-effect="non-scaling-stroke"  transform=" translate(-44.12, -369.27)" d="M 40.4 364.6 C 39.6 366.1 38.4 370.1 38.9 371.90000000000003 C 39.199999999999996 373.40000000000003 40.6 375.3 41.5 375.00000000000006 C 43.5 376.70000000000005 45.1 377.1000000000001 47.5 376.6000000000001 C 47.9 375.9000000000001 48.1 375.80000000000007 48.5 374.80000000000007 C 48.8 373.80000000000007 48.8 373.1000000000001 48.8 372.50000000000006 C 49 372.50000000000006 49.199999999999996 371.90000000000003 49.4 371.30000000000007 C 50.1 363.70000000000005 44.1 358.1000000000001 40.4 364.6000000000001 Z M 45.3 373.4 C 45.3 373.09999999999997 45.3 373 45.099999999999994 372.9 L 45.49999999999999 372.9 C 45.49999999999999 373 45.49999999999999 373.2 45.29999999999999 373.4 Z" stroke-linecap="round" />
</g>
		<g transform="matrix(1 0 0 1 191.04 58.91)"  >
<path style="stroke: none; stroke-width: 1; stroke-dasharray: none; stroke-linecap: butt; stroke-dashoffset: 0; stroke-linejoin: miter; stroke-miterlimit: 4; fill: rgb(255,255,255); fill-rule: nonzero; opacity: 1;" vector-effect="non-scaling-stroke"  transform=" translate(-461.42, -405.38)" d="M 468.4 404.5 L 468.4 404.5 C 468.59999999999997 404.2 468.4 403.3 468 402.5 C 462.3 393.3 451.1 392.9 452.7 403.9 C 453.09999999999997 406.29999999999995 455.3 412.09999999999997 457.3 413.59999999999997 L 457.3 413.59999999999997 C 458.8 414.9 461.90000000000003 415.79999999999995 462.5 414.49999999999994 C 466.1 414.49999999999994 468.1 413.29999999999995 470.3 410.29999999999995 C 470.1 408.99999999999994 470.3 408.79999999999995 469.90000000000003 407.29999999999995 C 469.40000000000003 405.9 468.8 404.99999999999994 468.3 404.49999999999994 Z M 464.7 408.6 L 465.09999999999997 408.1 C 465.09999999999997 408.40000000000003 465.29999999999995 408.6 465.4 408.90000000000003 C 465.09999999999997 408.6 464.9 408.6 464.7 408.6 Z" stroke-linecap="round" />
</g>
		<g transform="matrix(1 0 0 1 -137.83 -17.38)"  >
<path style="stroke: none; stroke-width: 1; stroke-dasharray: none; stroke-linecap: butt; stroke-dashoffset: 0; stroke-linejoin: miter; stroke-miterlimit: 4; fill: rgb(255,255,255); fill-rule: nonzero; opacity: 1;" vector-effect="non-scaling-stroke"  transform=" translate(-132.56, -329.08)" d="M 130.3 333.8 C 131.10000000000002 334.5 132.9 334.90000000000003 133.20000000000002 334.2 C 135.20000000000002 334.2 136.3 333.5 137.50000000000003 331.8 C 137.50000000000003 331.1 137.50000000000003 331 137.30000000000004 330.1 C 137.00000000000003 329.3 136.70000000000005 328.8 136.40000000000003 328.5 C 136.40000000000003 328.5 136.40000000000003 327.9 136.20000000000005 327.4 C 133.00000000000006 322.29999999999995 126.80000000000004 322.09999999999997 127.70000000000005 328.2 C 127.90000000000005 329.5 129.10000000000005 332.7 130.20000000000005 333.59999999999997 L 130.20000000000005 333.79999999999995 Z M 134.6 330.6 C 134.6 330.8 134.6 330.8 134.6 331 C 134.5 331 134.4 331 134.29999999999998 331 L 134.49999999999997 330.7 Z" stroke-linecap="round" />
</g>
		<g transform="matrix(1 0 0 1 158.11 -142.38)"  >
<path style="stroke: none; stroke-width: 1; stroke-dasharray: none; stroke-linecap: butt; stroke-dashoffset: 0; stroke-linejoin: miter; stroke-miterlimit: 4; fill: rgb(255,255,255); fill-rule: nonzero; opacity: 1;" vector-effect="non-scaling-stroke"  transform=" translate(-428.49, -204.08)" d="M 425.6 209.3 L 425.6 209.3 C 426.5 210.10000000000002 428.40000000000003 210.5 428.8 209.70000000000002 C 431 209.60000000000002 432.40000000000003 208.8 433.90000000000003 206.8 C 433.90000000000003 206 433.90000000000003 205.9 433.8 204.9 C 433.5 204 433.2 203.5 432.90000000000003 203.20000000000002 C 432.90000000000003 203.10000000000002 432.90000000000003 202.50000000000003 432.8 202.00000000000003 C 429.7 196.40000000000003 422.7 196.60000000000002 423.1 203.40000000000003 C 423.3 204.90000000000003 424.3 208.50000000000003 425.5 209.30000000000004 Z M 430.9 205.5 C 430.9 205.7 430.9 205.8 430.9 206 C 430.7 205.8 430.59999999999997 205.8 430.5 205.8 L 430.8 205.5 Z" stroke-linecap="round" />
</g>
		<g transform="matrix(1 0 0 1 214.39 -84.53)"  >
<path style="stroke: none; stroke-width: 1; stroke-dasharray: none; stroke-linecap: butt; stroke-dashoffset: 0; stroke-linejoin: miter; stroke-miterlimit: 4; fill: rgb(255,255,255); fill-rule: nonzero; opacity: 1;" vector-effect="non-scaling-stroke"  transform=" translate(-484.77, -261.93)" d="M 488.5 257.3 L 488.7 257.3 C 488.09999999999997 257.1 488 256.90000000000003 487.2 256.90000000000003 C 486.4 256.90000000000003 486 257.20000000000005 485.59999999999997 257.40000000000003 C 485.59999999999997 257.20000000000005 485.09999999999997 257.20000000000005 484.59999999999997 257.3 C 479.4 259.1 477.7 265.90000000000003 483.2 266.90000000000003 C 484.4 267.1 487.4 266.8 488.4 265.90000000000003 C 489.2 265.1 490 263.40000000000003 489.5 262.8 C 490 260.6 489.7 259.1 488.5 257.3 Z M 487.1 260.4 L 486.90000000000003 260.09999999999997 L 487.3 260.09999999999997 C 487.2 260.09999999999997 487.1 260.2 487.1 260.4 Z" stroke-linecap="round" />
</g>
		<g transform="matrix(1 0 0 1 -17.79 0)"  >
<path style="stroke: none; stroke-width: 1; stroke-dasharray: none; stroke-linecap: butt; stroke-dashoffset: 0; stroke-linejoin: miter; stroke-miterlimit: 4; fill: rgb(255,255,255); fill-rule: nonzero; opacity: 1;" vector-effect="non-scaling-stroke"  transform=" translate(-252.59, -346.46)" d="M 480.5 285.3 L 480.7 285.3 C 474 281.2 463.5 280.40000000000003 453.8 286 C 452.40000000000003 286.8 451 287.9 449.5 289.1 C 443.3 293.70000000000005 436.5 303.40000000000003 431.8 305.90000000000003 C 432.8 302.20000000000005 436.3 295.70000000000005 431.8 292.00000000000006 C 427.3 288.30000000000007 425.8 298.90000000000003 416 308.40000000000003 C 408 316.1 401.9 304.8 399.8 300.20000000000005 C 400 296.90000000000003 400.6 293.50000000000006 401.8 290.00000000000006 C 402.3 288.50000000000006 402.90000000000003 287.00000000000006 403.6 285.40000000000003 C 412.3 266.8 450.1 271.70000000000005 441.90000000000003 248.10000000000002 C 436.8 233.40000000000003 413.00000000000006 222.60000000000002 398.00000000000006 233.50000000000003 C 384.1000000000001 243.70000000000002 376.40000000000003 275 375.80000000000007 301.90000000000003 L 375.80000000000007 301.90000000000003 L 375.80000000000007 303.1 C 375.80000000000007 308 375.80000000000007 312.8 376.30000000000007 317.20000000000005 C 376.00000000000006 317.70000000000005 375.70000000000005 318.20000000000005 375.4000000000001 318.70000000000005 C 375.4000000000001 318.70000000000005 375.4000000000001 318.70000000000005 375.4000000000001 318.70000000000005 C 374.4000000000001 315.80000000000007 373.1000000000001 312.80000000000007 371.5000000000001 309.6 L 354.0000000000001 262.90000000000003 L 348.9000000000001 253.30000000000004 C 346.4000000000001 251.30000000000004 325.5000000000001 188.90000000000003 320.1000000000001 178.70000000000005 C 317.50000000000006 173.70000000000005 313.4000000000001 173.70000000000005 311.30000000000007 168.80000000000004 C 303.50000000000006 150.00000000000003 306.80000000000007 140.20000000000005 305.6000000000001 124.70000000000005 C 304.7000000000001 113.50000000000004 303.4000000000001 99.40000000000005 299.00000000000006 90.00000000000004 C 295.80000000000007 83.30000000000004 278.6000000000001 65.20000000000005 273.40000000000003 62.700000000000045 C 266.6 59.40000000000005 265.1 64.30000000000004 260.20000000000005 62.700000000000045 C 245.40000000000003 57.50000000000004 200.70000000000005 -7.099999999999952 187.30000000000004 20.800000000000047 C 169.70000000000005 57.30000000000005 227.60000000000002 88.30000000000004 239.80000000000004 104.80000000000004 C 246.90000000000003 114.40000000000003 251.50000000000003 132.40000000000003 260.1 142.80000000000004 C 271.20000000000005 156.20000000000005 281.20000000000005 148.80000000000004 284.3 177.10000000000002 L 283.1 183.50000000000003 C 271.5 188.50000000000003 247.3 207.00000000000003 251.00000000000003 229.70000000000005 C 251.80000000000004 234.60000000000005 253.60000000000002 239.00000000000006 255.40000000000003 243.50000000000006 C 257.1 247.70000000000005 258.90000000000003 251.90000000000006 259.90000000000003 256.50000000000006 L 271.40000000000003 289.70000000000005 L 279.50000000000006 313.00000000000006 L 263.20000000000005 314.6000000000001 L 240.10000000000005 275.50000000000006 L 232.00000000000006 267.30000000000007 C 211.70000000000005 235.50000000000006 192.40000000000006 201.00000000000006 171.20000000000005 170.60000000000008 C 167.90000000000003 165.80000000000007 164.20000000000005 167.50000000000009 162.10000000000005 164.50000000000009 C 148.00000000000006 144.8000000000001 149.70000000000005 105.90000000000009 134.30000000000004 90.90000000000009 C 129.30000000000004 86.00000000000009 109.10000000000004 77.3000000000001 103.70000000000005 77.8000000000001 C 98.50000000000004 78.3000000000001 97.70000000000005 85.1000000000001 93.00000000000004 84.90000000000009 C 80.70000000000005 84.3000000000001 56.00000000000004 65.8000000000001 40.90000000000004 64.3000000000001 C 32.80000000000004 63.5000000000001 21.700000000000042 62.5000000000001 18.90000000000004 75.6000000000001 C 8.900000000000041 123.1000000000001 70.40000000000003 123.50000000000009 85.40000000000003 135.3000000000001 C 94.50000000000003 142.50000000000009 99.80000000000004 159.1000000000001 115.80000000000004 165.4000000000001 C 125.20000000000005 169.10000000000008 134.70000000000005 161.3000000000001 137.10000000000005 186.2000000000001 C 127.60000000000005 195.2000000000001 111.10000000000005 215.1000000000001 113.30000000000005 234.2000000000001 C 115.30000000000005 251.8000000000001 142.20000000000005 291.5000000000001 150.30000000000007 307.30000000000007 L 162.30000000000007 330.00000000000006 L 176.30000000000007 352.50000000000006 C 166.30000000000007 363.40000000000003 168.00000000000006 370.00000000000006 179.50000000000006 375.30000000000007 C 179.60000000000005 375.30000000000007 179.70000000000005 375.30000000000007 179.80000000000007 375.4000000000001 C 180.80000000000007 402.80000000000007 187.60000000000008 430.7000000000001 191.00000000000006 458.30000000000007 C 189.40000000000006 457.70000000000005 188.50000000000006 457.4000000000001 188.50000000000006 457.4000000000001 C 180.80000000000007 463.0000000000001 176.90000000000006 468.0000000000001 177.60000000000005 481.0000000000001 C 188.50000000000006 509.60000000000014 193.00000000000006 543.8000000000001 199.00000000000006 574.3000000000001 C 200.70000000000005 582.8000000000001 201.50000000000006 603.7 205.60000000000005 609.7 C 207.20000000000005 612 209.60000000000005 614 213.20000000000005 615.7 C 217.70000000000005 637.7 220.90000000000003 644.3000000000001 240.20000000000005 658 C 248.40000000000003 663.8 257.1 669.2 266.6 670.9 L 273.6 672.8 C 301.3 680.0999999999999 330.40000000000003 682.9 356.8 670.9 L 362.1 668.1999999999999 C 383.3 650.4999999999999 408.40000000000003 642.9999999999999 411.3 607.9999999999999 L 411.1 607.9999999999999 L 411.1 607.5999999999999 C 412.1 596.4999999999999 411.90000000000003 584.5999999999999 411.5 572.4999999999999 C 412 566.3999999999999 412.2 560.1999999999999 412.1 557.8999999999999 C 411.40000000000003 534.8999999999999 411.40000000000003 511.59999999999985 412.8 488.6999999999999 C 413.2 482.09999999999985 416.7 465.1999999999999 414.40000000000003 460.39999999999986 C 413.8 458.9999999999999 413.1 458.09999999999985 412.3 457.4999999999999 C 413.2 425.7999999999999 414.3 393.9999999999999 414.7 362.39999999999986 C 414.7 359.9999999999999 414.2 357.29999999999984 413.8 354.79999999999984 C 439.40000000000003 334.99999999999983 445 317.89999999999986 461 299.29999999999984 L 461.4 299.29999999999984 C 462 299.29999999999984 462.7 299.09999999999985 463.4 299.09999999999985 C 471.9 299.09999999999985 478.5 316.79999999999984 485.09999999999997 308.09999999999985 C 489.2 302.59999999999985 487.79999999999995 289.6999999999999 480.59999999999997 285.39999999999986 Z M 247.6 72.8 L 247.5 72.8 C 241.8 70.2 216.8 45.5 209.8 38.599999999999994 C 206 34.89999999999999 198.70000000000002 30.999999999999993 198.5 24.099999999999994 C 218.8 29.399999999999995 239 54.099999999999994 257 71.1 C 253.3 71.69999999999999 251.6 74.6 247.6 72.8 Z M 87.3 98.3 L 87.39999999999999 98.3 C 81.8 99.8 49.19999999999999 87.1 41.39999999999999 83.3 C 40.099999999999994 82.7 25.499999999999993 77 28.699999999999992 71.5 L 92.39999999999999 91.7 C 93.49999999999999 95.60000000000001 88.8 97.9 87.3 98.3 Z M 128 107.9 L 128.1 107.9 C 119 106.60000000000001 108.8 97.80000000000001 99.39999999999999 97.10000000000001 C 98.6 75.5 135.1 97.30000000000001 136 103.30000000000001 C 133.9 110.20000000000002 132.2 108.50000000000001 128 107.9 Z M 144.5 178.3 C 139.2 175.9 136.6 168.60000000000002 136.9 160.60000000000002 L 146.9 149.10000000000002 L 158.9 170.10000000000002 L 144.5 178.3 Z M 388.7 367.5 L 388.7 367.5 C 386.7 368.8 385 369.5 384 369.3 C 383.8 369.3 383.5 369.1 383.3 368.7 C 385.1 368.4 386.90000000000003 368 388.7 367.5 Z M 261.4 73.7 C 266.09999999999997 72.60000000000001 267.5 69 272.79999999999995 71.60000000000001 C 276.19999999999993 73.30000000000001 298.69999999999993 96.9 296.4 101.20000000000002 C 293 107.50000000000001 265.4 80.60000000000002 261.4 73.70000000000002 Z M 283.9 155.3 L 300.09999999999997 149.70000000000002 L 307.4 174.70000000000002 L 290.9 179.00000000000003 L 283.9 155.30000000000004 Z M 404.4 607.9 C 402 629.6999999999999 379.7 648.1999999999999 363.59999999999997 656.6999999999999 C 328.59999999999997 675.4 265 674.9999999999999 233.59999999999997 646.4 C 224.79999999999995 638.4 222.19999999999996 629.6 219.69999999999996 617.8 C 221.69999999999996 618.3 223.79999999999995 618.8 226.19999999999996 619.1999999999999 C 232.49999999999997 620.3 257.19999999999993 625.0999999999999 283.69999999999993 624.1999999999999 C 305.19999999999993 623.4999999999999 308.5999999999999 624.1999999999999 323.5999999999999 624.1999999999999 C 376.4999999999999 624.4 404.0999999999999 594.4999999999999 404.0999999999999 594.4999999999999 L 405.19999999999993 592.6999999999999 C 405.19999999999993 598.3 404.79999999999995 603.4999999999999 404.29999999999995 607.6999999999999 L 404.29999999999995 607.6999999999999 Z M 406.5 451.4 L 406.3 451.4 C 406.3 451.4 406.3 454.09999999999997 406.3 454.09999999999997 C 405.7 453.7 405 453.2 404.40000000000003 452.49999999999994 C 396.50000000000006 456.8999999999999 376.40000000000003 467.09999999999997 350.6 472.09999999999997 C 313.70000000000005 479.09999999999997 265.70000000000005 477.09999999999997 234.90000000000003 470.49999999999994 C 219.40000000000003 467.19999999999993 205.70000000000005 463.09999999999997 197.30000000000004 460.29999999999995 L 197.30000000000004 459.69999999999993 C 193.60000000000005 432.29999999999995 189.00000000000003 404.99999999999994 185.30000000000004 377.5999999999999 C 185.40000000000003 377.5999999999999 185.60000000000005 377.5999999999999 185.70000000000005 377.69999999999993 C 191.80000000000004 381.0999999999999 198.10000000000005 384.5999999999999 204.50000000000006 387.19999999999993 C 250.50000000000006 404.99999999999994 335.4000000000001 403.69999999999993 380.6 382.79999999999995 C 390.90000000000003 377.99999999999994 399.8 370.09999999999997 408.3 361.99999999999994 L 406.5 451.4 Z" stroke-linecap="round" />
</g>
</g>
</g>
</svg>