<?xml version="1.0" encoding="UTF-8" standalone="no" ?>
<!DOCTYPE svg PUBLIC "-//W3C//DTD SVG 1.1//EN" "http://www.w3.org/Graphics/SVG/1.1/DTD/svg11.dtd">
<svg xmlns="http://www.w3.org/2000/svg" xmlns:xlink="http://www.w3.org/1999/xlink" version="1.1" width="1080" height="1080" viewBox="0 0 1080 1080" xml:space="preserve">
<desc>Created with Fabric.js 5.2.4</desc>
<defs>
</defs>
<g transform="matrix(1 0 0 1 540 540)" id="5045f3f1-bcec-4fc1-874b-4dd03844adc2"  >
</g>
<g transform="matrix(1 0 0 1 540 540)" id="ca3a101c-7b98-40dd-a606-5574173d529c"  >
<rect style="stroke: none; stroke-width: 1; stroke-dasharray: none; stroke-linecap: butt; stroke-dashoffset: 0; stroke-linejoin: miter; stroke-miterlimit: 4; fill: rgb(0,0,0); fill-rule: nonzero; opacity: 1; visibility: hidden;" vector-effect="non-scaling-stroke"  x="-540" y="-540" rx="0" ry="0" width="1080" height="1080" />
</g>
<g transform="matrix(1 0 0 1 540 539.11)"  >
<rect style="stroke: none; stroke-width: 1; stroke-dasharray: none; stroke-linecap: butt; stroke-dashoffset: 0; stroke-linejoin: miter; stroke-miterlimit: 4; fill: rgb(0,0,0); fill-rule: nonzero; opacity: 1; visibility: hidden;" vector-effect="non-scaling-stroke"  x="-540" y="-540" rx="0" ry="0" width="1080" height="1080" />
</g>
<g transform="matrix(1 0 0 1 540 540.89)"  >
<rect style="stroke: none; stroke-width: 1; stroke-dasharray: none; stroke-linecap: butt; stroke-dashoffset: 0; stroke-linejoin: miter; stroke-miterlimit: 4; fill: rgb(0,0,0); fill-rule: nonzero; opacity: 1; visibility: hidden;" vector-effect="non-scaling-stroke"  x="-540" y="-540" rx="0" ry="0" width="1080" height="1080" />
</g>
<g transform="matrix(0.71 0 0 0.71 545.81 542.94)"  >
<rect style="stroke: none; stroke-width: 1; stroke-dasharray: none; stroke-linecap: butt; stroke-dashoffset: 0; stroke-linejoin: miter; stroke-miterlimit: 4; fill: rgb(255,255,255); fill-rule: nonzero; opacity: 1; visibility: hidden;" vector-effect="non-scaling-stroke"  x="-740" y="-740" rx="0" ry="0" width="1480" height="1480" />
</g>
<g transform="matrix(0.69 0 0 0.69 523.5 536.01)"  >
<rect style="stroke: none; stroke-width: 1; stroke-dasharray: none; stroke-linecap: butt; stroke-dashoffset: 0; stroke-linejoin: miter; stroke-miterlimit: 4; fill: rgb(0,0,0); fill-rule: nonzero; opacity: 1; visibility: hidden;" vector-effect="non-scaling-stroke"  x="-740" y="-740" rx="0" ry="0" width="1480" height="1480" />
</g>
<g transform="matrix(2.91 0 0 2.91 372.87 386.01)"  >
<path style="stroke: none; stroke-width: 1; stroke-dasharray: none; stroke-linecap: butt; stroke-dashoffset: 0; stroke-linejoin: miter; stroke-miterlimit: 4; fill: rgb(255,255,255); fill-rule: nonzero; opacity: 1;" vector-effect="non-scaling-stroke"  transform=" translate(-271.35, -380.79)" d="M 241.1 309.2 C 245.4 308 249.79999999999998 306.8 254.1 305.8 C 267.3 302.90000000000003 285.1 299.1 298.3 297.6 C 311.5 296.1 302.40000000000003 296.90000000000003 303.2 298.1 L 308.09999999999997 459 C 297.2 460.9 286.2 460.8 275.29999999999995 461.7 C 264.3999999999999 462.59999999999997 256.49999999999994 464.5 247.79999999999995 464.8 C 244.39999999999995 464.8 244.09999999999997 463.2 243.79999999999995 459.90000000000003 C 242.39999999999995 447.6 242.49999999999994 433.70000000000005 241.99999999999994 421.3 C 241.09999999999994 400 242.59999999999994 373.7 240.09999999999994 353.20000000000005 C 239.39999999999995 347.00000000000006 235.89999999999995 340.50000000000006 234.59999999999994 334.50000000000006 L 239.99999999999994 329.00000000000006 L 241.19999999999993 309.20000000000005 L 241.19999999999993 309.20000000000005 Z M 300.1 301.4 L 243.90000000000003 312.09999999999997 L 243.50000000000003 326.4 C 247.60000000000002 324.79999999999995 250.40000000000003 320.2 254.40000000000003 318.79999999999995 C 262.6 315.59999999999997 275.70000000000005 316.59999999999997 284.40000000000003 313.9 L 286.8 315.2 C 286.40000000000003 345.59999999999997 288.40000000000003 376.2 288.8 406.7 C 288.8 408.5 288.2 410.09999999999997 288.2 412 C 288.3 423.8 289.2 435.6 289.2 447.5 C 288.59999999999997 449.7 282 448.8 279.8 449 C 274.2 449.6 263.90000000000003 451.3 258.7 450.3 C 253.39999999999998 449.40000000000003 253.6 445.40000000000003 253.1 444.2 C 252.6 442.99999999999994 251.7 435.7 251.5 433.5 C 249.8 412.6 251.9 391.7 245.3 371.7 C 245 370.9 245 369.4 244 369.7 L 247.3 461.29999999999995 L 305.1 455.9 L 300.1 301.59999999999997 L 300.1 301.59999999999997 Z M 242.9 332.5 L 253.8 332.2 C 255.70000000000002 332.2 260 330.8 262.5 330.7 L 279.9 319.2 C 280.09999999999997 318 278.9 318.4 278.09999999999997 318.5 C 273.59999999999997 318.6 259.09999999999997 320.5 255.19999999999996 321.8 C 251.29999999999995 323.1 245.39999999999995 330.1 242.69999999999996 332.40000000000003 L 242.79999999999995 332.40000000000003 Z M 283.7 320.7 L 264.59999999999997 334.2 L 264.29999999999995 336 C 268.09999999999997 355 276.9 372.8 278.59999999999997 392.4 C 279.09999999999997 398.4 279.4 404.7 279.79999999999995 410.5 C 280.19999999999993 418.4 279.19999999999993 429.7 280.69999999999993 436.8 C 282.19999999999993 443.90000000000003 283.69999999999993 441.6 286.29999999999995 443.2 L 283.49999999999994 320.6 L 283.59999999999997 320.6 Z M 260.7 335 L 239.2 335.6 L 238.39999999999998 337.20000000000005 L 253.2 385.30000000000007 L 274 383.1000000000001 L 260.6 335.1000000000001 L 260.70000000000005 335.1000000000001 Z M 282.8 445.7 L 278.1 442.09999999999997 L 256.6 443.4 C 257.40000000000003 444.79999999999995 259 446.7 260.6 447.09999999999997 L 282.90000000000003 445.7 L 282.8 445.7 Z" stroke-linecap="round" />
</g>
<g transform="matrix(2.91 0 0 2.91 311.32 101.22)"  >
<path style="stroke: none; stroke-width: 1; stroke-dasharray: none; stroke-linecap: butt; stroke-dashoffset: 0; stroke-linejoin: miter; stroke-miterlimit: 4; fill: rgb(255,255,255); fill-rule: nonzero; opacity: 1;" vector-effect="non-scaling-stroke"  transform=" translate(-254.09, -284.46)" d="M 249.8 273.9 C 250.4 273.29999999999995 252 272.9 252.8 272.79999999999995 C 261.7 272.4 261.6 295.4 255.4 296.09999999999997 C 249.2 296.79999999999995 246.5 277.59999999999997 249.8 273.79999999999995 L 249.8 273.79999999999995 Z M 252.6 276.6 C 251.9 281.40000000000003 251.6 287 254.7 290.90000000000003 C 256.9 290.90000000000003 256.09999999999997 277.20000000000005 252.6 276.6 Z" stroke-linecap="round" />
</g>
<g transform="matrix(2.91 0 0 2.91 350.84 91.31)"  >
<path style="stroke: none; stroke-width: 1; stroke-dasharray: none; stroke-linecap: butt; stroke-dashoffset: 0; stroke-linejoin: miter; stroke-miterlimit: 4; fill: rgb(255,255,255); fill-rule: nonzero; opacity: 1;" vector-effect="non-scaling-stroke"  transform=" translate(-267.66, -281.06)" d="M 265.9 274.8 L 266.7 278.6 L 269.8 277.90000000000003 C 273.7 280.3 271.1 282.90000000000003 267.7 283.20000000000005 C 267 285.50000000000006 270.09999999999997 291.70000000000005 267.5 293.00000000000006 C 265.2 293.70000000000005 265.7 292.1000000000001 265 290.40000000000003 C 264.1 287.90000000000003 261.2 275.1 261.7 273.3 C 262.2 271.5 272.7 267.1 273.59999999999997 269.8 C 274.49999999999994 272.5 267.9 274.5 265.99999999999994 274.90000000000003 L 265.99999999999994 274.90000000000003 Z" stroke-linecap="round" />
</g>
<g transform="matrix(2.91 0 0 2.91 398.84 80.99)"  >
<path style="stroke: none; stroke-width: 1; stroke-dasharray: none; stroke-linecap: butt; stroke-dashoffset: 0; stroke-linejoin: miter; stroke-miterlimit: 4; fill: rgb(255,255,255); fill-rule: nonzero; opacity: 1;" vector-effect="non-scaling-stroke"  transform=" translate(-284.17, -277.51)" d="M 281.4 270.5 L 282.09999999999997 273.9 L 285.59999999999997 274.2 C 286.7 277.3 283.09999999999997 276.8 282.9 277.8 C 282.29999999999995 280.1 286.2 288.40000000000003 283.7 289.5 C 281.2 290.59999999999997 281.7 288.9 281.09999999999997 287.7 C 280.49999999999994 286.5 277.09999999999997 269.9 277.2 268.9 C 277.7 266.09999999999997 290.59999999999997 263.79999999999995 291.09999999999997 266.09999999999997 C 291.9 269.59999999999997 281.99999999999994 269.49999999999994 281.4 270.59999999999997 L 281.4 270.59999999999997 Z" stroke-linecap="round" />
</g>
<g transform="matrix(2.91 0 0 2.91 370.52 698.21)"  >
<path style="stroke: none; stroke-width: 1; stroke-dasharray: none; stroke-linecap: butt; stroke-dashoffset: 0; stroke-linejoin: miter; stroke-miterlimit: 4; fill: rgb(255,255,255); fill-rule: nonzero; opacity: 1;" vector-effect="non-scaling-stroke"  transform=" translate(-269.31, -488.07)" d="M 267.9 475.6 C 275.7 475.1 277.4 494 273 499 C 268.6 504 264.4 495.7 263.7 491.7 C 263 487.5 262.3 475.9 267.9 475.59999999999997 L 267.9 475.59999999999997 Z M 267.6 480.7 C 267.6 482.59999999999997 267.20000000000005 495.09999999999997 270.5 494.3 C 273.4 493.6 269.8 478 267.6 480.7 Z" stroke-linecap="round" />
</g>
<g transform="matrix(2.91 0 0 2.91 417.44 694.94)"  >
<path style="stroke: none; stroke-width: 1; stroke-dasharray: none; stroke-linecap: butt; stroke-dashoffset: 0; stroke-linejoin: miter; stroke-miterlimit: 4; fill: rgb(255,255,255); fill-rule: nonzero; opacity: 1;" vector-effect="non-scaling-stroke"  transform=" translate(-285.42, -486.97)" d="M 292.1 498.2 C 287.1 499.09999999999997 286.8 491 283.40000000000003 488.59999999999997 L 284.20000000000005 497.99999999999994 L 283.30000000000007 499.19999999999993 L 281.1000000000001 498.49999999999994 C 280.1000000000001 497.09999999999997 278.6000000000001 481.59999999999997 278.7000000000001 479.19999999999993 C 279.5000000000001 470.29999999999995 285.6000000000001 486.8999999999999 287.5000000000001 487.69999999999993 C 287.5000000000001 485.3999999999999 285.10000000000014 475.49999999999994 287.5000000000001 474.79999999999995 C 288.4000000000001 474.49999999999994 288.8000000000001 475.29999999999995 289.2000000000001 475.99999999999994 C 290.1000000000001 477.29999999999995 292.8000000000001 497.3999999999999 292.0000000000001 498.19999999999993 Z" stroke-linecap="round" />
</g>
<g transform="matrix(1.91 0.29 -0.29 1.91 259.54 411.03)"  >
<path style="stroke: none; stroke-width: 1; stroke-dasharray: none; stroke-linecap: butt; stroke-dashoffset: 0; stroke-linejoin: miter; stroke-miterlimit: 4; fill: rgb(0,0,0); fill-rule: nonzero; opacity: 1;" vector-effect="non-scaling-stroke"  transform=" translate(-392.95, -598.85)" d="M 393.6 601.5 C 393.20000000000005 599.7 392.70000000000005 597.9 392.3 596.1 L 392.8 598.4 C 393.1 599.5 393.3 600.5 393.6 601.6 C 393.6 601.6 393.6 601.6 393.6 601.6 Z" stroke-linecap="round" />
</g>
<g transform="matrix(1.43 0 0 1.43 287.71 665.75)"  >
<path style="stroke: none; stroke-width: 1; stroke-dasharray: none; stroke-linecap: butt; stroke-dashoffset: 0; stroke-linejoin: miter; stroke-miterlimit: 4; fill: rgb(0,0,0); fill-rule: nonzero; opacity: 1;" vector-effect="non-scaling-stroke"  transform=" translate(-354.4, -532.4)" d="M 354.5 532.4 L 354.5 532.4 C 354.5 532.4 354.3 532.4 354.3 532.4 C 354.40000000000003 532.4 354.5 532.4 354.5 532.4 Z" stroke-linecap="round" />
</g>
<g transform="matrix(2.61 0.39 -0.39 2.61 674.12 609.83)"  >
<path style="stroke: none; stroke-width: 1; stroke-dasharray: none; stroke-linecap: butt; stroke-dashoffset: 0; stroke-linejoin: miter; stroke-miterlimit: 4; fill: rgb(0,0,0); fill-rule: nonzero; opacity: 1;" vector-effect="non-scaling-stroke"  transform=" translate(-554.75, -582.95)" d="M 554.6 583.1 C 554.6 583.1 554.8000000000001 583.1 554.9 583.1 C 554.9 583 554.8 582.9 554.8 582.8000000000001 L 554.5999999999999 583.0000000000001 Z" stroke-linecap="round" />
</g>
<g transform="matrix(1.77 0.27 -0.27 1.77 490.92 367.8)"  >
<path style="stroke: none; stroke-width: 1; stroke-dasharray: none; stroke-linecap: butt; stroke-dashoffset: 0; stroke-linejoin: miter; stroke-miterlimit: 4; fill: rgb(0,0,0); fill-rule: nonzero; opacity: 1;" vector-effect="non-scaling-stroke"  transform=" translate(-359, -554.1)" d="M 359 554.2 C 359 554.2 359 554 359 554 L 359 554.2 Z" stroke-linecap="round" />
</g>
<g transform="matrix(1.8 0 0 1.8 431.13 566.58)"  >
<path style="stroke: none; stroke-width: 1; stroke-dasharray: none; stroke-linecap: butt; stroke-dashoffset: 0; stroke-linejoin: miter; stroke-miterlimit: 4; fill: rgb(0,0,0); fill-rule: nonzero; opacity: 1;" vector-effect="non-scaling-stroke"  transform=" translate(-301.05, -547.6)" d="M 301 547.7 C 301 547.6 301.1 547.5 301.2 547.5 L 300.9 547.5 C 301 547.5 301 547.7 301 547.7 Z" stroke-linecap="round" />
</g>
<g transform="matrix(2.49 0.38 -0.38 2.49 619.09 374.53)"  >
<path style="stroke: none; stroke-width: 1; stroke-dasharray: none; stroke-linecap: butt; stroke-dashoffset: 0; stroke-linejoin: miter; stroke-miterlimit: 4; fill: rgb(0,0,0); fill-rule: nonzero; opacity: 1;" vector-effect="non-scaling-stroke"  transform=" translate(-537.7, -467.4)" d="M 537.8 467.3 L 537.5999999999999 467.5 L 537.8 467.5 C 537.8 467.5 537.8 467.4 537.8 467.3 Z" stroke-linecap="round" />
</g>
<g transform="matrix(1.43 0 0 1.43 249.73 610.92)"  >
<path style="stroke: none; stroke-width: 1; stroke-dasharray: none; stroke-linecap: butt; stroke-dashoffset: 0; stroke-linejoin: miter; stroke-miterlimit: 4; fill: rgb(0,0,0); fill-rule: nonzero; opacity: 1;" vector-effect="non-scaling-stroke"  transform=" translate(-328.85, -524.35)" d="M 328.6 524.4 L 329 524.4 C 329 524.4 329.1 524.3 329.1 524.3 L 328.6 524.3 C 328.6 524.3 328.6 524.4 328.6 524.4 Z" stroke-linecap="round" />
</g>
<g transform="matrix(1.43 0 0 1.43 292.96 699.38)"  >
<path style="stroke: none; stroke-width: 1; stroke-dasharray: none; stroke-linecap: butt; stroke-dashoffset: 0; stroke-linejoin: miter; stroke-miterlimit: 4; fill: rgb(0,0,0); fill-rule: nonzero; opacity: 1;" vector-effect="non-scaling-stroke"  transform=" translate(-358.1, -556.05)" d="M 357.9 556.3 C 358 556.3 358.2 556.1999999999999 358.29999999999995 556.3 L 358.29999999999995 555.8 C 358.29999999999995 555.8 358.19999999999993 555.9 358.19999999999993 555.9 L 357.8999999999999 556.3 Z" stroke-linecap="round" />
</g>
<g transform="matrix(2.13 0.32 -0.32 2.13 1024.08 392.42)"  >
<path style="stroke: none; stroke-width: 1; stroke-dasharray: none; stroke-linecap: butt; stroke-dashoffset: 0; stroke-linejoin: miter; stroke-miterlimit: 4; fill: rgb(0,0,0); fill-rule: nonzero; opacity: 1;" vector-effect="non-scaling-stroke"  transform=" translate(-585.25, -517.55)" d="M 585.2 517.7 C 585.2 517.5 585.3000000000001 517.5 585.4000000000001 517.4000000000001 L 585.1000000000001 517.4000000000001 C 585.2000000000002 517.5000000000001 585.2000000000002 517.6000000000001 585.2000000000002 517.7 Z" stroke-linecap="round" />
</g>
<g transform="matrix(2.49 0.38 -0.38 2.49 675.33 488.21)"  >
<path style="stroke: none; stroke-width: 1; stroke-dasharray: none; stroke-linecap: butt; stroke-dashoffset: 0; stroke-linejoin: miter; stroke-miterlimit: 4; fill: rgb(0,0,0); fill-rule: nonzero; opacity: 1;" vector-effect="non-scaling-stroke"  transform=" translate(-566.8, -509)" d="M 566.7 509.1 L 566.9000000000001 508.90000000000003 L 566.7 508.90000000000003 C 566.7 508.90000000000003 566.7 509.1 566.7 509.1 Z" stroke-linecap="round" />
</g>
<g transform="matrix(2.03 0.31 -0.31 2.03 985.91 328.59)"  >
<path style="stroke: none; stroke-width: 1; stroke-dasharray: none; stroke-linecap: butt; stroke-dashoffset: 0; stroke-linejoin: miter; stroke-miterlimit: 4; fill: rgb(0,0,0); fill-rule: nonzero; opacity: 1;" vector-effect="non-scaling-stroke"  transform=" translate(-582.55, -460.2)" d="M 582.7 459.9 L 582.3000000000001 460.5 C 582.5000000000001 460.4 582.6 460.4 582.8000000000001 460.5 C 582.7 460.3 582.7 460.1 582.7 459.9 L 582.7 459.9 Z" stroke-linecap="round" />
</g>
<g transform="matrix(1.27 0 0 1.27 346.97 114.09)"  >
<path style="stroke: none; stroke-width: 1; stroke-dasharray: none; stroke-linecap: butt; stroke-dashoffset: 0; stroke-linejoin: miter; stroke-miterlimit: 4; fill: rgb(0,0,0); fill-rule: nonzero; opacity: 1;" vector-effect="non-scaling-stroke"  transform=" translate(-255.5, -160)" d="M 256 162 C 255.8 160.6 255.4 159.2 255 157.9 L 255.1 157.9 C 255.29999999999998 158.20000000000002 255.4 158.6 255.5 159.1 C 255.8 160.1 256 161.1 256 162.1 L 255.9 162.1 Z" stroke-linecap="round" />
</g>
<g transform="matrix(1.27 0 0 1.27 347.21 114.04)"  >
<path style="stroke: none; stroke-width: 1; stroke-dasharray: none; stroke-linecap: butt; stroke-dashoffset: 0; stroke-linejoin: miter; stroke-miterlimit: 4; fill: rgb(0,0,0); fill-rule: nonzero; opacity: 1;" vector-effect="non-scaling-stroke"  transform=" translate(-255.7, -159.95)" d="M 256.1 162 C 256.1 161.1 255.90000000000003 160.1 255.60000000000002 159.1 C 255.50000000000003 158.7 255.3 158.29999999999998 255.20000000000002 157.9 C 255.60000000000002 159.3 255.9 160.6 256.20000000000005 162 Z" stroke-linecap="round" />
</g>
</svg>