<?xml version="1.0" encoding="UTF-8" standalone="no" ?>
<!DOCTYPE svg PUBLIC "-//W3C//DTD SVG 1.1//EN" "http://www.w3.org/Graphics/SVG/1.1/DTD/svg11.dtd">
<svg xmlns="http://www.w3.org/2000/svg" xmlns:xlink="http://www.w3.org/1999/xlink" version="1.1" width="1080" height="1080" viewBox="0 0 1080 1080" xml:space="preserve">
<desc>Created with Fabric.js 5.2.4</desc>
<defs>
</defs>
<g transform="matrix(1 0 0 1 540 540)" id="56071f6c-ecdc-4681-bafc-e5742b552bb2"  >
</g>
<g transform="matrix(1 0 0 1 540 540)" id="dac2a459-2e26-486c-b49b-5ec550549a49"  >
<rect style="stroke: none; stroke-width: 1; stroke-dasharray: none; stroke-linecap: butt; stroke-dashoffset: 0; stroke-linejoin: miter; stroke-miterlimit: 4; fill: rgb(255,255,255); fill-rule: nonzero; opacity: 1; visibility: hidden;" vector-effect="non-scaling-stroke"  x="-540" y="-540" rx="0" ry="0" width="1080" height="1080" />
</g>
<g transform="matrix(1.49 0 0 1.49 563.54 463.87)"  >
<path style="stroke: rgb(255,255,255); stroke-width: 2; stroke-dasharray: none; stroke-linecap: butt; stroke-dashoffset: 0; stroke-linejoin: miter; stroke-miterlimit: 10; fill: rgb(255,255,255); fill-rule: nonzero; opacity: 1;" vector-effect="non-scaling-stroke"  transform=" translate(-345.94, -256.75)" d="M 395.8 196.9 C 397.40000000000003 197.9 399.1 202 399.5 204.4 C 401.4 214.5 388.2 218.8 383.6 219.70000000000002 C 370.5 222.10000000000002 347.20000000000005 217.9 343.3 242.00000000000003 C 340.3 261 363 279.8 352.6 291.6 C 342.20000000000005 303.5 328.40000000000003 292.90000000000003 317.40000000000003 296.20000000000005 C 307.3 299.30000000000007 299.90000000000003 307.50000000000006 292.20000000000005 316.6 C 297.30000000000007 303.70000000000005 308.20000000000005 295.8 318.20000000000005 293.40000000000003 C 329.00000000000006 290.90000000000003 341.20000000000005 299.00000000000006 351.1 290.3 C 361.1 281.6 347.90000000000003 267.7 344.1 257.5 C 340.3 247.3 341.20000000000005 241.8 343.5 234.9 C 351.9 210.4 379.6 222.8 394.2 213.20000000000002 C 399.09999999999997 210.00000000000003 400 204.60000000000002 395.59999999999997 196.9 L 395.79999999999995 196.9 Z" stroke-linecap="round" />
</g>
<g transform="matrix(1.49 0 0 1.49 483.53 553.71)"  >
<path style="stroke: rgb(0,0,0); stroke-width: 2; stroke-dasharray: none; stroke-linecap: butt; stroke-dashoffset: 0; stroke-linejoin: miter; stroke-miterlimit: 10; fill: rgb(255,255,255); fill-rule: nonzero; opacity: 1;" vector-effect="non-scaling-stroke"  transform=" translate(-292.25, -316.85)" d="M 292.1 316.9 L 292.1 316.9 L 292.40000000000003 316.59999999999997 C 292.40000000000003 316.79999999999995 292.3 316.9 292.20000000000005 317.09999999999997 L 292.20000000000005 317.09999999999997 L 292.20000000000005 316.9 Z" stroke-linecap="round" />
</g>
<g transform="matrix(1.49 0 0 1.49 614.17 357.96)"  >
<path style="stroke: rgb(255,255,255); stroke-width: 2; stroke-dasharray: none; stroke-linecap: butt; stroke-dashoffset: 0; stroke-linejoin: miter; stroke-miterlimit: 10; fill: rgb(255,255,255); fill-rule: nonzero; opacity: 1;" vector-effect="non-scaling-stroke"  transform=" translate(-379.8, -185.7)" d="M 389.5 189.3 L 391.4 192 C 383.9 185.8 375.5 186.4 368.2 179.4 L 389.5 189.4 L 389.5 189.4 Z" stroke-linecap="round" />
</g>
<g transform="matrix(1.49 0 0 1.49 593.01 405.07)"  >
<path style="stroke: rgb(255,255,255); stroke-width: 2; stroke-dasharray: none; stroke-linecap: butt; stroke-dashoffset: 0; stroke-linejoin: miter; stroke-miterlimit: 10; fill: rgb(255,255,255); fill-rule: nonzero; opacity: 1;" vector-effect="non-scaling-stroke"  transform=" translate(-365.7, -233.6)" d="M 424.6 220 C 417.5 252.7 378.20000000000005 232.6 362.3 250.9 C 359.8 253.8 356.5 259.3 360 265.1 C 364.3 272.20000000000005 373.9 269.6 378.3 282.90000000000003 C 384.1 300.70000000000005 369.8 306.3 362.3 307.6 C 343.8 311.1 320 300.40000000000003 307.3 323.40000000000003 C 302.1 314.70000000000005 310.6 305.8 314.5 303.50000000000006 C 329.4 295.20000000000005 367.9 308.80000000000007 375.8 288.90000000000003 C 378.8 281.20000000000005 368.5 278.8 365.5 276.8 C 356.4 270.5 352 256.1 357.8 245.9 C 371.2 222.6 411.1 244.70000000000002 420.7 216.8 C 428 195.3 410.59999999999997 181.9 398.9 179.20000000000002 C 392.29999999999995 177.60000000000002 386.09999999999997 178.9 379.29999999999995 174.9 C 372.09999999999997 170.70000000000002 360.59999999999997 155.9 364.19999999999993 143.8 C 367.99999999999994 144.3 366.3999999999999 151.5 366.99999999999994 154.10000000000002 C 367.8999999999999 158.70000000000002 373.79999999999995 164.8 376.59999999999997 167.00000000000003 C 384.2 172.80000000000004 389.99999999999994 170.60000000000002 397.4 172.30000000000004 L 397.4 172.30000000000004 C 412.29999999999995 175.80000000000004 430.29999999999995 194.10000000000005 424.7 220.00000000000006 L 424.7 220.00000000000006 Z" stroke-linecap="round" />
</g>
<g transform="matrix(1.49 0 0 1.49 411.56 573.05)"  >
<path style="stroke: none; stroke-width: 1; stroke-dasharray: none; stroke-linecap: butt; stroke-dashoffset: 0; stroke-linejoin: miter; stroke-miterlimit: 4; fill: rgb(255,255,255); fill-rule: nonzero; opacity: 1;" vector-effect="non-scaling-stroke"  transform=" translate(-244.18, -329.95)" d="M 331.5 414.1 C 329.8 414.1 329.6 412.8 329.5 412.3 C 329.5 412.1 329.5 411.90000000000003 329.3 411.7 C 324.6 403.7 321.1 393.9 317.6 384.5 C 312.90000000000003 371.6 308.1 358.3 300.20000000000005 348.9 C 294.6 342.29999999999995 271.40000000000003 328.4 263.20000000000005 324.9 L 263.00000000000006 324.9 C 262.40000000000003 324.5 261.80000000000007 324.29999999999995 261.30000000000007 324.29999999999995 C 260.80000000000007 325.49999999999994 261.6000000000001 326.69999999999993 263.50000000000006 328.69999999999993 C 264.90000000000003 330.19999999999993 266.40000000000003 331.79999999999995 266.40000000000003 333.79999999999995 C 266.40000000000003 335.79999999999995 266.00000000000006 334.9 265.70000000000005 335.29999999999995 C 265.70000000000005 335.29999999999995 265.50000000000006 335.49999999999994 265.50000000000006 335.59999999999997 C 265.6000000000001 338.2 265.50000000000006 340.79999999999995 265.50000000000006 343.29999999999995 C 265.50000000000006 347.09999999999997 265.50000000000006 350.59999999999997 265.80000000000007 354.4 C 265.80000000000007 354.7 265.80000000000007 355.09999999999997 265.50000000000006 355.29999999999995 C 265.30000000000007 355.49999999999994 265.00000000000006 355.69999999999993 264.6000000000001 355.69999999999993 L 262.1000000000001 355.69999999999993 C 261.50000000000006 355.69999999999993 260.9000000000001 355.19999999999993 260.9000000000001 354.49999999999994 L 260.9000000000001 335.99999999999994 L 253.50000000000009 334.79999999999995 L 230.4000000000001 368.59999999999997 C 230.4000000000001 368.59999999999997 230.3000000000001 368.79999999999995 230.2000000000001 368.9 C 229.2000000000001 369.7 228.3000000000001 370.79999999999995 227.3000000000001 372 C 225.1000000000001 374.6 222.6000000000001 377.6 219.2000000000001 377.6 C 215.8000000000001 377.6 217.7000000000001 377.5 217.0000000000001 377.20000000000005 C 214.80000000000013 376.40000000000003 202.30000000000013 366.70000000000005 200.5000000000001 365.20000000000005 C 196.7000000000001 362.00000000000006 184.40000000000012 350.90000000000003 185.90000000000012 344.80000000000007 C 185.90000000000012 344.6000000000001 186.0000000000001 344.4000000000001 186.20000000000013 344.30000000000007 L 216.10000000000014 311.70000000000005 C 216.00000000000014 311.70000000000005 215.90000000000015 311.6 215.80000000000013 311.50000000000006 C 215.5000000000001 311.30000000000007 215.40000000000012 310.90000000000003 215.40000000000012 310.6000000000001 C 215.40000000000012 308.4000000000001 216.30000000000013 307.30000000000007 217.0000000000001 306.30000000000007 C 217.80000000000013 305.30000000000007 218.30000000000013 304.6000000000001 217.5000000000001 302.6000000000001 C 217.1000000000001 301.6000000000001 210.6000000000001 291.80000000000007 209.7000000000001 290.6000000000001 C 209.1000000000001 289.9000000000001 206.1000000000001 286.80000000000007 204.9000000000001 285.80000000000007 C 203.3000000000001 286.6000000000001 201.9000000000001 287.6000000000001 200.4000000000001 288.70000000000005 C 199.00000000000009 289.70000000000005 197.50000000000009 290.80000000000007 195.8000000000001 291.70000000000005 C 194.7000000000001 292.30000000000007 193.4000000000001 292.70000000000005 192.1000000000001 293.1 C 190.5000000000001 293.6 188.8000000000001 294.1 187.90000000000012 294.90000000000003 C 185.20000000000013 297.40000000000003 182.90000000000012 301.70000000000005 180.5000000000001 306.20000000000005 C 177.40000000000012 312.1 173.80000000000013 318.80000000000007 168.2000000000001 323.80000000000007 L 167.8000000000001 324.20000000000005 C 165.00000000000009 326.70000000000005 160.3000000000001 330.90000000000003 156.8000000000001 330.90000000000003 C 153.3000000000001 330.90000000000003 156.50000000000009 330.90000000000003 156.3000000000001 330.90000000000003 C 155.9000000000001 330.90000000000003 155.6000000000001 330.6 155.4000000000001 330.3 C 155.2000000000001 330 155.2000000000001 329.5 155.4000000000001 329.2 C 157.3000000000001 325.8 160.50000000000009 323.4 163.50000000000009 321.09999999999997 C 165.50000000000009 319.49999999999994 167.50000000000009 318.09999999999997 169.00000000000009 316.29999999999995 C 171.60000000000008 313.4 173.9000000000001 308.99999999999994 176.10000000000008 304.69999999999993 C 179.10000000000008 298.8999999999999 182.30000000000007 292.8999999999999 186.4000000000001 290.19999999999993 C 188.3000000000001 288.8999999999999 190.8000000000001 287.8999999999999 193.10000000000008 286.8999999999999 C 194.80000000000007 286.19999999999993 196.50000000000009 285.49999999999994 198.00000000000009 284.69999999999993 C 198.60000000000008 284.3999999999999 199.10000000000008 283.8999999999999 199.60000000000008 283.29999999999995 C 200.70000000000007 282.19999999999993 202.20000000000007 280.79999999999995 204.4000000000001 280.79999999999995 C 206.6000000000001 280.79999999999995 204.8000000000001 280.79999999999995 205.00000000000009 280.79999999999995 C 206.50000000000009 280.99999999999994 207.8000000000001 282.19999999999993 209.10000000000008 283.59999999999997 C 210.70000000000007 285.2 212.30000000000007 286.79999999999995 214.30000000000007 286.79999999999995 C 216.30000000000007 286.79999999999995 215.20000000000007 286.79999999999995 215.70000000000007 286.59999999999997 L 216.10000000000008 286.59999999999997 C 216.10000000000008 286.59999999999997 216.4000000000001 286.59999999999997 216.60000000000008 286.7 L 221.4000000000001 288.8 L 215.00000000000009 278.5 C 215.00000000000009 278.5 215.00000000000009 278.4 214.9000000000001 278.3 C 214.00000000000009 275.7 213.2000000000001 273 214.50000000000009 269.90000000000003 C 214.60000000000008 269.6 214.9000000000001 269.3 215.20000000000007 269.20000000000005 L 215.50000000000009 269.20000000000005 C 215.70000000000007 269.20000000000005 216.00000000000009 269.20000000000005 216.20000000000007 269.40000000000003 C 218.20000000000007 270.8 218.90000000000006 273.1 219.40000000000006 275.20000000000005 C 219.70000000000007 276.30000000000007 220.00000000000006 277.30000000000007 220.40000000000006 278.20000000000005 C 223.40000000000006 284.1 232.40000000000006 293.1 239.70000000000007 293.80000000000007 L 241.50000000000009 293.80000000000007 C 259.2000000000001 293.80000000000007 271.4000000000001 271.9000000000001 273.4000000000001 256.1000000000001 C 273.6000000000001 254.70000000000007 273.5000000000001 253.10000000000008 273.4000000000001 251.60000000000008 C 273.4000000000001 250.00000000000009 273.30000000000007 248.4000000000001 273.4000000000001 246.9000000000001 C 273.4000000000001 246.2000000000001 273.80000000000007 244.10000000000008 275.4000000000001 244.10000000000008 C 277.0000000000001 244.10000000000008 276.5000000000001 244.4000000000001 277.1000000000001 245.00000000000009 C 277.2000000000001 245.20000000000007 277.4000000000001 245.4000000000001 277.4000000000001 245.60000000000008 C 279.1000000000001 253.60000000000008 277.4000000000001 263.2000000000001 272.7000000000001 274.2000000000001 C 267.4000000000001 286.4000000000001 259.9000000000001 294.0000000000001 250.4000000000001 296.8000000000001 C 249.00000000000009 303.2000000000001 248.50000000000009 310.2000000000001 254.2000000000001 314.60000000000014 C 260.6000000000001 319.5000000000001 268.0000000000001 323.20000000000016 275.2000000000001 326.90000000000015 C 282.2000000000001 330.50000000000017 289.4000000000001 334.20000000000016 295.8000000000001 338.90000000000015 C 309.10000000000014 348.70000000000016 316.0000000000001 367.10000000000014 322.10000000000014 383.40000000000015 C 323.5000000000001 387.10000000000014 324.8000000000001 390.60000000000014 326.20000000000016 393.90000000000015 C 326.90000000000015 395.70000000000016 327.8000000000002 397.50000000000017 328.70000000000016 399.20000000000016 C 330.90000000000015 403.50000000000017 333.20000000000016 408.00000000000017 333.20000000000016 413.20000000000016 C 333.20000000000016 418.40000000000015 332.8000000000002 414.20000000000016 332.3000000000002 414.3000000000002 C 331.9000000000002 414.3000000000002 331.50000000000017 414.4000000000002 331.20000000000016 414.4000000000002 L 331.50000000000017 414.1000000000002 Z M 219.8 372.6 L 227 364.70000000000005 L 250.7 330.20000000000005 C 251.29999999999998 329.30000000000007 252.29999999999998 328.80000000000007 253.7 328.80000000000007 C 255.1 328.80000000000007 256.09999999999997 329.1000000000001 257.2 329.4000000000001 L 255.1 326.5000000000001 L 231.7 304.8000000000001 L 230.29999999999998 304.40000000000015 L 191 346.8000000000001 C 191.6 351.60000000000014 201.7 359.40000000000015 209.2 365.10000000000014 C 213 368.0000000000001 216.29999999999998 370.60000000000014 218.1 372.5000000000001 L 219.9 372.7000000000001 L 219.8 372.7000000000001 Z M 227.9 293.1 C 228.1 295.90000000000003 231.8 298.70000000000005 234.70000000000002 300.90000000000003 C 235.8 301.70000000000005 236.9 302.50000000000006 237.70000000000002 303.3 C 240.60000000000002 306 243.8 308.90000000000003 247.00000000000003 312 C 245.10000000000002 308.1 244.50000000000003 303.5 245.40000000000003 298.7 C 244.60000000000002 298.9 243.80000000000004 298.9 243.00000000000003 298.9 C 239.20000000000002 298.9 236.00000000000003 297.2 232.90000000000003 295.5 C 231.10000000000002 294.6 229.50000000000003 293.7 227.90000000000003 293.1 L 227.90000000000003 293.1 Z M 216.3 291.2 C 217 293.8 218.8 295.09999999999997 220.9 296.7 C 222.6 298 224.6 299.5 225.9 301.8 C 227.1 300.8 227.3 300.5 227.1 300.1 C 226.4 298.6 219.29999999999998 292.20000000000005 216.4 291.3 L 216.3 291.3 Z" stroke-linecap="round" />
</g>
<g transform="matrix(1.49 0 0 1.49 412.34 571.5)"  >
<path style="stroke: none; stroke-width: 1; stroke-dasharray: none; stroke-linecap: butt; stroke-dashoffset: 0; stroke-linejoin: miter; stroke-miterlimit: 4; fill: rgb(255,255,255); fill-rule: nonzero; opacity: 1;" vector-effect="non-scaling-stroke"  transform=" translate(-244.7, -328.91)" d="M 262.3 335 L 253.20000000000002 333.5 L 229.70000000000002 367.9 C 226.10000000000002 370.79999999999995 222.8 377.9 217.60000000000002 376 C 215.70000000000002 375.3 203.70000000000002 366.1 201.50000000000003 364.2 C 197.60000000000002 360.9 186.00000000000003 350.09999999999997 187.30000000000004 345 L 219.30000000000004 310.1 L 216.80000000000004 310.5 C 216.80000000000004 306.4 220.60000000000005 306.8 218.90000000000003 302.1 C 217.20000000000002 297.40000000000003 211.90000000000003 291 210.90000000000003 289.8 C 209.90000000000003 288.6 205.80000000000004 284.5 205.30000000000004 284.40000000000003 C 201.80000000000004 286.1 199.00000000000003 288.70000000000005 195.60000000000005 290.6 C 192.20000000000007 292.5 189.30000000000004 292.3 187.50000000000006 293.90000000000003 C 181.10000000000005 299.70000000000005 177.60000000000005 314.1 167.80000000000007 322.8 C 165.20000000000007 325.1 160.10000000000008 329.90000000000003 156.80000000000007 329.5 C 159.80000000000007 324.1 166.20000000000007 321.3 170.30000000000007 316.8 C 176.50000000000006 309.90000000000003 180.70000000000007 295.40000000000003 187.50000000000006 290.90000000000003 C 190.70000000000005 288.8 195.40000000000006 287.40000000000003 199.00000000000006 285.50000000000006 C 202.60000000000005 283.6000000000001 202.20000000000005 281.40000000000003 205.40000000000006 281.80000000000007 C 208.60000000000008 282.2000000000001 211.20000000000007 289.4000000000001 216.60000000000005 287.50000000000006 L 224.90000000000006 291.20000000000005 L 216.50000000000006 277.70000000000005 C 215.50000000000006 275.00000000000006 215.00000000000006 272.80000000000007 216.10000000000005 270.1 C 218.60000000000005 271.8 218.60000000000005 275.70000000000005 220.00000000000006 278.5 C 223.30000000000007 285 232.60000000000005 294.1 240.20000000000005 294.7 C 259.70000000000005 296.3 273.1 272.8 275.20000000000005 256.09999999999997 C 275.6 253.09999999999997 274.90000000000003 249.79999999999995 275.20000000000005 246.89999999999998 C 275.50000000000006 244 275.70000000000005 244.39999999999998 276.90000000000003 245.59999999999997 C 278.8 254.79999999999995 276.00000000000006 264.99999999999994 272.20000000000005 273.49999999999994 C 268.40000000000003 281.99999999999994 261.00000000000006 292.69999999999993 250.00000000000006 295.69999999999993 C 248.30000000000007 302.79999999999995 247.70000000000005 310.49999999999994 254.10000000000005 315.29999999999995 C 266.90000000000003 324.99999999999994 282.90000000000003 330.09999999999997 295.70000000000005 339.59999999999997 C 311.70000000000005 351.4 318.40000000000003 376.2 325.70000000000005 394.09999999999997 C 333.00000000000006 411.99999999999994 332.6 405.99999999999994 332.6 412.99999999999994 C 330.40000000000003 413.49999999999994 331.1 412.3999999999999 330.5 411.29999999999995 C 319.5 392.59999999999997 315.2 364.79999999999995 301.3 348.29999999999995 C 295.6 341.49999999999994 272.5 327.59999999999997 263.90000000000003 323.99999999999994 C 262.90000000000003 323.59999999999997 261.90000000000003 323.09999999999997 260.8 323.3999999999999 C 258.2 327.49999999999994 265.40000000000003 330.2999999999999 265.5 333.99999999999994 C 265.59999999999997 337.7 264.6 335.09999999999997 264.6 335.59999999999997 C 264.90000000000003 342.09999999999997 264.40000000000003 348.2 265 354.7 L 262.5 354.7 L 262.5 335.3 L 262.3 335 Z M 214.9 290.2 C 215.8 297.3 223.1 297.3 225.5 303.7 C 226.5 302.4 229 301.4 228.1 299.5 C 227.2 297.6 217 288.2 215 290.2 L 214.9 290.2 Z M 247 297 C 239.5 299.9 233.8 293.6 228 291.9 C 222.2 290.19999999999993 226.7 292 226.7 293.2 C 227 297.7 233.89999999999998 301.4 236.89999999999998 304.2 C 243.59999999999997 310.4 250.29999999999998 316.7 256.79999999999995 323.2 L 258.09999999999997 320.7 C 248.19999999999996 316.7 244.49999999999997 307 247.09999999999997 297 L 247.09999999999997 297 Z M 259.7 330.8 L 255.89999999999998 325.7 L 232.2 303.7 L 229.79999999999998 303 L 189.59999999999997 346.3 C 189.59999999999997 354.1 211.99999999999997 367.7 217.29999999999995 373.5 L 220.09999999999997 373.8 L 227.79999999999995 365.40000000000003 L 251.49999999999994 330.8 C 253.09999999999994 328.5 258.3999999999999 331.6 259.49999999999994 330.8 L 259.69999999999993 330.8 Z" stroke-linecap="round" />
</g>
<g transform="matrix(1.49 0 0 1.49 481.15 693.5)"  >
<path style="stroke: none; stroke-width: 1; stroke-dasharray: none; stroke-linecap: butt; stroke-dashoffset: 0; stroke-linejoin: miter; stroke-miterlimit: 4; fill: rgb(255,255,255); fill-rule: nonzero; opacity: 1;" vector-effect="non-scaling-stroke"  transform=" translate(-290.74, -410.6)" d="M 321.3 463.7 C 312.6 463.7 303.3 456.9 296.40000000000003 445.5 C 294.3 442.1 288.20000000000005 431.2 287.00000000000006 426.5 C 287.00000000000006 426.3 287.00000000000006 426.1 286.90000000000003 426 C 286.50000000000006 424.7 285.8 422.3 288.40000000000003 421.1 C 288.70000000000005 420.90000000000003 289.1 420.90000000000003 289.40000000000003 420.90000000000003 C 290.90000000000003 420.90000000000003 291.40000000000003 422.40000000000003 291.6 423.20000000000005 C 291.6 423.40000000000003 291.70000000000005 423.70000000000005 291.8 423.80000000000007 C 293.5 426.80000000000007 295 430.00000000000006 296.40000000000003 433.1000000000001 C 299.8 440.50000000000006 303.40000000000003 448.2000000000001 309.8 453.30000000000007 C 314.2 456.70000000000005 317.90000000000003 458.30000000000007 321.40000000000003 458.30000000000007 C 324.90000000000003 458.30000000000007 328.40000000000003 456.70000000000005 332.00000000000006 453.4000000000001 C 344.20000000000005 442.2000000000001 333.1000000000001 427.2000000000001 324.20000000000005 415.1000000000001 C 323.1 413.6000000000001 322.1 412.2000000000001 321.20000000000005 410.9000000000001 L 291.30000000000007 420.7000000000001 L 290.9000000000001 420.7000000000001 C 290.7000000000001 420.7000000000001 290.5000000000001 420.7000000000001 290.4000000000001 420.6000000000001 C 290.1000000000001 420.50000000000006 289.9000000000001 420.2000000000001 289.80000000000007 419.9000000000001 C 289.6000000000001 419.1000000000001 289.6000000000001 418.4000000000001 290.00000000000006 417.7000000000001 C 291.00000000000006 416.1000000000001 293.40000000000003 415.7000000000001 295.20000000000005 415.3000000000001 L 295.50000000000006 415.3000000000001 L 294.1000000000001 402.40000000000015 C 292.2000000000001 401.8000000000001 291.1000000000001 400.60000000000014 290.00000000000006 399.60000000000014 C 289.40000000000003 399.0000000000001 288.80000000000007 398.40000000000015 288.00000000000006 397.90000000000015 C 287.6000000000001 397.60000000000014 287.00000000000006 397.40000000000015 286.30000000000007 397.20000000000016 C 285.20000000000005 396.8000000000002 283.9000000000001 396.40000000000015 283.00000000000006 395.40000000000015 C 282.50000000000006 397.50000000000017 281.70000000000005 399.60000000000014 280.20000000000005 401.60000000000014 C 276.40000000000003 406.90000000000015 267.80000000000007 410.5000000000001 259.40000000000003 410.5000000000001 C 251 410.5000000000001 247.20000000000005 408.10000000000014 244.40000000000003 403.7000000000001 C 241.70000000000005 399.5000000000001 239.00000000000003 383.3000000000001 239.00000000000003 378.7000000000001 C 239.00000000000003 374.1000000000001 239.30000000000004 374.8000000000001 239.50000000000003 372.6000000000001 C 239.90000000000003 369.4000000000001 240.40000000000003 366.2000000000001 239.80000000000004 363.30000000000007 C 239.80000000000004 362.9000000000001 239.80000000000004 362.50000000000006 240.10000000000005 362.20000000000005 C 240.30000000000004 362.00000000000006 240.60000000000005 361.90000000000003 240.90000000000006 361.90000000000003 L 241.20000000000007 361.90000000000003 C 241.70000000000007 362.00000000000006 242.30000000000007 362.1 242.90000000000006 362.1 C 244.20000000000007 362.1 245.60000000000005 361.8 246.90000000000006 361.6 C 248.20000000000007 361.3 249.40000000000006 361.1 250.60000000000005 361.1 L 264.70000000000005 361.1 C 269.00000000000006 361.1 274.1 361.1 279.20000000000005 360.3 C 280.30000000000007 360.1 281.00000000000006 359.7 281.90000000000003 359.2 C 282.90000000000003 358.59999999999997 284.1 357.9 285.90000000000003 357.7 C 287.70000000000005 357.5 287.6 357.5 288.50000000000006 357.5 C 290.90000000000003 357.5 292.50000000000006 358 294.30000000000007 358.4 C 295.30000000000007 358.7 296.30000000000007 358.9 297.50000000000006 359.2 C 298.20000000000005 359.3 298.90000000000003 359.3 299.80000000000007 359.3 L 300.80000000000007 359.3 C 302.6000000000001 359.3 304.4000000000001 359.3 306.1000000000001 360.40000000000003 C 310.4000000000001 363.1 310.00000000000006 372.90000000000003 309.80000000000007 380.8 C 309.80000000000007 383.3 309.6000000000001 385.5 309.80000000000007 386.90000000000003 C 310.00000000000006 389.6 312.4000000000001 403.8 313.50000000000006 407.8 C 315.70000000000005 406.7 318.6000000000001 405.2 321.00000000000006 405.2 C 323.40000000000003 405.2 322.70000000000005 405.4 323.30000000000007 405.9 C 324.50000000000006 406.79999999999995 334.6000000000001 421.79999999999995 335.1000000000001 422.59999999999997 C 341.6000000000001 433.29999999999995 347.00000000000006 444.59999999999997 336.80000000000007 455.79999999999995 C 332.00000000000006 461.09999999999997 326.70000000000005 463.69999999999993 321.1000000000001 463.69999999999993 L 321.30000000000007 463.69999999999993 Z M 283.6 391.4 L 283.8 391.4 C 284.6 391.7 285.90000000000003 391.9 287.3 392 C 289.2 392.2 290.90000000000003 392.4 291.90000000000003 393.1 C 292.70000000000005 393.6 292.90000000000003 394.5 293.1 395.3 C 293.20000000000005 395.8 293.40000000000003 396.40000000000003 293.70000000000005 396.7 C 294.1 397 295.00000000000006 397.09999999999997 295.80000000000007 397.2 C 297.00000000000006 397.3 298.4000000000001 397.4 299.1000000000001 398.5 C 299.2000000000001 398.7 299.30000000000007 398.9 299.30000000000007 399.1 L 299.6000000000001 412.70000000000005 L 308.7000000000001 409.50000000000006 C 304.8000000000001 401.00000000000006 305.0000000000001 391.6000000000001 305.2000000000001 382.6000000000001 C 305.3000000000001 377.7000000000001 305.4000000000001 373.00000000000006 304.9000000000001 368.50000000000006 C 304.7000000000001 366.80000000000007 304.0000000000001 364.6000000000001 302.6000000000001 364.20000000000005 C 300.4000000000001 363.50000000000006 291.50000000000006 362.40000000000003 287.4000000000001 362.40000000000003 C 283.3000000000001 362.40000000000003 285.9000000000001 362.40000000000003 285.80000000000007 362.50000000000006 C 284.4000000000001 362.80000000000007 283.50000000000006 363.50000000000006 283.00000000000006 364.40000000000003 C 282.50000000000006 365.40000000000003 282.6000000000001 366.8 283.20000000000005 368.3 C 285.30000000000007 368.1 287.50000000000006 367.90000000000003 289.6 367.90000000000003 C 293.6 367.90000000000003 296.8 368.50000000000006 299.70000000000005 369.8 C 300.1 370 300.30000000000007 370.3 300.40000000000003 370.7 C 300.5 371.09999999999997 300.40000000000003 371.5 300.00000000000006 371.7 C 298.30000000000007 373.2 296.1000000000001 373.4 294.50000000000006 373.4 C 292.90000000000003 373.4 291.90000000000003 373.29999999999995 290.70000000000005 373.09999999999997 C 289.50000000000006 372.99999999999994 288.30000000000007 372.9 287.30000000000007 372.9 C 284.50000000000006 372.9 283.80000000000007 373.79999999999995 283.50000000000006 375.29999999999995 C 283.00000000000006 377.99999999999994 283.1000000000001 380.99999999999994 283.30000000000007 384.19999999999993 C 283.4000000000001 386.49999999999994 283.50000000000006 388.8999999999999 283.4000000000001 391.29999999999995 L 283.6000000000001 391.29999999999995 Z M 244.4 367 C 244.5 369.4 244.5 371.9 244.5 374.6 C 244.5 383.3 244.5 393.20000000000005 249 399.70000000000005 C 251.9 403.90000000000003 256.5 404.80000000000007 259.8 404.80000000000007 C 263.1 404.80000000000007 267.90000000000003 403.6000000000001 271.40000000000003 401.6000000000001 C 280.1 396.6000000000001 279.20000000000005 385.7000000000001 278.40000000000003 375.30000000000007 C 278.1 371.80000000000007 277.90000000000003 368.50000000000006 278.00000000000006 365.50000000000006 L 277.00000000000006 364.50000000000006 C 273.6000000000001 366.00000000000006 265.90000000000003 366.20000000000005 255.60000000000005 366.40000000000003 C 251.30000000000004 366.40000000000003 246.10000000000005 366.6 244.30000000000004 366.90000000000003 L 244.30000000000004 366.90000000000003 Z M 243.9 367.1 L 243.9 367.1 Z" stroke-linecap="round" />
</g>
<g transform="matrix(1.49 0 0 1.49 481.18 693.72)"  >
<path style="stroke: none; stroke-width: 1; stroke-dasharray: none; stroke-linecap: butt; stroke-dashoffset: 0; stroke-linejoin: miter; stroke-miterlimit: 4; fill: rgb(255,255,255); fill-rule: nonzero; opacity: 1;" vector-effect="non-scaling-stroke"  transform=" translate(-290.76, -410.75)" d="M 313 409.4 C 315.2 408.29999999999995 320.6 405.09999999999997 322.7 406.79999999999995 C 324.79999999999995 408.49999999999994 333.09999999999997 421.29999999999995 334.2 423.19999999999993 C 340.59999999999997 433.79999999999995 345.7 444.3999999999999 336.09999999999997 454.99999999999994 C 321.79999999999995 470.59999999999997 306.2 459.3999999999999 297.4 444.8999999999999 C 294.9 440.7999999999999 289.29999999999995 430.49999999999994 288.2 426.19999999999993 C 287.1 421.8999999999999 287 422.99999999999994 288.9 422.19999999999993 C 290.79999999999995 421.3999999999999 290.29999999999995 423.5999999999999 290.79999999999995 424.3999999999999 C 296.4 434.3999999999999 299.69999999999993 446.8999999999999 309.09999999999997 454.2999999999999 C 317.49999999999994 460.7999999999999 324.59999999999997 461.7999999999999 332.79999999999995 454.2999999999999 C 347.69999999999993 440.6999999999999 330.09999999999997 421.6999999999999 321.59999999999997 409.5999999999999 L 290.9 419.69999999999993 C 290 416.8999999999999 296.29999999999995 416.79999999999995 296.79999999999995 416.29999999999995 L 295.19999999999993 401.59999999999997 C 292.0999999999999 400.79999999999995 290.99999999999994 398.59999999999997 288.69999999999993 396.99999999999994 C 286.3999999999999 395.3999999999999 283.0999999999999 395.8999999999999 283.29999999999995 392.69999999999993 C 285.29999999999995 393.5999999999999 289.69999999999993 393.29999999999995 291.19999999999993 394.29999999999995 C 292.69999999999993 395.29999999999995 291.79999999999995 396.99999999999994 292.8999999999999 397.79999999999995 C 294.2999999999999 398.99999999999994 297.2999999999999 398.09999999999997 298.0999999999999 399.29999999999995 L 298.4999999999999 414.59999999999997 L 310.2999999999999 410.4 C 303.5999999999999 397.4 307.5999999999999 382 306.0999999999999 368.59999999999997 C 305.8999999999999 366.59999999999997 304.9999999999999 363.9 302.9999999999999 363.29999999999995 C 300.2999999999999 362.49999999999994 288.1999999999999 360.99999999999994 285.5999999999999 361.59999999999997 C 281.2999999999999 362.59999999999997 280.7999999999999 366.2 282.5999999999999 369.79999999999995 C 288.19999999999993 369.19999999999993 293.9999999999999 368.69999999999993 299.3999999999999 371.19999999999993 C 294.99999999999994 375.29999999999995 283.8999999999999 368.3999999999999 282.49999999999994 375.49999999999994 C 280.99999999999994 383.3999999999999 284.8999999999999 393.3999999999999 279.29999999999995 401.09999999999997 C 272.79999999999995 410.09999999999997 251.89999999999995 413.49999999999994 245.39999999999995 403.29999999999995 C 238.89999999999995 393.09999999999997 240.19999999999996 383.69999999999993 240.19999999999996 378.9 C 240.19999999999996 374.1 241.99999999999997 368.29999999999995 241.09999999999997 363.29999999999995 C 244.39999999999998 364.09999999999997 247.89999999999998 362.49999999999994 250.79999999999995 362.49999999999994 C 260.09999999999997 362.29999999999995 270.09999999999997 363.09999999999997 279.59999999999997 361.69999999999993 C 289.09999999999997 360.2999999999999 283.29999999999995 359.49999999999994 286.29999999999995 359.0999999999999 C 291.49999999999994 358.4999999999999 293.49999999999994 359.8999999999999 297.49999999999994 360.5999999999999 C 301.49999999999994 361.2999999999999 303.29999999999995 360.19999999999993 305.69999999999993 361.69999999999993 C 310.69999999999993 364.8999999999999 308.29999999999995 381.49999999999994 308.79999999999995 387.3999999999999 C 309.29999999999995 393.2999999999999 312.09999999999997 409.0999999999999 312.99999999999994 409.7999999999999 L 312.99999999999994 409.3999999999999 Z M 277.2 363.1 C 272.59999999999997 366.3 244.5 364.5 243.1 366.3 C 243.79999999999998 376.6 241.79999999999998 391.3 248 400.40000000000003 C 253.3 408.20000000000005 264.7 406.90000000000003 272 402.70000000000005 C 284.6 395.40000000000003 278.5 376.90000000000003 279.2 365.1 L 277.3 363.1 L 277.2 363.1 Z" stroke-linecap="round" />
</g>
<g transform="matrix(1.49 0 0 1.49 260.56 618.1)"  >
<path style="stroke: none; stroke-width: 1; stroke-dasharray: none; stroke-linecap: butt; stroke-dashoffset: 0; stroke-linejoin: miter; stroke-miterlimit: 4; fill: rgb(255,255,255); fill-rule: nonzero; opacity: 1;" vector-effect="non-scaling-stroke"  transform=" translate(-142.92, -360.05)" d="M 164.2 395.5 C 162.89999999999998 395.5 162.1 394.9 161.39999999999998 394.3 C 161.29999999999998 394.2 161.09999999999997 394.1 160.89999999999998 393.90000000000003 C 159.7 393.00000000000006 156.79999999999998 390.1 153.79999999999998 387.1 C 151.1 384.40000000000003 147.49999999999997 380.70000000000005 146.1 379.70000000000005 C 140.4 383.6 131.5 387.6 122.69999999999999 387.6 L 122.69999999999999 387.6 C 116.99999999999999 387.6 112.29999999999998 385.90000000000003 108.79999999999998 382.40000000000003 C 104.59999999999998 378.3 102.59999999999998 373.6 102.69999999999999 368.50000000000006 C 102.89999999999999 358.70000000000005 110.89999999999999 350.20000000000005 115.6 346.00000000000006 C 120 342.1000000000001 124.5 339.50000000000006 129.2 336.80000000000007 C 130.79999999999998 335.9000000000001 132.5 334.9000000000001 134.2 333.9000000000001 C 135.79999999999998 332.9000000000001 137.29999999999998 331.80000000000007 138.79999999999998 330.80000000000007 C 142.1 328.50000000000006 145.49999999999997 326.1000000000001 149.7 324.80000000000007 L 150.1 324.80000000000007 C 150.4 324.80000000000007 150.79999999999998 324.9000000000001 151 325.20000000000005 L 164.6 340.90000000000003 C 165.1 340.3 165.6 339.6 166.2 338.90000000000003 C 169.7 334.3 173.79999999999998 329.20000000000005 177.89999999999998 326.1 L 178.29999999999998 325.8 C 179.1 325.2 179.89999999999998 324.6 181.2 324.6 C 182.5 324.6 181.89999999999998 324.6 182.2 324.70000000000005 C 182.6 324.70000000000005 182.89999999999998 325.1 183.1 325.50000000000006 C 183.2 325.90000000000003 183.1 326.30000000000007 182.9 326.6000000000001 L 167.70000000000002 345.4000000000001 L 172.9 356.6000000000001 C 173.1 356.9000000000001 173 357.30000000000007 172.9 357.6000000000001 C 172.70000000000002 357.9000000000001 172.4 358.1000000000001 172.1 358.2000000000001 C 171.6 358.2000000000001 171.2 358.3000000000001 170.79999999999998 358.3000000000001 C 169.39999999999998 358.3000000000001 168.79999999999998 357.60000000000014 168.2 356.90000000000015 C 168.1 356.8000000000001 167.89999999999998 356.60000000000014 167.79999999999998 356.40000000000015 C 165.89999999999998 354.40000000000015 163.89999999999998 351.10000000000014 161.89999999999998 347.50000000000017 C 160.39999999999998 344.90000000000015 158.89999999999998 342.3000000000002 157.39999999999998 340.40000000000015 C 155.99999999999997 338.60000000000014 150.09999999999997 331.60000000000014 148.09999999999997 329.8000000000001 C 144.09999999999997 333.8000000000001 138.39999999999998 337.3000000000001 132.39999999999998 341.0000000000001 C 121.49999999999997 347.8000000000001 110.09999999999998 354.8000000000001 108.19999999999997 365.60000000000014 C 106.99999999999997 372.60000000000014 111.39999999999998 379.8000000000001 117.99999999999997 381.60000000000014 C 119.99999999999997 382.20000000000016 121.89999999999998 382.40000000000015 123.79999999999997 382.40000000000015 C 128.69999999999996 382.40000000000015 132.89999999999998 380.50000000000017 137.69999999999996 378.20000000000016 C 138.99999999999997 377.60000000000014 140.29999999999995 377.00000000000017 141.59999999999997 376.40000000000015 L 141.59999999999997 376.20000000000016 C 139.79999999999995 375.40000000000015 137.39999999999998 373.00000000000017 136.79999999999995 371.50000000000017 C 136.39999999999995 370.40000000000015 136.79999999999995 369.70000000000016 137.09999999999997 369.40000000000015 C 137.29999999999995 369.20000000000016 137.59999999999997 369.10000000000014 137.89999999999998 369.10000000000014 C 138.2 369.10000000000014 137.89999999999998 369.10000000000014 137.99999999999997 369.10000000000014 C 139.69999999999996 369.3000000000001 140.99999999999997 370.3000000000001 142.09999999999997 371.3000000000001 C 142.99999999999997 372.10000000000014 143.89999999999998 372.8000000000001 144.79999999999995 373.0000000000001 L 145.19999999999996 373.0000000000001 C 147.49999999999997 373.0000000000001 151.09999999999997 369.60000000000014 153.69999999999996 367.10000000000014 C 155.19999999999996 365.70000000000016 156.49999999999997 364.5000000000001 157.49999999999997 363.8000000000001 C 158.29999999999998 363.3000000000001 159.39999999999998 362.90000000000015 160.39999999999998 362.60000000000014 C 161.29999999999998 362.3000000000001 162.2 362.0000000000001 162.7 361.70000000000016 C 163 361.50000000000017 163.29999999999998 361.00000000000017 163.6 360.50000000000017 C 164.29999999999998 359.40000000000015 165.2 357.90000000000015 167.29999999999998 357.90000000000015 C 169.39999999999998 357.90000000000015 168.1 357.90000000000015 168.6 358.10000000000014 C 168.79999999999998 358.10000000000014 169 358.20000000000016 169.1 358.40000000000015 C 169.7 359.00000000000017 170 359.70000000000016 169.9 360.50000000000017 C 169.6 363.40000000000015 164.70000000000002 366.8000000000002 157.20000000000002 371.70000000000016 C 154.70000000000002 373.3000000000002 151.4 375.50000000000017 150.3 376.60000000000014 C 151.3 377.70000000000016 153.8 380.0000000000001 155.9 381.90000000000015 C 163.20000000000002 388.50000000000017 166.3 391.60000000000014 166.3 393.50000000000017 C 166.3 395.4000000000002 166.10000000000002 394.40000000000015 165.8 394.8000000000002 C 165.60000000000002 394.9000000000002 165.5 395.00000000000017 165.20000000000002 395.1000000000002 C 164.8 395.1000000000002 164.50000000000003 395.2000000000002 164.10000000000002 395.2000000000002 L 164.10000000000002 395.5000000000002 Z M 147.5 329.4 L 147.5 329.4 Z" stroke-linecap="round" />
</g>
<g transform="matrix(1.49 0 0 1.49 260.57 617.31)"  >
<path style="stroke: none; stroke-width: 1; stroke-dasharray: none; stroke-linecap: butt; stroke-dashoffset: 0; stroke-linejoin: miter; stroke-miterlimit: 4; fill: rgb(255,255,255); fill-rule: nonzero; opacity: 1;" vector-effect="non-scaling-stroke"  transform=" translate(-142.92, -359.53)" d="M 182 325.7 L 166.3 345.09999999999997 L 171.8 356.99999999999994 C 169.70000000000002 357.3999999999999 169.70000000000002 356.79999999999995 168.5 355.59999999999997 C 165.2 352.2 161.6 344.2 158.2 339.7 C 154.79999999999998 335.2 148.7 328.2 147.79999999999998 328.3 C 136.79999999999998 340 110.09999999999998 347.7 106.99999999999999 365.40000000000003 C 103.89999999999999 383.1000000000001 110.29999999999998 380.70000000000005 117.59999999999998 382.8 C 124.89999999999998 384.9 133.99999999999997 381 142.99999999999997 377.3 L 142.49999999999997 375.6 C 141.19999999999996 375.6 136.99999999999997 371.5 137.99999999999997 370.6 C 140.59999999999997 370.90000000000003 142.19999999999996 374 144.79999999999998 374.5 C 148.89999999999998 375.3 155.29999999999998 367.2 158.39999999999998 365.2 C 161.49999999999997 363.2 162.29999999999998 364 163.59999999999997 363 C 164.89999999999995 362 165.19999999999996 358.8 168.39999999999998 359.6 C 172.2 363.20000000000005 149.99999999999997 374 148.99999999999997 376.90000000000003 C 150.09999999999997 379.3 166.99999999999997 392.40000000000003 164.99999999999997 394.20000000000005 C 163.29999999999998 394.6 162.69999999999996 393.80000000000007 161.59999999999997 393.00000000000006 C 158.89999999999998 391.00000000000006 147.29999999999995 378.30000000000007 145.99999999999997 378.30000000000007 C 136.49999999999997 385.00000000000006 119.09999999999997 390.9000000000001 109.59999999999997 381.50000000000006 C 97.79999999999997 369.90000000000003 106.19999999999996 355.90000000000003 116.39999999999996 346.80000000000007 C 122.19999999999996 341.6000000000001 128.39999999999998 338.80000000000007 134.89999999999998 334.80000000000007 C 139.99999999999997 331.70000000000005 144.29999999999998 327.6000000000001 150.2 325.80000000000007 L 164.7 342.6000000000001 C 168.6 337.80000000000007 173.6 330.6000000000001 178.6 326.9000000000001 C 183.6 323.2000000000001 180.4 325.30000000000007 182 325.7000000000001 L 182 325.7000000000001 Z" stroke-linecap="round" />
</g>
<g transform="matrix(1.49 0 0 1.49 462.65 477.29)"  >
<path style="stroke: none; stroke-width: 1; stroke-dasharray: none; stroke-linecap: butt; stroke-dashoffset: 0; stroke-linejoin: miter; stroke-miterlimit: 4; fill: rgb(255,255,255); fill-rule: nonzero; opacity: 1;" vector-effect="non-scaling-stroke"  transform=" translate(-278.28, -265.75)" d="M 272.8 326.2 C 272.3 326.2 271.90000000000003 326 271.6 325.59999999999997 C 270.5 324.4 270.6 320.7 271.20000000000005 314.29999999999995 C 271.20000000000005 313.49999999999994 271.30000000000007 312.79999999999995 271.30000000000007 312.59999999999997 C 271.30000000000007 311.7 270.9000000000001 310.29999999999995 270.6000000000001 308.99999999999994 C 270.2000000000001 307.29999999999995 269.80000000000007 305.79999999999995 269.9000000000001 304.79999999999995 C 269.9000000000001 304.19999999999993 270.30000000000007 303.9 272.9000000000001 300.99999999999994 C 274.7000000000001 298.99999999999994 277.30000000000007 296.19999999999993 278.0000000000001 294.8999999999999 C 282.5000000000001 286.8999999999999 283.9000000000001 273.3999999999999 285.3000000000001 260.2999999999999 C 286.3000000000001 251.3999999999999 287.2000000000001 242.8999999999999 289.0000000000001 236.3999999999999 C 288.60000000000014 226.4999999999999 279.2000000000001 210.59999999999988 268.60000000000014 210.1999999999999 L 268.60000000000014 210.1999999999999 C 268.3000000000001 210.1999999999999 267.70000000000016 210.3999999999999 267.3000000000001 210.49999999999991 C 266.7000000000001 210.6999999999999 266.0000000000001 210.89999999999992 265.40000000000015 210.89999999999992 C 264.8000000000002 210.89999999999992 264.10000000000014 210.5999999999999 263.8000000000001 210.29999999999993 C 263.3000000000001 209.79999999999993 263.10000000000014 209.09999999999994 263.2000000000001 208.19999999999993 L 263.2000000000001 207.79999999999993 C 263.7000000000001 206.59999999999994 264.9000000000001 205.19999999999993 267.5000000000001 205.19999999999993 C 273.60000000000014 205.19999999999993 284.0000000000001 213.29999999999993 286.3000000000001 215.99999999999994 C 296.7000000000001 227.89999999999995 293.40000000000015 244.39999999999995 290.5000000000001 258.8999999999999 C 289.9000000000001 262.19999999999993 289.2000000000001 265.19999999999993 288.8000000000001 268.19999999999993 C 288.40000000000015 270.79999999999995 288.2000000000001 273.3999999999999 287.90000000000015 276.19999999999993 C 286.90000000000015 286.79999999999995 285.8000000000001 298.79999999999995 275.40000000000015 305.3999999999999 C 277.00000000000017 312.49999999999994 277.40000000000015 318.69999999999993 274.20000000000016 325.49999999999994 C 274.20000000000016 325.69999999999993 274.00000000000017 325.79999999999995 273.8000000000002 325.8999999999999 C 273.4000000000002 326.19999999999993 273.00000000000017 326.2999999999999 272.6000000000002 326.2999999999999 L 272.8000000000002 326.2999999999999 Z" stroke-linecap="round" />
</g>
<g transform="matrix(1.49 0 0 1.49 461.11 477.19)"  >
<path style="stroke: none; stroke-width: 1; stroke-dasharray: none; stroke-linecap: butt; stroke-dashoffset: 0; stroke-linejoin: miter; stroke-miterlimit: 4; fill: rgb(255,255,255); fill-rule: nonzero; opacity: 1;" vector-effect="non-scaling-stroke"  transform=" translate(-277.25, -265.68)" d="M 274.2 304.7 C 275.9 311.8 276.4 318.09999999999997 273.3 324.9 C 270.7 326.79999999999995 272.5 313.7 272.5 312.59999999999997 C 272.4 310.4 270.9 306.4 271.1 304.99999999999994 C 271.30000000000007 303.5999999999999 277.70000000000005 297.99999999999994 279 295.59999999999997 C 286.7 281.9 285.6 252.59999999999997 290.2 236.59999999999997 C 289.9 225.99999999999997 280 209.49999999999997 268.7 208.99999999999997 C 257.4 208.49999999999997 264.3 211.09999999999997 264.4 208.19999999999996 C 267.2 201.69999999999996 282.79999999999995 213.49999999999997 285.5 216.59999999999997 C 297.7 230.59999999999997 290.2 251.49999999999997 287.7 267.79999999999995 C 285.2 284.0999999999999 287.4 296.79999999999995 274.2 304.59999999999997 L 274.2 304.59999999999997 Z" stroke-linecap="round" />
</g>
<g transform="matrix(1.49 0 0 1.49 289.06 764.15)"  >
<path style="stroke: none; stroke-width: 1; stroke-dasharray: none; stroke-linecap: butt; stroke-dashoffset: 0; stroke-linejoin: miter; stroke-miterlimit: 4; fill: rgb(255,255,255); fill-rule: nonzero; opacity: 1;" vector-effect="non-scaling-stroke"  transform=" translate(-161.95, -457.95)" d="M 161.6 518 L 160.7 518 C 157.79999999999998 516.6 158.29999999999998 510.4 159.29999999999998 502.4 C 159.49999999999997 500.9 159.6 499.5 159.7 498.79999999999995 C 160 486.79999999999995 159.89999999999998 474.4 159.7 462.4 C 159.6 445.09999999999997 159.39999999999998 427.09999999999997 160.39999999999998 409.9 C 160.59999999999997 406.9 160.99999999999997 402.79999999999995 161.29999999999998 400.5 C 161.6 398 162.7 397.7 163.39999999999998 397.7 C 164.09999999999997 397.7 164.59999999999997 398 165.09999999999997 398.7 C 165.29999999999995 398.9 165.29999999999995 399.2 165.29999999999995 399.4 C 165.19999999999996 411.5 165.29999999999995 423.79999999999995 165.29999999999995 435.7 C 165.29999999999995 447.6 165.49999999999994 461.4 165.29999999999995 474.3 L 165.29999999999995 485.1 C 165.29999999999995 494.90000000000003 165.39999999999995 506.1 164.29999999999995 514.1 L 164.29999999999995 514.3000000000001 C 164.09999999999997 515.5000000000001 163.79999999999995 518.2 161.49999999999994 518.2 L 161.49999999999994 518 Z" stroke-linecap="round" />
</g>
<g transform="matrix(1.49 0 0 1.49 289.14 763.54)"  >
<path style="stroke: none; stroke-width: 1; stroke-dasharray: none; stroke-linecap: butt; stroke-dashoffset: 0; stroke-linejoin: miter; stroke-miterlimit: 4; fill: rgb(255,255,255); fill-rule: nonzero; opacity: 1;" vector-effect="non-scaling-stroke"  transform=" translate(-162.01, -457.53)" d="M 164.2 399.3 C 163.89999999999998 424.2 164.6 449.2 164.2 474.1 C 163.79999999999998 499.00000000000006 164.7 502.70000000000005 163.2 513.7 C 163.1 514.7 162.89999999999998 517.2 161.2 516.7 C 158.1 515.2 160.7 501.80000000000007 160.79999999999998 498.6 C 161.49999999999997 469.40000000000003 159.99999999999997 438.8 161.6 409.8 C 161.7 407.1 162.2 403.3 162.5 400.5 C 162.8 397.7 163.2 397.9 164.2 399.3 L 164.2 399.3 Z" stroke-linecap="round" />
</g>
<g transform="matrix(1.49 0 0 1.49 387.06 442.04)"  >
<path style="stroke: none; stroke-width: 1; stroke-dasharray: none; stroke-linecap: butt; stroke-dashoffset: 0; stroke-linejoin: miter; stroke-miterlimit: 4; fill: rgb(255,255,255); fill-rule: nonzero; opacity: 1;" vector-effect="non-scaling-stroke"  transform=" translate(-227.67, -242.1)" d="M 195.2 285.4 C 193.39999999999998 285.4 192.29999999999998 282.9 191.89999999999998 281.79999999999995 C 186.59999999999997 267.59999999999997 195.49999999999997 235.89999999999995 201.89999999999998 224.09999999999997 C 209.89999999999998 209.29999999999995 223.39999999999998 200.59999999999997 240.79999999999998 198.99999999999997 C 242.6 198.79999999999998 244.39999999999998 198.69999999999996 245.99999999999997 198.69999999999996 C 254.59999999999997 198.69999999999996 260.9 200.99999999999997 264.79999999999995 205.49999999999997 C 265.09999999999997 205.89999999999998 265.19999999999993 206.49999999999997 264.79999999999995 206.89999999999998 C 264.09999999999997 207.89999999999998 263.19999999999993 208.39999999999998 262.19999999999993 208.39999999999998 L 262.19999999999993 208.39999999999998 C 260.8999999999999 208.39999999999998 259.79999999999995 207.49999999999997 258.69999999999993 206.59999999999997 C 258.0999999999999 206.09999999999997 257.3999999999999 205.59999999999997 256.8999999999999 205.39999999999998 C 253.79999999999993 204.09999999999997 250.0999999999999 203.49999999999997 245.89999999999992 203.49999999999997 C 234.79999999999993 203.49999999999997 222.29999999999993 207.99999999999997 215.39999999999992 214.39999999999998 C 198.99999999999991 229.49999999999997 193.69999999999993 259.4 196.89999999999992 281.09999999999997 C 197.19999999999993 282.99999999999994 196.99999999999991 284.2 196.39999999999992 284.9 C 196.0999999999999 285.29999999999995 195.5999999999999 285.5 195.0999999999999 285.5 L 195.1999999999999 285.5 Z" stroke-linecap="round" />
</g>
<g transform="matrix(1.49 0 0 1.49 387.1 441.84)"  >
<path style="stroke: none; stroke-width: 1; stroke-dasharray: none; stroke-linecap: butt; stroke-dashoffset: 0; stroke-linejoin: miter; stroke-miterlimit: 4; fill: rgb(255,255,255); fill-rule: nonzero; opacity: 1;" vector-effect="non-scaling-stroke"  transform=" translate(-227.69, -241.96)" d="M 240.9 200 C 248.70000000000002 199.3 258.5 199.8 263.9 206.1 C 261.9 208.9 259.59999999999997 205.1 257.4 204.2 C 244.99999999999997 199.1 224.29999999999998 204.39999999999998 214.59999999999997 213.39999999999998 C 197.89999999999998 228.89999999999998 192.59999999999997 259.5 195.79999999999995 281.09999999999997 C 196.49999999999994 285.59999999999997 194.29999999999995 284.7 192.99999999999994 281.29999999999995 C 188.09999999999994 267.9 196.09999999999994 237.09999999999997 202.99999999999994 224.49999999999994 C 210.89999999999995 209.79999999999995 224.39999999999995 201.49999999999994 240.99999999999994 199.99999999999994 L 240.99999999999994 199.99999999999994 Z" stroke-linecap="round" />
</g>
<g transform="matrix(1.49 0 0 1.49 485.53 797.72)"  >
<path style="stroke: none; stroke-width: 1; stroke-dasharray: none; stroke-linecap: butt; stroke-dashoffset: 0; stroke-linejoin: miter; stroke-miterlimit: 4; fill: rgb(255,255,255); fill-rule: nonzero; opacity: 1;" vector-effect="non-scaling-stroke"  transform=" translate(-293.59, -480.4)" d="M 291 516.2 C 290.7 516.2 290.4 516.2 290.1 515.8000000000001 C 289.8 515.5000000000001 289.70000000000005 515.1 289.8 514.8000000000001 C 291.90000000000003 504.70000000000005 291.7 494.1000000000001 291.5 483.9000000000001 C 291.5 479.0000000000001 291.3 473.9000000000001 291.5 468.9000000000001 L 291.5 467.2000000000001 C 291.7 461.6000000000001 291.9 454.7000000000001 292.4 449.5000000000001 L 292.4 449.5000000000001 C 292.5 447.8000000000001 292.79999999999995 444.5000000000001 295.5 444.5000000000001 C 298.20000000000005 444.5000000000001 296.1 444.5000000000001 296.5 444.7000000000001 C 297 444.9000000000001 297.3 445.3000000000001 297.3 445.8000000000001 C 297.1 453.7000000000001 297.3 461.7000000000001 297.3 469.5000000000001 C 297.5 484.4000000000001 297.7 499.8000000000001 295.7 514.8000000000001 C 295.7 515.3000000000001 295.2 515.7 294.7 515.8000000000001 L 291.2 516.3000000000001 L 291 516.3000000000001 Z" stroke-linecap="round" />
</g>
<g transform="matrix(1.49 0 0 1.49 485.58 797.32)"  >
<path style="stroke: none; stroke-width: 1; stroke-dasharray: none; stroke-linecap: butt; stroke-dashoffset: 0; stroke-linejoin: miter; stroke-miterlimit: 4; fill: rgb(255,255,255); fill-rule: nonzero; opacity: 1;" vector-effect="non-scaling-stroke"  transform=" translate(-293.62, -480.13)" d="M 296.1 445.8 C 295.5 468.7 297.6 491.90000000000003 294.5 514.6 L 291 515.1 C 294.1 500 292.2 484.40000000000003 292.7 469 C 293.2 453.59999999999997 293.09999999999997 455.4 293.59999999999997 449.6 C 294.09999999999997 443.80000000000007 293.9 445.1 296.09999999999997 445.8 Z" stroke-linecap="round" />
</g>
<g transform="matrix(1.49 0 0 1.49 340.28 541.88)"  >
<path style="stroke: none; stroke-width: 1; stroke-dasharray: none; stroke-linecap: butt; stroke-dashoffset: 0; stroke-linejoin: miter; stroke-miterlimit: 4; fill: rgb(255,255,255); fill-rule: nonzero; opacity: 1;" vector-effect="non-scaling-stroke"  transform=" translate(-196.3, -308.95)" d="M 186 326.1 L 184.9 326.1 C 182.6 325.8 179.5 324.3 178.20000000000002 321.90000000000003 C 177.4 320.50000000000006 177.4 319.1 178.00000000000003 317.70000000000005 C 178.20000000000002 317.30000000000007 178.50000000000003 317.1 178.90000000000003 317.00000000000006 L 179.00000000000003 317.00000000000006 C 179.40000000000003 317.00000000000006 179.70000000000002 317.20000000000005 179.90000000000003 317.50000000000006 C 182.30000000000004 320.80000000000007 183.90000000000003 321.20000000000005 184.90000000000003 321.20000000000005 C 185.90000000000003 321.20000000000005 187.20000000000005 320.6 188.50000000000003 319.90000000000003 C 189.70000000000002 319.3 191.10000000000002 318.50000000000006 192.70000000000002 318.3 L 193.9 318.3 C 194.8 318.3 195.6 318.40000000000003 196.4 318.6 C 197.20000000000002 318.70000000000005 197.9 318.8 198.6 318.8 C 199.6 318.8 200.9 318.6 202.1 317 C 205.1 313.3 202.6 309.7 198.5 304.6 C 196.3 301.90000000000003 194.2 299.3 193.6 296.6 C 193.6 296.20000000000005 193.6 295.70000000000005 194 295.40000000000003 C 194.2 295.20000000000005 194.5 295.1 194.7 295.1 C 194.89999999999998 295.1 195 295.1 195.2 295.20000000000005 C 201 298.00000000000006 204.2 303.40000000000003 207.29999999999998 308.70000000000005 C 207.6 309.20000000000005 207.79999999999998 309.6 208.1 310.1 L 208.5 310.1 C 209.6 309.6 210.3 308.90000000000003 210.4 308.1 C 210.8 305.90000000000003 207.9 302.70000000000005 205.5 300.20000000000005 C 204.1 298.70000000000005 202.9 297.40000000000003 202.2 296.20000000000005 C 202.1 296.00000000000006 201.89999999999998 295.80000000000007 201.79999999999998 295.6 C 200.79999999999998 294.1 200.99999999999997 293.20000000000005 202.79999999999998 291.90000000000003 C 202.99999999999997 291.70000000000005 203.29999999999998 291.70000000000005 203.49999999999997 291.70000000000005 C 203.69999999999996 291.70000000000005 204.09999999999997 291.80000000000007 204.29999999999998 292.00000000000006 C 208.6 296.1000000000001 218.6 305.70000000000005 213.7 312.1000000000001 C 212.7 313.30000000000007 211.29999999999998 313.80000000000007 210.1 314.30000000000007 C 209.4 314.50000000000006 208.7 314.80000000000007 208.4 315.1000000000001 C 208 315.50000000000006 207.5 316.30000000000007 207 317.2000000000001 C 206.1 318.8000000000001 205 320.8000000000001 202.9 322.2000000000001 C 201 323.6000000000001 199.5 324.2000000000001 198.1 324.2000000000001 C 196.7 324.2000000000001 196.79999999999998 324.1000000000001 196.2 323.9000000000001 C 195.6 323.80000000000007 195 323.6000000000001 194.2 323.6000000000001 C 193.39999999999998 323.6000000000001 193.79999999999998 323.6000000000001 193.6 323.6000000000001 C 192.7 323.6000000000001 191.9 324.1000000000001 191 324.6000000000001 C 189.7 325.30000000000007 188.2 326.2000000000001 186 326.2000000000001 L 186 326.2000000000001 Z" stroke-linecap="round" />
</g>
<g transform="matrix(1.49 0 0 1.49 340.25 541.71)"  >
<path style="stroke: none; stroke-width: 1; stroke-dasharray: none; stroke-linecap: butt; stroke-dashoffset: 0; stroke-linejoin: miter; stroke-miterlimit: 4; fill: rgb(255,255,255); fill-rule: nonzero; opacity: 1;" vector-effect="non-scaling-stroke"  transform=" translate(-196.28, -308.83)" d="M 207.5 314.1 C 206 315.6 205.2 319 202.2 321.1 C 197.6 324.40000000000003 197.1 322 193.39999999999998 322.3 C 189.69999999999996 322.6 189.2 325.3 184.99999999999997 324.8 C 180.79999999999995 324.3 177.49999999999997 321.40000000000003 178.99999999999997 318.1 C 184.89999999999998 326.20000000000005 187.99999999999997 320.20000000000005 192.89999999999998 319.40000000000003 C 197.79999999999998 318.6 199.79999999999998 321.6 202.99999999999997 317.6 C 208.89999999999998 310.1 196.19999999999996 302.90000000000003 194.69999999999996 296.20000000000005 C 200.89999999999995 299.1 203.99999999999997 305.50000000000006 207.29999999999995 311.00000000000006 L 208.59999999999997 311.40000000000003 C 216.99999999999997 307.40000000000003 205.59999999999997 299.6 203.29999999999995 295.6 C 200.99999999999994 291.6 201.89999999999995 294.1 203.59999999999997 292.8 C 207.49999999999997 296.5 217.19999999999996 305.7 212.79999999999995 311.3 C 208.39999999999995 316.90000000000003 208.69999999999996 313 207.59999999999997 314.1 L 207.49999999999997 314.1 Z" stroke-linecap="round" />
</g>
<g transform="matrix(1.49 0 0 1.49 406.31 433.02)"  >
<path style="stroke: none; stroke-width: 1; stroke-dasharray: none; stroke-linecap: butt; stroke-dashoffset: 0; stroke-linejoin: miter; stroke-miterlimit: 4; fill: rgb(255,255,255); fill-rule: nonzero; opacity: 1;" vector-effect="non-scaling-stroke"  transform=" translate(-240.56, -236)" d="M 222.3 245.9 C 217.60000000000002 245.9 213.5 244.8 210 242.6 C 209.7 242.4 209.5 242.1 209.5 241.79999999999998 C 209.4 241.2 209.3 240.29999999999998 209.8 239.7 C 210 239.39999999999998 210.5 239.1 211.20000000000002 239.1 L 212.70000000000002 239.1 C 215.4 239.29999999999998 217.60000000000002 239.6 219.4 239.9 C 221.5 240.20000000000002 223.1 240.4 224.8 240.4 C 227.8 240.4 230.9 239.70000000000002 235.5 237.8 C 236.5 237.4 238.1 236.4 239.6 235.5 C 241.7 234.2 243 233.5 243.9 233.2 C 244.3 233.2 244.8 233.1 245.4 233.1 C 246.6 233.1 248.1 233.29999999999998 249.70000000000002 233.4 C 251.60000000000002 233.6 253.70000000000002 233.8 255.60000000000002 233.8 L 255.60000000000002 233.8 C 256.5 233.8 257.3 233.8 257.90000000000003 233.60000000000002 C 259.50000000000006 233.3 262.1 232.20000000000002 263.40000000000003 231.3 C 263.70000000000005 231.10000000000002 264.40000000000003 230.4 265.1 229.8 C 267.40000000000003 227.5 268.90000000000003 226.10000000000002 270.20000000000005 226.10000000000002 C 271.50000000000006 226.10000000000002 271.00000000000006 226.3 271.30000000000007 226.60000000000002 C 271.70000000000005 226.90000000000003 271.80000000000007 227.50000000000003 271.6000000000001 227.90000000000003 C 269.00000000000006 233.70000000000005 260.00000000000006 238.40000000000003 254.10000000000008 238.60000000000002 L 254.00000000000009 238.60000000000002 C 252.9000000000001 238.60000000000002 251.60000000000008 238.3 250.20000000000007 238.00000000000003 C 248.80000000000007 237.70000000000002 247.30000000000007 237.40000000000003 246.30000000000007 237.40000000000003 C 245.30000000000007 237.40000000000003 245.70000000000007 237.40000000000003 245.50000000000006 237.40000000000003 C 245.10000000000005 237.50000000000003 243.60000000000005 238.50000000000003 242.50000000000006 239.20000000000005 C 240.90000000000006 240.30000000000004 239.10000000000005 241.50000000000006 237.80000000000007 242.00000000000006 C 234.10000000000008 243.60000000000005 228.40000000000006 245.50000000000006 222.20000000000007 245.50000000000006 L 222.20000000000007 245.90000000000006 Z" stroke-linecap="round" />
</g>
<g transform="matrix(1.49 0 0 1.49 406.48 433.32)"  >
<path style="stroke: none; stroke-width: 1; stroke-dasharray: none; stroke-linecap: butt; stroke-dashoffset: 0; stroke-linejoin: miter; stroke-miterlimit: 4; fill: rgb(255,255,255); fill-rule: nonzero; opacity: 1;" vector-effect="non-scaling-stroke"  transform=" translate(-240.67, -236.2)" d="M 270.7 227.7 C 268.3 233 259.8 237.5 254.2 237.7 C 248.59999999999997 237.89999999999998 247.39999999999998 236.1 245.29999999999998 236.7 C 243.2 237.29999999999998 239.7 240.39999999999998 237.49999999999997 241.39999999999998 C 229.39999999999998 244.89999999999998 218.59999999999997 246.79999999999998 210.69999999999996 241.7 C 210.39999999999995 239.79999999999998 211.39999999999995 240.39999999999998 212.69999999999996 240.5 C 223.09999999999997 241.2 224.89999999999995 243.6 235.99999999999997 239.1 C 247.1 234.6 242.79999999999998 235 244.29999999999998 234.6 C 246.6 234 253.89999999999998 235.79999999999998 258.2 235.1 C 262.5 234.4 262.7 233.6 264.2 232.6 C 265.7 231.6 269.7 226.7 270.7 227.7 L 270.7 227.7 Z" stroke-linecap="round" />
</g>
<g transform="matrix(1.49 0 0 1.49 361.02 465.25)"  >
<path style="stroke: none; stroke-width: 1; stroke-dasharray: none; stroke-linecap: butt; stroke-dashoffset: 0; stroke-linejoin: miter; stroke-miterlimit: 4; fill: rgb(255,255,255); fill-rule: nonzero; opacity: 1;" vector-effect="non-scaling-stroke"  transform=" translate(-210.18, -257.6)" d="M 212.1 268.6 C 208.6 268.6 205.5 267.1 203.4 264.3 C 201.1 261.3 200.3 257.2 201.3 253.3 C 202.4 249.20000000000002 206 246.60000000000002 210.60000000000002 246.60000000000002 C 215.20000000000005 246.60000000000002 216.10000000000002 247.70000000000002 217.70000000000002 249.50000000000003 C 219.10000000000002 251.10000000000002 219.70000000000002 253.30000000000004 219.4 255.60000000000002 C 219.4 256.1 219 256.5 218.5 256.6 L 218.2 256.6 C 217.79999999999998 256.6 217.5 256.40000000000003 217.29999999999998 256.20000000000005 C 214.29999999999998 252.40000000000003 211.79999999999998 251.60000000000005 210.29999999999998 251.60000000000005 C 207.39999999999998 251.60000000000005 205.6 254.40000000000006 205.49999999999997 257.1 C 205.49999999999997 260 207.39999999999998 263.3 213.19999999999996 263.6 C 213.79999999999995 263.6 214.29999999999995 264.1 214.29999999999995 264.8 L 214.29999999999995 267.3 C 214.29999999999995 267.90000000000003 213.79999999999995 268.40000000000003 213.19999999999996 268.5 L 211.99999999999997 268.5 L 211.99999999999997 268.5 Z" stroke-linecap="round" />
</g>
<g transform="matrix(1.49 0 0 1.49 360.98 465.33)"  >
<path style="stroke: none; stroke-width: 1; stroke-dasharray: none; stroke-linecap: butt; stroke-dashoffset: 0; stroke-linejoin: miter; stroke-miterlimit: 4; fill: rgb(255,255,255); fill-rule: nonzero; opacity: 1;" vector-effect="non-scaling-stroke"  transform=" translate(-210.15, -257.65)" d="M 218.3 255.6 C 206.4 240.5 196.70000000000002 264 213.20000000000002 264.9 L 213.20000000000002 267.4 C 205.50000000000003 268.2 200.50000000000003 260.9 202.4 253.7 C 204.70000000000002 245 219.5 246.29999999999998 218.20000000000002 255.6 L 218.3 255.6 Z" stroke-linecap="round" />
</g>
<g transform="matrix(1.49 0 0 1.49 449.68 437.95)"  >
<path style="stroke: none; stroke-width: 1; stroke-dasharray: none; stroke-linecap: butt; stroke-dashoffset: 0; stroke-linejoin: miter; stroke-miterlimit: 4; fill: rgb(255,255,255); fill-rule: nonzero; opacity: 1;" vector-effect="non-scaling-stroke"  transform=" translate(-269.58, -239.3)" d="M 267.9 246.3 C 266 246.3 262.5 245.3 260.7 243.4 C 259.8 242.5 259.4 241.4 259.5 240.3 C 259.5 239.9 259.8 239.5 260.1 239.3 C 260.3 239.3 260.40000000000003 239.20000000000002 260.6 239.20000000000002 C 260.8 239.20000000000002 261.1 239.20000000000002 261.3 239.4 C 263.6 241 265.5 241.70000000000002 267.3 241.70000000000002 C 271.1 241.70000000000002 273.8 238.00000000000003 276.90000000000003 233.60000000000002 L 277.50000000000006 232.8 C 277.70000000000005 232.5 278.1000000000001 232.3 278.40000000000003 232.3 C 278.7 232.3 278.6 232.3 278.6 232.3 C 279 232.3 279.40000000000003 232.70000000000002 279.5 233.20000000000002 C 280.1 235.70000000000002 279.2 238.50000000000003 277.1 241.10000000000002 C 274.6 244.20000000000002 271 246.20000000000002 268 246.20000000000002 C 265 246.20000000000002 267.9 246.20000000000002 267.9 246.20000000000002 L 267.9 246.20000000000002 Z" stroke-linecap="round" />
</g>
<g transform="matrix(1.49 0 0 1.49 449.58 438.1)"  >
<path style="stroke: none; stroke-width: 1; stroke-dasharray: none; stroke-linecap: butt; stroke-dashoffset: 0; stroke-linejoin: miter; stroke-miterlimit: 4; fill: rgb(255,255,255); fill-rule: nonzero; opacity: 1;" vector-effect="non-scaling-stroke"  transform=" translate(-269.52, -239.4)" d="M 260.6 240.4 C 269.5 246.6 273.40000000000003 240.4 278.3 233.6 C 279.5 238.9 272.8 245.2 267.90000000000003 245.2 C 263.00000000000006 245.2 260.50000000000006 243.5 260.6 240.39999999999998 L 260.6 240.39999999999998 Z" stroke-linecap="round" />
</g>
<g transform="matrix(1.49 0 0 1.49 417.9 475.56)"  >
<path style="stroke: none; stroke-width: 1; stroke-dasharray: none; stroke-linecap: butt; stroke-dashoffset: 0; stroke-linejoin: miter; stroke-miterlimit: 4; fill: rgb(255,255,255); fill-rule: nonzero; opacity: 1;" vector-effect="non-scaling-stroke"  transform=" translate(-248.28, -264.5)" d="M 244.7 274.6 C 244.39999999999998 274.6 243.5 274.6 242.89999999999998 273.90000000000003 C 242.49999999999997 273.40000000000003 242.39999999999998 272.70000000000005 242.49999999999997 271.90000000000003 C 242.49999999999997 271.70000000000005 242.59999999999997 271.50000000000006 242.69999999999996 271.40000000000003 C 243.99999999999997 269.8 245.79999999999995 269.6 247.09999999999997 269.6 L 249.29999999999995 269.6 L 249.29999999999995 267.20000000000005 C 249.29999999999995 265.50000000000006 249.29999999999995 263.6 249.39999999999995 261.80000000000007 C 249.69999999999996 259.50000000000006 250.39999999999995 255.50000000000006 252.49999999999994 254.50000000000006 C 252.69999999999993 254.50000000000006 252.79999999999995 254.40000000000006 252.99999999999994 254.40000000000006 C 253.19999999999993 254.40000000000006 253.39999999999995 254.40000000000006 253.59999999999994 254.60000000000005 C 253.89999999999995 254.80000000000004 254.09999999999994 255.20000000000005 254.09999999999994 255.60000000000005 L 253.29999999999993 273.30000000000007 C 253.29999999999993 273.9000000000001 252.79999999999993 274.4000000000001 252.09999999999994 274.4000000000001 L 244.79999999999993 274.4000000000001 L 244.79999999999993 274.6000000000001 Z" stroke-linecap="round" />
</g>
<g transform="matrix(1.49 0 0 1.49 417.88 475.52)"  >
<path style="stroke: none; stroke-width: 1; stroke-dasharray: none; stroke-linecap: butt; stroke-dashoffset: 0; stroke-linejoin: miter; stroke-miterlimit: 4; fill: rgb(255,255,255); fill-rule: nonzero; opacity: 1;" vector-effect="non-scaling-stroke"  transform=" translate(-248.27, -264.47)" d="M 252.1 273.3 L 246.6 273.3 C 244.79999999999998 273.3 243.29999999999998 274.1 243.7 272 C 245.39999999999998 269.9 248.2 270.9 250.5 270.7 C 250.6 267.8 250.3 264.8 250.5 261.9 C 250.7 258.99999999999994 251.4 256.2 252.9 255.49999999999997 L 252.1 273.2 L 252.1 273.2 Z" stroke-linecap="round" />
</g>
<g transform="matrix(1.49 0 0 1.49 448.02 599.8)"  >
<path style="stroke: none; stroke-width: 1; stroke-dasharray: none; stroke-linecap: butt; stroke-dashoffset: 0; stroke-linejoin: miter; stroke-miterlimit: 4; fill: rgb(255,255,255); fill-rule: nonzero; opacity: 1;" vector-effect="non-scaling-stroke"  transform=" translate(-268.46, -347.75)" d="M 268.2 359.1 C 267.9 359.1 267.5 359.1 267.09999999999997 359 C 266.49999999999994 359 266.09999999999997 358.4 266.09999999999997 357.8 L 266.09999999999997 337.5 C 266.09999999999997 337.1 266.29999999999995 336.7 266.7 336.5 C 266.9 336.5 267 336.4 267.2 336.4 C 267.4 336.4 267.7 336.4 267.9 336.59999999999997 L 269.59999999999997 337.9 C 269.9 338.09999999999997 270.09999999999997 338.59999999999997 270.09999999999997 339 C 269.79999999999995 341.5 270.09999999999997 343.9 270.4 346.2 C 270.79999999999995 349.4 271.2 352.59999999999997 270.2 356.2 L 270.2 357 C 270.2 357.5 270.2 358.1 269.7 358.6 C 269.2 359.1 268.5 359.1 268.2 359.1 Z" stroke-linecap="round" />
</g>
<g transform="matrix(1.49 0 0 1.49 448.09 600.92)"  >
<path style="stroke: none; stroke-width: 1; stroke-dasharray: none; stroke-linecap: butt; stroke-dashoffset: 0; stroke-linejoin: miter; stroke-miterlimit: 4; fill: rgb(255,255,255); fill-rule: nonzero; opacity: 1;" vector-effect="non-scaling-stroke"  transform=" translate(-268.5, -348.5)" d="M 267.3 337.6 L 269 338.90000000000003 C 268.3 345.00000000000006 270.8 350.00000000000006 269.1 356.00000000000006 C 267.40000000000003 362.00000000000006 269.70000000000005 358.30000000000007 267.3 358.00000000000006 L 267.3 337.70000000000005 L 267.3 337.70000000000005 Z" stroke-linecap="round" />
</g>
<g transform="matrix(1.49 0 0 1.49 481.26 645.79)"  >
<path style="stroke: none; stroke-width: 1; stroke-dasharray: none; stroke-linecap: butt; stroke-dashoffset: 0; stroke-linejoin: miter; stroke-miterlimit: 4; fill: rgb(255,255,255); fill-rule: nonzero; opacity: 1;" vector-effect="non-scaling-stroke"  transform=" translate(-290.74, -378.55)" d="M 284.2 381 C 283.9 381 283.59999999999997 380.9 283.4 380.7 C 282.29999999999995 379.7 282.4 378.8 282.59999999999997 378.4 C 283.2 376.9 285.99999999999994 376.09999999999997 290.99999999999994 376.09999999999997 C 295.99999999999994 376.09999999999997 295.49999999999994 376.09999999999997 297.19999999999993 376.79999999999995 C 297.3999999999999 376.79999999999995 297.49999999999994 376.9 297.5999999999999 376.99999999999994 C 299.19999999999993 377.59999999999997 299.0999999999999 378.49999999999994 298.8999999999999 379.99999999999994 C 298.8999999999999 380.59999999999997 298.2999999999999 380.99999999999994 297.69999999999993 380.99999999999994 L 284.19999999999993 380.99999999999994 Z" stroke-linecap="round" />
</g>
<g transform="matrix(1.49 0 0 1.49 481.65 645.78)"  >
<path style="stroke: none; stroke-width: 1; stroke-dasharray: none; stroke-linecap: butt; stroke-dashoffset: 0; stroke-linejoin: miter; stroke-miterlimit: 4; fill: rgb(255,255,255); fill-rule: nonzero; opacity: 1;" vector-effect="non-scaling-stroke"  transform=" translate(-291, -378.54)" d="M 284.2 379.8 C 280.9 377 294 376.8 296.7 377.90000000000003 C 299.4 379.00000000000006 298 378.1 297.7 379.8 L 284.2 379.8 Z" stroke-linecap="round" />
</g>
<g transform="matrix(1.49 0 0 1.49 334.09 539.21)"  >
<path style="stroke: none; stroke-width: 1; stroke-dasharray: none; stroke-linecap: butt; stroke-dashoffset: 0; stroke-linejoin: miter; stroke-miterlimit: 4; fill: rgb(255,255,255); fill-rule: nonzero; opacity: 1;" vector-effect="non-scaling-stroke"  transform=" translate(-192.13, -307.15)" d="M 196.4 314.4 C 194.8 314.4 193.6 313.59999999999997 193.3 312.5 L 186.10000000000002 301.9 C 185.8 301.4 185.8 300.79999999999995 186.20000000000002 300.4 C 186.50000000000003 300.09999999999997 186.9 299.9 187.4 299.9 C 190.3 299.9 197.3 309.59999999999997 198.20000000000002 312 C 198.50000000000003 312.8 198.4 313.5 197.9 313.9 C 197.8 314 197.4 314.29999999999995 196.3 314.29999999999995 L 196.4 314.29999999999995 Z" stroke-linecap="round" />
</g>
<g transform="matrix(1.49 0 0 1.49 334.05 539.18)"  >
<path style="stroke: none; stroke-width: 1; stroke-dasharray: none; stroke-linecap: butt; stroke-dashoffset: 0; stroke-linejoin: miter; stroke-miterlimit: 4; fill: rgb(255,255,255); fill-rule: nonzero; opacity: 1;" vector-effect="non-scaling-stroke"  transform=" translate(-192.1, -307.12)" d="M 197.2 313 C 196.89999999999998 313.3 194.5 313.3 194.39999999999998 312 L 186.99999999999997 301.2 C 188.49999999999997 299.7 197.99999999999997 312.2 197.09999999999997 313 L 197.09999999999997 313 Z" stroke-linecap="round" />
</g>
<g transform="matrix(1.49 0 0 1.49 420.88 392.06)"  >
<path style="stroke: none; stroke-width: 1; stroke-dasharray: none; stroke-linecap: butt; stroke-dashoffset: 0; stroke-linejoin: miter; stroke-miterlimit: 4; fill: rgb(255,255,255); fill-rule: nonzero; opacity: 1;" vector-effect="non-scaling-stroke"  transform=" translate(-250.29, -208.55)" d="M 242.8 211.9 C 242.5 211.9 242.3 211.9 242.10000000000002 211.6 C 241.70000000000002 211.29999999999998 241.60000000000002 210.9 241.70000000000002 210.4 C 242.3 208 244.20000000000002 205.20000000000002 250.10000000000002 205.20000000000002 C 256 205.20000000000002 255.20000000000002 205.70000000000002 257.40000000000003 206.10000000000002 C 257.6 206.10000000000002 257.8 206.20000000000002 258.00000000000006 206.40000000000003 C 258.80000000000007 207.20000000000005 259.1000000000001 208.00000000000003 258.80000000000007 208.70000000000005 C 258.30000000000007 209.90000000000003 256.80000000000007 210.00000000000006 255.40000000000006 210.00000000000006 C 254.00000000000006 210.00000000000006 251.50000000000006 209.70000000000005 250.20000000000007 209.50000000000006 C 249.80000000000007 209.50000000000006 249.40000000000006 209.40000000000006 249.30000000000007 209.40000000000006 C 247.60000000000008 209.40000000000006 245.30000000000007 210.60000000000005 243.50000000000006 211.50000000000006 L 243.20000000000005 211.50000000000006 C 243.00000000000006 211.70000000000005 242.90000000000003 211.70000000000005 242.70000000000005 211.70000000000005 L 242.70000000000005 211.90000000000003 Z" stroke-linecap="round" />
</g>
<g transform="matrix(1.49 0 0 1.49 420.94 392.07)"  >
<path style="stroke: none; stroke-width: 1; stroke-dasharray: none; stroke-linecap: butt; stroke-dashoffset: 0; stroke-linejoin: miter; stroke-miterlimit: 4; fill: rgb(255,255,255); fill-rule: nonzero; opacity: 1;" vector-effect="non-scaling-stroke"  transform=" translate(-250.33, -208.55)" d="M 257.2 207.4 C 260.2 210.3 250 208.4 249.39999999999998 208.4 C 247.29999999999998 208.5 244.79999999999998 209.8 242.89999999999998 210.70000000000002 C 244.29999999999998 204.8 252.79999999999998 206.4 257.29999999999995 207.3 L 257.19999999999993 207.3 Z" stroke-linecap="round" />
</g>
<g transform="matrix(1.49 0 0 1.49 479.82 657.06)"  >
<path style="stroke: none; stroke-width: 1; stroke-dasharray: none; stroke-linecap: butt; stroke-dashoffset: 0; stroke-linejoin: miter; stroke-miterlimit: 4; fill: rgb(255,255,255); fill-rule: nonzero; opacity: 1;" vector-effect="non-scaling-stroke"  transform=" translate(-289.78, -386.1)" d="M 289.3 388.7 C 287.7 388.7 286.2 388.4 284.90000000000003 387.9 C 284.70000000000005 387.9 284.6 387.79999999999995 284.50000000000006 387.7 C 282.90000000000003 387.09999999999997 283.00000000000006 386.3 283.20000000000005 384.7 C 283.20000000000005 384.4 283.40000000000003 384.09999999999997 283.70000000000005 383.9 C 284.00000000000006 383.7 284.1 383.7 284.40000000000003 383.7 C 284.70000000000005 383.7 284.50000000000006 383.7 284.6 383.7 L 285.8 383.7 C 286.5 383.7 287.3 383.7 288.1 383.59999999999997 C 289 383.59999999999997 289.90000000000003 383.49999999999994 290.8 383.49999999999994 C 292.5 383.49999999999994 294.90000000000003 383.69999999999993 296.3 385.8999999999999 C 296.5 386.19999999999993 296.5 386.5999999999999 296.40000000000003 386.8999999999999 C 296.30000000000007 387.19999999999993 296.00000000000006 387.49999999999994 295.6 387.5999999999999 C 294 387.9999999999999 291.70000000000005 388.5999999999999 289.3 388.5999999999999 L 289.3 388.5999999999999 Z" stroke-linecap="round" />
</g>
<g transform="matrix(1.49 0 0 1.49 479.27 657.15)"  >
<path style="stroke: none; stroke-width: 1; stroke-dasharray: none; stroke-linecap: butt; stroke-dashoffset: 0; stroke-linejoin: miter; stroke-miterlimit: 4; fill: rgb(255,255,255); fill-rule: nonzero; opacity: 1;" vector-effect="non-scaling-stroke"  transform=" translate(-289.4, -386.16)" d="M 295.2 386.6 C 292.09999999999997 387.5 288.4 388.20000000000005 285.3 386.8 C 282.20000000000005 385.4 284 386.6 284.3 384.90000000000003 C 287.6 385.50000000000006 293.2 383.3 295.3 386.6 L 295.2 386.6 Z" stroke-linecap="round" />
</g>
<g transform="matrix(1.41 0 0 1.41 498.87 299.83)"  >
<path style="stroke: none; stroke-width: 1; stroke-dasharray: none; stroke-linecap: butt; stroke-dashoffset: 0; stroke-linejoin: miter; stroke-miterlimit: 4; fill: rgb(255,255,255); fill-rule: nonzero; opacity: 1;" vector-effect="non-scaling-stroke"  transform=" translate(-293.65, -142.5)" d="M 325.3 18.3 C 341.40000000000003 21.2 357.6 23.8 373.90000000000003 26.200000000000003 C 395.20000000000005 26.1 416.50000000000006 26.900000000000002 438 28.800000000000004 C 459.5 32.2 472.8 37.7 488.9 53.900000000000006 C 495.9 60.900000000000006 505.09999999999997 74.4 503.59999999999997 85.9 C 499.79999999999995 116.2 460.09999999999997 135.8 438.59999999999997 144.3 C 445.99999999999994 142.9 453.49999999999994 141.5 460.99999999999994 140.10000000000002 C 475.3999999999999 141.10000000000002 489.59999999999997 143.50000000000003 503.79999999999995 147.3 C 516.8 147.9 529.8 148.9 542.8 150.4 C 553.8 152.70000000000002 567.3 159.1 571.5 172.3 L 571.5 186.3 C 569.2 188.9 567.9 192.10000000000002 565.4 194.60000000000002 C 553.8 205.90000000000003 540.1999999999999 208.70000000000002 526.4 213.10000000000002 C 507 219.40000000000003 495.09999999999997 227.40000000000003 474.09999999999997 220.20000000000002 C 453.09999999999997 213 463.2 214.20000000000002 461.79999999999995 214.3 C 460.3999999999999 214.4 456.99999999999994 217.10000000000002 455.69999999999993 217.60000000000002 C 449.0999999999999 220.3 442.19999999999993 222.70000000000002 435.3999999999999 224.3 C 435.2999999999999 225.5 436.69999999999993 224.9 437.2999999999999 225 C 448.1999999999999 225.5 461.7999999999999 224 471.2999999999999 230.9 C 482.6999999999999 239.1 477.4999999999999 245.9 467.9999999999999 251.1 C 458.4999999999999 256.3 451.6999999999999 257 443.1999999999999 259.3 C 432.89999999999986 262 426.89999999999986 264.90000000000003 415.7999999999999 262.90000000000003 C 412.5999999999999 262.3 407.5999999999999 259.70000000000005 405.1999999999999 259.70000000000005 C 400.9999999999999 259.70000000000005 390.4999999999999 264.70000000000005 385.09999999999985 265.6 C 379.09999999999985 266.6 370.6999999999999 267.1 364.59999999999985 266.3 C 355.89999999999986 265.2 335.99999999999983 258.1 327.79999999999984 253.8 C 320.59999999999985 250 316.79999999999984 245.4 325.59999999999985 239.60000000000002 C 334.39999999999986 233.80000000000004 342.99999999999983 231.60000000000002 350.1999999999999 231.00000000000003 C 357.3999999999999 230.40000000000003 354.1999999999999 231.80000000000004 355.59999999999985 231.60000000000002 C 357.89999999999986 231.20000000000002 360.59999999999985 228.40000000000003 362.6999999999999 227.40000000000003 C 372.39999999999986 222.90000000000003 378.2999999999999 223.30000000000004 388.2999999999999 224.10000000000002 C 389.1999999999999 224.10000000000002 389.6999999999999 224.3 389.9999999999999 223.00000000000003 C 387.4999999999999 222.30000000000004 384.0999999999999 221.00000000000003 381.7999999999999 219.80000000000004 C 374.3999999999999 215.80000000000004 369.0999999999999 213.50000000000003 361.5999999999999 210.00000000000003 C 354.0999999999999 206.50000000000003 337.3999999999999 198.30000000000004 335.2999999999999 188.20000000000002 C 333.7999999999999 180.70000000000002 339.2999999999999 177.10000000000002 343.3999999999999 173.20000000000002 L 345.49999999999994 172.3 C 341.79999999999995 172.8 338.19999999999993 172.20000000000002 334.59999999999997 172.3 C 331 172.4 327.59999999999997 173.10000000000002 324.59999999999997 173.10000000000002 C 321.59999999999997 173.10000000000002 321.09999999999997 171.20000000000002 319.59999999999997 171.10000000000002 C 308.79999999999995 170.40000000000003 299.99999999999994 168.60000000000002 289.7 163.60000000000002 C 279.40000000000003 158.60000000000002 286.09999999999997 161.90000000000003 283.2 160.8 C 278.7 159.10000000000002 276.7 154.3 271.5 159.8 C 271.2 161 269.4 160.3 269.3 159.10000000000002 C 266.40000000000003 158.40000000000003 263.3 158.40000000000003 260.40000000000003 159.10000000000002 C 260.3 159.50000000000003 260.20000000000005 159.8 259.90000000000003 160.00000000000003 C 259.6 160.40000000000003 252.10000000000002 162.10000000000002 250.90000000000003 162.40000000000003 C 248.80000000000004 164.30000000000004 246.60000000000002 166.30000000000004 244.20000000000005 168.20000000000005 C 242.60000000000005 170.40000000000003 241.00000000000006 172.10000000000005 239.20000000000005 173.10000000000005 L 214.90000000000003 180.40000000000006 C 188.30000000000004 185.30000000000007 159.60000000000002 187.20000000000007 133.40000000000003 179.60000000000005 C 132.90000000000003 179.50000000000006 131.70000000000005 178.80000000000004 131.30000000000004 178.40000000000006 C 130.20000000000005 178.80000000000007 129.60000000000005 178.10000000000005 129.40000000000003 176.10000000000005 L 128.60000000000002 177.10000000000005 C 127.50000000000003 178.70000000000005 125.30000000000003 176.60000000000005 124.20000000000002 175.80000000000004 C 123.20000000000002 176.00000000000003 122.90000000000002 175.40000000000003 122.90000000000002 174.30000000000004 L 121.90000000000002 175.20000000000005 C 121.30000000000003 174.80000000000004 119.60000000000002 174.80000000000004 119.20000000000002 174.40000000000003 C 118.80000000000001 174.00000000000003 119.20000000000002 173.40000000000003 119.20000000000002 173.20000000000005 C 118.40000000000002 173.60000000000005 117.70000000000002 173.40000000000003 117.00000000000001 172.50000000000006 C 112.70000000000002 172.00000000000006 112.80000000000001 171.30000000000007 109.70000000000002 169.60000000000005 C 103.10000000000002 165.80000000000004 97.50000000000001 162.90000000000006 90.70000000000002 160.40000000000006 C 83.90000000000002 157.90000000000006 85.40000000000002 157.00000000000006 83.10000000000002 157.90000000000006 C 83.90000000000002 153.60000000000005 80.60000000000002 155.70000000000007 77.80000000000003 155.20000000000007 C 75.00000000000003 154.70000000000007 74.50000000000003 153.10000000000008 72.50000000000003 153.90000000000006 C 71.30000000000003 153.30000000000007 71.30000000000003 148.80000000000007 72.50000000000003 147.90000000000006 C 70.60000000000002 146.60000000000005 70.00000000000003 148.40000000000006 70.60000000000002 153.50000000000006 C 69.80000000000003 155.00000000000006 65.70000000000002 153.30000000000007 65.80000000000003 151.20000000000005 C 65.00000000000003 150.80000000000004 64.50000000000003 150.10000000000005 64.10000000000002 149.20000000000005 C 55.10000000000002 147.00000000000006 46.40000000000002 141.40000000000003 38.50000000000002 136.20000000000005 C 32.30000000000002 132.10000000000005 25.100000000000023 128.40000000000003 20.20000000000002 121.50000000000004 C 18.20000000000002 118.70000000000005 17.60000000000002 115.90000000000005 15.80000000000002 113.10000000000004 L 15.80000000000002 100.40000000000003 C 18.00000000000002 89.40000000000003 27.20000000000002 82.10000000000004 35.70000000000002 78.70000000000003 C 39.20000000000002 75.00000000000003 42.40000000000002 72.30000000000003 47.100000000000016 70.70000000000003 C 66.50000000000001 59.70000000000003 87.80000000000001 49.20000000000003 109.70000000000002 48.900000000000034 C 113.90000000000002 48.900000000000034 118.90000000000002 48.900000000000034 122.60000000000002 51.000000000000036 C 148.90000000000003 33.400000000000034 175.70000000000002 15.600000000000037 208.00000000000003 19.200000000000035 C 214.40000000000003 19.000000000000036 220.70000000000002 19.000000000000036 226.20000000000002 22.300000000000036 C 231.8 20.800000000000036 237.50000000000003 19.500000000000036 243.20000000000002 18.300000000000036 L 325.5 18.300000000000036 L 325.3 18.300000000000036 Z" stroke-linecap="round" />
</g>
</svg>