<?xml version="1.0" encoding="UTF-8"?>
<svg id="Layer_1" xmlns="http://www.w3.org/2000/svg" version="1.1" viewBox="0 0 540 700">
  <!-- Generator: Adobe Illustrator 29.1.0, SVG Export Plug-In . SVG Version: 2.1.0 Build 142)  -->
  <defs>
    <style>
      .st0 {
        fill: #fff;
      }
    </style>
  </defs>
  <path class="st0" d="M81.6,288.8c2-1.1.4-.8-.2-1.5-6.9-7.9-9-16.7,1.3-27.5,3.9-3.7,14.9-17.2,28.6-26.8,1-.7,1.5-1,1.5-1,0,0,92.2-61.9,162.6-64.7,9.3,1.5,15.3,8.5,12.9,18.7,3.9,0,9.8-16,10.2-19.4,3.4-23.9-3.6-30.7-25.4-34.6-2.5-.4-5.7.8-7.6-1-4.6-5.1-3.9-11.7-9.4-15.6-4.6-3-11.2-3.3-17.1-3.8l-16.3,1.8c-37.8,7.2-93.9,32.7-125.5,62v-.5c-9.1,8.3-20.5,22.5-17.2,32.4,30.5-25.5,50.9-33.1,69.1-42.2,7.7-4,22.3-4,21.7-2.6-18.2,7.6-12.7,5.2-15.8,7-31,16.4-86.5,47.6-96.5,81.5-1.2,4.9-2.4,19.4-1.1,23.3,3,9.2,13.8,13.6,24.1,14.5Z"/>
  <path class="st0" d="M161.6,250.4c0-.2.2-.4.4-.4h-.6c.2,0,.2.4.2.4Z"/>
  <path class="st0" d="M502,411.4c-6-33.7-24.6-62.7-52.3-81.6-3.9-2.9-8.5-6.3-12.2-9.1-17.7-13.3-40.3-30.1-62.6-45.5-16-11-30.8-22.2-47.2-32.3-9.1-5.4-19.5-12-29.9-15.6-5.3-1.8-13.1-4-19.3-5.8-4.9-1.7-9.5-2.1-14.6-2.7-43.5-5.2-80.9,44.5-97,79.5-3.7,8.5-5.6,19.6-10,27.3-3.6,6.7-11.5,10.6-17.1,15.2-2.3,1.7-3.4,4.5-4.8,6.9-.4.6-1,.9-1.7,1.1-1.7.3-4.6,0-7.3,1.5-1.4.7-2.7,1.8-3.6,3-3.7,4.7-2,10.8,2.4,15,3.7,3.6,9.1,5.7,14,4.4.8-.2,1.7-.4,2.4-.4,1.9,0,1.4,2.4,1.3,3.8-2.6,23.7-6,47.4-2.9,71.3-.4,10.7-14.5,4.9-20.8,3.1-9-3-20.5-7.6-29.8-11.6-10.4-4.5-21.7-16.7-31-3.2-4.9,7.4-12.6,20.5-17.4,28.9-3.4,5.5-10.2,17.5.6,18.2,7.8.4,14.2-2.2,20.4-6.8,3.4-1.5,15.8-18.8,18.6-12,1,2.2,1.3,4.7,3.2,6.2,8.2,6,30,19.7,43,25.1,6.6,2.6,12.3,3.7,19.5,2.5,2.3-.4,4.6,0,5.8,2.1,7.4,17.9,18.6,29.9,35.6,33.3,2.9.6,6.8,1.5,9.5,1.8,3.2.3,6.6-.2,10,0,15.4.6,30.2,1.7,50.2,3.8,35.7,4,69.6,6.2,105.7,7.6,10.4.4,22.1,1.2,32,1.2,13.2,0,27-1.8,39.9-5.5,24.8-7.4,36.8-21.4,50.2-41.4,5.9-8.6,10.5-15.7,13.6-24.8,5-14.1,7.8-40.8,3.4-64.3v-.2ZM41.7,477.4c-.5,1.1-2.1,2.5-3.1,2.4-4.4-.3,23.4-37.5,25.3-41.7.8-1.5,4.6-4,5.4-4.4,0,0,.1,0,0,0-2.4,3.8-9.4,14.7-13.1,20.5-4.6,7.4-11.3,17.2-14.6,23.1h0ZM304.9,278.1c.7.6,1.1,1.6,1.4,2.5.9,4.1,1.7,8.2,2.2,12.2.1,1,.3,2.2-.4,3-1.7,1.3-4.6.8-6.4,2.2-5.4,3.4-3.6,13-7.1,16.9-1.8,1.8-4.2,2.6-6.5,3.7-2.8,1.1-5.6,2.5-8.5,2.8-3.2,0-6.5-2.2-10.1-3.3-2.4-.6-3.6-2.5-3.3-5,1.1-20.3,14.5-37.5,34.8-36.2,1.3,0,2.9.3,3.8,1.2h.1ZM301.3,309.8c-.7-2.7,1.9-6.6,3.6-8.7,1.2-1.4,3.1-1,4.1.7,1,1.6.8,3.7,1,5.6.2,5.6,0,11.4-.3,17.1.4,9-16.6,8.3-21.4,4.2-2.3-1.7-.8-3.3,1.1-4.5,4.4-2.9,8.5-6.9,13-8,1.2-.3,3.5-1,2.8-2.6-.7-1.4-3.2-2.3-3.7-3.6h0ZM271.2,323.8c12.6,4.8,22.6,13.7,33.2,21.7.7.8.8,1.7.6,3.1-.4,3.4-1.2,10.2-1.8,14.9-.3,2.2-.5,3.9-.6,4.7-.1.7-.2.9-.8.6-3.6-1.7-31.5-15.2-41.2-19.8-.3,0-.6-.2-.6.2.7,3.2,4.8,6.8,5.6,11.2,1.1,5-4.3,7.3-7.3,10.4-1.7,1.5-3.5,3-5.2,4.5-6,5.6-10.4,12.8-16,18.9-1.2,1.4-2.3,2.5-3.2,3.3-1.2,1-1.7,1.4-3,1-6.3-1.7-39.6-10.7-52.5-14.3-1.3-.4,1-3,2.9-5.7,7.4-9.9,24.9-29.9,30.6-36.2,17.5-19.6,32.6-29.5,59.2-18.6h.2ZM193.3,313.9c12.6.2,25.9,3.7,38.6,3.5,2.9.2-.7,2.3-2.3,3.9-2.1,1.9-4.3,4-6.5,6-3.7,3.1-6.5,6.6-11.2,7.4-10.4,1.5-24.2-5.7-34.3,1.8-6.3,4.1-13,10.1-19.1,14.5-2.4,1.7-4.5,3.1-6.1,3.6-1.4.4-2.1,0-3.6-1.2-1.5-1.2-3.9-3.2-5.5-4.6-.6-.5-1.2-1.1-1.5-1.7-.3-1,.9-1.8,1.7-2.4,14.6-10.6,29.4-30.5,49.6-30.7h.2ZM132.7,362.2c.9-.4,2.9,1.2,4.4,1.5,3.4.7,5.6-3.3,4.5-6.2-.7-3.1-3.1-5.4-3.9-6.5-.6-.8.3-.6.9-.4,15.3,5.1.2,29-5.7,13.1-.3-.7-.4-1.3-.2-1.5h0ZM80.6,456.6c-.1-.6.8-1.3,1.7-2.8,1.7-2.3,3.5-5.4,5.3-7.5.9-.5,2.8,0,3.9-.1.6,0,1.9-.1,1.6.6-1.1,1.8-6.2,9.8-7.6,11.9-.4.4-.6.2-1.2,0-.8-.4-2.9-1.3-3.6-1.9h0ZM162.7,478.9c-6.5,6.9-15.1,16.1-25.4,14.9-1.7-.2-2.7-.7-4.2-1.4-3.2-1.4-8-3.7-13.4-6.4-13.6-6.9-29.5-14.6-33.3-18.4-1.5-4.3,3.5-10.3,6.8-14.6,2.1-2.2,3.1-4.7,5.6-4.3,6.3.8,30.2,13,40.3,9.6,6.3-4.3,15-22.1,18.2-30.4,1.3-4.4,4.1.4,5.5,2.3,1.9,2.7,3.6,5.6,6,7.7,4.6,4.3,9.9,6.7,15.7,9,2.7,1.1,3.1,2.4,1,4.6-8.1,8.5-14.5,18.7-22.5,27.2h-.1ZM175.6,436.9c-13.9-10.8-13.4-28.3-7.1-43.8.5-1.3,1.3-3.2,2.1-3.8.3-.2.5-.3.9-.3,5.6.3,27,5.8,38,8.6,16.1,4.2,34.9,8.4,50.4,13.9,7.8,2.7,22,9.1,21.7,18.3-1.7,6-4.8,11.7-8,17.1-3.9,6.9-5.3,4.9-9-.2-4.5-6.1-12.4-10.5-20.1-9.8-22.2,2.8-48.7,16.4-68.7.2h-.2ZM489.2,474.7c-4.4,11.4-13.2,22.5-20.6,32.7-21.5,30.7-62.2,32.2-97.6,29.6-38.5-1.8-65.9-2.9-112-7.9-16-1.4-38.5-4.4-56-3.9-.9,0-1.8,0-2.6,0-.4,0-.7-.2-.8-.4-.1-.4.5-1,1.5-1.8,4.6-3.5,9.7-7.2,14.7-10.9,27.3-20.4,56.2-40.6,70.7-70.4,3.5-7.5,6.5-14.3,9.8-22.5,21.1-54.2,36.6-121.6,5.5-177.5-1.9-3.1-.4-2.8,2.2-1.3,18,9.4,33.7,20.3,50.1,31.9,24.5,17,54.9,38.7,75.4,54.3,8.6,6.7,17.4,12.5,25.1,19,39.5,34.4,47.6,87,34.5,128.9h0Z"/>
</svg>